<svg viewBox="0 0 20 20" fill="none" xmlns="http://www.w3.org/2000/svg">
<path d="M5.46274 18.124C4.61294 18.1229 3.79809 17.7856 3.19619 17.1857C2.59427 16.5858 2.2542 15.7722 2.25024 14.9223V8.38483C2.25201 8.01057 2.34043 7.64176 2.50857 7.30735C2.67672 6.97294 2.92002 6.68202 3.2194 6.45736L8.1194 2.52569C8.65049 2.10281 9.30924 1.87256 9.98816 1.87256C10.667 1.87256 11.3258 2.10281 11.8569 2.52569L16.7927 6.46736C17.0862 6.69112 17.325 6.97882 17.4907 7.30861C17.6565 7.6384 17.745 8.00162 17.7494 8.37067V14.929C17.7435 15.7786 17.4021 16.5914 16.7996 17.1905C16.1972 17.7896 15.3823 18.1262 14.5327 18.1273H5.46274V18.124ZM9.99024 3.12403C9.59358 3.12416 9.20858 3.25837 8.89774 3.50486L3.9869 7.44486C3.83785 7.55422 3.71628 7.69676 3.63181 7.86121C3.54734 8.02566 3.5023 8.2075 3.50024 8.39233V14.9215C3.50376 15.4407 3.71237 15.9375 4.08061 16.3036C4.44884 16.6696 4.94684 16.8752 5.46607 16.8757H14.5294C15.0492 16.8757 15.5478 16.6703 15.9168 16.3043C16.2858 15.9383 16.4952 15.4412 16.4994 14.9215V8.37733C16.4957 8.19707 16.4512 8.01997 16.369 7.85943C16.2869 7.6989 16.1693 7.55913 16.0252 7.45069L11.0786 3.49903C10.7687 3.25428 10.3852 3.12153 9.99024 3.12236V3.12403Z" fill="currentColor"/>
<path d="M12.1533 18.1245C11.9875 18.1245 11.8285 18.0587 11.7113 17.9414C11.5941 17.8242 11.5283 17.6652 11.5283 17.4995V12.7178C11.5279 12.6601 11.5162 12.603 11.4937 12.5498C11.4713 12.4966 11.4385 12.4483 11.3974 12.4078C11.3088 12.3317 11.1981 12.2862 11.0816 12.2778H8.91492C8.79775 12.2789 8.68567 12.326 8.60292 12.4089C8.52017 12.4918 8.47325 12.604 8.47242 12.7212V17.4995C8.47242 17.6652 8.40659 17.8242 8.28935 17.9414C8.17214 18.0587 8.01317 18.1245 7.84741 18.1245C7.68165 18.1245 7.52268 18.0587 7.40547 17.9414C7.28826 17.8242 7.22241 17.6652 7.22241 17.4995V12.7178C7.22525 12.2703 7.40433 11.842 7.72083 11.5257C8.03733 11.2093 8.46575 11.0304 8.91325 11.0278H11.0799C11.5281 11.0327 11.9573 11.2092 12.2791 11.5212C12.4377 11.6772 12.5636 11.8632 12.6494 12.0683C12.7353 12.2735 12.7793 12.4937 12.7791 12.7162V17.4995C12.7791 17.5817 12.7629 17.663 12.7314 17.7388C12.6999 17.8147 12.6538 17.8837 12.5958 17.9417C12.5376 17.9997 12.4686 18.0458 12.3927 18.0772C12.3168 18.1085 12.2354 18.1246 12.1533 18.1245Z" fill="currentColor"/>
</svg>
