<svg viewBox="0 0 24 24" fill="none" xmlns="http://www.w3.org/2000/svg">
<path fill-rule="evenodd" clip-rule="evenodd" d="M10.2507 5C10.2507 4.58579 10.5865 4.25 11.0007 4.25H17.0004C17.4146 4.25 17.7504 4.58579 17.7504 5C17.7504 5.41421 17.4146 5.75 17.0004 5.75H11.0007C10.5865 5.75 10.2507 5.41421 10.2507 5ZM6.25 19C6.25 18.5858 6.58579 18.25 7 18.25H13.0005C13.4147 18.25 13.7505 18.5858 13.7505 19C13.7505 19.4142 13.4147 19.75 13.0005 19.75H7C6.58579 19.75 6.25 19.4142 6.25 19Z" fill="currentColor"/>
<path fill-rule="evenodd" clip-rule="evenodd" d="M14.2058 4.2788C14.6041 4.39258 14.8347 4.80769 14.7209 5.20597L10.7213 19.206C10.6075 19.6043 10.1924 19.8349 9.79417 19.7211C9.39589 19.6073 9.16526 19.1922 9.27904 18.7939L13.2786 4.79393C13.3924 4.39565 13.8075 4.16502 14.2058 4.2788Z" fill="currentColor"/>
</svg>
