<svg width="17" height="18" viewBox="0 0 17 18" fill="none" xmlns="http://www.w3.org/2000/svg">
<g clip-path="url(#clip0_880_2942)">
<path d="M13.9594 11.0347C14.0312 11.2083 14.2203 11.5063 14.3298 11.67C14.778 12.3382 15.4542 12.8795 16.2186 13.1397C16.2347 13.1605 16.1375 13.297 16.1257 13.3248H1.48742C1.20301 12.5852 1.01825 11.8489 0.899414 11.0656L13.9594 11.0347Z" fill="#DF3A3E"/>
<path d="M16.1256 13.3247C15.7567 14.1878 15.3798 14.8415 14.8568 15.6148H2.69427C2.21241 14.882 1.8039 14.1479 1.4873 13.3247H16.1256Z" fill="#953D96"/>
<path d="M13.712 8.77558C13.5867 9.48335 13.6873 10.375 13.9596 11.0348L0.899636 11.0657C0.773369 10.2314 0.736231 9.58981 0.83774 8.74463L13.712 8.77558Z" fill="#F5811F"/>
<path d="M14.9501 6.54755C14.359 7.05602 13.8474 8.012 13.7122 8.77579L0.837891 8.74485C0.934138 7.94299 1.12137 7.21169 1.54969 6.5166L14.9501 6.54755Z" fill="#FCB728"/>
<path d="M1.5498 6.5164C2.49248 4.98696 4.23236 3.92235 6.07531 4.23462C6.92018 4.3779 7.74618 4.87988 8.59075 4.93775C9.63678 5.00955 10.5952 4.32313 11.6583 4.19933C13.1296 4.02788 14.7435 4.77063 15.6308 5.94417C15.7502 6.10232 15.6889 6.05713 15.5905 6.11872C15.411 6.23075 15.1019 6.41706 14.9502 6.54735L1.5498 6.5164Z" fill="#65BA47"/>
<path d="M14.8571 15.6152C14.1791 16.6179 13.1993 17.9995 11.8397 18.0001C10.9812 18.0004 10.3369 17.4319 9.51493 17.2901C8.19872 17.063 7.73667 17.4706 6.60986 17.8441C4.75206 18.46 3.59399 16.9837 2.69434 15.6152H14.8568H14.8571Z" fill="#039CDA"/>
<path d="M8.17582 4.37757C7.97094 3.09973 8.66015 1.70832 9.64305 0.915746C10.2571 0.420891 11.0908 0.00773696 11.8883 0C11.9874 0.464527 11.9316 0.98476 11.8088 1.44062C11.4393 2.81378 10.3029 4.04457 8.88545 4.33548C8.77156 4.359 8.23369 4.44937 8.17613 4.37726L8.17582 4.37757Z" fill="#65BA47"/>
</g>
<defs>
<clipPath id="clip0_880_2942">
<rect width="15.4414" height="17.9999" fill="white" transform="translate(0.779297)"/>
</clipPath>
</defs>
</svg>
