<svg width="56" height="56" viewBox="0 0 56 56" fill="none" xmlns="http://www.w3.org/2000/svg">
<rect width="56" height="56" rx="15" fill="#F9FBEB"/>
<path d="M28.5808 30.083H25.9443V33.0359H28.5808V30.083Z" fill="#FB2B3A"/>
<path d="M26.0495 38.2035C26.0495 39.2053 25.2586 39.9963 24.2567 39.9963C23.2548 39.9963 22.4639 39.2053 22.4639 38.2035V30.083H26.1022C26.0495 30.3994 26.0495 37.7816 26.0495 38.2035Z" fill="#3F4751"/>
<path d="M39.2846 23.2275C40.6556 23.2275 41.7629 24.3349 41.7629 25.7059C41.7629 26.3913 41.4993 27.0241 41.0247 27.446C40.6029 27.8678 39.9701 28.1842 39.2846 28.1842H38.8101V23.2275H39.2846Z" fill="#CFE0E9"/>
<path d="M28.6861 20.9606H19.7747V22.2788H18.2982C17.4545 22.2788 16.769 22.9643 16.769 23.808V27.3937C16.769 28.2374 17.4545 28.9229 18.2982 28.9229H19.7747V30.2411H28.6861L38.9157 34.5122V16.6895L28.6861 20.9606Z" fill="#FFD400"/>
<path d="M28.6858 20.9609V30.1887H19.7744V20.9609H28.6858Z" fill="#FAA71A"/>
<path d="M34.2747 40.4176C35.3814 40.4176 36.2785 39.5205 36.2785 38.4139C36.2785 37.3073 35.3814 36.4102 34.2747 36.4102C33.1681 36.4102 32.271 37.3073 32.271 38.4139C32.271 39.5205 33.1681 40.4176 34.2747 40.4176Z" fill="#68CA44"/>
<path d="M17.7709 34.459C18.5091 34.459 19.0891 35.039 19.0891 35.7772C19.0891 36.5155 18.5091 37.0955 17.7709 37.0955C17.0327 37.0955 16.4526 36.5155 16.4526 35.7772C16.4526 35.039 17.0327 34.459 17.7709 34.459Z" fill="#68CA44"/>
<path d="M18.14 15.3184C18.8783 15.3184 19.4583 15.8984 19.4583 16.6366C19.4583 17.3748 18.8783 17.9549 18.14 17.9549C17.4018 17.9549 16.8218 17.3748 16.8218 16.6366C16.8218 15.8984 17.4018 15.3184 18.14 15.3184Z" fill="#68CA44"/>
<path d="M27.3677 22.2793H21.0928V28.8706H27.3677V22.2793Z" fill="#CFE0E9"/>
<path d="M19.7747 22.2783V28.8696H18.2982C17.4545 28.8696 16.769 28.1841 16.769 27.3404V23.7548C16.769 22.9111 17.4545 22.2256 18.2982 22.2256H19.7747V22.2783Z" fill="#FFD400"/>
<path d="M38.8625 34.4595L28.6328 30.1884V20.9606L38.8625 16.6895V34.4595Z" fill="#FFD400"/>
<path d="M41.3408 19.2725C41.6044 19.2725 41.8154 19.4834 41.8154 19.747C41.8154 20.0107 41.6044 20.2216 41.3408 20.2216C41.0771 20.2216 40.8662 20.0107 40.8662 19.747C40.8662 19.5361 41.0771 19.2725 41.3408 19.2725Z" fill="#5CBEFF"/>
<path d="M41.3408 40.7344C41.6044 40.7344 41.8154 40.9453 41.8154 41.2089C41.8154 41.4726 41.6044 41.6835 41.3408 41.6835C41.0771 41.6835 40.8662 41.4726 40.8662 41.2089C40.8662 40.9453 41.0771 40.7344 41.3408 40.7344Z" fill="#5CBEFF"/>
<path d="M32.7993 33.457C33.0629 33.457 33.2738 33.668 33.2738 33.9316C33.2738 34.1953 33.0629 34.4062 32.7993 34.4062C32.5356 34.4062 32.3247 34.1953 32.3247 33.9316C32.3247 33.668 32.4829 33.457 32.7993 33.457Z" fill="#5CBEFF"/>
<path d="M31.7968 14C32.0605 14 32.2714 14.2109 32.2714 14.4746C32.2714 14.7382 32.0605 14.9491 31.7968 14.9491C31.5332 14.9491 31.3223 14.7382 31.3223 14.4746C31.3223 14.2109 31.5332 14 31.7968 14Z" fill="#5CBEFF"/>
<path d="M28.8442 41.0508C29.1079 41.0508 29.3188 41.2617 29.3188 41.5254C29.3188 41.789 29.1079 41.9999 28.8442 41.9999C28.5805 41.9999 28.3696 41.789 28.3696 41.5254C28.3696 41.2617 28.5278 41.0508 28.8442 41.0508Z" fill="#5CBEFF"/>
<path d="M23.8872 16.6367C24.1508 16.6367 24.3617 16.8476 24.3617 17.1113C24.3617 17.3749 24.1508 17.5859 23.8872 17.5859C23.6235 17.5859 23.4126 17.3749 23.4126 17.1113C23.4126 16.8476 23.6235 16.6367 23.8872 16.6367Z" fill="#5CBEFF"/>
<path d="M19.247 39.7324C19.5107 39.7324 19.7216 39.9433 19.7216 40.207C19.7216 40.4706 19.5107 40.6816 19.247 40.6816C18.9834 40.6816 18.7725 40.4706 18.7725 40.207C18.7725 39.9433 18.9834 39.7324 19.247 39.7324Z" fill="#5CBEFF"/>
<path d="M14.6596 24.5459C14.9233 24.5459 15.1342 24.7568 15.1342 25.0205C15.1342 25.2841 14.9233 25.495 14.6596 25.495C14.396 25.495 14.1851 25.2841 14.1851 25.0205C14.1851 24.8095 14.396 24.5459 14.6596 24.5459Z" fill="#5CBEFF"/>
<path d="M37.228 31.8232C37.0698 31.8232 36.9116 31.665 36.9116 31.5068V19.6426C36.9116 19.4844 37.0698 19.3262 37.228 19.3262C37.3862 19.3262 37.5444 19.4844 37.5444 19.6426V31.5068C37.5444 31.665 37.3862 31.8232 37.228 31.8232Z" fill="#FAA71A"/>
<path d="M35.5937 29.8187C35.4355 29.8187 35.2773 29.6605 35.2773 29.5023V21.5927C35.2773 21.4346 35.4355 21.2764 35.5937 21.2764C35.7519 21.2764 35.9101 21.4346 35.9101 21.5927V29.5023C35.9101 29.7132 35.7519 29.8187 35.5937 29.8187Z" fill="#FAA71A"/>
<path d="M26.0495 23.913H22.4111C22.2529 23.913 22.0947 23.7548 22.0947 23.5967C22.0947 23.4385 22.2529 23.2803 22.4111 23.2803H26.0495C26.2077 23.2803 26.3659 23.4385 26.3659 23.5967C26.3659 23.7548 26.2077 23.913 26.0495 23.913Z" fill="white"/>
<path d="M26.0495 25.2314H22.4111C22.2529 25.2314 22.0947 25.0732 22.0947 24.915C22.0947 24.7568 22.2529 24.5986 22.4111 24.5986H26.0495C26.2077 24.5986 26.3659 24.7568 26.3659 24.915C26.3659 25.0732 26.2077 25.2314 26.0495 25.2314Z" fill="white"/>
<path d="M26.0495 26.5498H22.4111C22.2529 26.5498 22.0947 26.3916 22.0947 26.2334C22.0947 26.0752 22.2529 25.917 22.4111 25.917H26.0495C26.2077 25.917 26.3659 26.0752 26.3659 26.2334C26.3659 26.3916 26.2077 26.5498 26.0495 26.5498Z" fill="white"/>
<path d="M26.0495 27.8681H22.4111C22.2529 27.8681 22.0947 27.7099 22.0947 27.5517C22.0947 27.3935 22.2529 27.2354 22.4111 27.2354H26.0495C26.2077 27.2354 26.3659 27.3935 26.3659 27.5517C26.3659 27.7099 26.2077 27.8681 26.0495 27.8681Z" fill="white"/>
<path d="M28.5808 30.083H25.9443V33.0359H28.5808V30.083Z" fill="#FB2B3A"/>
<path d="M26.0495 38.2035C26.0495 39.2053 25.2586 39.9963 24.2567 39.9963C23.2548 39.9963 22.4639 39.2053 22.4639 38.2035V30.083H26.1022C26.0495 30.3994 26.0495 37.7816 26.0495 38.2035Z" fill="#3F4751"/>
<path d="M39.2846 23.2275C40.6556 23.2275 41.7629 24.3349 41.7629 25.7059C41.7629 26.3913 41.4993 27.0241 41.0247 27.446C40.6029 27.8678 39.9701 28.1842 39.2846 28.1842H38.8101V23.2275H39.2846Z" fill="#CFE0E9"/>
<path d="M28.6861 20.9606H19.7747V22.2788H18.2982C17.4545 22.2788 16.769 22.9643 16.769 23.808V27.3937C16.769 28.2374 17.4545 28.9229 18.2982 28.9229H19.7747V30.2411H28.6861L38.9157 34.5122V16.6895L28.6861 20.9606Z" fill="#FFD400"/>
<path d="M28.6858 20.9609V30.1887H19.7744V20.9609H28.6858Z" fill="#FAA71A"/>
<path d="M34.2747 40.4176C35.3814 40.4176 36.2785 39.5205 36.2785 38.4139C36.2785 37.3073 35.3814 36.4102 34.2747 36.4102C33.1681 36.4102 32.271 37.3073 32.271 38.4139C32.271 39.5205 33.1681 40.4176 34.2747 40.4176Z" fill="#68CA44"/>
<path d="M17.7709 34.459C18.5091 34.459 19.0891 35.039 19.0891 35.7772C19.0891 36.5155 18.5091 37.0955 17.7709 37.0955C17.0327 37.0955 16.4526 36.5155 16.4526 35.7772C16.4526 35.039 17.0327 34.459 17.7709 34.459Z" fill="#68CA44"/>
<path d="M18.14 15.3184C18.8783 15.3184 19.4583 15.8984 19.4583 16.6366C19.4583 17.3748 18.8783 17.9549 18.14 17.9549C17.4018 17.9549 16.8218 17.3748 16.8218 16.6366C16.8218 15.8984 17.4018 15.3184 18.14 15.3184Z" fill="#68CA44"/>
<path d="M27.3677 22.2793H21.0928V28.8706H27.3677V22.2793Z" fill="#CFE0E9"/>
<path d="M19.7747 22.2783V28.8696H18.2982C17.4545 28.8696 16.769 28.1841 16.769 27.3404V23.7548C16.769 22.9111 17.4545 22.2256 18.2982 22.2256H19.7747V22.2783Z" fill="#FFD400"/>
<path d="M38.8625 34.4595L28.6328 30.1884V20.9606L38.8625 16.6895V34.4595Z" fill="#FFD400"/>
<path d="M41.3408 19.2725C41.6044 19.2725 41.8154 19.4834 41.8154 19.747C41.8154 20.0107 41.6044 20.2216 41.3408 20.2216C41.0771 20.2216 40.8662 20.0107 40.8662 19.747C40.8662 19.5361 41.0771 19.2725 41.3408 19.2725Z" fill="#5CBEFF"/>
<path d="M41.3408 40.7344C41.6044 40.7344 41.8154 40.9453 41.8154 41.2089C41.8154 41.4726 41.6044 41.6835 41.3408 41.6835C41.0771 41.6835 40.8662 41.4726 40.8662 41.2089C40.8662 40.9453 41.0771 40.7344 41.3408 40.7344Z" fill="#5CBEFF"/>
<path d="M32.7993 33.457C33.0629 33.457 33.2738 33.668 33.2738 33.9316C33.2738 34.1953 33.0629 34.4062 32.7993 34.4062C32.5356 34.4062 32.3247 34.1953 32.3247 33.9316C32.3247 33.668 32.4829 33.457 32.7993 33.457Z" fill="#5CBEFF"/>
<path d="M31.7968 14C32.0605 14 32.2714 14.2109 32.2714 14.4746C32.2714 14.7382 32.0605 14.9491 31.7968 14.9491C31.5332 14.9491 31.3223 14.7382 31.3223 14.4746C31.3223 14.2109 31.5332 14 31.7968 14Z" fill="#5CBEFF"/>
<path d="M28.8442 41.0508C29.1079 41.0508 29.3188 41.2617 29.3188 41.5254C29.3188 41.789 29.1079 41.9999 28.8442 41.9999C28.5805 41.9999 28.3696 41.789 28.3696 41.5254C28.3696 41.2617 28.5278 41.0508 28.8442 41.0508Z" fill="#5CBEFF"/>
<path d="M23.8872 16.6367C24.1508 16.6367 24.3617 16.8476 24.3617 17.1113C24.3617 17.3749 24.1508 17.5859 23.8872 17.5859C23.6235 17.5859 23.4126 17.3749 23.4126 17.1113C23.4126 16.8476 23.6235 16.6367 23.8872 16.6367Z" fill="#5CBEFF"/>
<path d="M19.247 39.7324C19.5107 39.7324 19.7216 39.9433 19.7216 40.207C19.7216 40.4706 19.5107 40.6816 19.247 40.6816C18.9834 40.6816 18.7725 40.4706 18.7725 40.207C18.7725 39.9433 18.9834 39.7324 19.247 39.7324Z" fill="#5CBEFF"/>
<path d="M14.6596 24.5459C14.9233 24.5459 15.1342 24.7568 15.1342 25.0205C15.1342 25.2841 14.9233 25.495 14.6596 25.495C14.396 25.495 14.1851 25.2841 14.1851 25.0205C14.1851 24.8095 14.396 24.5459 14.6596 24.5459Z" fill="#5CBEFF"/>
<path d="M37.228 31.8232C37.0698 31.8232 36.9116 31.665 36.9116 31.5068V19.6426C36.9116 19.4844 37.0698 19.3262 37.228 19.3262C37.3862 19.3262 37.5444 19.4844 37.5444 19.6426V31.5068C37.5444 31.665 37.3862 31.8232 37.228 31.8232Z" fill="#FAA71A"/>
<path d="M35.5937 29.8187C35.4355 29.8187 35.2773 29.6605 35.2773 29.5023V21.5927C35.2773 21.4346 35.4355 21.2764 35.5937 21.2764C35.7519 21.2764 35.9101 21.4346 35.9101 21.5927V29.5023C35.9101 29.7132 35.7519 29.8187 35.5937 29.8187Z" fill="#FAA71A"/>
<path d="M26.0495 23.913H22.4111C22.2529 23.913 22.0947 23.7548 22.0947 23.5967C22.0947 23.4385 22.2529 23.2803 22.4111 23.2803H26.0495C26.2077 23.2803 26.3659 23.4385 26.3659 23.5967C26.3659 23.7548 26.2077 23.913 26.0495 23.913Z" fill="white"/>
<path d="M26.0495 25.2314H22.4111C22.2529 25.2314 22.0947 25.0732 22.0947 24.915C22.0947 24.7568 22.2529 24.5986 22.4111 24.5986H26.0495C26.2077 24.5986 26.3659 24.7568 26.3659 24.915C26.3659 25.0732 26.2077 25.2314 26.0495 25.2314Z" fill="white"/>
<path d="M26.0495 26.5498H22.4111C22.2529 26.5498 22.0947 26.3916 22.0947 26.2334C22.0947 26.0752 22.2529 25.917 22.4111 25.917H26.0495C26.2077 25.917 26.3659 26.0752 26.3659 26.2334C26.3659 26.3916 26.2077 26.5498 26.0495 26.5498Z" fill="white"/>
<path d="M26.0495 27.8681H22.4111C22.2529 27.8681 22.0947 27.7099 22.0947 27.5517C22.0947 27.3935 22.2529 27.2354 22.4111 27.2354H26.0495C26.2077 27.2354 26.3659 27.3935 26.3659 27.5517C26.3659 27.7099 26.2077 27.8681 26.0495 27.8681Z" fill="white"/>
</svg>
