<svg width="24" height="24" viewBox="0 0 24 24" fill="none" xmlns="http://www.w3.org/2000/svg">
<path d="M2.72577 21C2.54243 21 2.37577 20.9542 2.22577 20.8625C2.07577 20.7708 1.9591 20.65 1.87577 20.5C1.79243 20.35 1.7466 20.1875 1.73827 20.0125C1.72993 19.8375 1.77577 19.6667 1.87577 19.5L11.1258 3.5C11.2258 3.33333 11.3549 3.20833 11.5133 3.125C11.6716 3.04167 11.8341 3 12.0008 3C12.1674 3 12.3299 3.04167 12.4883 3.125C12.6466 3.20833 12.7758 3.33333 12.8758 3.5L22.1258 19.5C22.2258 19.6667 22.2716 19.8375 22.2633 20.0125C22.2549 20.1875 22.2091 20.35 22.1258 20.5C22.0424 20.65 21.9258 20.7708 21.7758 20.8625C21.6258 20.9542 21.4591 21 21.2758 21H2.72577ZM4.45077 19H19.5508L12.0008 6L4.45077 19ZM12.0008 18C12.2841 18 12.5216 17.9042 12.7133 17.7125C12.9049 17.5208 13.0008 17.2833 13.0008 17C13.0008 16.7167 12.9049 16.4792 12.7133 16.2875C12.5216 16.0958 12.2841 16 12.0008 16C11.7174 16 11.4799 16.0958 11.2883 16.2875C11.0966 16.4792 11.0008 16.7167 11.0008 17C11.0008 17.2833 11.0966 17.5208 11.2883 17.7125C11.4799 17.9042 11.7174 18 12.0008 18ZM12.0008 15C12.2841 15 12.5216 14.9042 12.7133 14.7125C12.9049 14.5208 13.0008 14.2833 13.0008 14V11C13.0008 10.7167 12.9049 10.4792 12.7133 10.2875C12.5216 10.0958 12.2841 10 12.0008 10C11.7174 10 11.4799 10.0958 11.2883 10.2875C11.0966 10.4792 11.0008 10.7167 11.0008 11V14C11.0008 14.2833 11.0966 14.5208 11.2883 14.7125C11.4799 14.9042 11.7174 15 12.0008 15Z" fill="white"/>
</svg>
