<svg width="56" height="56" viewBox="0 0 56 56" fill="none" xmlns="http://www.w3.org/2000/svg">
<rect width="56" height="56" rx="15" fill="#F9FBEB"/>
<path d="M18.2061 24.2221H16.2883C16.1381 24.2221 15.9829 24.0719 15.9829 23.9166C15.9829 23.7614 16.1331 23.6162 16.2883 23.6162H18.2061C18.3563 23.6162 18.5115 23.7664 18.5115 23.9166C18.5616 24.0668 18.4113 24.2221 18.2061 24.2221Z" fill="#57606F"/>
<path d="M18.2061 26.7455H16.2883C16.1381 26.7455 15.9829 26.5953 15.9829 26.4401C15.9829 26.2849 16.1331 26.1396 16.2883 26.1396H18.2061C18.3563 26.1396 18.5115 26.2899 18.5115 26.4401C18.5616 26.5903 18.4113 26.7455 18.2061 26.7455Z" fill="#57606F"/>
<path d="M39.6615 24.2221H37.7438C37.5936 24.2221 37.4434 24.0719 37.4434 23.9166C37.4434 23.7614 37.5936 23.6162 37.7438 23.6162H39.6615C39.8117 23.6162 39.9619 23.7664 39.9619 23.9166C40.012 24.0668 39.8618 24.2221 39.6615 24.2221Z" fill="#57606F"/>
<path d="M39.6615 26.7455H37.7438C37.5936 26.7455 37.4434 26.5953 37.4434 26.4401C37.4434 26.2849 37.5936 26.1396 37.7438 26.1396H39.6615C39.8117 26.1396 39.9619 26.2899 39.9619 26.4401C40.012 26.5903 39.8618 26.7455 39.6615 26.7455Z" fill="#57606F"/>
<path d="M39.0556 30.1305V37.1454H16.9443V30.1305C16.9443 29.775 17.0945 29.4746 17.3499 29.2242L17.8556 28.7185C18.106 28.4682 18.2612 28.1627 18.2612 27.8122V22.1092C18.2612 19.2802 20.5845 16.9619 23.4085 16.9619H32.6966C35.5256 16.9619 37.8439 19.2852 37.8439 22.1092V27.8122C37.8439 28.1678 37.9941 28.4682 38.2494 28.7185L38.7552 29.2242C38.9054 29.4245 39.0606 29.78 39.0606 30.1305H39.0556Z" fill="#FCD884"/>
<path d="M37.1377 39.6689V42.1925C37.1377 43.254 36.2815 44.1102 35.22 44.1102C34.1585 44.1102 33.3022 43.254 33.3022 42.1925V39.6689H37.1377Z" fill="#3E3E3F"/>
<path d="M39.6613 37.1455V39.6691H37.1378H33.3474H23.2532H19.4678H16.3384V37.1455H16.9442H39.0555H39.6613Z" fill="#57606F"/>
<path d="M23.2534 39.6689V42.1925C23.2534 43.254 22.3972 44.1102 21.3357 44.1102C20.2742 44.1102 19.418 43.254 19.418 42.1925V39.6689H23.2534Z" fill="#3E3E3F"/>
<path d="M21.3858 32.0986C22.0918 32.0986 22.6476 32.6544 22.6476 33.3604C22.6476 34.0664 22.0918 34.6222 21.3858 34.6222C20.6798 34.6222 20.124 34.0664 20.124 33.3604C20.124 32.6544 20.6798 32.0986 21.3858 32.0986Z" fill="#EB9D02"/>
<path d="M35.2701 32.0986C35.9761 32.0986 36.5319 32.6544 36.5319 33.3604C36.5319 34.0664 35.9761 34.6222 35.2701 34.6222C34.5641 34.6222 34.0083 34.0664 34.0083 33.3604C34.0083 32.6544 34.5641 32.0986 35.2701 32.0986Z" fill="#EB9D02"/>
<path d="M27.6947 28.9688H20.124V22.0039H35.8763V28.9688H35.2704H27.6947Z" fill="#E8F9F9"/>
<path d="M32.0859 19.7807H23.9093C23.7591 19.7807 23.6089 19.6304 23.6089 19.4802C23.6089 19.33 23.7591 19.1748 23.9093 19.1748H32.1359C32.2861 19.1748 32.4364 19.325 32.4364 19.4802C32.4364 19.6355 32.2862 19.7807 32.0809 19.7807H32.0859Z" fill="#EABF6A"/>
<path d="M24.5153 34.927C24.3651 34.927 24.2148 34.7767 24.2148 34.6215V31.442C24.2148 31.2918 24.3651 31.1416 24.5153 31.1416C24.6655 31.1416 24.8157 31.2918 24.8157 31.442V34.6215C24.8658 34.8218 24.7156 34.927 24.5153 34.927Z" fill="#2D2D2D"/>
<path d="M26.4327 34.927C26.2825 34.927 26.1323 34.7767 26.1323 34.6215V31.442C26.1323 31.2918 26.2825 31.1416 26.4327 31.1416C26.583 31.1416 26.7382 31.2918 26.7382 31.442V34.6215C26.7382 34.8218 26.588 34.927 26.4327 34.927Z" fill="#2D2D2D"/>
<path d="M28.3004 34.927C28.1502 34.927 28 34.7767 28 34.6215V31.442C28 31.2918 28.1502 31.1416 28.3004 31.1416C28.4506 31.1416 28.6059 31.2918 28.6059 31.442V34.6215C28.6559 34.8218 28.5057 34.927 28.3004 34.927Z" fill="#2D2D2D"/>
<path d="M30.2184 34.927C30.0682 34.927 29.918 34.7767 29.918 34.6215V31.442C29.918 31.2918 30.0682 31.1416 30.2184 31.1416C30.3686 31.1416 30.5238 31.2918 30.5238 31.442V34.6215C30.5238 34.8218 30.3736 34.927 30.2184 34.927Z" fill="#2D2D2D"/>
<path d="M32.0857 34.927C31.9355 34.927 31.7803 34.7767 31.7803 34.6215V31.442C31.7803 31.2918 31.9305 31.1416 32.0857 31.1416C32.2409 31.1416 32.3861 31.2918 32.3861 31.442V34.6215C32.4362 34.8218 32.286 34.927 32.0857 34.927Z" fill="#2D2D2D"/>
<path d="M34.2586 26.8957C34.2086 26.8457 34.1585 26.7956 34.1084 26.7455L29.6671 25.4837C29.5169 25.4337 29.3116 25.5338 29.2616 25.684C29.2115 25.8342 29.3116 26.0395 29.4618 26.0896L33.7529 27.3013L34.8144 28.9186H35.5204C35.5204 28.8685 35.5204 28.8184 35.4703 28.7684L34.2586 26.9007V26.8957Z" fill="#CCE5E4"/>
<path d="M26.6878 26.8908L27.3938 27.9023L27.9496 28.9137H27.2436L26.1821 27.2964L21.891 26.0847C21.7408 26.0346 21.6407 25.8293 21.6908 25.6791C21.7408 25.5289 21.9461 25.4288 22.0963 25.4788L26.5376 26.7406L26.6878 26.8908Z" fill="#CCE5E4"/>
<path d="M16.3385 26.4445V27.0504H13.8149V22.6592H16.3385V23.921V26.4445Z" fill="#FFD8A8"/>
<path d="M42.1852 22.6592V27.0504H39.6616V26.4445V23.921V22.6592H42.1852Z" fill="#FFD8A8"/>
<path d="M38.7595 11.8906C39.7688 11.8906 40.5829 12.7095 40.5829 13.7141C40.5829 14.7186 39.764 15.5375 38.7595 15.5375C37.7549 15.5375 36.936 14.7186 36.936 13.7141C36.936 12.7095 37.7549 11.8906 38.7595 11.8906Z" fill="#FF7D46"/>
<path d="M20.7584 13.1377C21.4297 13.1377 21.9581 13.6662 21.9581 14.3375C21.9581 15.0088 21.4297 15.5372 20.7584 15.5372C20.0871 15.5372 19.5586 15.0088 19.5586 14.3375C19.5586 13.6662 20.0871 13.1377 20.7584 13.1377Z" fill="#FF7D46"/>
<path d="M34.3935 14.4803C34.1554 14.2422 33.7698 14.2422 33.5317 14.4803C33.4365 14.5755 33.3413 14.766 33.3413 14.9135C33.3413 15.0611 33.3889 15.204 33.5317 15.3468C33.6746 15.4896 33.8174 15.5372 33.965 15.5372C34.1126 15.5372 34.2507 15.4896 34.3982 15.3468C34.4935 15.2516 34.5887 15.0611 34.5887 14.9135C34.5887 14.766 34.4935 14.6279 34.3982 14.4803H34.3935Z" fill="#30C930"/>
<path d="M29.0142 12.6981C28.919 12.7933 28.8237 12.9885 28.8237 13.1313C28.8237 13.2741 28.8713 13.417 29.0142 13.5646C29.1094 13.6598 29.2998 13.755 29.4474 13.755C29.595 13.755 29.7331 13.7074 29.8807 13.5646C29.9759 13.4693 30.0711 13.2741 30.0711 13.1313C30.0711 12.9885 30.0235 12.8457 29.8807 12.6981C29.6426 12.46 29.257 12.46 29.0189 12.6981H29.0142Z" fill="#30C930"/>
<path d="M25.0039 14.4807C24.8611 14.6235 24.8135 14.7664 24.8135 14.914C24.8135 15.0616 24.8611 15.2044 25.0039 15.3472C25.0991 15.4424 25.2896 15.5377 25.4372 15.5377C25.5848 15.5377 25.7228 15.49 25.8704 15.3472C25.9656 15.252 26.0608 15.0616 26.0608 14.914C26.0608 14.7664 26.0132 14.6283 25.8704 14.4807C25.5848 14.2903 25.2467 14.2903 25.0087 14.4807H25.0039Z" fill="#30C930"/>
<path d="M15.5259 13.9051C15.4307 14.0003 15.3354 14.1908 15.3354 14.3383C15.3354 14.4859 15.3831 14.624 15.5259 14.7716C15.6211 14.8668 15.8115 14.962 15.9591 14.962C16.1067 14.962 16.2448 14.9144 16.3924 14.7716C16.4876 14.6764 16.5828 14.4859 16.5828 14.3383C16.5828 14.1908 16.5352 14.0527 16.3924 13.9051C16.1543 13.6671 15.7687 13.6671 15.5306 13.9051H15.5259Z" fill="#30C930"/>
</svg>
