<svg width="23" height="18" viewBox="0 0 23 18" fill="none" xmlns="http://www.w3.org/2000/svg">
<path d="M22.8112 2.06866V6.80433C22.8112 7.88062 21.9415 8.74165 20.8566 8.74165H19.8148L21.1623 10.8942L16.8141 9.12911V9.08606C16.8141 8.00977 15.9445 7.14874 14.8596 7.14874H6.72713C6.72713 7.06264 6.68408 6.93348 6.68408 6.80433V2.06866C6.68408 0.992377 7.55372 0.131348 8.63862 0.131348H20.8136C21.8985 0.131348 22.8155 0.992377 22.8155 2.06866H22.8112Z" fill="#F05023"/>
<path d="M20.0689 4.43652C20.3745 4.43652 20.6328 4.69483 20.6328 4.99619C20.6328 5.29755 20.3702 5.55586 20.0689 5.55586C19.7675 5.55586 19.5049 5.29755 19.5049 4.99619C19.5479 4.65178 19.7675 4.43652 20.0689 4.43652Z" fill="white"/>
<path d="M13.5465 3.36031H9.71925C9.41358 3.36031 9.15527 3.102 9.15527 2.80064C9.15527 2.49928 9.41789 2.24097 9.71925 2.24097H13.5465C13.8522 2.24097 14.1105 2.49928 14.1105 2.80064C14.1105 3.102 13.8479 3.36031 13.5465 3.36031Z" fill="white"/>
<path d="M18.463 5.51289H9.76661C9.46095 5.51289 9.20264 5.25459 9.20264 4.95323C9.20264 4.65186 9.46525 4.39355 9.76661 4.39355H18.463C18.7687 4.39355 19.027 4.65186 19.027 4.95323C18.9839 5.25459 18.7213 5.51289 18.463 5.51289Z" fill="white"/>
<path d="M9.37508 14.0801L9.41813 14.1231H9.33203L9.37508 14.0801Z" fill="#94D4FF"/>
<path d="M17.6841 13.7787C17.6841 14.855 16.8101 15.716 15.7252 15.716H7.59385L2.33295 17.8686L3.68047 15.716H2.63862C1.55372 15.716 0.684082 14.855 0.684082 13.7787V9.04303C0.684082 7.96674 1.55372 7.10571 2.63862 7.10571H15.7726C16.8575 7.10571 17.7271 7.96674 17.7271 9.04303C17.6841 9.64575 17.6841 13.219 17.6841 13.7787Z" fill="#F5AA1E"/>
<path d="M12.6819 8.44043L14.7699 14.0802H13.3794L12.9445 12.8317H11.1622L10.7274 14.0802H9.42294L9.37988 14.0371L11.4679 8.44043H12.6862H12.6819ZM12.725 11.9707L12.0706 9.94723L11.3732 11.9276H12.7207V11.9707H12.725Z" fill="white"/>
<path d="M9.42285 14.0802V14.1232H8.24754L7.94187 13.8219C7.72662 13.951 7.50705 14.0371 7.2918 14.0802C7.07223 14.1232 6.81393 14.1663 6.55131 14.1663C6.11649 14.1663 5.72472 14.0802 5.37601 13.908C5.02729 13.7358 4.72162 13.5205 4.46331 13.2622C4.2007 13.0039 4.02849 12.7025 3.89934 12.3581C3.77019 12.0137 3.68408 11.6693 3.68408 11.2818C3.68408 10.8944 3.77019 10.55 3.89934 10.2055C4.02849 9.86113 4.24806 9.55977 4.50637 9.30146C4.76898 9.04315 5.07034 8.82789 5.41906 8.65569C5.76777 8.48348 6.15954 8.44043 6.55131 8.44043C6.98613 8.44043 7.3779 8.52653 7.72662 8.69874C8.07533 8.87094 8.37669 9.0862 8.63931 9.34451C8.90192 9.60282 9.07413 9.90418 9.20328 10.2486C9.33244 10.593 9.41854 10.9374 9.41854 11.2818C9.41854 11.6262 9.37549 11.9707 9.24633 12.3151C9.11718 12.6595 8.94067 12.9178 8.68236 13.2191L9.42285 14.0802ZM7.94618 11.7984C7.98923 11.6262 7.98923 11.454 7.98923 11.2818C7.98923 11.0666 7.94618 10.8513 7.90313 10.6361C7.86008 10.4208 7.73092 10.2486 7.59746 10.0764C7.46831 9.90418 7.2918 9.77503 7.11959 9.68892C6.94738 9.60282 6.72782 9.55977 6.46951 9.55977C6.21121 9.55977 5.99164 9.60282 5.81513 9.68892C5.64293 9.77503 5.46641 9.90418 5.33726 10.0764C5.2081 10.2486 5.122 10.4208 5.07464 10.6361C5.03159 10.8513 4.98854 11.0666 4.98854 11.2818C4.98854 11.4971 5.03159 11.7123 5.07464 11.9276C5.1177 12.1429 5.24685 12.3151 5.38031 12.4873C5.50946 12.6595 5.64292 12.7886 5.85818 12.8747C6.03039 12.9608 6.24995 13.0039 6.50826 13.0039C6.72782 13.0039 6.90003 12.9608 7.07223 12.9178L6.15954 11.8845H7.3779L7.72662 12.272C7.85577 12.1429 7.89882 11.9707 7.94187 11.7984H7.94618Z" fill="white"/>
</svg>
