<svg width="56" height="56" viewBox="0 0 56 56" fill="none" xmlns="http://www.w3.org/2000/svg">
<rect width="56" height="56" rx="15" fill="#F9FBEB"/>
<path d="M17.4875 41.5115H35.1507C36.6885 41.5115 37.9359 40.2641 37.9359 38.7263V17.2734C37.9359 15.7357 36.6885 14.4883 35.1507 14.4883H17.4875V41.5115Z" fill="#FFB434"/>
<path d="M35.4889 19.9111H24.6863V24.7102H35.4889V19.9111Z" fill="#009483"/>
<path d="M40.288 16.9355C40.626 16.9355 40.9117 17.2212 40.9117 17.5592C40.9117 17.8973 40.626 18.1829 40.288 18.1829C39.95 18.1829 39.6643 17.8973 39.6643 17.5592C39.7119 17.1736 39.95 16.9355 40.288 16.9355Z" fill="#8EC155"/>
<path d="M39.9445 28.1094C40.2825 28.1094 40.5682 28.395 40.5682 28.7331C40.5682 29.0711 40.2825 29.3567 39.9445 29.3567C39.6065 29.3567 39.3208 29.0711 39.3208 28.7331C39.3684 28.3474 39.6065 28.1094 39.9445 28.1094Z" fill="#8EC155"/>
<path d="M39.7118 36.1367C40.0499 36.1367 40.3355 36.4224 40.3355 36.7604C40.3355 37.0984 40.0499 37.3841 39.7118 37.3841C39.3738 37.3841 39.0881 37.0937 39.0881 36.7604C39.0881 36.3748 39.3738 36.1367 39.7118 36.1367Z" fill="#8EC155"/>
<path d="M34.289 27.7383C34.627 27.7383 34.9127 28.0239 34.9127 28.362C34.9127 28.7 34.627 28.9857 34.289 28.9857C33.9509 28.9857 33.6653 28.7 33.6653 28.362C33.6653 28.0239 33.9509 27.7383 34.289 27.7383Z" fill="#FFE97A"/>
<path d="M22.2868 39.1104C22.6248 39.1104 22.9105 39.3965 22.9105 39.7351C22.9105 40.0737 22.6248 40.3599 22.2868 40.3599C21.9487 40.3599 21.6631 40.069 21.6631 39.7351C21.7107 39.3965 21.9487 39.1104 22.2868 39.1104Z" fill="#FAF6E9"/>
<path d="M18.6874 16.3115C19.3587 16.3115 19.8872 16.84 19.8872 17.5113C19.8872 17.8493 19.7444 18.135 19.5492 18.373C19.3111 18.6111 19.0207 18.711 18.6874 18.711H16.2879C15.6166 18.711 15.0881 18.1826 15.0881 17.5113C15.0881 17.1733 15.231 16.8876 15.4262 16.6496C15.6214 16.4115 15.9546 16.3115 16.2879 16.3115H18.6874Z" fill="#E94846"/>
<path d="M18.6874 20.5352C19.3587 20.5352 19.8872 21.0636 19.8872 21.7349C19.8872 22.0729 19.7444 22.3586 19.5492 22.5967C19.3111 22.8347 19.0207 22.9347 18.6874 22.9347H16.2879C15.6166 22.9347 15.0881 22.4062 15.0881 21.7349C15.0881 21.3969 15.231 21.1112 15.4262 20.8732C15.6166 20.6351 15.9546 20.5352 16.2879 20.5352H18.6874Z" fill="#E94846"/>
<path d="M18.6874 24.71C19.3587 24.71 19.8872 25.2384 19.8872 25.9097C19.8872 26.2478 19.7444 26.5334 19.5492 26.7715C19.3111 27.0095 19.0207 27.1095 18.6874 27.1095H16.2879C15.6166 27.1095 15.0881 26.581 15.0881 25.9097C15.0881 25.5717 15.231 25.286 15.4262 25.048C15.6166 24.8099 15.9546 24.71 16.2879 24.71H18.6874Z" fill="#E94846"/>
<path d="M18.6874 28.9375C19.3587 28.9375 19.8872 29.466 19.8872 30.1373C19.8872 30.4753 19.7444 30.7609 19.5492 31.0038C19.3111 31.2418 19.0207 31.3418 18.6874 31.3418H16.2879C15.6166 31.3418 15.0881 30.8133 15.0881 30.142C15.0881 29.804 15.231 29.5183 15.4262 29.2803C15.6642 29.0422 15.9546 28.9423 16.2879 28.9423H18.6874V28.9375Z" fill="#E94846"/>
<path d="M18.6874 33.1133C19.3587 33.1133 19.8872 33.6417 19.8872 34.313C19.8872 34.6511 19.7444 34.9367 19.5492 35.1795C19.3111 35.4176 19.0207 35.5128 18.6874 35.5128H16.2879C15.6166 35.5128 15.0881 34.9843 15.0881 34.313C15.0881 33.9798 15.231 33.6894 15.4262 33.4513C15.6642 33.2133 15.9546 33.1133 16.2879 33.1133H18.6874Z" fill="#E94846"/>
<path d="M18.6874 37.3358C19.3587 37.3358 19.8872 37.8643 19.8872 38.5356C19.8872 38.8736 19.7444 39.1593 19.5492 39.3973C19.3111 39.6354 19.0207 39.7353 18.6874 39.7353H16.2879C15.6166 39.7353 15.0881 39.2069 15.0881 38.5356C15.0881 38.1975 15.231 37.9119 15.4262 37.6691C15.6642 37.431 15.9546 37.3311 16.2879 37.3311H18.6874V37.3358Z" fill="#E94846"/>
<path d="M22.2868 38.533C22.6248 38.533 22.9105 38.242 22.9105 37.9082V14.4912H21.6631V37.9559C21.7107 38.242 21.9487 38.533 22.2868 38.533Z" fill="#FAF6E9"/>
<path d="M35.4888 27.1146H24.6862C24.3482 27.1146 24.0625 26.8289 24.0625 26.4909C24.0625 26.1528 24.3482 25.8672 24.6862 25.8672H35.4888C35.8268 25.8672 36.1125 26.1528 36.1125 26.4909C36.1125 26.8765 35.8268 27.1146 35.4888 27.1146Z" fill="#FFE97A"/>
<path d="M32.5133 28.9378H27.7143C27.3762 28.9378 27.0906 28.6521 27.0906 28.3141C27.0906 27.9761 27.3762 27.6904 27.7143 27.6904H32.5133C32.8513 27.6904 33.137 27.9761 33.137 28.3141C33.137 28.6521 32.8513 28.9378 32.5133 28.9378Z" fill="#FFE97A"/>
</svg>
