<svg width="32" height="32" viewBox="0 0 32 32" fill="none" xmlns="http://www.w3.org/2000/svg">
<path d="M18.667 10.6667H5.33366C3.86299 10.6667 2.66699 11.8627 2.66699 13.3334V26.6667C2.66699 28.1374 3.86299 29.3334 5.33366 29.3334H18.667C20.1377 29.3334 21.3337 28.1374 21.3337 26.6667V13.3334C21.3337 11.8627 20.1377 10.6667 18.667 10.6667Z" fill="#002855"/>
<path d="M26.667 2.66675H13.3337C12.6264 2.66675 11.9481 2.9477 11.448 3.4478C10.9479 3.94789 10.667 4.62617 10.667 5.33341V8.00008H21.3337C22.0409 8.00008 22.7192 8.28103 23.2193 8.78113C23.7194 9.28123 24.0003 9.9595 24.0003 10.6667V21.3334H26.667C27.3742 21.3334 28.0525 21.0525 28.5526 20.5524C29.0527 20.0523 29.3337 19.374 29.3337 18.6667V5.33341C29.3337 4.62617 29.0527 3.94789 28.5526 3.4478C28.0525 2.9477 27.3742 2.66675 26.667 2.66675Z" fill="#002855"/>
</svg>
