<svg width="56" height="56" viewBox="0 0 56 56" fill="none" xmlns="http://www.w3.org/2000/svg">
<rect width="56" height="56" rx="15" fill="#F9FBEB"/>
<path d="M40.3752 36.0225C41.196 36.0225 41.8651 36.6868 41.8651 37.5124C41.8651 38.338 41.2008 39.0023 40.3752 39.0023C39.5495 39.0023 38.8853 38.338 38.8853 37.5124C38.8853 36.6868 39.5495 36.0225 40.3752 36.0225Z" fill="#FCD884"/>
<path d="M15.335 38.4234C15.998 38.4234 16.5355 37.8859 16.5355 37.2229C16.5355 36.5599 15.998 36.0225 15.335 36.0225C14.672 36.0225 14.1345 36.5599 14.1345 37.2229C14.1345 37.8859 14.672 38.4234 15.335 38.4234Z" fill="#FCD884"/>
<path d="M18.8513 15.1736C19.3519 15.1249 19.7976 15.4916 19.8462 15.9922C19.8949 16.4928 19.5282 16.9384 19.0276 16.9871C18.527 17.0357 18.0814 16.6691 18.0327 16.1685C17.9841 15.6679 18.3507 15.2222 18.8513 15.1736Z" fill="#FCD884"/>
<path d="M40.5734 18.4873C41.0764 18.4873 41.4844 18.8954 41.4844 19.3983C41.4844 19.9013 41.0764 20.3094 40.5734 20.3094C40.0704 20.3094 39.6624 19.9013 39.6624 19.3983C39.6624 18.8954 40.0704 18.4873 40.5734 18.4873Z" fill="#FCD884"/>
<path d="M28.2258 16.1182C34.8085 16.1182 40.2258 21.4305 40.2258 28.1182C40.2258 34.8058 34.9135 40.1182 28.2258 40.1182C21.5382 40.1182 16.2258 34.8058 16.2258 28.1182C16.2258 21.4305 21.6432 16.1182 28.2258 16.1182Z" fill="#CD2738"/>
<path d="M28.2257 18.2998C33.6115 18.2998 38.0438 22.6463 38.0438 28.118C38.0438 33.5897 33.6974 37.9362 28.2257 37.9362C22.7539 37.9362 18.4075 33.5897 18.4075 28.118C18.4075 22.6463 22.8398 18.2998 28.2257 18.2998Z" fill="#D94556"/>
<path d="M33.2436 27.073C33.5005 27.3298 33.6803 27.7666 33.6803 28.1947C33.6803 29.0595 32.9867 29.7531 32.1219 29.7531H29.7842V32.0052C29.7842 32.4419 29.613 32.7844 29.3475 33.1355C29.0906 33.3924 28.6539 33.5722 28.2258 33.5722C27.3609 33.5722 26.6673 32.8786 26.6673 32.0137V29.6761H24.3297C23.893 29.6761 23.5505 29.5048 23.2079 29.2479C22.9511 28.991 22.7712 28.5543 22.7712 28.1176C22.7712 27.2528 23.4648 26.5592 24.3297 26.5592H26.6673V24.2215C26.6673 23.7934 26.8386 23.4423 27.104 23.0998C27.3609 22.8429 27.7976 22.6631 28.2343 22.6631C29.0992 22.6631 29.7928 23.3567 29.7928 24.2215V26.5592H32.1304C32.5672 26.5592 32.9097 26.7304 33.2607 27.0815L33.2436 27.073Z" fill="white"/>
<path d="M42.4916 31.7471C42.838 31.7471 43.1132 32.027 43.1132 32.3734C43.1132 32.7198 42.8332 32.9997 42.4916 32.9997C42.1499 32.9997 41.8652 32.7198 41.8652 32.3734C41.8652 32.027 42.1452 31.7471 42.4916 31.7471Z" fill="#E3835A"/>
<path d="M36.1665 40.1963C36.5129 40.1963 36.7928 40.4762 36.7928 40.8226C36.7928 41.169 36.5129 41.449 36.1665 41.449C35.8201 41.449 35.5449 41.169 35.5449 40.8226C35.5449 40.4762 35.8249 40.1963 36.1665 40.1963Z" fill="#E3835A"/>
<path d="M24.6036 13.9872C24.9484 13.9537 25.2494 14.2057 25.2829 14.5505C25.3164 14.8953 25.0644 15.1963 24.7244 15.2293C24.3843 15.2624 24.0739 15.0113 24.0408 14.6712C24.0078 14.3312 24.2589 14.0208 24.6036 13.9872Z" fill="#E3835A"/>
<path d="M40.8582 14.6436C41.2045 14.6436 41.4845 14.9235 41.4845 15.2651C41.4845 15.6068 41.2045 15.8915 40.8582 15.8915C40.5118 15.8915 40.2366 15.6115 40.2366 15.2651C40.2366 14.9188 40.5165 14.6436 40.8582 14.6436Z" fill="#E3835A"/>
<path d="M22.0654 40.25C22.4118 40.25 22.6918 40.53 22.6918 40.8763C22.6918 41.2227 22.4118 41.5027 22.0654 41.5027C21.7191 41.5027 21.4438 41.2227 21.4438 40.8763C21.4438 40.53 21.7238 40.25 22.0654 40.25Z" fill="#E3835A"/>
<path d="M17.1144 40.8242C17.4608 40.8242 17.736 41.1042 17.736 41.4506C17.736 41.7969 17.456 42.0721 17.1144 42.0721C16.7727 42.0721 16.488 41.7922 16.488 41.4506C16.488 41.1089 16.768 40.8242 17.1144 40.8242Z" fill="#E3835A"/>
<path d="M14.1519 19.0102C14.4966 18.9767 14.8024 19.2282 14.8354 19.5682C14.8685 19.9083 14.6174 20.2187 14.2726 20.2522C13.9279 20.2858 13.6269 20.0337 13.5933 19.689C13.5598 19.3442 13.8118 19.0432 14.1519 19.0102Z" fill="#E3835A"/>
<path d="M13.5131 33C13.8594 33 14.1346 33.28 14.1346 33.6263C14.1346 33.9727 13.8547 34.2527 13.5131 34.2527C13.1714 34.2527 12.8867 33.9727 12.8867 33.6263C12.8867 33.28 13.1667 33 13.5131 33Z" fill="#E3835A"/>
</svg>
