<svg width="57" height="56" viewBox="0 0 57 56" fill="none" xmlns="http://www.w3.org/2000/svg">
<rect x="0.666504" width="56" height="56" rx="15" fill="#F9FBEB"/>
<path d="M40.9704 16.5879H16.0097C15.2879 16.5879 14.6665 17.1663 14.6665 17.9311V34.4887C14.6665 35.2105 15.2449 35.8319 16.0097 35.8319H40.9704C41.6922 35.8319 42.3136 35.2535 42.3136 34.4887V17.8833C42.3136 17.1615 41.6922 16.5879 40.9704 16.5879Z" fill="#57606F"/>
<path d="M17.1138 18.9873V32.1895H32.7154H39.914V30.3635V18.9873H17.1138Z" fill="#ECF0F1"/>
<path d="M25.5122 22.1565L22.3957 22.9213L19.2744 22.1565L22.3957 21.387L25.5122 22.1565Z" fill="#FFE678"/>
<path d="M25.512 22.1565V25.2252L22.3955 26.0426V22.9213L25.512 22.1565Z" fill="#EABF6A"/>
<path d="M22.3957 22.9213V26.0426L19.2744 25.2252V22.1565L22.3957 22.9213Z" fill="#FCD884"/>
<path d="M17.4008 37.5623C17.8788 37.5623 18.3137 37.9446 18.3137 38.4752C18.3137 38.9532 17.9313 39.3882 17.4008 39.3882C16.8702 39.3882 16.4878 38.958 16.4878 38.4752C16.4878 37.9924 16.8702 37.5623 17.4008 37.5623Z" fill="#D7DEED"/>
<path d="M39.2877 38.762C39.9616 38.762 40.4874 39.2878 40.4874 39.9617C40.4874 40.6357 39.9616 41.1615 39.2877 41.1615C38.6137 41.1615 38.0879 40.6357 38.0879 39.9617C38.0879 39.2878 38.6185 38.762 39.2877 38.762Z" fill="#D7DEED"/>
<path d="M31.5158 39.3881H33.2939C33.6285 39.3881 33.9153 39.5315 34.1591 39.7227C34.3981 39.9139 34.4937 40.2485 34.4937 40.5879C34.4937 41.2618 33.9679 41.7876 33.2939 41.7876H23.6959C23.3613 41.7876 23.0697 41.6442 22.8307 41.453C22.5917 41.214 22.4961 40.9272 22.4961 40.5879C22.4961 39.9139 23.0219 39.3881 23.6959 39.3881H25.5218V35.7888H31.5206V39.3881H31.5158Z" fill="#414A56"/>
<path d="M37.2229 20.9567C37.3185 21.0523 37.4141 21.1957 37.4141 21.3869C37.4141 21.5781 37.3663 21.7215 37.2229 21.8171C37.1273 21.9127 36.9839 22.0083 36.7927 22.0083C36.4581 22.0083 36.1665 21.7215 36.1665 21.3821C36.1665 21.2387 36.2143 21.0475 36.3577 20.9519C36.4533 20.8563 36.5967 20.7607 36.7879 20.7607C36.9791 20.7607 37.1225 20.8563 37.2181 20.9519L37.2229 20.9567Z" fill="#313A52"/>
<path d="M37.2229 22.778C37.3185 22.8736 37.4141 23.017 37.4141 23.2082C37.4141 23.3994 37.3663 23.5428 37.2229 23.6384C37.1273 23.734 36.9839 23.8296 36.7927 23.8296C36.4581 23.8296 36.1665 23.5428 36.1665 23.2034C36.1665 23.06 36.2143 22.8688 36.3577 22.7732C36.4533 22.6776 36.5967 22.582 36.7879 22.582C36.9791 22.582 37.1225 22.6776 37.2181 22.7732L37.2229 22.778Z" fill="#313A52"/>
<path d="M35.4495 22.778C35.5451 22.8736 35.6407 23.017 35.6407 23.2082C35.6407 23.3994 35.5929 23.5428 35.4495 23.6384C35.3539 23.734 35.2105 23.8296 35.0193 23.8296C34.6847 23.8296 34.3979 23.5428 34.3979 23.2034C34.3979 23.06 34.4457 22.8688 34.5891 22.7732C34.6847 22.6776 34.8281 22.582 35.0193 22.582C35.2105 22.582 35.3061 22.6776 35.4495 22.7732V22.778Z" fill="#313A52"/>
<path d="M33.6237 22.778C33.7193 22.8736 33.8149 23.017 33.8149 23.2082C33.8149 23.3994 33.7671 23.5428 33.6237 23.6384C33.5281 23.734 33.3847 23.8296 33.1936 23.8296C32.859 23.8296 32.5674 23.5428 32.5674 23.2034C32.5674 23.06 32.6152 22.8688 32.7586 22.7732C32.8542 22.6776 32.9976 22.582 33.1888 22.582C33.38 22.582 33.5234 22.6776 33.619 22.7732L33.6237 22.778Z" fill="#313A52"/>
<path d="M31.8503 22.778C31.9459 22.8736 32.0415 23.017 32.0415 23.2082C32.0415 23.3994 31.9937 23.5428 31.8503 23.6384C31.7547 23.734 31.6113 23.8296 31.4201 23.8296C31.0855 23.8296 30.7939 23.5428 30.7939 23.2034C30.7939 23.06 30.8417 22.8688 30.9851 22.7732C31.0807 22.6776 31.2241 22.582 31.4153 22.582C31.6065 22.582 31.7021 22.6776 31.8455 22.7732L31.8503 22.778Z" fill="#313A52"/>
<path d="M28.9201 33.5326C29.0157 33.6282 29.1113 33.7716 29.1113 33.9628C29.1113 34.154 29.0635 34.2974 28.9201 34.393C28.8245 34.4886 28.6811 34.5842 28.4899 34.5842C28.1553 34.5842 27.8638 34.2974 27.8638 33.9581C27.8638 33.8147 27.9116 33.6235 28.055 33.5279C28.1506 33.4323 28.294 33.3367 28.4852 33.3367C28.6764 33.3367 28.8198 33.4323 28.9154 33.5279L28.9201 33.5326Z" fill="#414A56"/>
<path d="M36.3148 42.3612H20.7131C20.3785 42.3612 20.0869 42.0744 20.0869 41.7351C20.0869 41.3957 20.3737 41.1089 20.7131 41.1089H36.3148C36.6494 41.1089 36.9361 41.3957 36.9361 41.7351C36.8883 42.1174 36.6016 42.3612 36.3148 42.3612Z" fill="#3C3B3D"/>
<path d="M32.8109 31.7069C32.4763 31.7069 32.1847 31.4201 32.1847 31.0807V29.7375C32.1847 29.4507 31.9935 29.2595 31.7067 29.2595H20.5217C20.1393 29.2595 19.7521 29.1161 19.4653 28.8294C19.1786 28.5426 19.0352 28.1554 19.0352 27.773C19.0352 26.9556 19.7091 26.2864 20.5217 26.2864H36.1234C36.219 26.2864 36.2668 26.2386 36.3146 26.1908C36.3624 26.143 36.4102 26.0474 36.4102 25.9996C36.4102 25.8562 36.2668 25.7128 36.1234 25.7128H28.5854C27.6725 25.7128 26.9077 24.9433 26.9077 24.0351V23.2177C26.9077 22.8831 27.1945 22.5916 27.5339 22.5916C27.8732 22.5916 28.16 22.8783 28.16 23.2177V24.0351C28.16 24.3219 28.3512 24.5131 28.638 24.5131H36.176C36.9933 24.5131 37.6625 25.1871 37.6625 25.9996C37.6625 26.382 37.5191 26.7692 37.2323 27.056C36.9455 27.3428 36.5584 27.4862 36.176 27.4862H20.5265C20.3831 27.4862 20.2397 27.6296 20.2397 27.773C20.2397 27.8686 20.2875 27.9642 20.3353 27.9642C20.3831 28.012 20.4787 28.0598 20.5265 28.0598H31.7593C32.6723 28.0598 33.4371 28.8294 33.4371 29.7375V31.0807C33.4371 31.4153 33.1503 31.7069 32.8109 31.7069Z" fill="#BEC3C7"/>
<path d="M36.3624 13.9972C36.6014 14.2362 36.697 14.523 36.697 14.8623C36.697 15.1491 36.6014 15.4885 36.3624 15.7275L36.0278 16.0621L35.5498 16.5401L33.8721 14.8623L34.7372 13.9972C35.1674 13.5192 35.937 13.5192 36.3672 13.9972H36.3624Z" fill="#EF727A"/>
<path d="M35.5451 16.5402L33.6236 18.4617L29.1591 22.9214L26.6162 23.7388L27.4814 21.1958L30.2155 18.4617L32.6198 16.0574L33.8196 14.8577L35.5451 16.5402Z" fill="#3C3B3D"/>
</svg>
