<svg width="56" height="56" viewBox="0 0 56 56" fill="none" xmlns="http://www.w3.org/2000/svg">
<rect width="56" height="56" rx="15" fill="#F9FBEB"/>
<path d="M39.6675 15.0645C40.3376 15.0645 40.87 15.5925 40.87 16.2645C40.87 16.9365 40.3424 17.4645 39.6675 17.4645C38.9925 17.4645 38.4697 16.9365 38.4697 16.2645C38.4697 15.5925 38.9973 15.0645 39.6675 15.0645Z" fill="#FFCE02"/>
<path d="M38.7073 22.0331L38.7074 26.3437C38.7074 32.8717 33.1892 36.8077 28.5788 40.5997C23.6833 36.3277 18.4503 32.8717 18.4503 26.3437L18.4502 22.0811C24.8809 21.1691 28.6264 18.4717 28.6264 18.4717C28.6264 18.4717 31.9866 21.0731 38.7073 22.0331Z" fill="#27B9E9"/>
<path d="M23.7474 36.4552L33.3483 20.7627L36.0867 21.5669L25.9506 38.3675L23.7474 36.4552Z" fill="white" fill-opacity="0.3"/>
<path d="M26.7969 39.0781L37.1914 21.7959L38.0233 21.9446L27.6285 39.773L26.7969 39.0781Z" fill="white" fill-opacity="0.2"/>
<path d="M18.1174 35.2715C19.2819 35.2715 20.2277 36.2171 20.2277 37.3835C20.2277 38.5499 19.2819 39.4955 18.1174 39.4955C16.9529 39.4955 16.0071 38.5499 16.0071 37.3835C16.0071 36.2171 16.9529 35.2715 18.1174 35.2715Z" fill="#FFCE02"/>
<path d="M38.7073 19.2703V22.0543C31.9867 21.0463 28.6263 18.4718 28.6263 18.4718C28.6263 18.4718 24.881 21.1903 18.4978 22.0543V19.2703C24.881 18.4063 28.6263 14.9678 28.6263 14.9678C28.6263 14.9678 31.9867 18.3103 38.7073 19.2703Z" fill="#BDE7F8"/>
<path d="M40.4374 31.3838C40.675 31.3838 40.8699 31.5758 40.8699 31.8158C40.8699 32.0558 40.6798 32.2478 40.4374 32.2478C40.195 32.2478 40.0049 32.0558 40.0049 31.8158C40.0049 31.5758 40.195 31.3838 40.4374 31.3838Z" fill="#BED232"/>
<path d="M37.4621 39.0156C37.6997 39.0156 37.8946 39.2076 37.8946 39.4476C37.8946 39.6876 37.7045 39.8796 37.4621 39.8796C37.2197 39.8796 37.0295 39.7356 37.0295 39.4956C37.0295 39.2076 37.2197 39.0156 37.4621 39.0156Z" fill="#BED232"/>
<path d="M34.4391 16.0713C34.6768 16.0713 34.8716 16.2633 34.8716 16.5033C34.8716 16.7433 34.6815 16.9353 34.4391 16.9353C34.1967 16.9353 34.0066 16.7913 34.0066 16.5513C34.0066 16.2633 34.1967 16.0713 34.4391 16.0713Z" fill="#BED232"/>
<path d="M22.7706 38.584C23.0082 38.584 23.2031 38.776 23.2031 39.016C23.2031 39.256 23.013 39.448 22.7706 39.448C22.5282 39.448 22.3381 39.256 22.3381 39.016C22.2906 38.776 22.4807 38.584 22.7706 38.584Z" fill="#BED232"/>
<path d="M20.9503 15.4961C21.1927 15.4961 21.3829 15.6881 21.3829 15.9281C21.3829 16.1681 21.1927 16.3601 20.9503 16.3601C20.7079 16.3601 20.5178 16.1681 20.5178 15.9281C20.5178 15.6881 20.7079 15.4961 20.9503 15.4961Z" fill="#BED232"/>
<path d="M15.5699 26.2959C15.8076 26.2959 16.0024 26.4879 16.0024 26.7279C16.0024 26.9679 15.8123 27.1599 15.5699 27.1599C15.3275 27.1599 15.1374 26.9679 15.1374 26.7279C15.0899 26.4879 15.28 26.2959 15.5699 26.2959Z" fill="#BED232"/>
<path d="M32.2973 40.168C32.5349 40.168 32.7298 40.36 32.7298 40.6C32.7298 40.84 32.5397 41.032 32.2973 41.032C32.0549 41.032 31.8647 40.888 31.8647 40.648C31.8647 40.36 32.0549 40.168 32.2973 40.168Z" fill="#BED232"/>
</svg>
