<svg width="57" height="56" viewBox="0 0 57 56" fill="none" xmlns="http://www.w3.org/2000/svg">
<rect x="0.333496" width="56" height="56" rx="15" fill="#F9FBEB"/>
<path d="M21.956 23.8032C20.6134 23.8032 19.4136 24.1889 18.3567 24.8602C16.5333 26.0599 15.3335 28.0786 15.3335 30.3781C15.3335 32.6777 16.5333 34.7439 18.3567 35.8961C19.4136 36.5674 20.6134 36.953 21.956 36.953C25.6029 36.953 28.5785 33.9774 28.5785 30.3305C28.5785 26.6836 25.6029 23.8032 21.956 23.8032Z" fill="#002855"/>
<path d="M41.4903 32.7776C41.9711 32.7776 42.4044 33.1632 42.4044 33.6917C42.4044 34.2202 42.0187 34.6058 41.4903 34.6058C41.0094 34.6058 40.5762 34.2202 40.5762 33.6917C40.5762 33.1632 40.9618 32.7776 41.4903 32.7776Z" fill="#30C9B0"/>
<path d="M16.5811 14.2004C17.2524 14.2004 17.7809 14.7289 17.7809 15.4002C17.7809 16.0715 17.2524 16.6 16.5811 16.6C15.9098 16.6 15.3813 16.0715 15.3813 15.4002C15.3813 14.7289 15.9098 14.2004 16.5811 14.2004Z" fill="#30C9B0"/>
<path d="M23.1559 30.3781V33.9774C23.1559 34.3154 23.013 34.6011 22.8178 34.8439C22.5798 35.0819 22.2894 35.1819 21.9561 35.1819C21.2848 35.1819 20.7563 34.6534 20.7563 33.9822V30.3829C20.7563 29.7116 21.2848 29.1831 21.9561 29.1831C22.6274 29.1831 23.1559 29.7116 23.1559 30.3829V30.3781Z" fill="#FFCE02"/>
<path d="M22.8178 25.9125C23.0559 26.1505 23.1559 26.441 23.1559 26.7742C23.1559 27.1075 23.013 27.3979 22.8178 27.636C22.5798 27.874 22.2894 27.974 21.9561 27.974C21.6228 27.974 21.3324 27.8312 21.0944 27.636C20.8563 27.4455 20.7563 27.1075 20.7563 26.7742C20.7563 26.1029 21.2848 25.5745 21.9561 25.5745C22.2941 25.5745 22.5798 25.7173 22.8178 25.9125Z" fill="#FFCE02"/>
<path d="M36.3581 17.7997V39.4002H18.3569V35.8961C19.4139 36.5674 20.6136 36.953 21.9562 36.953C25.6031 36.953 28.5787 33.9774 28.5787 30.3305C28.5787 26.6836 25.6031 23.708 21.9562 23.708C20.6136 23.708 19.4139 24.0937 18.3569 24.765V18.3805H21.9562V14.7812H36.3581V17.8045V17.7997Z" fill="#ECF0F1"/>
<path d="M41.1569 20.1992C41.4949 20.1992 41.7806 20.4849 41.7806 20.8229C41.7806 21.1609 41.4902 21.4466 41.1569 21.4466C40.8236 21.4466 40.5332 21.1609 40.5332 20.8229C40.5808 20.4373 40.8189 20.1992 41.1569 20.1992Z" fill="#FF4F4F"/>
<path d="M40.5807 26.2029C40.9187 26.2029 41.2044 26.4933 41.2044 26.8266C41.2044 27.1598 40.9187 27.4503 40.5807 27.4503C40.2427 27.4503 39.957 27.1646 39.957 26.8266C39.957 26.4409 40.2427 26.2029 40.5807 26.2029Z" fill="#FF4F4F"/>
<path d="M40.5807 37.5767C40.9187 37.5767 41.2044 37.8671 41.2044 38.2003C41.2044 38.5336 40.9187 38.824 40.5807 38.824C40.2427 38.824 39.957 38.5336 39.957 38.2003C39.957 37.8671 40.2427 37.5767 40.5807 37.5767Z" fill="#FF4F4F"/>
<path d="M39.381 14.7766C39.719 14.7766 40.0047 15.0623 40.0047 15.4003C40.0047 15.7383 39.719 16.024 39.381 16.024C39.043 16.024 38.7573 15.7336 38.7573 15.4003C38.7573 15.067 39.043 14.7766 39.381 14.7766Z" fill="#FF4F4F"/>
<path d="M15.9572 21.3989C16.2952 21.3989 16.5809 21.6846 16.5809 22.0226C16.5809 22.3606 16.2904 22.6463 15.9572 22.6463C15.6239 22.6463 15.3335 22.3606 15.3335 22.0226C15.3811 21.637 15.6192 21.3989 15.9572 21.3989Z" fill="#FF4F4F"/>
<path d="M15.9572 37.0007C16.2952 37.0007 16.5809 37.2911 16.5809 37.6244C16.5809 37.9577 16.2904 38.2481 15.9572 38.2481C15.6239 38.2481 15.3335 37.9577 15.3335 37.6244C15.3811 37.2388 15.6192 37.0007 15.9572 37.0007Z" fill="#FF4F4F"/>
<path d="M21.9562 14.7766C20.8517 15.8812 19.4615 17.2714 18.3569 18.3759H21.9562V14.7766Z" fill="#BFC1C1"/>
<path d="M36.358 17.7998V39.4003H21.9561V41.7998H38.7575V17.7998H36.358Z" fill="#BFC1C1"/>
<path d="M23.7794 20.1993H34.006C34.344 20.1993 34.6297 19.9089 34.6297 19.5756C34.6297 19.2423 34.344 18.9519 34.006 18.9519H23.7794C23.4414 18.9519 23.1558 19.2376 23.1558 19.5756C23.1558 19.9136 23.4414 20.1993 23.7794 20.1993Z" fill="#BFC1C1"/>
<path d="M23.7794 21.9752H34.006C34.344 21.9752 34.6297 21.6847 34.6297 21.3515C34.6297 21.0182 34.344 20.7278 34.006 20.7278H23.7794C23.4414 20.7278 23.1558 21.0134 23.1558 21.3515C23.1558 21.6895 23.4414 21.9752 23.7794 21.9752Z" fill="#BFC1C1"/>
<path d="M33.9539 22.6035H27.3791C27.041 22.6035 26.7554 22.8892 26.7554 23.2272C26.7554 23.5652 27.041 23.8509 27.3791 23.8509H34.0016C34.3396 23.8509 34.6252 23.5652 34.6252 23.2272C34.5776 22.8416 34.2872 22.6035 33.9539 22.6035Z" fill="#BFC1C1"/>
<path d="M33.954 24.3794H29.1549C28.8169 24.3794 28.5312 24.6651 28.5312 25.0031C28.5312 25.3411 28.8217 25.6268 29.1549 25.6268H33.954C34.292 25.6268 34.5777 25.3411 34.5777 25.0031C34.5777 24.6651 34.292 24.3794 33.954 24.3794Z" fill="#BFC1C1"/>
<path d="M33.9539 26.2029H30.3546C30.0166 26.2029 29.731 26.4933 29.731 26.8266C29.731 27.1598 30.0166 27.4503 30.3546 27.4503H33.9539C34.292 27.4503 34.5776 27.1646 34.5776 26.8266C34.5776 26.4409 34.292 26.2029 33.9539 26.2029Z" fill="#BFC1C1"/>
<path d="M33.954 27.9788H30.9308C30.5928 27.9788 30.3071 28.2692 30.3071 28.6024C30.3071 28.9357 30.5928 29.2261 30.9308 29.2261H33.954C34.2921 29.2261 34.5777 28.9405 34.5777 28.6024C34.5777 28.2644 34.2921 27.9788 33.954 27.9788Z" fill="#BFC1C1"/>
<path d="M33.954 29.8022H30.9308C30.5928 29.8022 30.3071 30.0927 30.3071 30.4259C30.3071 30.7592 30.5928 31.0496 30.9308 31.0496H33.954C34.2921 31.0496 34.5777 30.7592 34.5777 30.4259C34.5777 30.0927 34.2921 29.8022 33.954 29.8022Z" fill="#BFC1C1"/>
<path d="M33.9539 31.5781H30.3546C30.0166 31.5781 29.731 31.8685 29.731 32.2018C29.731 32.5351 30.0166 32.8255 30.3546 32.8255H33.9539C34.292 32.8255 34.5776 32.5398 34.5776 32.2018C34.5776 31.8638 34.292 31.5781 33.9539 31.5781Z" fill="#BFC1C1"/>
<path d="M33.9541 33.4014H29.7311C29.3931 33.4014 29.1074 33.6918 29.1074 34.0251C29.1074 34.3583 29.3931 34.6487 29.7311 34.6487H33.9541C34.2921 34.6487 34.5778 34.3583 34.5778 34.0251C34.5778 33.6918 34.2921 33.4014 33.9541 33.4014Z" fill="#BFC1C1"/>
<path d="M33.9539 35.1772H28.5788C28.2407 35.1772 27.9551 35.4677 27.9551 35.8009C27.9551 36.1342 28.2407 36.4246 28.5788 36.4246H34.0015C34.3395 36.4246 34.6252 36.1342 34.6252 35.8009C34.5776 35.4677 34.2872 35.1772 33.9539 35.1772Z" fill="#BFC1C1"/>
</svg>
