<svg width="56" height="56" viewBox="0 0 56 56" fill="none" xmlns="http://www.w3.org/2000/svg">
<rect width="56" height="56" rx="15" fill="#F9FBEB"/>
<path d="M18.0884 23.8174C18.0884 18.5894 22.3602 14.3594 27.6405 14.3119C32.9203 14.2639 37.2886 18.5894 37.2886 23.8174C37.2886 26.9067 35.8005 29.6158 33.5448 31.3738C32.5368 32.1348 31.9127 33.37 31.9127 34.6532V34.7008C31.7207 34.6062 31.5287 34.5582 31.2887 34.5582H24.0883C23.8482 34.5582 23.6562 34.6062 23.4642 34.7008V34.6532C23.4642 33.37 22.8882 32.1818 21.8321 31.3738C19.5765 29.6633 18.0884 26.9067 18.0884 23.8174Z" fill="#FFEA8E"/>
<path d="M28.8884 29.9011V30.1862C28.8884 30.9471 28.2643 31.5175 27.5443 31.5175C26.7762 31.5175 26.2002 30.8991 26.2002 30.1862V29.9011C26.2002 29.1406 26.8242 28.5703 27.5443 28.5703C27.9283 28.5703 28.2643 28.7129 28.5043 28.9505C28.7443 29.1882 28.8884 29.5209 28.8884 29.9011Z" fill="#F88F19"/>
<path d="M29.1764 18.779V25.3378C29.1764 26.1453 28.5043 26.8112 27.6883 26.8112C26.8722 26.8112 26.2002 26.1458 26.2002 25.3378V18.779C26.2002 17.9715 26.8722 17.3057 27.6883 17.3057C28.1203 17.3057 28.4563 17.4958 28.7443 17.7334C29.0324 17.9711 29.1764 18.3513 29.1764 18.779Z" fill="#F88F19"/>
<path d="M38.7768 28.5703C39.2568 28.5703 39.6889 28.9505 39.6889 29.4729C39.6889 29.9961 39.3048 30.3759 38.7768 30.3759C38.2488 30.3759 37.8647 29.9957 37.8647 29.4729C37.8647 28.9505 38.2963 28.5703 38.7768 28.5703Z" fill="#F88F19"/>
<path d="M37.5067 38.4609C38.4057 38.4609 39.1121 39.1603 39.1121 40.0505C39.1121 40.94 38.4057 41.6401 37.5067 41.6401C36.6076 41.6401 35.9019 40.94 35.9019 40.0505C35.9019 39.1603 36.6083 38.4609 37.5067 38.4609Z" fill="#F88F19"/>
<path d="M17.5121 36.8877C18.1841 36.8877 18.7122 37.4105 18.7122 38.0759C18.7122 38.7408 18.1841 39.2641 17.5121 39.2641C16.84 39.2641 16.312 38.7408 16.312 38.0759C16.312 37.4105 16.84 36.8877 17.5121 36.8877Z" fill="#F88F19"/>
<path d="M32.1519 36.5544C32.3919 36.3168 32.4879 36.0316 32.4879 35.6989C32.4879 35.2712 32.2479 34.891 31.8639 34.6533C31.6719 34.5583 31.4799 34.5107 31.2399 34.5107H24.0399C23.7999 34.5107 23.6079 34.5583 23.4159 34.6533C23.3199 34.7008 23.2239 34.7484 23.1759 34.8434C22.9358 35.0811 22.8398 35.3662 22.8398 35.6989C22.8398 36.3638 23.3679 36.8871 24.0399 36.8871H24.664C24.3279 36.8871 24.0399 37.0297 23.7999 37.2198C23.5599 37.4575 23.4639 37.7426 23.4639 38.0753C23.4639 38.7402 23.9919 39.2635 24.664 39.2635H25.864V39.8814C25.864 40.8794 26.6801 41.6874 27.6881 41.6874C28.6962 41.6874 29.5118 40.8794 29.5118 39.8814V39.2635H30.7118C31.0479 39.2635 31.3359 39.1209 31.5759 38.9308C31.8159 38.7407 31.9119 38.408 31.9119 38.0753C31.9119 37.4099 31.3839 36.8871 30.7118 36.8871H31.3359C31.6239 36.8871 31.9119 36.7445 32.1519 36.5544Z" fill="#3F4751"/>
<path d="M30.7122 36.8877C31.3842 36.8877 31.9122 37.4105 31.9122 38.0759C31.9122 38.4086 31.7682 38.6937 31.5762 38.9314C31.3362 39.169 31.0482 39.2641 30.7122 39.2641H29.5121H25.9124H24.7123C24.0402 39.2641 23.5122 38.7408 23.5122 38.0759C23.5122 37.7432 23.6562 37.458 23.8482 37.2204C24.0882 36.9828 24.3763 36.8877 24.7123 36.8877H30.7122Z" fill="#33383F"/>
<path d="M29.512 39.2637V39.8815C29.512 40.8796 28.6959 41.6876 27.6884 41.6876C26.6803 41.6876 25.8643 40.8796 25.8643 39.8815V39.2637H29.512Z" fill="#3F4751"/>
<path d="M23.5122 34.6533C23.7042 34.5583 23.8962 34.5107 24.1363 34.5107H31.3362C31.5762 34.5107 31.7682 34.5583 31.9602 34.6533C32.2963 34.8434 32.5843 35.2237 32.5843 35.6989C32.5843 36.0316 32.4403 36.3168 32.2483 36.5544C32.0083 36.7921 31.7202 36.8871 31.3842 36.8871H30.7602H24.7123H24.0883C23.4162 36.8871 22.8882 36.3638 22.8882 35.6989C22.8882 35.3662 23.0322 35.0811 23.2242 34.8434C23.3207 34.7959 23.4162 34.7008 23.5122 34.6533Z" fill="#3F4751"/>
<path d="M39.688 21.4414C40.024 21.4414 40.312 21.7266 40.312 22.0593C40.312 22.392 40.024 22.6771 39.688 22.6771C39.352 22.6771 39.064 22.392 39.064 22.0593C39.112 21.679 39.352 21.4414 39.688 21.4414Z" fill="#94D4FF"/>
<path d="M37.2886 16.0703C37.6246 16.0703 37.9126 16.3555 37.9126 16.6882C37.9126 17.0209 37.6251 17.306 37.2886 17.306C36.9526 17.306 36.6646 17.0209 36.6646 16.6882C36.7126 16.3555 36.9526 16.0703 37.2886 16.0703Z" fill="#94D4FF"/>
<path d="M35.5122 35.082C35.8482 35.082 36.1363 35.3672 36.1363 35.6999C36.1363 36.0326 35.8482 36.3177 35.5122 36.3177C35.1762 36.3177 34.8882 36.0326 34.8882 35.6999C34.8882 35.3672 35.1762 35.082 35.5122 35.082Z" fill="#94D4FF"/>
<path d="M21.1123 40.4521C21.4483 40.4521 21.7364 40.7373 21.7364 41.07C21.7364 41.4027 21.4483 41.6879 21.1123 41.6879C20.7768 41.6879 20.4883 41.4027 20.4883 41.07C20.4883 40.6898 20.7763 40.4521 21.1123 40.4521Z" fill="#94D4FF"/>
<path d="M20.4883 33.3232C20.8243 33.3232 21.1123 33.6084 21.1123 33.9411C21.1123 34.2738 20.8243 34.5589 20.4883 34.5589C20.1523 34.5589 19.8643 34.2738 19.8643 33.9411C19.8643 33.6084 20.1523 33.3232 20.4883 33.3232Z" fill="#94D4FF"/>
<path d="M16.8882 30.9463C17.2242 30.9463 17.5122 31.2314 17.5122 31.5641C17.5122 31.8968 17.2242 32.182 16.8882 32.182C16.5522 32.182 16.2642 31.8968 16.2642 31.5641C16.2642 31.2314 16.5522 30.9463 16.8882 30.9463Z" fill="#94D4FF"/>
<path d="M16.312 19.0645C16.648 19.0645 16.9361 19.3496 16.9361 19.6823C16.9361 20.015 16.648 20.3002 16.312 20.3002C15.976 20.3002 15.688 20.015 15.688 19.6823C15.688 19.3496 15.976 19.0645 16.312 19.0645Z" fill="#94D4FF"/>
<path d="M23.5599 29.4258C23.6559 29.5209 23.7999 29.5684 23.9439 29.5684C24.1359 29.5684 24.28 29.4734 24.424 29.3308C24.616 29.0931 24.568 28.7129 24.328 28.4753C22.9359 27.4297 22.1198 25.7662 22.1198 24.0077C22.1198 23.6755 21.8798 23.4378 21.5438 23.4378L18.1836 23.2002C18.1836 23.3898 18.1836 23.5804 18.1836 23.77C18.1836 23.9601 18.1836 24.1507 18.1836 24.3884L20.9678 24.578C21.0162 26.5266 21.9758 28.2376 23.5599 29.4258Z" fill="#FFB95A"/>
<path d="M37.2882 23.1992L33.88 23.4369C33.544 23.4369 33.304 23.722 33.304 24.0067C33.304 25.7652 32.488 27.3816 31.0959 28.4273C30.8559 28.6169 30.7599 28.9971 30.9999 29.2827C31.0959 29.4253 31.2879 29.5204 31.4799 29.5204C31.6239 29.5204 31.7199 29.4724 31.8639 29.3778C33.4 28.1896 34.3601 26.4781 34.5041 24.577L37.2882 24.3874C37.2882 24.1973 37.2882 24.0067 37.2882 23.7691C37.2882 23.627 37.2882 23.4369 37.2882 23.1992Z" fill="#FFB95A"/>
</svg>







