<svg width="24" height="18" viewBox="0 0 24 18" fill="none" xmlns="http://www.w3.org/2000/svg">
<path d="M0.405203 14.4133C0.342487 14.5369 0.31983 14.6769 0.340382 14.814C0.360935 14.951 0.423675 15.0782 0.51988 15.1779C0.616084 15.2777 0.740972 15.3449 0.877177 15.3704C1.01338 15.3959 1.15414 15.3783 1.27987 15.32L4.61187 13.7827C7.41187 12.4893 10.4692 11.8987 13.5199 12.0373C13.5563 13.0178 13.6101 13.9973 13.6812 14.976L13.7732 16.2267C13.7858 16.4004 13.8432 16.5678 13.94 16.7126C14.0367 16.8575 14.1694 16.9746 14.3251 17.0527C14.4807 17.1308 14.654 17.1672 14.8279 17.1582C15.0019 17.1491 15.1704 17.0951 15.3172 17.0013C18.1013 15.2203 20.5223 12.9274 22.4519 10.244L23.0652 9.39068C23.1468 9.27726 23.1907 9.14107 23.1907 9.00135C23.1907 8.86163 23.1468 8.72543 23.0652 8.61201L22.4519 7.75868C20.5225 5.07487 18.1014 2.78143 15.3172 1.00001C15.1705 0.906286 15.0021 0.852239 14.8282 0.843164C14.6544 0.83409 14.4812 0.870297 14.3256 0.948243C14.17 1.02619 14.0373 1.14321 13.9404 1.28784C13.8436 1.43247 13.786 1.59976 13.7732 1.77335L13.6812 3.02668C13.6204 3.8659 13.5724 4.706 13.5372 5.54668H12.6785C10.3371 5.54685 8.04155 6.196 6.04679 7.42205C4.05202 8.64809 2.43612 10.403 1.37854 12.492L0.405203 14.4133Z" fill="#009483"/>
</svg>
