<svg width="294" height="201" viewBox="0 0 294 201" fill="none" xmlns="http://www.w3.org/2000/svg">
<path d="M268.696 167.177C271.365 162.25 272.217 156.451 270.132 149.717C269.065 146.271 266.832 143.145 263.751 141.27C257.096 137.219 249.961 138.572 242.958 136.122C230.997 131.938 225.64 117.338 213.808 113.069C201.837 108.75 188.134 107.545 175.709 110.573C167.984 112.455 160.258 115.599 152.367 114.629C146.024 113.849 140.339 110.485 134.338 108.287C125.555 105.071 115.876 104.484 106.729 106.36C97.7775 108.197 92.371 110.751 86.7305 117.935C80.0045 126.502 70.1495 132.789 59.3596 134.272C52.1279 135.266 44.4697 135.622 38.241 139.937C34.948 142.218 32.9325 146.841 31.6563 150.571C28.5999 159.504 30.3222 170.734 36.4782 178.103C43.98 187.081 54.0819 188.796 65.1766 189.692C76.904 190.64 88.9915 186.225 100.883 186.52C117.789 186.941 133.942 193.226 150.582 196.241C181.067 201.765 212.645 196.158 241.956 186.123C252.349 182.565 263.703 176.394 268.696 167.177Z" fill="#DDEAFA"/>
<path d="M157.439 74.6295C155.511 73.302 153.347 74.0097 151.289 74.5671C151.005 74.6442 149.995 74.6937 149.989 75.0974C149.985 75.4298 150.577 75.5933 150.829 75.6321C151.542 75.7426 152.287 75.4712 152.925 75.1798C152.267 75.7939 151.385 76.0532 150.508 76.149C149.636 76.2444 148.711 76.0893 147.863 76.3348C147.419 76.4632 147.516 76.9012 147.835 77.1347C148.119 77.3428 148.648 77.2733 148.977 77.2737C149.473 77.2742 149.968 77.2376 150.457 77.1552C150.867 77.0857 151.484 77.0126 151.83 76.7876C151.064 77.2871 150.184 77.5718 149.291 77.7367C148.836 77.8205 148.375 77.8744 147.915 77.9132C147.644 77.9359 147.047 77.9132 147.111 78.3703C147.127 78.4853 147.212 78.5789 147.307 78.6462C147.592 78.8485 147.967 78.8605 148.317 78.8561C149.308 78.8422 150.329 78.865 151.292 78.607C150.404 79.1475 149.409 79.5151 148.448 79.8992C148.273 79.9687 147.916 80.1421 148.018 80.3907C148.071 80.5199 148.323 80.6264 148.45 80.6701C148.757 80.7757 149.104 80.7174 149.409 80.638C149.856 80.5222 150.289 80.3965 150.728 80.2468C151.138 80.1069 151.551 79.9665 151.979 79.9006C152.915 79.7566 153.849 80.1416 154.696 80.4847C155.789 80.9281 156.81 81.0756 157.992 81.0765C159.809 81.0778 161.625 80.9927 163.434 80.8221" fill="#FF91A0"/>
<path d="M156.903 120.03L154.85 124.425C154.85 124.425 150.215 122.045 148.309 124.31L161.115 128.832L163.867 120.049L156.903 120.03Z" fill="#FF91A0"/>
<path d="M154.85 124.425L154.932 124.249C157.249 124.959 159.566 125.669 161.884 126.379L161.115 128.832L148.309 124.31C150.215 122.045 154.85 124.425 154.85 124.425Z" fill="#10124E"/>
<path d="M161.355 124.793L159.965 129.439C159.965 129.439 155.033 127.761 153.477 130.279L166.806 132.886L168.248 123.795L161.355 124.793Z" fill="#FF91A0"/>
<path d="M159.965 129.439L160.02 129.254C162.416 129.618 164.812 129.983 167.209 130.347L166.806 132.886L153.477 130.279C155.033 127.761 159.965 129.439 159.965 129.439Z" fill="#10124E"/>
<path d="M172.919 82.0657C168.554 82.7324 158.434 86.0833 155.945 91.6619C154.565 94.7548 155.734 117.601 156.043 122.169H163.279L172.754 88.3483L181.21 83.3749C181.21 83.3749 177.285 81.3991 172.919 82.0657Z" fill="#0A1656"/>
<path d="M200.071 121.96L175.88 110.312L176.513 109.004L200.705 120.652L200.071 121.96Z" fill="#62AFE8"/>
<path d="M174.258 121.96L173.618 120.652L198.028 109.004L198.667 110.312L174.258 121.96Z" fill="#62AFE8"/>
<path d="M171.706 134.534C171.117 134.443 170.714 133.891 170.806 133.303L176.016 99.8075L178.147 100.139L172.937 133.635C172.846 134.223 172.294 134.626 171.706 134.534Z" fill="#262154"/>
<path d="M202.839 134.534C203.427 134.443 203.83 133.891 203.738 133.303L198.529 99.8075L196.397 100.139L201.607 133.635C201.699 134.223 202.25 134.626 202.839 134.534Z" fill="#262154"/>
<path d="M200.779 99.5686H174.672V58.1117H195.326C199.271 58.1117 202.42 61.3994 202.251 65.3408L200.779 99.5686Z" fill="#FCC26F"/>
<path d="M192.847 72.0788C194.029 72.143 195.275 71.9937 196.255 71.3284C197.431 70.5299 198.053 69.067 198.05 67.6455C198.047 66.224 197.485 64.848 196.694 63.6671C196.253 63.0103 195.724 62.3619 195.622 61.5777C195.473 60.4316 196.266 59.4089 196.765 58.3662C197.63 56.5588 197.517 54.1289 195.984 52.8385C195.339 52.2957 194.493 51.9838 193.982 51.3132C193.496 50.6755 193.403 49.8275 193.378 49.0263C193.295 46.3727 194.376 42.0726 191.68 40.4114C190.996 39.9903 190.205 39.7791 189.42 39.6111C189.454 39.1446 189.016 38.7957 188.626 38.5372C186.452 37.097 183.43 37.0796 180.909 37.4259C178.487 37.7583 176.062 38.8768 174.703 40.9096C173.861 42.1698 173.483 43.6938 173.38 45.2057C173.252 47.0942 173.782 49.9474 172.422 51.5213C171.879 52.15 171.053 52.4388 170.332 52.8514C168.8 53.7288 167.667 55.275 167.292 57.0004C166.917 58.7258 167.305 60.6027 168.335 62.0371C168.563 62.3535 168.833 62.6912 168.803 63.0794C168.782 63.3552 168.611 63.5932 168.445 63.8151C167.569 64.9901 166.646 66.22 166.434 67.6704C166.061 70.2247 168.462 73.4606 171.205 72.5971" fill="#5C3CA0"/>
<path d="M181.759 59.8331C181.759 59.8331 175.694 57.9148 173.057 61.6953C170.421 65.4758 169.776 70.3908 168.081 71.0312C166.386 71.6715 154.26 69.6912 153.509 76.3468C152.802 82.6138 159.174 83.2082 160.584 82.8339C161.994 82.4592 168.788 83.1944 173.633 76.0848C173.633 76.0848 172.411 80.3305 173.077 85.7852L190.782 83.6529L191.219 77.578L198.384 72.7196C198.384 72.7196 196.317 62.3994 191.07 61.2911C185.823 60.1829 181.758 59.4053 181.758 59.4053" fill="#62AFE8"/>
<path d="M181.759 59.4049V59.8331C181.759 59.8331 181.02 59.6001 179.946 59.4566V60.2386C179.946 62.0362 181.403 63.4933 183.201 63.4933C184.966 63.4933 186.399 62.0875 186.451 60.3353C183.623 59.7618 181.759 59.4049 181.759 59.4049Z" fill="#569BD0"/>
<path d="M183.2 62.349C181.887 62.349 180.822 61.2845 180.822 59.9708V56.1395H185.578V59.9708C185.579 61.2845 184.514 62.349 183.2 62.349Z" fill="#ED798F"/>
<path d="M198.774 59.0319C198.407 59.2792 198.085 59.6005 197.837 60.0314C197.214 61.1142 197.098 62.406 197.005 63.6519C196.267 73.617 196.185 83.6181 196.127 93.6104C196.116 95.531 196.109 97.4782 196.599 99.3355C196.619 99.4131 196.642 99.4915 196.669 99.5686H200.779L202.252 65.3403C202.366 62.6564 200.94 60.2773 198.774 59.0319Z" fill="#EDAC69"/>
<path d="M174.036 75.1843C174.078 75.1553 173.568 74.5341 173.053 73.3693C172.802 72.7878 172.557 72.0659 172.442 71.2398C172.333 70.4172 172.362 69.4801 172.706 68.584C173.042 67.6847 173.559 66.9022 173.949 66.1429C174.345 65.3827 174.615 64.6559 174.789 64.0339C174.964 63.4114 175.05 62.8945 175.094 62.5366C175.135 62.1784 175.137 61.9788 175.121 61.977C175.076 61.9703 175 62.7661 174.615 63.9813C174.421 64.5873 174.139 65.2927 173.74 66.032C173.346 66.7739 172.817 67.5559 172.465 68.4948C172.104 69.4368 172.081 70.4252 172.208 71.2736C172.34 72.1274 172.61 72.8613 172.888 73.4455C173.17 74.0293 173.456 74.4704 173.672 74.7592C173.886 75.0484 174.024 75.1932 174.036 75.1843Z" fill="#569BD0"/>
<path d="M173.632 66.2378C173.697 66.2556 173.921 65.5801 173.938 64.7103C173.959 63.8409 173.764 63.156 173.699 63.1711C173.625 63.1845 173.702 63.8667 173.681 64.7045C173.665 65.5435 173.559 66.2213 173.632 66.2378Z" fill="#569BD0"/>
<path d="M155.945 120.585C155.95 120.663 155.954 120.741 155.959 120.816C156.901 120.825 157.955 120.83 159.072 120.83C160.819 120.831 162.42 120.821 163.662 120.802L163.718 120.606C162.467 120.586 160.847 120.574 159.072 120.573C157.949 120.572 156.891 120.577 155.945 120.585Z" fill="#62AFE8"/>
<path d="M190.782 82.0621C190.782 82.0621 166.041 84.1128 163.604 93.3226C161.167 102.532 158.755 123.221 158.434 125.519L169.337 126.54L171.217 98.8432C171.278 97.9337 172.054 97.2395 172.964 97.2809C177.571 97.4908 190.484 97.8522 192.925 95.4579C197.125 91.3379 190.782 82.0621 190.782 82.0621Z" fill="#07216D"/>
<path d="M192.451 47.816C192.022 47.5879 191.546 47.5099 191.069 47.5625C190.836 47.5883 190.62 47.5019 190.473 47.3499C188.56 48.1734 185.996 46.7564 184.669 44.1006C184.298 43.3568 184.067 42.5949 183.959 41.8583C183.375 42.1662 182.75 42.4536 182.085 42.7072C179.788 43.5823 177.556 43.8898 175.922 43.6621C175.815 44.1295 175.754 44.6148 175.754 45.1148V52.3487C175.754 55.0928 177.978 57.3172 180.722 57.3172H183.769C186.267 57.3172 188.434 55.9091 189.526 53.8451C190.839 54.3722 192.487 53.6196 193.309 52.0707C194.179 50.4335 193.794 48.529 192.451 47.816Z" fill="#FF91A0"/>
<path d="M179.325 50.7806C179.338 51.9521 180.289 52.8986 181.464 52.8986C182.638 52.8986 183.59 51.9521 183.602 50.7806H179.325Z" fill="#FFEDFF"/>
<path d="M192.473 48.8183C192.473 48.8004 192.391 48.788 192.236 48.7808C192.082 48.7652 191.857 48.7915 191.587 48.8624C191.32 48.9453 191.008 49.0914 190.731 49.345C190.456 49.5972 190.213 49.9332 190.032 50.3177C189.681 51.0953 189.606 51.8675 189.613 52.4112C189.621 52.9588 189.707 53.2886 189.737 53.2841C189.777 53.2797 189.757 52.9468 189.795 52.417C189.834 51.8903 189.937 51.1537 190.266 50.426C190.435 50.0664 190.653 49.7571 190.893 49.5183C191.135 49.2795 191.408 49.1324 191.646 49.0344C192.132 48.8561 192.475 48.8704 192.473 48.8183Z" fill="#C65F79"/>
<path d="M190.91 52.0961C190.932 52.1179 191.067 52.0328 191.193 51.8136C191.317 51.5997 191.413 51.2374 191.316 50.852C191.217 50.467 190.959 50.1943 190.748 50.0664C190.533 49.9336 190.374 49.9238 190.364 49.9536C190.35 49.9897 190.477 50.0601 190.637 50.2107C190.797 50.3587 190.986 50.6024 191.067 50.9153C191.145 51.2281 191.096 51.5329 191.027 51.7392C190.958 51.9482 190.88 52.0711 190.91 52.0961Z" fill="#C65F79"/>
<path d="M190.473 47.3505C190.357 47.2306 190.282 47.0702 190.282 46.8853V45.1149C190.282 41.5184 187.367 38.6033 183.77 38.6033H182.267C179.171 38.6033 176.584 40.7662 175.924 43.6627C177.557 43.8904 179.789 43.5829 182.087 42.7077C182.751 42.4542 183.376 42.1668 183.961 41.8589C184.068 42.5954 184.299 43.3574 184.671 44.1011C185.996 46.7565 188.561 48.1735 190.473 47.3505Z" fill="#5C3CA0"/>
<path d="M181.749 67.2075H174.754V65.5388C174.754 65.1881 175.038 64.9033 175.389 64.9033H181.114C181.465 64.9033 181.749 65.1876 181.749 65.5388V67.2075Z" fill="#07216D"/>
<path d="M184.963 86.926H171.541C170.901 86.926 170.383 86.4073 170.383 85.7674V67.6139C170.383 66.974 170.901 66.4553 171.541 66.4553H184.963C185.603 66.4553 186.122 66.974 186.122 67.6139V85.7674C186.122 86.4073 185.603 86.926 184.963 86.926Z" fill="#FCC26F"/>
<g opacity="0.3">
<path d="M183.899 81.4166C182.276 81.3752 180.593 81.4077 179.107 80.754C176.753 79.7188 175.416 77.1874 174.757 74.7013C174.098 72.2153 173.932 69.5978 173.019 67.1938C172.924 66.9451 172.814 66.6987 172.695 66.455H171.541C170.901 66.455 170.383 66.9736 170.383 67.6135V85.767C170.383 86.4069 170.901 86.9256 171.541 86.9256H184.963C185.603 86.9256 186.122 86.4069 186.122 85.767V81.5418C185.381 81.4759 184.638 81.4358 183.899 81.4166Z" fill="#FCC26F"/>
</g>
<path d="M158.655 123.797C158.647 123.855 158.64 123.912 158.633 123.968C160.188 124.149 162.427 124.388 164.927 124.637C166.584 124.801 168.126 124.948 169.436 125.065L169.451 124.848C168.145 124.706 166.606 124.545 164.952 124.381C162.455 124.132 160.214 123.926 158.655 123.797Z" fill="#62AFE8"/>
<path d="M178.332 83.694C177.17 83.8156 176.034 83.4805 174.907 83.2519C173.852 83.0376 172.898 83.0683 171.835 83.1281C170.659 83.194 169.483 83.2599 168.308 83.3259C168.212 83.3312 168.097 83.3491 168.058 83.4369C168.002 83.5616 168.151 83.6766 168.278 83.7292C169.408 84.1966 170.656 84.2719 171.877 84.3356C170.955 84.6538 169.973 84.7991 168.997 84.7616C168.58 84.7456 168.128 84.6948 167.719 84.8035C167.595 84.8365 167.46 84.8521 167.399 84.9809C167.089 85.6373 171.372 85.7558 171.791 85.7509C170.458 86.4371 168.925 86.135 167.485 86.3275C166.939 86.4006 167.178 86.8769 167.525 87.0316C167.964 87.2267 168.51 87.2365 168.981 87.2544C169.945 87.2904 170.86 87.1055 171.821 87.0316C170.69 87.7249 169.19 87.3346 167.951 87.8078C167.92 87.8198 167.887 87.8332 167.866 87.8586C167.809 87.9268 167.862 88.0302 167.924 88.0939C168.259 88.4432 168.778 88.5114 169.233 88.5208C170.129 88.5386 170.999 88.4584 171.89 88.3546C171.293 88.9396 170.225 88.7298 169.593 89.2778C169.566 89.3019 169.538 89.3295 169.529 89.3652C169.431 89.7756 171.993 89.5416 172.233 89.5488C174.288 89.6098 176.271 89.8589 178.32 89.6116C179.078 89.5203 179.839 89.3714 180.53 89.0466C181.22 88.7217 181.842 88.2057 182.18 87.5213" fill="#FF91A0"/>
<path d="M194.371 63.4034C192.42 61.2529 189.684 62.2404 188.558 64.6877C187.922 66.0699 187.896 67.6705 188.199 69.1615C188.562 70.9444 191.598 79.2781 189.386 80.119C188.333 80.5196 187.096 80.2228 186.002 80.2393C183.98 80.27 181.96 80.36 179.943 80.5098C178.687 80.6029 177.418 80.7219 176.226 81.13C173.653 82.0119 173.051 85.7216 173.821 87.9959C174.15 88.9682 174.813 89.8403 175.711 90.3385C177.026 91.0675 179.066 91.2881 180.543 91.0965C182.207 90.8803 183.908 90.8389 185.585 90.6014C189.416 90.0586 193.63 89.3332 196.807 86.963C198.377 85.7915 199.778 84.0528 200 82.0832C200.367 78.8249 199.406 74.9317 198.21 71.9087C197.078 69.0479 196.501 65.75 194.371 63.4034Z" fill="#62AFE8"/>
<path d="M181.503 80.4432C181.503 80.4521 181.603 80.4566 181.791 80.457C182.067 80.4535 182.34 80.4499 182.616 80.4459C183.602 80.4169 184.605 80.388 185.647 80.3577C186.332 80.3336 187.029 80.3091 187.74 80.2841C188.111 80.2712 188.525 80.2427 188.921 80.1037C189.313 79.9557 189.692 79.6928 189.935 79.3078C190.394 78.5178 190.384 77.5552 190.277 76.6413C190.158 75.714 189.946 74.7858 189.694 73.8331C189.161 71.9442 188.443 70.2161 188.233 68.5487C188.122 67.7198 188.12 66.9187 188.245 66.1892C188.364 65.4575 188.632 64.8123 188.958 64.2744C189.616 63.1849 190.56 62.6515 191.218 62.4176C191.885 62.1743 192.288 62.1511 192.283 62.1213C192.281 62.1124 192.183 62.1186 191.994 62.1391C191.807 62.1658 191.529 62.2095 191.185 62.3227C190.841 62.4336 190.428 62.6092 190.003 62.9069C189.58 63.2045 189.156 63.6288 188.803 64.1777C188.457 64.7267 188.167 65.396 188.035 66.1518C187.895 66.9053 187.889 67.7305 187.997 68.5794C188.2 70.2897 188.92 72.0369 189.445 73.9022C189.693 74.8366 189.907 75.7728 190.026 76.6721C190.137 77.5646 190.135 78.483 189.732 79.1831C189.52 79.523 189.194 79.7525 188.842 79.892C188.479 80.0212 188.108 80.0533 187.729 80.0716C187.019 80.1072 186.323 80.142 185.638 80.1767C184.597 80.2351 183.596 80.2913 182.611 80.347C182.336 80.3666 182.063 80.3866 181.788 80.4062C181.601 80.4218 181.502 80.4348 181.503 80.4432Z" fill="#569BD0"/>
<g opacity="0.11">
<path d="M196.805 86.9624C198.375 85.7909 199.776 84.0522 199.998 82.0826C200.365 78.8239 199.404 74.9311 198.208 71.9081C197.16 69.2577 196.584 66.2324 194.812 63.9358C194.707 65.0779 195.047 66.3064 195.397 67.4307C195.884 68.9947 196.371 70.5588 196.858 72.1229C197.547 74.3335 198.242 76.587 198.234 78.9023C198.226 81.2177 197.404 83.6476 195.562 85.0512C193.672 86.4923 191.127 86.6086 188.757 86.7789C185.001 87.0484 181.102 87.6612 178.034 89.8455C177.662 90.1102 177.289 90.464 177.083 90.8606C178.221 91.1578 179.515 91.2291 180.542 91.0959C182.206 90.8798 183.907 90.8383 185.583 90.6008C189.414 90.0581 193.629 89.3326 196.805 86.9624Z" fill="#62AFE8"/>
</g>
<path d="M200.655 103.651H171.51C170.699 103.651 170.042 102.994 170.042 102.184V101.286C170.042 98.7492 172.098 96.6927 174.635 96.6927H197.529C200.066 96.6927 202.122 98.7492 202.122 101.286V102.184C202.122 102.994 201.465 103.651 200.655 103.651Z" fill="#E2A55C"/>
<path d="M282.003 111.514C286.279 108.159 289.902 105.54 291.986 100.062C295.063 91.9728 294.596 82.4128 289.832 75.1334C284.099 66.3741 272.559 63.0316 262.618 62.7113C256.171 62.5036 249.574 63.6755 243.812 66.6482C238.186 69.5508 234.801 74.6633 232.911 80.6718C230.754 87.5284 231.405 95.8322 236.609 100.79C239.772 103.802 244.119 105.173 248.336 106.315C252.552 107.457 256.925 108.52 260.445 111.107C263.964 113.694 266.435 118.276 265.15 122.45C271.031 119.299 276.403 115.928 281.636 111.802C281.758 111.706 281.881 111.61 282.003 111.514Z" fill="#CFB8FF"/>
<path d="M231.812 51.3907C236.177 50.1609 241.152 50.0504 245.583 50.9541C252.634 52.3925 259.256 57.9469 259.281 65.6087C259.291 68.6285 258.241 71.5392 257.205 74.376C256.17 77.2127 255.121 80.1243 255.134 83.1441C255.147 86.164 256.442 89.3648 259.086 90.8237C255.158 91.9399 251.012 91.9885 246.93 91.8695C242.968 91.7541 238.979 91.4832 235.152 90.4521C231.325 89.4209 227.639 87.5815 224.917 84.7002C220.641 80.1728 219.207 73.5984 219.289 67.3706C219.307 66.0235 219.388 64.6711 219.667 63.353C220.905 57.5102 226.063 53.011 231.812 51.3907Z" fill="#FCC26F"/>
<g opacity="0.35">
<path d="M255.146 76.3522C252.372 75.8099 249.554 75.4881 246.73 75.3901C241.802 75.2194 236.332 75.5577 232.564 72.3796C229.003 69.3767 228.236 64.1996 228.442 59.5462C228.55 57.1025 228.868 54.6699 229.37 52.2761C224.658 54.3469 220.728 58.3551 219.669 63.3539C219.389 64.672 219.309 66.0244 219.291 67.3714C219.209 73.5992 220.642 80.1732 224.919 84.701C227.641 87.5823 231.327 89.4218 235.154 90.4529C238.981 91.484 242.97 91.7545 246.932 91.8704C251.014 91.9894 255.16 91.9412 259.088 90.8246C256.444 89.3652 255.149 86.1649 255.136 83.145C255.126 80.9161 255.696 78.7469 256.411 76.6222C255.99 76.5251 255.568 76.4346 255.146 76.3522Z" fill="#FCC26F"/>
</g>
<g opacity="0.23">
<path d="M281.635 111.803C281.758 111.707 281.88 111.61 282.002 111.515C286.278 108.16 289.902 105.541 291.985 100.063C295.063 91.9733 294.596 82.4133 289.831 75.1339C287.982 72.3092 285.528 70.0504 282.719 68.2725C281.411 69.3375 280.276 70.6034 279.405 72.0663C278.005 74.4205 277.306 77.1142 276.623 79.7673C275.791 83.0019 274.959 86.237 274.127 89.4717C272.885 94.2994 271.18 99.713 266.681 101.859C265.034 102.644 263.181 102.883 261.36 102.998C254.287 103.448 247.11 102.179 240.62 99.3298C238.222 98.2769 235.791 96.9966 233.321 96.0582C234.099 97.821 235.182 99.4323 236.608 100.791C239.771 103.804 244.118 105.174 248.335 106.316C252.551 107.458 256.924 108.521 260.444 111.109C263.963 113.696 266.434 118.277 265.149 122.451C271.03 119.3 276.402 115.929 281.635 111.803Z" fill="#CFB8FF"/>
</g>
<path d="M90.0042 102.552H116.111L120.506 68.6957C121.029 64.6661 117.892 61.0946 113.828 61.0946H95.4566C91.5117 61.0946 88.3626 64.3823 88.5319 68.3237L90.0042 102.552Z" fill="#62AFE8"/>
<path d="M92.0088 62.0148C92.3751 62.2621 92.6977 62.5834 92.9455 63.0143C93.5685 64.0975 93.6848 65.3889 93.777 66.6348C94.5154 76.5999 94.5974 86.601 94.6553 96.5933C94.6664 98.5139 94.6736 100.461 94.1838 102.318C94.1633 102.396 94.1402 102.474 94.1134 102.551H90.0036L88.5309 68.3232C88.4159 65.6389 89.8419 63.2602 92.0088 62.0148Z" fill="#58A3D8"/>
<path d="M125.363 68.9547L128.32 70.3467L135.609 62.9354L141.231 65.3952C141.231 65.3952 134.523 78.8493 130.48 78.8783C126.438 78.9073 121.391 76.1926 121.391 76.1926" fill="#FF91A0"/>
<g opacity="0.18">
<path d="M134.207 73.8206C131.855 75.2082 128.912 75.5522 126.303 74.7453C125.146 74.3874 124.063 73.8046 123.115 73.0515L121.391 76.193C121.391 76.193 126.438 78.9072 130.48 78.8787C133.146 78.8595 136.971 73.002 139.267 69.0148C137.718 70.7936 136.223 72.6309 134.207 73.8206Z" fill="#FF91A0"/>
</g>
<path d="M127.823 125.609L126.428 130.254C126.428 130.254 131.47 131.566 131.385 134.525L118.819 129.369L122.616 120.984L127.823 125.609Z" fill="#FF91A0"/>
<path d="M126.429 130.254L126.485 130.068C124.283 129.055 122.082 128.041 119.88 127.027L118.82 129.369L131.385 134.525C131.471 131.566 126.429 130.254 126.429 130.254Z" fill="#10124E"/>
<path d="M139.675 126.229L142.06 130.452C142.06 130.452 146.498 127.722 148.573 129.833L136.153 135.329L132.732 126.784L139.675 126.229Z" fill="#FF91A0"/>
<path d="M93.538 123.908L117.511 113.19L116.883 111.986L92.9102 122.704L93.538 123.908Z" fill="#F69526"/>
<path d="M110.283 84.1779L99.321 82.0123L100.877 77.5193L92.5246 76.4814C92.5246 76.4814 89.1701 83.1094 89.6019 86.2433C90.0225 89.2966 98.7925 91.0398 109.263 90.1442C109.681 88.1719 109.972 86.1738 110.283 84.1779Z" fill="#FF91A0"/>
<path d="M118.562 123.908L119.189 122.704L95.2173 111.986L94.5898 113.19L118.562 123.908Z" fill="#F69526"/>
<path d="M115.306 86.5387C115.306 86.5387 132.96 83.9479 136.434 89.1539C141.94 97.4083 130.242 127.025 130.242 127.025L118.492 123.331L127.392 99.9643L113.869 95.7021L115.306 86.5387Z" fill="#07216D"/>
<path d="M107.007 63.684C107.007 63.684 98.4459 64.38 96.2469 68.0639C94.0478 71.7472 91.8906 76.9096 91.8906 76.9096L100.674 80.3568L98.8652 91.2821C98.8652 91.2821 107.231 95.9378 119.188 91.0366C119.188 91.0366 118.844 82.1085 118.105 76.4662L122.778 78.1644L125.977 68.0634C125.977 68.0634 117.504 62.8182 110.685 63.6836C103.865 64.5498 107.007 63.684 107.007 63.684Z" fill="#FCC26F"/>
<path d="M110.686 63.6841C103.866 64.5499 107.008 63.6841 107.008 63.6841C107.008 63.6841 106.297 63.7425 105.235 63.9122L105.243 64.5169C105.267 66.5003 106.895 68.088 108.878 68.0639C110.862 68.0394 112.449 66.4121 112.425 64.4287L112.415 63.5918C111.831 63.586 111.252 63.6123 110.686 63.6841Z" fill="#DDA264"/>
<path d="M121.019 137.517C121.608 137.426 122.011 136.874 121.919 136.286L116.709 102.79L114.578 103.122L119.788 136.618C119.879 137.206 120.431 137.609 121.019 137.517Z" fill="#262154"/>
<path d="M90.3238 137.517C89.7352 137.426 89.3324 136.874 89.4242 136.286L94.6337 102.79L96.7651 103.122L91.5555 136.618C91.4637 137.206 90.9125 137.609 90.3238 137.517Z" fill="#262154"/>
<path d="M108.853 66.9038C107.505 66.9203 106.399 65.8411 106.383 64.4931L106.313 58.8464L111.195 58.7863L111.264 64.433C111.281 65.7814 110.201 66.8874 108.853 66.9038Z" fill="#ED798F"/>
<path d="M118.254 79.0537C118.272 79.0528 118.279 78.8884 118.277 78.5912C118.275 78.2944 118.259 77.8649 118.228 77.3355C118.167 76.2758 118.031 74.8143 117.796 73.2114C117.56 71.6086 117.268 70.1697 117.022 69.1377C116.899 68.6212 116.791 68.2059 116.707 67.9212C116.623 67.636 116.569 67.4809 116.552 67.4849C116.516 67.4939 116.644 68.1369 116.844 69.176C117.044 70.2152 117.306 71.6527 117.542 73.2488C117.776 74.8454 117.939 76.2977 118.047 77.3502C118.155 78.4032 118.216 79.056 118.254 79.0537Z" fill="#DDA264"/>
<path d="M117.672 72.2967C117.739 72.3069 117.932 71.331 117.943 70.1087C117.958 68.8864 117.785 67.9066 117.718 67.9155C117.644 67.9235 117.701 68.902 117.686 70.1061C117.676 71.3101 117.599 72.2873 117.672 72.2967Z" fill="#DDA264"/>
<path d="M123.075 66.5159C122.972 66.4669 122.867 66.4174 122.76 66.3671C122.728 66.4526 122.697 66.5346 122.663 66.6255C122.179 67.9387 121.555 69.7688 120.92 71.8079C120.302 73.7931 119.79 75.6062 119.443 76.9524L119.792 77.079C120.224 75.7573 120.791 73.9535 121.411 71.9607C122.045 69.9252 122.613 68.0809 123.009 66.7396C123.032 66.6616 123.053 66.5912 123.075 66.5159Z" fill="#FFEDFF"/>
<path d="M124.585 67.6281C124.613 67.5198 124.637 67.4196 124.661 67.3189C124.565 67.2672 124.464 67.2137 124.358 67.1584C123.95 68.3785 123.375 70.2051 122.724 72.2446C122.039 74.4 121.424 76.3098 121.057 77.5384L121.351 77.6453C121.421 77.472 121.494 77.2893 121.573 77.0874C122.035 75.903 122.626 74.2489 123.214 72.401C123.803 70.5526 124.278 68.8616 124.585 67.6281Z" fill="#FFEDFF"/>
<path d="M102.231 77.1288C100.967 76.5722 99.3885 75.8993 97.6622 75.1877C96.1004 74.5433 94.6433 73.9596 93.4245 73.4868C93.3626 73.6183 93.302 73.7479 93.2432 73.8749C94.4441 74.3999 95.8963 75.0161 97.4662 75.6636C99.2058 76.381 100.812 77.0218 102.106 77.5195C102.153 77.3912 102.197 77.262 102.231 77.1288Z" fill="#FFEDFF"/>
<path d="M101.474 78.9304C100.297 78.4126 98.8424 77.7937 97.2551 77.1408C95.4883 76.4141 93.8645 75.7706 92.599 75.2911C92.5428 75.4168 92.4898 75.5367 92.4395 75.6503C93.6773 76.2011 95.2878 76.8882 97.0595 77.6172C98.6267 78.262 100.079 78.8399 101.272 79.2976C101.334 79.1701 101.402 79.0494 101.474 78.9304Z" fill="#FFEDFF"/>
<path d="M99.0357 89.8878C99.0357 89.8878 95.7605 95.9258 99.3213 100.505C102.882 105.085 116.174 102.732 116.174 102.732L118.095 102.535C119.051 102.437 119.956 102.987 120.31 103.882L131.311 131.696L142.97 126.293L127.535 95.6446C126.224 93.0418 123.636 91.3294 120.728 91.1337C116.912 90.8771 111.827 90.5424 107.907 90.3793C101.333 90.1053 99.0357 89.8878 99.0357 89.8878Z" fill="#092D84"/>
<path d="M90.1921 106.634H122.105C122.952 106.634 123.638 105.948 123.638 105.101V104.472C123.638 101.822 121.491 99.675 118.842 99.675H93.4557C90.8066 99.675 88.6592 101.822 88.6592 104.472V105.101C88.6592 105.948 89.3454 106.634 90.1921 106.634Z" fill="#4A93C6"/>
<path d="M142.059 130.452L141.964 130.283C139.708 131.169 137.452 132.056 135.196 132.942L136.152 135.328L148.572 129.832C146.496 127.722 142.059 130.452 142.059 130.452Z" fill="#10124E"/>
<path d="M114.839 56.8787C117.122 55.7562 117.486 53.0051 116.922 50.777C116.883 50.6206 116.227 49.1096 116.204 49.1345C116.902 48.3592 116.773 47.1583 116.487 46.1548C116.065 44.6687 115.27 43.0101 113.886 42.1929C112.656 41.4661 110.592 41.2714 109.192 41.2816C106.888 41.2981 103.797 41.6528 102.208 43.5203C102.131 43.6108 102.053 43.7071 101.944 43.7538C101.844 43.7966 101.731 43.7922 101.622 43.7895C99.5576 43.7387 97.6829 44.6945 97.3224 46.9141C96.9156 49.4215 97.3157 52.3179 97.7163 54.8031" fill="#07216D"/>
<path d="M115.296 56.7922L114.401 49.6135C114.339 49.1171 114.218 48.6439 114.054 48.1929C114.046 48.1706 114.036 48.1497 114.027 48.1274C112.423 49.0485 110.153 49.2356 107.916 48.4558C106.77 48.0566 105.778 47.451 104.987 46.7264C105.098 47.5535 105.055 48.4563 104.831 49.3724C104.136 52.2087 101.96 54.1311 99.8764 53.8245C99.769 53.8913 99.6438 53.9346 99.5057 53.9363C99.0262 53.943 98.5637 54.0794 98.1657 54.3588C96.9212 55.2317 96.7754 57.1697 97.84 58.6869C98.8471 60.1227 100.576 60.665 101.814 59.9796C103.153 61.8931 105.477 63.0222 107.956 62.713L110.979 62.336C113.703 61.9978 115.635 59.5153 115.296 56.7922Z" fill="#FF91A0"/>
<path d="M111.559 55.6779C111.692 56.8422 110.865 57.8988 109.699 58.0445C108.534 58.1897 107.473 57.368 107.315 56.2068L111.559 55.6779Z" fill="#FFEDFF"/>
<path d="M98.5322 55.0905C98.5331 55.1426 98.8749 55.1079 99.3713 55.2572C99.6151 55.3409 99.8954 55.4715 100.152 55.6952C100.406 55.9189 100.641 56.2152 100.832 56.5637C101.203 57.2704 101.35 57.9994 101.42 58.523C101.49 59.0497 101.489 59.383 101.53 59.3853C101.56 59.3879 101.626 59.0537 101.601 58.5065C101.575 57.9633 101.455 57.1973 101.058 56.4416C100.854 56.0686 100.591 55.7478 100.302 55.512C100.01 55.2754 99.6895 55.148 99.4186 55.0811C99.1445 55.0268 98.9181 55.0139 98.7653 55.0388C98.6129 55.0553 98.5309 55.0727 98.5322 55.0905Z" fill="#C65F79"/>
<path d="M100.289 58.2695C100.317 58.2427 100.232 58.1246 100.151 57.9205C100.069 57.7191 100.002 57.4175 100.062 57.1006C100.124 56.7838 100.298 56.5289 100.449 56.3716C100.599 56.2116 100.722 56.1337 100.706 56.0985C100.695 56.0691 100.536 56.0887 100.33 56.2339C100.126 56.3743 99.8858 56.6617 99.81 57.0521C99.736 57.4424 99.8532 57.7984 99.99 58.0048C100.128 58.2155 100.268 58.2926 100.289 58.2695Z" fill="#C65F79"/>
<path d="M114.026 48.1279C112.991 45.3736 110.18 43.5779 107.132 43.9575L105.64 44.1433C102.071 44.588 99.539 47.8419 99.9837 51.4103L100.203 53.1668C100.225 53.3504 100.171 53.5189 100.07 53.6521C100.018 53.7216 99.9499 53.7782 99.875 53.825C101.958 54.1316 104.135 52.2092 104.829 49.373C105.053 48.4568 105.096 47.5536 104.985 46.727C105.776 47.4515 106.769 48.0571 107.915 48.4563C110.152 49.2362 112.422 49.0486 114.026 48.1279Z" fill="#07216D"/>
<path d="M99.3209 82.0122L99.4501 81.6388C96.5417 81.4226 93.643 81.1067 90.8223 80.3969C90.0688 82.4007 89.3933 84.7295 89.6018 86.2432C90.0225 89.2965 98.7924 91.0397 109.263 90.144C109.681 88.1713 109.436 87.8893 109.747 85.8934L99.3209 82.0122Z" fill="#FF91A0"/>
<g opacity="0.18">
<path d="M101.546 88.7057C99.9822 88.3265 98.3825 88.0547 96.8866 87.4616C95.3907 86.8685 93.9733 85.9042 93.2117 84.4867C92.5224 83.2043 92.4355 81.6665 92.685 80.2321C92.8459 79.3066 93.1395 78.4131 93.4764 77.5344C93.0749 77.3575 92.6765 77.173 92.2808 76.9823C91.5193 78.578 89.2414 83.6263 89.6019 86.2433C89.9851 89.0248 97.2984 90.7185 106.513 90.3206C104.902 89.6575 103.24 89.1161 101.546 88.7057Z" fill="#FF91A0"/>
</g>
<path d="M101.779 78.2895C102.199 77.4375 102.57 76.361 102.971 75.1734C103.176 74.5527 103.381 73.9324 103.587 73.3059C103.825 72.6647 103.978 71.9348 103.954 71.1942C103.933 70.4536 103.746 69.725 103.379 69.1199C103.014 68.5165 102.526 68.0353 102.017 67.6534C100.996 66.8865 99.8611 66.4957 98.8968 66.4529C98.4735 66.4293 98.0898 66.4552 97.7476 66.5055C97.6633 66.5661 97.5831 66.6285 97.5029 66.6913C97.9009 66.6272 98.3612 66.592 98.8839 66.6343C99.8121 66.6985 100.894 67.0919 101.873 67.8423C102.36 68.2149 102.823 68.681 103.162 69.2487C103.502 69.8141 103.676 70.4981 103.696 71.2017C103.717 71.9107 103.58 72.5889 103.348 73.2266C103.146 73.8549 102.946 74.4769 102.746 75.0995C102.357 76.2901 102.009 77.3596 101.611 78.2205C101.328 78.8938 101.041 79.5809 100.744 80.2899C100.706 80.3817 100.676 80.4579 100.646 80.5345L100.599 80.8152C100.661 80.6936 100.738 80.5367 100.836 80.3304C101.159 79.6317 101.472 78.9535 101.779 78.2895Z" fill="#DDA264"/>
<path d="M135.087 63.6488C136.228 61.7376 138.379 61.4925 140.379 61.1596C140.656 61.1137 141.548 60.7564 141.713 61.1035C141.848 61.3891 141.401 61.7648 141.198 61.8989C140.625 62.2768 139.874 62.3369 139.207 62.3383C140.019 62.6087 140.885 62.4831 141.681 62.2188C142.472 61.9559 143.21 61.456 144.04 61.3321C144.475 61.2675 144.565 61.6841 144.382 62.0121C144.219 62.3044 143.734 62.4537 143.449 62.5847C143.021 62.7812 142.578 62.9465 142.122 63.0682C141.74 63.1706 141.178 63.352 140.79 63.2936C141.649 63.4224 142.523 63.3204 143.361 63.1087C143.787 63.0009 144.207 62.865 144.621 62.7161C144.864 62.6288 145.371 62.3726 145.496 62.7932C145.528 62.8988 145.492 63.0138 145.436 63.1091C145.269 63.397 144.95 63.5561 144.646 63.6907C143.784 64.0712 142.91 64.495 141.975 64.6532C142.957 64.7686 143.962 64.6928 144.946 64.6438C145.124 64.6349 145.502 64.6434 145.512 64.8987C145.518 65.0315 145.342 65.2235 145.249 65.3118C145.025 65.5248 144.703 65.6112 144.407 65.6638C143.975 65.7404 143.551 65.8033 143.112 65.8478C142.702 65.8893 142.29 65.9316 141.893 66.0444C141.36 66.1959 140.896 66.5234 140.515 66.9195C140.228 67.2181 140.017 67.5795 139.816 67.9391C139.621 68.2893 139.395 68.611 139.247 68.9827" fill="#FF91A0"/>
<path d="M106.361 85.0481C108.176 85.3729 110.04 85.7874 111.675 86.671C112.959 87.3648 114.278 88.1727 114.789 89.6209C115.212 90.8218 114.482 90.6369 113.481 90.5986C112.459 90.5593 111.433 90.4622 110.448 90.173C111.107 90.6583 111.873 91.0749 112.146 91.8899C112.172 91.9679 112.192 92.0499 112.183 92.1314C112.174 92.213 112.129 92.2945 112.054 92.3288C112.012 92.348 111.965 92.3511 111.918 92.3498C111.609 92.3413 111.331 92.1586 111.101 91.9501C110.701 91.5865 110.346 91.2919 109.87 91.0308C109.424 90.7857 108.936 90.6266 108.439 90.5259C107.409 90.3178 106.35 90.3455 105.306 90.3138" fill="#FF91A0"/>
<path d="M114.536 90.4747C114.546 90.4586 114.342 90.2987 113.981 90.0848C113.62 89.8704 113.099 89.6102 112.494 89.395C111.89 89.1811 111.321 89.055 110.906 88.9944C110.491 88.9333 110.231 88.9284 110.229 88.9471C110.222 88.9957 111.251 89.1134 112.442 89.5407C113.638 89.9596 114.511 90.5166 114.536 90.4747Z" fill="#ED798F"/>
<path d="M114.786 89.711C114.799 89.6977 114.641 89.5141 114.34 89.2632C114.041 89.0123 113.592 88.7031 113.052 88.4455C112.51 88.1897 111.987 88.0373 111.603 87.9643C111.219 87.8903 110.977 87.8836 110.975 87.9019C110.965 87.9509 111.926 88.0757 112.986 88.585C114.05 89.0841 114.755 89.7494 114.786 89.711Z" fill="#ED798F"/>
<path d="M190.632 136.371C189.329 135.648 187.985 134.964 186.538 134.61C185.092 134.256 183.524 134.25 182.156 134.865C182.218 135.34 182.828 135.481 183.307 135.508C184.09 135.553 184.874 135.597 185.658 135.641C184.906 136.228 183.897 136.385 182.945 136.331C181.992 136.278 181.061 136.038 180.115 135.918C179.797 135.877 179.33 136.006 179.408 136.317C179.442 136.45 179.571 136.531 179.692 136.595C181.39 137.501 183.427 137.753 185.294 137.285C183.741 137.949 182.002 138.171 180.332 137.919C179.826 137.843 179.189 137.778 178.916 138.211C179.744 138.923 180.871 139.208 181.963 139.212C183.054 139.217 184.129 138.965 185.191 138.715C183.975 139.746 182.273 139.595 180.88 140.219C180.822 140.447 181.111 140.597 181.341 140.644C182.148 140.808 182.983 140.834 183.799 140.72C184.215 140.662 184.648 140.569 185.046 140.702C185.253 140.771 185.435 140.897 185.613 141.022C186.193 141.43 186.752 141.972 187.394 142.276C187.877 142.505 188.385 142.587 188.856 142.862" fill="#FF91A0"/>
<path d="M206.658 188.982L208.345 193.529C208.345 193.529 203.397 195.158 203.67 198.105L215.883 192.163L211.562 184.037L206.658 188.982Z" fill="#FF91A0"/>
<path d="M208.346 193.53L208.279 193.348C210.411 192.197 212.544 191.045 214.677 189.894L215.884 192.164L203.671 198.106C203.397 195.158 208.346 193.53 208.346 193.53Z" fill="#10124E"/>
<path d="M195.078 165.297L204.666 191.216L215.861 186.82L204.903 161.208L195.078 165.297Z" fill="#E2A55C"/>
<path d="M203.966 189.326C205.706 188.673 207.77 187.859 209.968 186.928C211.783 186.158 213.475 185.398 214.957 184.709L214.867 184.499C213.379 185.172 211.682 185.921 209.868 186.691C207.673 187.62 205.619 188.446 203.892 189.124L203.966 189.326Z" fill="#C68647"/>
<path d="M208.949 187.328C207.848 184.378 206.626 181.1 205.296 177.531C203.739 173.315 202.328 169.493 201.093 166.15C200.662 164.989 200.293 164.01 199.997 163.25L199.667 163.387C199.896 164.167 200.202 165.16 200.578 166.328C201.528 169.289 202.923 173.352 204.573 177.8C205.946 181.501 207.279 184.879 208.386 187.561C208.573 187.484 208.76 187.406 208.949 187.328Z" fill="#C68647"/>
<path d="M180.848 188.198L178.79 192.591C178.79 192.591 174.158 190.205 172.249 192.468L185.05 197.005L187.812 188.225L180.848 188.198Z" fill="#FF91A0"/>
<path d="M178.791 192.591L178.873 192.415C181.19 193.128 183.506 193.84 185.823 194.553L185.051 197.005L172.25 192.468C174.159 190.205 178.791 192.591 178.791 192.591Z" fill="#10124E"/>
<path d="M218.498 122.229L212.686 122.655L213.486 133.579L219.299 133.152L218.498 122.229Z" fill="#EF8096"/>
<path d="M224.789 113.857C227.867 113.857 230.362 111.362 230.362 108.284C230.362 105.206 227.867 102.71 224.789 102.71C221.71 102.71 219.215 105.206 219.215 108.284C219.215 111.362 221.71 113.857 224.789 113.857Z" fill="#07216D"/>
<path d="M224.444 122.324C225.993 120.829 226.79 119.087 227.518 117.121C228.239 115.176 228.124 113.081 226.837 111.398C226.298 110.694 225.639 110.653 224.961 110.128C224.509 109.778 224.321 109.228 223.947 108.815C223.598 108.432 223.07 108.203 222.574 108.054C221.39 107.699 220.149 107.819 218.981 107.389C217.552 106.864 216.551 106.153 214.963 106.205C212.622 106.28 210.172 107.17 209.432 109.611C208.956 111.181 208.671 113.818 209.798 115.182" fill="#07216D"/>
<path d="M210.207 113.511L206.842 116.708L208.918 117.476L210.207 113.511Z" fill="#EF8096"/>
<path d="M225.367 121.688C225.122 121.217 224.732 120.86 224.259 120.631C224.071 120.54 223.932 120.386 223.858 120.206V120.207C221.841 120.036 219.914 118.23 219.233 115.654C218.876 114.302 218.921 112.963 219.285 111.831C218.526 111.955 217.708 111.967 216.869 111.845C214.819 111.546 213.12 110.521 212.197 109.199C211.514 109.805 210.98 110.597 210.698 111.537L208.189 119.907C207.864 120.989 207.915 122.094 208.266 123.083C208.93 124.953 210.715 126.197 212.693 126.365L215.598 126.611C217.225 126.748 218.791 126.339 220.104 125.526C221.007 126.234 222.427 126.334 223.691 125.676C225.322 124.828 226.072 123.042 225.367 121.688Z" fill="#FF91A0"/>
<path d="M210.367 118.904C210.369 118.9 210.37 118.895 210.372 118.891L208.699 118.223L208.217 119.829C208.197 119.898 208.181 119.967 208.164 120.035C209.066 120.254 210.013 119.791 210.367 118.904Z" fill="#FFEDFF"/>
<path d="M224.786 121.897C224.797 121.875 224.476 121.706 223.905 121.689C223.34 121.666 222.533 121.849 221.829 122.371C221.128 122.893 220.702 123.578 220.474 124.084C220.244 124.596 220.185 124.94 220.212 124.948C220.249 124.961 220.367 124.639 220.629 124.163C220.89 123.69 221.318 123.057 221.975 122.569C222.632 122.082 223.374 121.885 223.907 121.863C224.444 121.835 224.775 121.938 224.786 121.897Z" fill="#C65F79"/>
<path d="M221.665 124.695C221.674 124.723 221.859 124.699 222.105 124.536C222.348 124.379 222.642 124.058 222.762 123.612C222.881 123.166 222.786 122.741 222.654 122.483C222.522 122.22 222.375 122.106 222.353 122.126C222.323 122.149 222.415 122.295 222.493 122.548C222.573 122.798 222.626 123.169 222.525 123.549C222.422 123.929 222.191 124.223 221.997 124.4C221.803 124.579 221.65 124.66 221.665 124.695Z" fill="#C65F79"/>
<path d="M223.858 120.206C223.79 120.042 223.776 119.855 223.834 119.673L224.88 116.384C225.826 113.41 224.152 110.237 221.163 109.341L217.06 108.11C215.297 107.582 213.476 108.055 212.195 109.196C213.118 110.519 214.817 111.546 216.87 111.845C217.709 111.967 218.526 111.955 219.286 111.831C218.921 112.963 218.876 114.302 219.234 115.654C219.915 118.229 221.841 120.036 223.858 120.206Z" fill="#07216D"/>
<path d="M216.984 129.383C216.984 129.383 208.391 126.375 204.89 134.077L202.361 141.693L190.302 134.833L185.534 142.177C185.534 142.177 198.442 152.726 206.468 155.596C214.494 158.465 218.832 134.832 218.832 134.832L216.984 129.383Z" fill="#07216D"/>
<path d="M212.688 128.93C212.688 128.93 222.481 126.935 226.223 128.398C229.965 129.862 227.88 132.718 227.88 132.718L224.752 138.884" fill="#07216D"/>
<path d="M212.744 153.611C212.744 153.611 192.877 148.326 188.331 157.837C183.784 167.349 177.398 188.488 177.398 188.488L189.382 191.868L196.436 163.939H213.611L213.349 153.583" fill="#E2A55C"/>
<path d="M191.873 135.727C190.997 136.955 190.159 138.129 189.286 139.353C188.39 140.603 187.533 141.799 186.632 143.056C186.69 143.102 186.745 143.145 186.807 143.194C187.609 142.113 188.527 140.856 189.495 139.502C190.442 138.179 191.317 136.93 192.069 135.839L191.873 135.727Z" fill="#62AFE8"/>
<path d="M206.366 144.143C206.404 144.082 205.248 143.325 203.784 142.451C202.32 141.576 201.105 140.918 201.07 140.98C201.035 141.042 202.191 141.799 203.652 142.672C205.113 143.544 206.328 144.203 206.366 144.143Z" fill="#62AFE8"/>
<path d="M205.894 157.103C204.529 156.965 202.525 156.738 200.04 157.016C198.802 157.165 197.448 157.461 196.083 158.045C194.726 158.629 193.351 159.538 192.272 160.836C191.183 162.119 190.372 163.688 189.702 165.344C189.029 167.003 188.494 168.775 188.024 170.598C186.39 177.356 185.01 183.52 183.969 188.206C184.16 188.227 184.349 188.268 184.533 188.326C185.692 183.672 187.147 177.512 188.772 170.792C189.237 168.986 189.758 167.246 190.404 165.626C191.047 164.007 191.814 162.504 192.818 161.293C193.808 160.072 195.063 159.213 196.341 158.631C197.624 158.053 198.918 157.735 200.111 157.557C202.51 157.219 204.504 157.356 205.87 157.403C207.24 157.47 208.001 157.5 208.006 157.445C208.011 157.394 207.262 157.262 205.894 157.103Z" fill="#C68647"/>
<path d="M183.692 188.321C185.955 189.008 188.061 189.639 189.814 190.158L189.867 189.95C188.123 189.406 186.026 188.761 183.766 188.075C181.677 187.44 179.721 186.854 178.054 186.36C178.032 186.431 178.01 186.501 177.988 186.57C179.649 187.087 181.602 187.687 183.692 188.321Z" fill="#C68647"/>
<path d="M199.964 187.378L199.383 186.174L227.263 175.456L227.844 176.66L199.964 187.378Z" fill="#4A93C6"/>
<path d="M227.262 187.378L199.382 176.66L199.963 175.456L227.844 186.174L227.262 187.378Z" fill="#4A93C6"/>
<path d="M196.626 200.987C196.037 200.896 195.634 200.344 195.726 199.756L200.936 166.26L203.067 166.592L197.857 200.087C197.765 200.676 197.214 201.078 196.626 200.987Z" fill="#262154"/>
<path d="M230.603 200.987C231.192 200.896 231.595 200.344 231.503 199.756L226.293 166.26L224.162 166.592L229.372 200.087C229.463 200.676 230.015 201.078 230.603 200.987Z" fill="#262154"/>
<path d="M204.901 161.208L212.914 132.478C213.499 130.381 215.41 128.93 217.588 128.93H235.467C238.613 128.93 240.927 131.878 240.18 134.934L232.636 165.802L204.901 161.208Z" fill="#62AFE8"/>
<g opacity="0.17">
<path d="M238.602 130.082C236.796 135.81 233.906 141.197 230.108 145.85C227.717 148.779 224.874 151.486 221.35 152.851C216.803 154.612 211.593 153.972 207.058 155.764C206.812 155.861 206.571 155.968 206.332 156.079L204.901 161.208L232.636 165.802L240.18 134.934C240.639 133.055 239.938 131.219 238.602 130.082Z" fill="#62AFE8"/>
</g>
<path d="M230.951 167.488H196.273C195.342 167.488 194.587 166.733 194.587 165.802V164.016C194.587 162.012 196.212 160.387 198.216 160.387H229.008C231.012 160.387 232.637 162.012 232.637 164.016V165.802C232.637 166.733 231.882 167.488 230.951 167.488Z" fill="#4C96C9"/>
<path d="M93.418 185.636L93.4354 190.486C93.4354 190.486 98.641 190.273 99.4203 193.128L85.8984 191.854L87.09 182.728L93.418 185.636Z" fill="#FF91A0"/>
<path d="M93.4354 190.486L93.435 190.292C91.0336 189.963 88.6327 189.634 86.2313 189.305L85.8984 191.854L99.4203 193.128C98.641 190.273 93.4354 190.486 93.4354 190.486Z" fill="#4A93C6"/>
<path d="M84.7256 154.644L82.793 185.767L97.4262 186.381L96.7382 153.423L84.7256 154.644Z" fill="#417FB0"/>
<path d="M90.5408 183.507C90.3055 183.472 90.6593 183.509 90.7057 183.508C90.7516 183.507 91.1067 183.472 90.8705 183.507C90.9472 183.496 91.0234 183.492 91.0987 183.493C91.2462 173.627 91.5349 163.763 91.9814 153.906L91.0867 153.997C90.6424 163.826 90.3545 173.661 90.207 183.499C90.3162 183.49 90.428 183.49 90.5408 183.507Z" fill="#4A93C6"/>
<path d="M82.9395 183.41C87.7511 183.663 92.5641 183.885 97.3784 184.078L97.369 183.632C92.5668 183.439 87.7662 183.219 82.9666 182.966L82.9395 183.41Z" fill="#4A93C6"/>
<path d="M109.355 136.53C111.969 135.959 114.794 136.424 117.086 137.803C118.492 138.648 116.344 138.654 115.752 138.464C115.358 138.337 113.756 137.873 113.581 137.492C114.095 138.614 115.153 139.471 116.357 139.741C117.261 139.944 118.16 139.973 119.083 139.966C119.312 139.964 119.574 139.977 119.718 140.154C120.048 140.558 118.914 140.911 118.694 140.984C117.674 141.321 116.353 141.11 115.343 140.838C114.782 140.688 114.222 140.537 113.661 140.386C113.786 140.42 113.99 140.701 114.098 140.789C114.716 141.288 115.497 141.542 116.264 141.699C116.667 141.781 117.073 141.827 117.48 141.879C117.833 141.925 118.136 142.066 118.499 142.074C118.667 142.078 118.857 142.086 118.968 142.212C119.214 142.493 118.79 142.874 118.429 142.969C117.631 143.179 116.787 143.17 115.977 143.043C115.141 142.911 114.392 142.564 113.569 142.386C113.704 142.415 113.97 142.777 114.09 142.873C114.307 143.046 114.54 143.199 114.785 143.33C115.265 143.587 115.796 143.712 116.276 143.97C116.355 144.012 116.436 144.063 116.471 144.146C116.544 144.323 116.354 144.501 116.171 144.553C115.924 144.623 115.659 144.583 115.408 144.531C114.589 144.36 113.879 144.02 113.126 143.675C112.59 143.429 112.016 143.323 111.481 143.065C109.994 142.347 108.325 142.136 106.724 142.59" fill="#FF91A0"/>
<path d="M71.2754 113.048C69.5233 111.484 68.58 109.619 67.7026 107.507C66.8345 105.417 66.8706 103.129 68.2025 101.239C68.76 100.448 69.4765 100.376 70.1939 99.7745C70.6716 99.3739 70.8526 98.7661 71.2438 98.3004C71.6074 97.8677 72.1724 97.595 72.7076 97.4119C73.9838 96.9748 75.3416 97.0527 76.5964 96.5349C78.132 95.9013 79.1925 95.0836 80.9264 95.072C83.481 95.0551 86.189 95.9205 87.0998 98.5504C87.5792 99.9345 87.7049 101.44 87.4616 102.884" fill="#FCC26F"/>
<path d="M85.5947 101.339L89.9447 106.3L86.4231 107.521" fill="#ED798F"/>
<path d="M91.9189 140.96C93.4277 144.524 94.9361 148.088 96.4449 151.652C94.5364 152.176 92.5249 152.146 90.5469 152.09C87.6152 152.007 84.6845 151.874 81.7573 151.692C81.9364 149.066 81.596 146.405 80.7614 143.909C80.568 143.331 80.3461 142.714 80.5105 142.128" fill="#092D84"/>
<g opacity="0.29">
<path d="M91.7147 185.979C91.7107 186.033 91.7116 186.087 91.7085 186.141L97.4256 186.382L96.7371 153.423L84.7285 154.644C87.3304 158.102 89.6017 161.825 91.1283 165.869C92.8408 170.404 93.5889 175.368 92.7744 180.148C92.4424 182.097 91.8546 184.006 91.7147 185.979Z" fill="#417FB0"/>
</g>
<path d="M77.5451 124.492L83.3701 124.692L83.7447 113.745L77.9197 113.546L77.5451 124.492Z" fill="#ED798F"/>
<path d="M110.177 135.438L95.308 135.818C95.308 135.818 92.1709 126.15 90.2829 123.066C88.3949 119.982 79.8303 121.561 79.8303 121.561C79.8303 121.561 75.9139 141.373 87.5184 144.844C95.3116 147.176 105.487 145.651 111.336 144.398C111.101 141.394 110.703 138.41 110.177 135.438Z" fill="#092D84"/>
<path d="M124.963 176.744L128.481 180.083C128.481 180.083 131.924 176.173 134.527 177.583L124.262 186.477L118.488 179.309L124.963 176.744Z" fill="#FF91A0"/>
<path d="M128.482 180.083L128.341 179.95C126.444 181.458 124.547 182.967 122.65 184.475L124.263 186.477L134.528 177.583C131.925 176.172 128.482 180.083 128.482 180.083Z" fill="#4A93C6"/>
<path d="M87.9639 145.737C87.9639 145.737 100.733 143.936 105.263 146.618C109.793 149.3 128.505 175.687 128.505 175.687L117.776 184.348C117.776 184.348 99.0848 161.076 96.6407 159.087C94.197 157.099 89.0449 158.535 89.0449 158.535L87.9639 145.737Z" fill="#4A93C6"/>
<path d="M116.276 182.485C119.816 179.479 123.406 176.531 127.043 173.642C126.96 173.527 126.873 173.407 126.784 173.283C123.141 176.176 119.544 179.128 115.997 182.139C116.092 182.258 116.186 182.374 116.276 182.485Z" fill="#3A70A1"/>
<path d="M121.756 177.841C117.937 171.727 113.84 165.78 109.404 160.105C106.711 156.66 103.791 153.398 99.7117 151.613C96.1825 150.068 92.1823 150.203 88.376 150.61L88.4513 151.501C92.5794 151.09 96.7262 151.079 100.555 152.986C104.607 155.005 107.482 159.016 110.142 162.527C114.035 167.666 117.671 172.996 121.087 178.464C121.288 178.234 121.515 178.029 121.756 177.841Z" fill="#3A70A1"/>
<path d="M70.2422 112.395C70.4899 111.87 70.8994 111.465 71.4052 111.195C71.6062 111.087 71.7514 110.914 71.825 110.715V110.715C74.0165 110.443 76.0399 108.392 76.6727 105.555C77.0047 104.067 76.8986 102.609 76.4535 101.39C77.2868 101.494 78.1784 101.471 79.0879 101.303C81.311 100.89 83.1184 99.7001 84.0684 98.2198C84.8393 98.8517 85.4547 99.6921 85.8018 100.705L88.8934 109.723C89.2931 110.888 89.2847 112.096 88.9438 113.188C88.299 115.256 86.4065 116.687 84.2574 116.954L81.1002 117.346C79.333 117.565 77.608 117.185 76.1433 116.355C75.1884 117.165 73.6453 117.335 72.2389 116.671C70.4253 115.815 69.5314 113.9 70.2422 112.395Z" fill="#FF91A0"/>
<path d="M91.5027 152.212L83.4899 123.483C82.9048 121.385 80.994 119.934 78.8163 119.934H60.9373C57.7913 119.934 55.4769 122.882 56.2241 125.938L63.7683 156.807L91.5027 152.212Z" fill="#FCC26F"/>
<g opacity="0.26">
<path d="M89.5764 145.309C86.639 144.782 83.6071 144.644 80.6291 144.769C78.3454 144.864 75.9828 145.09 73.8377 144.301C71.5365 143.455 69.7898 141.538 68.4351 139.495C65.7722 135.477 64.3004 130.806 62.1891 126.473C61.1829 124.407 59.966 122.37 58.4879 120.603C56.7179 121.644 55.6913 123.76 56.2238 125.938L63.7679 156.807L91.5023 152.212L89.5764 145.309Z" fill="#FCC26F"/>
</g>
<path d="M69.143 176.612L68.5615 175.408L96.4417 164.69L97.0232 165.894L69.143 176.612Z" fill="#EDAC69"/>
<path d="M96.4417 176.612L68.5615 165.894L69.143 164.69L97.0232 175.408L96.4417 176.612Z" fill="#EDAC69"/>
<path d="M65.8033 196.909C65.2147 196.818 64.8119 196.266 64.9037 195.678L70.1132 155.494L72.2446 155.825L67.035 196.01C66.9432 196.598 66.392 197.001 65.8033 196.909Z" fill="#262154"/>
<path d="M99.782 196.909C100.371 196.818 100.774 196.266 100.682 195.678L95.4722 155.494L93.3408 155.825L98.5504 196.01C98.6426 196.598 99.1938 197.001 99.782 196.909Z" fill="#262154"/>
<path d="M65.4547 158.493H100.133C101.064 158.493 101.819 157.738 101.819 156.807V155.021C101.819 153.017 100.194 151.392 98.1898 151.392H67.3976C65.3932 151.392 63.7686 153.017 63.7686 155.021V156.807C63.7686 157.738 64.5234 158.493 65.4547 158.493Z" fill="#EDAC69"/>
<path d="M70.8832 112.598C70.897 112.642 71.253 112.514 71.8403 112.522C72.4218 112.524 73.2395 112.708 73.9761 113.21C74.7136 113.714 75.2073 114.386 75.5112 114.89C75.8173 115.398 75.9599 115.744 75.9992 115.729C76.029 115.719 75.9493 115.348 75.677 114.799C75.4074 114.256 74.9141 113.528 74.1272 112.989C73.3376 112.45 72.4495 112.285 71.8354 112.333C71.2129 112.376 70.8702 112.574 70.8832 112.598Z" fill="#ED798F"/>
<path d="M74.4044 115.515C74.4187 115.476 74.2489 115.394 74.0292 115.207C73.8105 115.023 73.5462 114.712 73.4183 114.302C73.2918 113.891 73.3337 113.485 73.4103 113.21C73.4852 112.931 73.5792 112.767 73.5453 112.743C73.5204 112.723 73.3644 112.853 73.2316 113.146C73.0993 113.433 73.0137 113.899 73.1621 114.381C73.3123 114.862 73.6465 115.199 73.9178 115.36C74.1932 115.527 74.3955 115.545 74.4044 115.515Z" fill="#ED798F"/>
<path d="M71.8238 110.715C71.8911 110.532 71.8987 110.328 71.8274 110.132L70.5467 106.591C69.3886 103.389 71.0792 99.8597 74.3 98.7555L78.72 97.24C80.6196 96.5885 82.6248 97.0274 84.0695 98.2158C83.1199 99.6979 81.3112 100.889 79.0863 101.302C78.1768 101.471 77.2851 101.493 76.4519 101.39C76.8975 102.609 77.0035 104.066 76.6711 105.555C76.0388 108.392 74.0153 110.443 71.8238 110.715Z" fill="#FCC26F"/>
<path d="M86.5858 108.648C86.924 109.721 87.9685 110.374 89.0455 110.258C89.0032 110.079 88.9551 109.9 88.894 109.722L88.3339 108.089L86.584 108.64C86.5849 108.643 86.5849 108.646 86.5858 108.648Z" fill="#FFEDFF"/>
<path d="M243.478 8.07249C231.518 -7.12622 195.287 -0.0353025 198.442 22.4009C199.005 26.4034 200.873 30.0858 202.111 33.9332C202.623 35.5262 203.028 37.2489 202.565 38.8571C202.102 40.4644 200.647 41.6364 198.961 41.5624C202.607 46.2056 211.225 45.5706 216.308 45.178C223.596 44.6152 231.085 43.0726 237.156 38.7818C244.121 33.8588 246.412 26.619 246.694 18.4667C246.841 14.2437 245.618 10.7916 243.478 8.07249Z" fill="#BABEFF"/>
<g opacity="0.18">
<path d="M238.504 3.71802C235.924 5.31418 233.819 7.75297 232.252 10.3896C230.029 14.1327 228.694 18.3218 226.989 22.3278C225.285 26.3338 223.099 30.2984 219.648 32.9524C215.233 36.3475 209.29 37.1447 203.749 36.5805C203.404 36.5453 203.057 36.503 202.71 36.4544C202.809 37.2636 202.791 38.0742 202.566 38.8576C202.103 40.4649 200.648 41.6368 198.962 41.5628C202.608 46.206 211.226 45.5711 216.309 45.1785C223.597 44.6157 231.086 43.073 237.157 38.7823C244.122 33.8592 246.413 26.6195 246.695 18.4671C246.841 14.2441 245.618 10.792 243.479 8.07292C242.109 6.3306 240.416 4.88506 238.504 3.71802Z" fill="#BABEFF"/>
</g>
<path d="M153.857 1.2471C148.581 -0.239441 142.567 -0.373568 137.211 0.719502C128.688 2.45825 120.683 9.17219 120.653 18.4341C120.642 22.0845 121.911 25.6026 123.163 29.0319C124.415 32.4609 125.683 35.9803 125.666 39.6307C125.65 43.2811 124.085 47.1498 120.889 48.9135C125.637 50.2628 130.65 50.3216 135.584 50.1777C140.373 50.0378 145.195 49.7107 149.82 48.4643C154.447 47.218 158.902 44.9944 162.192 41.512C167.362 36.0395 169.094 28.0926 168.995 20.5645C168.974 18.9363 168.876 17.3014 168.539 15.7079C167.041 8.64415 160.807 3.20553 153.857 1.2471Z" fill="#BACBFD"/>
<g opacity="0.26">
<path d="M162.191 41.5117C162.86 40.8036 163.469 40.0524 164.027 39.2676C157.775 39.5007 151.42 40.6914 145.609 38.5435C138.957 36.0851 134.395 29.4576 133.183 22.4705C131.972 15.4835 133.733 8.24549 136.804 1.85417C136.993 1.46204 137.192 1.07347 137.392 0.685791C137.332 0.697822 137.27 0.707626 137.211 0.719657C128.688 2.45841 120.683 9.17235 120.653 18.4343C120.642 22.0847 121.911 25.6027 123.163 29.0321C124.415 32.461 125.683 35.9804 125.666 39.6308C125.65 43.2812 124.085 47.15 120.889 48.9141C125.637 50.2634 130.65 50.3222 135.584 50.1783C140.373 50.0384 145.195 49.7113 149.82 48.4649C154.446 47.2177 158.901 44.9946 162.191 41.5117Z" fill="#BACBFD"/>
</g>
<path d="M56.7356 62.4631C53.0259 58.0841 48.0944 54.7448 42.5025 53.2983C37.8317 52.0903 32.9706 51.765 28.1469 51.8483C22.4757 51.9459 17.435 52.9681 12.6599 56.1302C1.73229 63.3663 -3.54769 77.7754 3.05752 89.7413C7.26403 97.3616 15.8 102.258 24.5009 102.512C30.4676 102.687 36.3523 100.87 42.3207 100.969C45.9002 101.028 49.8608 102.046 51.7497 105.087C52.9809 107.07 53.0883 109.533 53.0402 111.866C59.1704 104.818 62.8849 95.7062 63.4304 86.381C63.6442 82.7243 64.1389 79.1069 63.3043 75.5118C62.4933 72.0182 61.0566 68.6722 59.1089 65.6617C58.3883 64.5468 57.5947 63.4769 56.7356 62.4631Z" fill="#BABEFF"/>
<g opacity="0.21">
<path d="M63.1291 89.4543C62.167 89.3304 61.2032 89.24 60.2447 89.1874C53.4135 88.8126 46.5926 89.9168 39.7535 90.0973C32.9143 90.2778 25.7405 89.4186 20.0773 85.5811C14.0144 81.4726 10.4295 74.2828 9.76337 66.9895C9.48664 63.9612 9.67914 60.9235 10.233 57.9388C0.99162 65.5859 -3.03576 78.7009 3.05834 89.7413C7.26485 97.3616 15.8009 102.258 24.5018 102.512C30.4684 102.687 36.3531 100.87 42.3215 100.969C45.9011 101.028 49.8616 102.046 51.7505 105.087C52.9817 107.07 53.0891 109.533 53.041 111.866C58.4948 105.595 62.0302 97.6895 63.1291 89.4543Z" fill="#BABEFF"/>
</g>
<path d="M70.8898 33.0419C66.2586 31.7368 60.9795 31.6196 56.277 32.579C48.7953 34.1051 41.7685 39.9987 41.7423 48.1292C41.732 51.3336 42.8465 54.4221 43.9453 57.4321C45.0442 60.4422 46.1569 63.5316 46.1431 66.7359C46.1292 69.9403 44.7545 73.3367 41.949 74.8847C46.1172 76.0691 50.5171 76.1204 54.8484 75.9943C59.0522 75.8717 63.285 75.5843 67.3458 74.4904C71.4067 73.3964 75.3177 71.4447 78.2062 68.3874C82.7446 63.5833 84.2646 56.6073 84.1777 49.999C84.159 48.5695 84.0734 47.1347 83.7771 45.7359C82.4635 39.5353 76.9905 34.7611 70.8898 33.0419Z" fill="#FCC26F"/>
<g opacity="0.17">
<path d="M78.2034 68.3874C82.7419 63.5833 84.2619 56.6073 84.175 49.999C84.1563 48.5695 84.0707 47.1347 83.7744 45.7359C83.0922 42.5142 81.2812 39.6837 78.8482 37.4606C77.7926 38.8865 76.9303 40.5272 76.1674 42.1038C74.094 46.3887 72.1182 50.7213 70.2422 55.0963C68.4148 59.3581 66.4786 63.9153 62.6148 66.4793C60.2928 68.0202 57.493 68.6712 54.7267 69.0059C51.8053 69.3588 48.8153 69.3802 45.9238 68.882C45.4394 71.3604 44.1271 73.6812 41.9463 74.8847C46.1145 76.0692 50.5144 76.1204 54.8457 75.9943C59.0495 75.8718 63.2823 75.5848 67.3431 74.4904C71.4044 73.3964 75.3154 71.4447 78.2034 68.3874Z" fill="#FCC26F"/>
</g>
</svg>
