<svg width="226" height="230" viewBox="0 0 226 230" fill="none" xmlns="http://www.w3.org/2000/svg">
<g opacity="0.5">
<path d="M138.539 169.838C138.58 169.783 138.619 169.731 138.662 169.68C139.657 168.393 140.816 167.058 142.15 165.668C146.614 161.017 151.872 157.574 157.058 155.243C157.113 155.216 157.169 155.192 157.225 155.169C166.987 150.82 176.464 150.405 179.885 153.258C180.005 153.358 180.123 153.469 180.235 153.591L180.339 153.705C183.626 157.475 183.555 169.97 176.922 181.479L176.795 181.697C175.199 184.433 173.228 187.11 170.841 189.597C159.173 201.755 150.426 201.039 143.006 195.918C142.938 195.87 142.87 195.823 142.801 195.776C142.759 195.744 142.716 195.715 142.673 195.683C142.505 195.565 142.339 195.444 142.173 195.321C141.664 194.943 141.162 194.545 140.665 194.131C139.365 193.046 138.184 191.914 137.175 190.72C133.275 186.104 131.941 180.558 136.23 173.24C136.871 172.146 137.637 171.013 138.539 169.838Z" fill="#C8E69A"/>
<path d="M149.388 185.455C152.883 180.357 156.583 175.381 160.666 170.708C160.701 170.667 160.735 170.629 160.769 170.589C163.909 167.004 167.278 163.596 170.952 160.449C173.866 157.953 176.96 155.653 180.234 153.591L180.338 153.705C169.1 160.799 160.32 170.585 152.729 181.024C152.699 181.065 152.668 181.109 152.638 181.15C150.944 183.485 149.308 185.852 147.717 188.228C146.268 190.395 144.847 192.578 143.445 194.772C143.229 195.106 143.015 195.442 142.801 195.776C142.758 195.744 142.716 195.715 142.673 195.683C143.031 195.119 143.392 194.554 143.753 193.991C145.561 191.17 147.4 188.358 149.303 185.581C149.33 185.54 149.358 185.497 149.388 185.455Z" fill="white"/>
<path d="M160.843 170.669C160.913 170.742 160.79 170.843 160.722 170.769C160.704 170.748 160.684 170.729 160.667 170.708C158.517 168.39 157.841 165.116 157.379 162.155C157.023 159.867 156.92 157.551 157.058 155.243C157.113 155.216 157.169 155.192 157.225 155.168C157.086 157.377 157.17 159.591 157.487 161.785C157.925 164.816 158.58 168.212 160.77 170.589C160.794 170.616 160.817 170.642 160.843 170.669Z" fill="white"/>
<path d="M152.636 180.981C152.668 180.996 152.699 181.009 152.73 181.024C160.121 184.397 169.33 184.7 176.922 181.479L176.796 181.696C169.192 184.854 160.006 184.524 152.639 181.15C152.621 181.142 152.601 181.133 152.583 181.125C152.492 181.082 152.543 180.939 152.636 180.981Z" fill="white"/>
<path d="M149.465 185.514C149.544 185.575 149.454 185.701 149.375 185.638C149.351 185.618 149.325 185.601 149.302 185.581C144.083 181.581 140.286 175.96 138.538 169.838C138.579 169.783 138.619 169.731 138.661 169.68C140.384 175.811 144.169 181.45 149.388 185.455C149.414 185.475 149.438 185.495 149.465 185.514Z" fill="white"/>
</g>
<path d="M93.6583 223.433L93.6525 223.422L90.0866 215.507L85.6564 205.672L84.8333 203.846L81.4162 196.262L79.6441 192.332C79.6441 192.331 79.6441 192.331 79.6441 192.33L77.7015 188.016L77.6912 187.995L71.7224 174.746L71.6205 174.52C71.5919 174.443 71.5632 174.366 71.5324 174.29C71.2164 173.467 70.833 172.673 70.39 171.914C69.3872 170.189 68.0833 168.641 66.5688 167.328C65.8304 166.686 65.0416 166.1 64.2129 165.576C61.9325 164.135 59.3511 163.16 56.6883 162.791C56.5051 162.764 56.3221 162.741 56.1389 162.723C54.9105 162.589 53.6685 162.587 52.4322 162.725C48.9257 163.12 45.1686 164.954 44.1933 168.332C43.6817 170.103 43.9826 172.14 42.9616 173.677C41.3188 176.148 37.5881 175.694 34.7571 174.79C29.9124 173.243 25.2064 171.218 20.2335 170.144C15.2606 169.072 9.84938 169.025 5.30921 171.318C3.43753 172.263 1.70207 173.663 0.851527 175.566C0.829757 175.613 0.80913 175.66 0.789652 175.707C0.777049 175.738 0.764446 175.768 0.752988 175.798C-0.491318 178.897 0.830901 182.432 2.50678 185.333C3.95949 187.847 5.71328 190.234 7.99247 192.041C14.2989 197.041 23.5189 196.863 30.0613 201.553C31.2895 202.435 32.4801 203.625 32.6026 205.128C32.7503 206.938 31.2884 208.504 29.6983 209.397C28.1094 210.29 26.2937 210.781 24.824 211.858C21.8293 214.054 20.9616 218.414 22.2483 221.886C23.535 225.357 26.6075 227.95 30.0189 229.417C30.5181 229.632 31.0251 229.825 31.5392 229.999H72.4644C73.5016 229.804 74.5354 229.592 75.5655 229.366C75.5667 229.366 75.5667 229.365 75.5678 229.365C81.7862 228.005 87.882 226.111 93.7593 223.657L93.6583 223.433Z" fill="white"/>
<path d="M93.6659 223.417C93.5822 223.452 93.4978 223.485 93.4141 223.52C93.4488 223.597 93.4835 223.674 93.5183 223.751C93.5674 223.64 93.6166 223.528 93.6659 223.417Z" fill="#FBE9DD"/>
<path d="M70.7386 172.034C71.1714 172.8 71.5479 173.599 71.8616 174.427C71.8135 174.319 71.7197 174.273 71.6258 174.273C71.6098 174.273 71.5949 174.275 71.5789 174.278C71.5628 174.28 71.5479 174.284 71.5319 174.29C71.5227 174.292 71.5124 174.295 71.5032 174.3C71.501 174.301 71.4987 174.302 71.4964 174.303C71.4734 174.315 71.4517 174.328 71.4333 174.345C71.423 174.353 71.4139 174.363 71.4047 174.373C71.3978 174.382 71.391 174.391 71.3852 174.401C71.3795 174.409 71.3761 174.417 71.3726 174.426C71.3703 174.429 71.3692 174.433 71.368 174.436C71.3635 174.448 71.36 174.46 71.3577 174.474C71.3566 174.479 71.3554 174.483 71.3554 174.489C71.3543 174.495 71.3543 174.501 71.3543 174.51C71.3543 174.522 71.3554 174.534 71.3577 174.546C71.36 174.559 71.3635 174.573 71.368 174.586C70.996 173.608 70.5404 172.668 70.0024 171.776C69.6727 171.23 69.3133 170.702 68.9217 170.193C68.2108 169.269 67.3992 168.406 66.5063 167.62C65.7874 166.986 65.0158 166.404 64.203 165.878C61.9582 164.425 59.4019 163.418 56.7758 163.028C56.5823 162.998 56.3889 162.973 56.1942 162.951C54.3203 162.738 52.4199 162.845 50.5803 163.331C48.9914 163.752 47.4414 164.47 46.2291 165.592C44.8656 166.852 44.3356 168.405 44.1285 170.206C43.9545 171.724 43.8022 173.329 42.646 174.46C41.7657 175.322 40.5396 175.689 39.3308 175.755C35.8198 175.95 32.2814 174.238 29.0565 173.095C25.0029 171.657 20.8864 170.257 16.5809 169.825C12.4277 169.409 7.92536 169.886 4.33426 172.165C3.00288 173.01 1.83292 174.136 1.15641 175.541C1.07977 175.699 1.00988 175.862 0.946987 176.026C0.84285 176.295 0.758062 176.573 0.692881 176.86C0.238392 178.854 0.738711 180.931 1.51363 182.779C3.03165 186.404 5.55235 189.982 8.76229 192.3C11.6242 194.367 15.0379 195.475 18.3874 196.482C20.393 197.085 22.4238 197.658 24.3929 198.385C24.5257 198.434 24.6573 198.483 24.7889 198.534C25.8284 198.931 26.8472 199.374 27.8352 199.891C30.1636 201.11 33.662 203.273 32.7141 206.402C31.6368 209.953 27.2593 210.211 24.75 212.24C21.9372 214.512 21.2859 218.68 22.544 221.936C24.2737 226.411 28.143 228.738 32.5091 230H30.9649C25.8158 228.011 21.1658 224.127 21.4222 218.189C21.563 214.938 23.2652 212.206 26.1912 210.751C28.0423 209.829 30.1749 209.254 31.5063 207.564C33.2338 205.37 31.8601 203.171 29.8968 201.754C23.9566 197.467 16.1264 197.339 9.88399 193.646C6.59512 191.701 4.17971 188.759 2.29645 185.486C0.577032 182.495 -0.920364 178.665 0.684606 175.309C2.23572 172.064 6.01574 170.357 9.35617 169.639C13.4568 168.756 17.7347 169.221 21.7596 170.24C25.9781 171.308 30.0122 172.962 34.1379 174.32C35.9112 174.903 37.8058 175.429 39.6935 175.207C41.9144 174.946 43.1438 173.51 43.4712 171.356C43.7162 169.738 43.7471 168.149 44.632 166.713C45.3819 165.497 46.5037 164.566 47.7527 163.888C50.5997 162.345 54.0249 162.085 57.1798 162.604C59.6892 163.017 62.0932 163.947 64.2361 165.287C65.0764 165.813 65.8778 166.402 66.6276 167.048C68.2705 168.462 69.6751 170.147 70.7386 172.034Z" fill="#FBE9DD"/>
<path d="M93.853 223.898C91.837 224.735 89.7971 225.514 87.733 226.225C83.2845 227.758 78.7352 228.991 74.1252 229.934C74.0165 229.957 73.9088 229.979 73.8012 230H70.9805C72.8338 229.672 74.678 229.299 76.512 228.878C82.2759 227.558 87.9333 225.778 93.4132 223.519C93.4488 223.597 93.483 223.674 93.5174 223.75C93.5644 223.645 93.6112 223.538 93.6582 223.433C93.6605 223.427 93.6628 223.423 93.6651 223.417C93.6605 223.419 93.657 223.421 93.6525 223.422C93.5735 223.455 93.4933 223.486 93.4132 223.519C92.5432 221.587 91.672 219.654 90.8009 217.722C90.4746 216.998 90.1484 216.274 89.8233 215.55C88.3511 212.284 86.8801 209.018 85.4091 205.752C85.1573 205.194 84.9054 204.635 84.6536 204.076C83.534 201.59 82.4132 199.103 81.2937 196.617C81.2937 196.617 81.2937 196.617 81.2937 196.616C80.7224 195.35 80.1524 194.085 79.5823 192.818V192.816C79.3454 192.292 79.1094 191.77 78.8737 191.246C78.3974 190.19 77.9224 189.134 77.4462 188.078C77.4439 188.072 77.4416 188.066 77.4382 188.06C75.4245 183.591 73.4109 179.122 71.3973 174.652C71.403 174.663 71.4087 174.673 71.4168 174.681C71.4202 174.684 71.4225 174.689 71.4259 174.692C71.4294 174.697 71.4328 174.702 71.4385 174.706C71.4454 174.714 71.4534 174.721 71.4626 174.727C71.4717 174.735 71.4809 174.741 71.4912 174.745C71.497 174.749 71.5027 174.751 71.5084 174.753C71.5565 174.775 71.6114 174.777 71.6641 174.766C71.6744 174.763 71.6836 174.761 71.6939 174.758C71.7042 174.755 71.7134 174.751 71.7225 174.746C71.734 174.742 71.7443 174.737 71.7546 174.73C71.7649 174.725 71.7753 174.718 71.7844 174.71C71.7947 174.703 71.8039 174.695 71.8119 174.686C71.8451 174.651 71.8692 174.609 71.8772 174.56C71.8795 174.547 71.8807 174.534 71.8807 174.522C71.8807 174.492 71.8749 174.46 71.8623 174.427C72.7679 176.436 73.6733 178.446 74.5788 180.455C75.7018 182.947 76.8236 185.439 77.9467 187.93C77.9513 187.941 77.9548 187.95 77.9593 187.959C78.5409 189.25 79.1236 190.542 79.7051 191.833C80.3165 193.189 80.9265 194.546 81.5378 195.901C82.6963 198.474 83.8548 201.045 85.0133 203.616C85.3098 204.274 85.6063 204.932 85.9028 205.591C86.1044 206.037 86.3058 206.485 86.5073 206.931C87.7883 209.775 89.0704 212.62 90.3515 215.463C91.5684 218.164 92.7841 220.863 94.001 223.563C94.059 223.694 93.9766 223.846 93.853 223.898Z" fill="#FBE9DD"/>
<path d="M71.3786 174.614C71.496 174.923 71.9788 174.738 71.861 174.427C71.7255 174.126 71.2419 174.31 71.3786 174.614Z" fill="#FBE9DD"/>
<path d="M20.2604 179.075C13.8891 177.719 7.46716 176.615 1.04588 175.521C0.717044 175.465 0.630981 175.974 0.959307 176.029C22.1429 179.637 44.1611 183.57 62.211 195.941C66.8329 199.109 71.0882 202.791 74.7841 206.998C75.0015 207.246 75.4221 206.944 75.2023 206.694C61.209 190.763 40.502 183.384 20.2604 179.075Z" fill="#FBE9DD"/>
<path d="M24.5379 198.085C24.2403 198.228 24.4243 198.71 24.7252 198.565C34.1755 194.019 44.5442 191.588 55.0322 191.407C55.3653 191.402 55.3112 190.889 54.98 190.895C44.4512 191.076 34.0249 193.521 24.5379 198.085Z" fill="#FBE9DD"/>
<path d="M60.7904 193.871C61.8303 183.341 60.398 172.551 56.6388 162.658C56.521 162.349 56.038 162.534 56.1562 162.845C59.8816 172.649 61.3106 183.349 60.28 193.785C60.2474 194.114 60.7577 194.201 60.7904 193.871Z" fill="#FBE9DD"/>
<path d="M82.8656 216.094C82.8631 216.637 82.8475 217.173 82.8164 217.701C82.8059 217.873 82.7943 218.044 82.7801 218.215C82.7775 218.259 82.7736 218.302 82.7698 218.347C82.7633 218.416 82.7568 218.485 82.7517 218.553C82.346 222.833 80.7869 226.489 76.9015 228.73C76.5632 228.925 76.2069 229.109 75.8322 229.282C75.831 229.282 75.831 229.283 75.8297 229.283C75.3217 229.52 74.7786 229.733 74.1994 229.926C74.1242 229.95 74.049 229.975 73.9727 230H56.5995C56.2832 229.919 55.971 229.836 55.6598 229.75L55.4537 229.693C44.5945 226.595 36.6124 219.047 35.9722 214.827L35.9554 214.696C35.9386 214.558 35.9294 214.42 35.9308 214.289C35.9451 210.548 41.2716 205.237 49.2499 202.147C49.2952 202.129 49.3406 202.111 49.3872 202.095C53.6394 200.466 58.6368 199.471 63.9776 199.676C64.2485 199.686 64.5142 199.699 64.7772 199.713H64.7785C65.1998 199.737 65.6106 199.764 66.0135 199.798C66.8443 199.865 67.636 199.954 68.3917 200.065C68.4461 200.071 68.5019 200.08 68.5589 200.089C69.7863 200.273 70.9164 200.512 71.9545 200.799C71.9713 200.805 71.9882 200.808 72.005 200.814H72.0063C72.408 200.926 72.7968 201.047 73.1714 201.174C74.225 201.533 75.1711 201.948 76.0213 202.416C76.0213 202.414 76.0213 202.414 76.0226 202.416C76.2092 202.518 76.3919 202.623 76.5695 202.732C77.4184 203.246 78.1622 203.817 78.8116 204.437C79.8354 205.413 80.6247 206.512 81.2235 207.708C81.8819 209.024 82.3095 210.457 82.5622 211.972C82.7034 212.826 82.7916 213.708 82.8344 214.61C82.8578 215.098 82.8669 215.593 82.8656 216.094Z" fill="#C8E69A"/>
<path d="M72.6901 215.945C67.5818 214.899 62.4421 214.049 57.2897 213.607C57.2459 213.603 57.203 213.6 57.1591 213.595C53.2027 213.261 49.2368 213.169 45.273 213.414C42.1296 213.608 39.0147 214.027 35.9551 214.697L35.9718 214.827C46.4853 212.539 57.3968 213.329 68.0877 215.214C68.13 215.222 68.1744 215.23 68.2166 215.237C70.6065 215.661 72.9851 216.139 75.3455 216.648C77.4966 217.113 79.6438 217.605 81.7875 218.114C82.1155 218.191 82.443 218.269 82.7696 218.346C82.7725 218.302 82.7763 218.259 82.7793 218.215C82.2289 218.083 81.6774 217.951 81.1267 217.821C78.3669 217.169 75.5969 216.54 72.8151 215.97C72.7744 215.962 72.7324 215.952 72.6901 215.945Z" fill="white"/>
<path d="M57.1712 213.687C57.1806 213.773 57.31 213.761 57.2993 213.677C57.2958 213.653 57.2946 213.63 57.2897 213.608C56.9646 210.937 55.2445 208.552 53.6093 206.482C52.3449 204.883 50.9279 203.416 49.3864 202.095C49.3396 202.111 49.2948 202.129 49.25 202.148C50.7284 203.408 52.0906 204.802 53.3165 206.32C55.0092 208.419 56.8185 210.866 57.1591 213.595C57.164 213.626 57.1677 213.656 57.1712 213.687Z" fill="white"/>
<path d="M68.1113 215.133C68.1039 215.161 68.0956 215.187 68.0884 215.214C66.2846 221.602 61.558 227.192 55.4541 229.692L55.6603 229.75C61.7296 227.205 66.4269 221.611 68.2173 215.237C68.2218 215.222 68.2266 215.205 68.2311 215.189C68.2527 215.11 68.1343 215.053 68.1113 215.133Z" fill="white"/>
<path d="M72.6877 216.025C72.6837 216.108 72.8116 216.133 72.8145 216.048C72.8149 216.022 72.8174 215.996 72.8165 215.971C73.0618 210.477 71.5171 204.833 68.5591 200.089C68.5022 200.08 68.4476 200.071 68.3926 200.065C71.3699 204.801 72.9325 210.448 72.6913 215.945C72.6897 215.972 72.6893 215.998 72.6877 216.025Z" fill="white"/>
<path d="M183.316 193.072C183.307 193.05 183.298 193.028 183.288 193.006C183.273 192.97 183.257 192.935 183.24 192.9C183.239 192.899 183.239 192.899 183.239 192.899C182.57 191.479 181.211 190.433 179.745 189.726C176.187 188.012 171.948 188.044 168.052 188.844C164.156 189.644 160.47 191.155 156.675 192.309C154.456 192.982 151.534 193.32 150.247 191.475C149.446 190.326 149.681 188.805 149.279 187.481C148.514 184.958 145.57 183.588 142.823 183.292C141.854 183.188 140.881 183.189 139.918 183.287C139.775 183.302 139.631 183.319 139.489 183.337C136.705 183.705 134.038 184.875 131.89 186.608C131.786 186.692 131.683 186.777 131.581 186.865C131.556 186.885 131.531 186.906 131.507 186.928C131.457 186.97 131.408 187.013 131.36 187.057C131.269 187.137 131.178 187.219 131.09 187.302C130.433 187.915 129.838 188.585 129.318 189.304C129.269 189.37 129.222 189.436 129.177 189.504C129.089 189.629 129.005 189.755 128.923 189.883C128.741 190.164 128.571 190.451 128.414 190.746C128.381 190.806 128.348 190.868 128.317 190.93C128.15 191.253 127.998 191.583 127.863 191.92C127.839 191.977 127.816 192.035 127.794 192.093L127.713 192.263L127.492 192.731L127.348 193.036L127.255 193.232L126.993 193.787L126.95 193.881L125.957 195.983L125.4 197.159C125.4 197.16 125.4 197.161 125.4 197.161L123.492 201.202L123.278 201.656L116.866 215.233L110.55 228.609L110.545 228.617V228.618L110.467 228.784C111.542 229.212 112.625 229.617 113.718 230H164.935C165.598 229.252 166.134 228.412 166.493 227.488C167.499 224.895 166.818 221.638 164.471 219.997C163.319 219.192 161.897 218.825 160.651 218.157C159.406 217.49 158.259 216.32 158.374 214.968C158.47 213.845 159.401 212.957 160.364 212.299C165.488 208.798 172.712 208.934 177.651 205.203C179.436 203.854 180.809 202.072 181.947 200.194C183.258 198.027 184.294 195.388 183.316 193.072Z" fill="white"/>
<path d="M110.541 228.605C110.607 228.631 110.673 228.656 110.738 228.681C110.711 228.739 110.684 228.797 110.657 228.854C110.618 228.771 110.58 228.688 110.541 228.605Z" fill="#FBE9DD"/>
<path d="M127.333 192.598C127.423 192.406 127.514 192.215 127.604 192.024C127.595 192.049 127.59 192.073 127.59 192.095C127.59 192.105 127.591 192.114 127.593 192.123C127.594 192.132 127.596 192.14 127.6 192.149C127.603 192.157 127.606 192.164 127.609 192.172C127.615 192.182 127.622 192.193 127.631 192.204C127.636 192.208 127.64 192.213 127.644 192.218C127.652 192.225 127.66 192.231 127.669 192.238C127.675 192.243 127.682 192.247 127.689 192.251C127.697 192.255 127.705 192.26 127.714 192.263C127.721 192.267 127.729 192.27 127.736 192.271C127.744 192.274 127.752 192.276 127.759 192.278C127.767 192.279 127.775 192.28 127.784 192.281C127.792 192.282 127.799 192.283 127.807 192.283C127.817 192.283 127.827 192.282 127.838 192.28C127.848 192.279 127.857 192.277 127.867 192.273C127.868 192.273 127.869 192.273 127.87 192.272C127.879 192.27 127.887 192.267 127.895 192.263C127.896 192.263 127.898 192.262 127.898 192.261C127.907 192.256 127.915 192.251 127.923 192.245C127.928 192.241 127.933 192.238 127.937 192.233C127.943 192.228 127.948 192.222 127.954 192.214C127.96 192.207 127.964 192.2 127.969 192.193C127.864 192.417 127.758 192.641 127.652 192.865C127.621 192.929 127.591 192.994 127.561 193.058C127.53 193.122 127.5 193.187 127.47 193.251C127.382 193.435 127.295 193.62 127.209 193.804C127.196 193.829 127.185 193.855 127.173 193.88C126.833 194.6 126.492 195.32 126.153 196.04C125.893 196.589 125.634 197.139 125.375 197.688V197.691C124.764 198.982 124.155 200.271 123.545 201.563C123.508 201.64 123.471 201.719 123.435 201.796C122.995 202.726 122.557 203.654 122.118 204.584C120.447 208.124 118.775 211.665 117.103 215.205C115.663 218.254 114.223 221.303 112.783 224.353C112.101 225.795 111.42 227.238 110.738 228.682C110.676 228.657 110.613 228.634 110.55 228.609C110.547 228.608 110.544 228.606 110.541 228.605C110.542 228.61 110.544 228.612 110.546 228.617V228.618C110.583 228.696 110.62 228.776 110.656 228.855C110.684 228.797 110.711 228.739 110.738 228.682C111.925 229.148 113.121 229.587 114.328 230H113.14C112.219 229.67 111.303 229.324 110.394 228.964C110.297 228.925 110.233 228.811 110.279 228.715C112.234 224.575 114.188 220.434 116.143 216.295C116.306 215.95 116.469 215.606 116.632 215.261C118.796 210.677 120.961 206.093 123.126 201.509C123.23 201.288 123.334 201.068 123.438 200.847C124.1 199.445 124.762 198.043 125.425 196.641C125.442 196.602 125.461 196.564 125.479 196.526C125.573 196.325 125.669 196.124 125.763 195.923C126.072 195.267 126.383 194.612 126.692 193.957C126.733 193.87 126.774 193.784 126.814 193.697C126.889 193.54 126.964 193.381 127.038 193.223C127.07 193.156 127.101 193.09 127.132 193.024C127.2 192.882 127.267 192.739 127.333 192.598Z" fill="#FBE9DD"/>
<path d="M182.111 200.308C180.636 202.751 178.745 204.948 176.169 206.4C171.28 209.156 165.145 209.249 160.493 212.449C158.956 213.506 157.88 215.148 159.235 216.787C160.278 218.049 161.949 218.48 163.4 219.169C165.692 220.257 167.027 222.298 167.138 224.726C167.235 226.824 166.471 228.578 165.212 230H164.734C165.359 229.292 165.877 228.473 166.261 227.525C167.246 225.094 166.734 221.98 164.53 220.282C162.562 218.766 159.133 218.571 158.288 215.919C157.544 213.582 160.284 211.967 162.107 211.057C162.881 210.672 163.68 210.341 164.493 210.045C164.597 210.008 164.7 209.971 164.804 209.934C166.346 209.392 167.937 208.965 169.509 208.515C172.132 207.764 174.807 206.938 177.048 205.395C179.562 203.665 181.536 200.994 182.724 198.287C183.33 196.907 183.721 195.356 183.364 193.866C183.313 193.652 183.246 193.444 183.166 193.243C183.116 193.12 183.061 192.999 183 192.881C182.47 191.832 181.553 190.99 180.509 190.359C177.695 188.655 174.168 188.297 170.914 188.607C167.54 188.927 164.316 189.972 161.141 191.044C158.615 191.897 155.843 193.174 153.092 193.028C152.145 192.977 151.185 192.703 150.494 192.059C149.588 191.213 149.469 190.015 149.332 188.881C149.169 187.536 148.752 186.376 147.684 185.434C146.733 184.596 145.518 184.059 144.273 183.745C142.832 183.38 141.343 183.3 139.876 183.458H139.875C139.723 183.475 139.572 183.493 139.42 183.515C136.77 183.889 134.212 185.029 132.147 186.659C131.991 186.782 131.837 186.907 131.688 187.036C131.658 187.061 131.629 187.086 131.6 187.111C131.586 187.123 131.574 187.135 131.56 187.145C131.461 187.233 131.362 187.323 131.264 187.413C130.874 187.774 130.507 188.154 130.167 188.551C130.138 188.583 130.112 188.614 130.084 188.647C130.084 188.647 130.084 188.648 130.083 188.649C130.023 188.719 129.964 188.79 129.906 188.862C129.779 189.021 129.655 189.182 129.537 189.346C129.461 189.448 129.389 189.55 129.317 189.654C129.236 189.773 129.157 189.893 129.079 190.015C128.915 190.272 128.76 190.536 128.617 190.804C128.583 190.865 128.551 190.926 128.52 190.988C128.325 191.361 128.151 191.744 127.994 192.137C127.999 192.119 128.002 192.102 128.002 192.085C128.002 192.075 128.001 192.066 127.999 192.057C127.999 192.056 127.999 192.055 127.998 192.054C127.997 192.047 127.996 192.041 127.993 192.035C127.985 192.01 127.97 191.988 127.95 191.97C127.944 191.964 127.936 191.958 127.929 191.953C127.919 191.945 127.907 191.939 127.897 191.933C127.887 191.929 127.877 191.924 127.867 191.921C127.866 191.921 127.866 191.921 127.864 191.92C127.852 191.916 127.841 191.914 127.829 191.912C127.807 191.908 127.785 191.908 127.762 191.91C127.744 191.912 127.727 191.916 127.709 191.924C127.7 191.927 127.692 191.932 127.684 191.936C127.676 191.94 127.668 191.945 127.661 191.952C127.654 191.957 127.646 191.964 127.639 191.972C127.626 191.986 127.614 192.003 127.604 192.023C127.76 191.631 127.935 191.249 128.129 190.876C128.161 190.813 128.193 190.753 128.227 190.691C128.397 190.374 128.581 190.064 128.778 189.762C128.865 189.626 128.956 189.492 129.05 189.359C129.072 189.326 129.095 189.294 129.119 189.261C129.649 188.521 130.254 187.831 130.922 187.2C131.002 187.125 131.083 187.051 131.165 186.977C131.248 186.901 131.333 186.826 131.419 186.754C131.439 186.735 131.46 186.717 131.48 186.701C131.535 186.653 131.59 186.607 131.646 186.562C133.742 184.825 136.341 183.63 139.104 183.198C141.575 182.812 144.258 183.008 146.49 184.162C147.468 184.668 148.348 185.364 148.935 186.272C149.629 187.345 149.653 188.532 149.847 189.74C150.103 191.35 151.068 192.423 152.808 192.618C154.286 192.784 155.771 192.392 157.159 191.957C160.392 190.944 163.552 189.711 166.856 188.915C170.01 188.155 173.361 187.809 176.574 188.47C179.191 189.009 182.153 190.284 183.37 192.708C184.629 195.215 183.457 198.076 182.111 200.308Z" fill="#FBE9DD"/>
<path d="M127.982 192.163C127.89 192.395 127.512 192.256 127.604 192.024C127.71 191.799 128.089 191.937 127.982 192.163Z" fill="#FBE9DD"/>
<path d="M168.035 195.514C173.026 194.503 178.057 193.681 183.088 192.867C183.345 192.825 183.413 193.205 183.156 193.246C166.56 195.932 149.312 198.863 135.175 208.095C131.555 210.459 128.222 213.208 125.328 216.349C125.158 216.533 124.828 216.308 125 216.122C135.958 204.229 152.178 198.725 168.035 195.514Z" fill="#FBE9DD"/>
<path d="M164.69 209.71C164.923 209.817 164.779 210.177 164.543 210.069C157.138 206.67 149.013 204.851 140.796 204.712C140.535 204.708 140.577 204.325 140.837 204.329C149.086 204.469 157.255 206.298 164.69 209.71Z" fill="#FBE9DD"/>
<path d="M136.286 206.55C135.467 198.685 136.585 190.627 139.527 183.24C139.619 183.008 139.998 183.147 139.905 183.38C136.99 190.7 135.875 198.691 136.686 206.486C136.712 206.731 136.312 206.796 136.286 206.55Z" fill="#FBE9DD"/>
<path d="M131.571 205.234C131.568 205.256 131.566 205.278 131.563 205.3C131.509 205.758 131.449 206.213 131.377 206.662C131.373 206.7 131.366 206.736 131.36 206.772C131.356 206.805 131.352 206.833 131.347 206.857C131.346 206.868 131.345 206.879 131.343 206.887C131.338 206.925 131.335 206.944 131.335 206.944C131.196 207.808 129.855 223.558 128.929 230H65.8955C67.7385 224.735 69.8191 219.997 71.8983 215.858C71.922 215.811 71.9442 215.765 71.9678 215.719C72.6058 214.454 73.2409 213.246 73.8706 212.097C73.9053 212.034 73.9401 211.97 73.9748 211.908C75.1575 209.759 76.314 207.817 77.3981 206.094C78.5225 204.305 79.5705 202.754 80.4892 201.453C80.4906 201.452 80.4906 201.452 80.4906 201.452C81.3286 200.262 82.0626 199.283 82.6477 198.526C82.7228 198.429 82.795 198.336 82.8659 198.247C82.941 198.149 83.0146 198.056 83.0841 197.967C83.7777 197.092 84.1737 196.639 84.1737 196.639L104.612 190.942H104.613L129.088 184.119H129.089L130.671 183.678C130.671 183.678 130.725 183.981 130.811 184.531C130.837 184.695 130.865 184.88 130.896 185.086C130.922 185.258 130.949 185.446 130.978 185.647C131.003 185.828 131.029 186.02 131.057 186.221C131.594 190.185 132.411 198.119 131.571 205.234Z" fill="#2C2759"/>
<path d="M99.3118 89.8079C98.7581 90.4033 99.1186 91.3614 99.4956 92.0822C100.303 93.6257 101.087 95.1846 101.843 96.7554C105.081 103.481 107.84 110.442 110.084 117.563C110.258 118.113 110.424 118.735 110.164 119.251C109.97 119.639 109.573 119.88 109.197 120.099C97.8078 126.668 85.1235 130.983 72.0947 132.735C71.9977 132.748 71.8985 132.763 71.798 132.776C71.1499 132.863 70.4994 132.939 69.8499 133.013C69.746 133.024 69.6455 133.037 69.5427 133.045C68.8053 133.127 68.0687 133.2 67.3298 133.263C66.9974 133.29 66.6558 133.317 66.338 133.219C65.9383 133.097 65.6218 132.798 65.3327 132.496C60.354 127.319 59.1886 118.859 62.5829 112.527C64.3334 109.26 67.101 106.632 68.891 103.39C70.2324 100.954 70.8924 97.8445 70.0634 95.306C69.7867 94.4629 69.3466 93.6829 68.712 93.0111L76.0823 92.2145L79.3953 91.8562L85.5862 91.1869C90.1613 90.7271 94.7365 90.2676 99.3118 89.8079Z" fill="#FF6A51"/>
<path d="M71.9688 96.12L71.97 96.1223C73.1943 98.467 74.0936 101.133 73.639 103.787C73.0963 106.977 70.4166 109.387 68.8047 112.072C66.75 115.504 65.9222 119.222 66.5176 123.188C67.0366 126.63 68.3696 129.883 69.8487 133.013C69.7448 133.024 69.6443 133.037 69.5415 133.045C66.8523 127.329 64.6094 120.807 67.1707 114.64C67.8387 113.027 68.7472 111.53 69.7396 110.099C70.7807 108.596 72.0527 107.191 72.805 105.508C74.2462 102.279 73.0704 98.7258 71.4581 95.7876C71.4103 95.6971 71.3616 95.61 71.3105 95.5242C71.289 95.4835 71.2676 95.4428 71.2438 95.4032C71.2354 95.3874 71.2294 95.3703 71.2268 95.3543C71.1998 95.2153 71.4173 95.1179 71.5017 95.2672C71.5575 95.362 71.6111 95.4583 71.6624 95.5555C71.6683 95.5612 71.6718 95.5679 71.6731 95.5759C71.7733 95.7547 71.8722 95.9367 71.9688 96.12Z" fill="#DB4031"/>
<path d="M141.173 152.736C136.025 135.796 124.971 124.622 106.039 122.066C90.7303 120 71.4644 126.737 73.481 136.469C83.1007 182.891 71.7633 202.046 71.7633 202.046C71.7633 202.046 68.6336 213.67 79.7556 213.5C90.8776 213.329 123.137 204.406 131.335 206.944C131.335 206.944 134.627 184.951 134.202 158.919C140.513 156.291 141.173 152.736 141.173 152.736Z" fill="#8A80EE"/>
<path d="M76.7777 103.339C77.2088 106.417 76.1324 109.373 74.826 112.106C73.1822 115.543 71.2611 118.811 70.7428 122.655C70.282 126.082 70.7663 129.563 72.0941 132.735C71.9971 132.748 71.8979 132.763 71.7974 132.776C70.7079 130.155 70.1862 127.327 70.2955 124.473C70.4215 121.223 71.455 118.246 72.8816 115.352C74.4188 112.228 76.3148 109.071 76.5602 105.515C76.819 101.788 74.9873 98.2248 71.9706 96.1222C71.8022 96.0057 71.6327 95.8925 71.4588 95.7876C71.3672 95.7289 71.2745 95.6737 71.1795 95.6197C71.1263 95.5899 71.1081 95.5446 71.1105 95.4999C71.1137 95.4346 71.1615 95.3718 71.2275 95.3544C71.2583 95.3469 71.295 95.3507 71.332 95.3716C71.4351 95.43 71.5337 95.4909 71.6356 95.5527C71.6484 95.5605 71.6611 95.5683 71.674 95.5759C74.4062 97.2817 76.3278 100.126 76.7777 103.339Z" fill="#DB4031"/>
<path d="M63.5582 141.926C63.5582 141.926 48.3919 196.257 64.3592 201.569C80.3267 206.881 78.9676 159.792 78.9676 159.792L63.5582 141.926Z" fill="#FBC7B1"/>
<path d="M57.0487 152.249C55.6777 154.686 57.5363 154.869 59.7652 156.557C64.4435 160.102 87.5972 166.184 94.3952 163.402L93.3282 144.699L97.0489 121.234C97.0489 121.234 78.9534 122.256 69.1191 133.685C64.7116 138.807 59.3256 148.202 57.0487 152.249Z" fill="#8A80EE"/>
<path d="M82.2799 82.21L79.3949 91.8563L79.2806 92.2374C78.6173 93.3216 77.5271 94.1939 76.2168 94.7747C75.3009 95.1822 74.2767 95.4444 73.2157 95.5381C73.0055 95.5563 72.7965 95.5711 72.5859 95.5723C72.2795 95.5835 71.9727 95.5773 71.6633 95.5554C71.6542 95.5546 71.645 95.5535 71.6358 95.5526C71.5281 95.5458 71.4193 95.5367 71.3115 95.5241C71.2437 95.5165 71.1773 95.511 71.1107 95.4998C71.0246 95.4903 70.9397 95.4771 70.8548 95.464C70.5873 95.4229 70.3241 95.3679 70.0631 95.3059C66.9985 94.55 64.4174 92.3192 63.8016 89.8013C63.7752 89.6909 63.75 89.5827 63.7305 89.4743C63.7099 89.3638 63.6938 89.2509 63.681 89.139C63.5257 87.9283 63.7481 86.7152 64.1135 85.5596C64.1156 85.5527 64.1167 85.5492 64.1188 85.5423C64.2013 85.282 64.292 85.0259 64.3895 84.7721C64.3927 84.7618 64.3959 84.7513 64.4003 84.7432C64.4589 84.5909 64.5186 84.4408 64.5827 84.2884C64.6188 84.2088 64.6503 84.1314 64.6887 84.0505L64.6897 84.0471C64.7727 83.8645 64.8603 83.6795 64.9549 83.4967C65.6929 82.0552 66.7252 80.7274 68.1308 79.68C70.1784 78.1554 73.0856 77.2853 75.9732 77.6891C78.0518 77.9787 80.0543 79.0021 81.269 80.4122C81.4133 80.5819 81.5498 80.7586 81.6694 80.9414C81.7426 81.0475 81.8113 81.1558 81.8732 81.2677C82.0499 81.5708 82.1848 81.8872 82.2799 82.21Z" fill="#FF6A51"/>
<path d="M81.5454 81.4784C80.3697 82.2561 79.2408 83.1335 78.3645 84.2378C77.5869 85.2177 76.886 86.3186 76.6255 87.542C73.4744 102.339 84.8907 107.802 86.9783 108.218C88.8455 108.591 90.8096 108.907 92.6268 108.338C94.5138 107.747 95.9898 106.278 97.2304 104.738C99.3893 102.059 101.083 99.006 102.214 95.7563L107.423 82.1805C106.273 80.0513 103.957 78.8099 101.644 78.1003C94.9331 76.0421 87.3993 77.6055 81.5454 81.4784Z" fill="#FF6A51"/>
<path d="M106.04 122.067C105.989 122.649 105.959 123.149 105.959 123.533C105.959 126.406 110.181 132.116 101.895 131.287C92.1774 130.314 89.5862 125.115 90.6564 122.201C94.8608 110.727 95.9732 101.78 95.9774 101.756L99.94 104.229L100.755 104.739L107.841 109.164C107.841 109.164 107.769 109.683 107.665 110.52C107.59 111.126 107.171 113.636 106.768 116.356C106.468 118.376 106.176 120.511 106.04 122.067Z" fill="#FBC7B1"/>
<path d="M106.768 116.355C106.468 118.376 106.176 120.511 106.04 122.066C103.388 120.18 99.5087 116.442 99.4892 110.688C99.4878 110.601 99.4878 110.514 99.4906 110.426C99.4906 110.426 99.8201 110.715 100.354 111.177C101.806 112.428 104.776 114.947 106.768 116.355Z" fill="#FC9171"/>
<path d="M92.2101 106.141C92.2101 106.141 101.118 119.731 113.32 117.886C125.522 116.041 119.533 96.2264 112.812 89.8516C106.092 83.4766 82.0017 80.5566 92.2101 106.141Z" fill="#FBC7B1"/>
<path d="M95.86 110.741C98.563 113.775 101.934 116.047 105.758 117.42C105.952 117.49 106.046 117.184 105.853 117.115C102.079 115.76 98.7604 113.516 96.0932 110.522C95.9564 110.368 95.7229 110.587 95.86 110.741Z" fill="#FC9171"/>
<path d="M112.542 96.2594C112.747 96.2558 112.762 95.9364 112.556 95.9398C111.365 95.9603 110.373 96.8013 110.421 98.0496C110.458 99.0262 111.106 99.9349 111.635 100.707C112.271 101.636 114.173 103.332 112.636 104.284C112.462 104.392 112.609 104.675 112.785 104.567C113.93 103.858 114.058 103.666 113.253 102.431C112.75 101.66 112.157 100.951 111.66 100.177C111.427 99.8145 111.186 99.4427 111.015 99.0446C110.454 97.7337 110.965 96.2865 112.542 96.2594Z" fill="#BC613F"/>
<path d="M103.547 95.1365C102.74 95.7291 102.483 96.7493 102.826 97.2172C103.17 97.6849 103.898 97.3053 104.705 96.7127C105.512 96.12 106.092 95.5389 105.748 95.0712C105.405 94.6034 104.354 94.5438 103.547 95.1365Z" fill="#FF6A51"/>
<path d="M110.408 94.9244C110.555 95.4856 111.372 95.3999 112.34 95.145C113.308 94.89 114.061 94.5625 113.913 94.0013C113.766 93.4401 112.81 92.9989 111.842 93.2539C110.874 93.5087 110.26 94.3632 110.408 94.9244Z" fill="#DB4031"/>
<path d="M106.943 101.766C107.21 102.388 107.779 102.741 108.214 102.555C108.65 102.368 108.786 101.712 108.519 101.09C108.252 100.468 107.683 100.115 107.248 100.301C106.813 100.488 106.676 101.144 106.943 101.766Z" fill="#353659"/>
<path d="M113.433 98.9192C113.7 99.5415 114.269 99.8945 114.705 99.7079C115.14 99.5213 115.276 98.8655 115.01 98.2432C114.743 97.621 114.174 97.2679 113.738 97.4546C113.303 97.6412 113.166 98.297 113.433 98.9192Z" fill="#353659"/>
<path d="M122.983 83.8079C123.104 84.0479 123.203 84.2964 123.285 84.5451C124.219 87.3548 123.048 90.5863 121.666 91.9912C119.785 93.9025 116.826 94.3458 114.146 94.2201C111.468 94.0933 108.863 93.3471 106.234 92.8153C103.757 92.3169 100.887 92.1003 98.9957 93.7795L98.678 86.8567L98.6702 86.6554L98.5566 84.1851C101.039 81.8731 104.364 80.6529 107.709 80.1099C117.282 78.5601 121.522 80.8047 122.983 83.8079Z" fill="#FF6A51"/>
<path d="M88.1437 108.434C95.5637 110.747 98.611 104.046 98.611 104.046C95.4968 96.5118 98.9962 93.7792 98.9962 93.7792L99.2606 85.1165L90.6139 86.3824C90.6139 86.3824 87.0528 91.293 86.8808 91.4714C86.709 91.6496 80.7237 106.121 88.1437 108.434Z" fill="#FF6A51"/>
<path d="M100.237 106.829C100.867 104.853 99.3614 102.607 96.8736 101.813C94.3858 101.02 91.858 101.979 91.2275 103.955C90.597 105.932 92.1027 108.177 94.5905 108.971C97.0783 109.764 99.6062 108.805 100.237 106.829Z" fill="#FBC7B1"/>
<path d="M76.162 95.4469C77.324 100.156 77.8319 105.193 82.2373 108.08C85.508 110.223 89.8563 110.844 93.3094 108.781C93.47 108.685 93.335 108.426 93.1733 108.522C89.6924 110.602 85.3036 109.878 82.0836 107.623C77.9988 104.763 77.5492 99.8503 76.4472 95.3842C76.4021 95.2019 76.117 95.2643 76.162 95.4469Z" fill="#DB4031"/>
<path d="M91.1516 106.099C91.7717 107.459 92.6747 108.626 94.1673 109.046C95.7555 109.494 97.5341 109.479 99.0774 108.899C99.2695 108.827 99.1186 108.545 98.9283 108.616C97.4839 109.159 95.7466 109.17 94.2619 108.741C92.8476 108.332 92.0213 107.237 91.4344 105.95C91.3489 105.763 91.0664 105.913 91.1516 106.099Z" fill="#FC9171"/>
<path d="M78.3571 82.8397C78.3617 82.9472 78.2361 83.0655 78.1053 82.9985C77.3914 82.6259 76.633 82.3721 75.8526 82.2138C75.848 82.2105 75.8457 82.2116 75.8423 82.2106C73.8357 81.7994 71.6749 81.9956 69.694 82.3081C69.5263 82.3357 69.3565 82.3645 69.1878 82.3957C69.174 82.3971 69.1604 82.3985 69.1514 82.4033C67.6057 82.686 65.9936 83.1714 64.6885 84.0473C64.7715 83.8647 64.8591 83.6797 64.9537 83.4969C66.3664 82.677 68.0539 82.2358 69.6242 81.9893C71.6746 81.6661 73.8801 81.4725 75.9387 81.8997C75.941 81.8984 75.9444 81.8996 75.9478 81.9006C76.7536 82.0688 77.5373 82.3323 78.2791 82.7192C78.3345 82.7476 78.3583 82.7928 78.3571 82.8397Z" fill="#DB4031"/>
<path d="M64.3998 84.7434C64.4584 84.5912 64.5181 84.4411 64.5824 84.2887C64.8799 84.1289 65.196 83.9826 65.5138 83.8613C65.5161 83.8602 65.5161 83.8602 65.5184 83.8589C65.9655 83.6868 66.4262 83.5568 66.8859 83.4909C66.8882 83.4897 66.8882 83.4897 66.8916 83.4907C67.3742 83.4243 67.8571 83.4243 68.3112 83.5232C69.5355 83.7887 70.9185 84.9914 70.7115 86.3324C70.4743 87.8627 68.9112 88.8254 67.5492 89.231C66.311 89.6032 65.0138 89.6219 63.7302 89.4743C63.7096 89.3637 63.6934 89.2509 63.6807 89.139C65.749 89.3876 67.9615 89.2509 69.4848 87.8234C69.7888 87.5389 70.0481 87.2025 70.207 86.8182C70.5018 86.1047 70.4342 85.7297 69.9615 85.1345C69.2865 84.2874 68.6056 83.8019 67.4597 83.8276C66.8261 83.8435 66.1928 83.9806 65.5877 84.2042C65.1711 84.3573 64.7702 84.5512 64.3893 84.7722L64.3998 84.7434Z" fill="#DB4031"/>
<path d="M122.983 83.8079C123.104 84.0478 123.203 84.2963 123.285 84.5451C123.248 84.8652 123.162 85.1851 123.033 85.4991C122.451 86.9077 121.043 87.6816 119.645 88.0857C115.999 89.1399 111.956 88.5068 108.293 87.916C105.404 87.4492 101.832 86.4983 98.6779 86.8565C97.6185 86.9753 96.6094 87.2442 95.6882 87.7238C93.495 88.8682 92.4629 91.1068 93.1286 93.5001C93.7547 95.7523 95.542 97.4041 97.1987 98.9395C97.3353 99.0671 97.1222 99.2661 96.9856 99.1386C94.6915 97.0137 91.7967 94.0892 92.7957 90.6191C93.5559 87.9687 96.1297 86.9157 98.6701 86.6552C99.3723 86.5829 100.075 86.5713 100.733 86.603C104.678 86.7965 108.532 87.8215 112.459 88.1836C114.52 88.3729 116.641 88.4144 118.678 88.0113C120.067 87.739 121.582 87.2235 122.429 86.0051C122.887 85.3479 123.09 84.5529 122.983 83.8079Z" fill="#DB4031"/>
<path d="M118.295 171.002C118.295 171.002 105.625 173.669 93.1247 175.634C80.6249 177.598 67.0553 179.261 64.5385 184.037C50.2393 211.172 81.6235 201.93 87.8505 198.924C96.3389 194.825 110.724 187.56 123.879 183.251L118.295 171.002Z" fill="#FBC7B1"/>
<path d="M123.88 184.693C128.336 183.119 130.21 179.102 132.276 174.851L140.003 172.57C142.417 171.629 144.597 170.095 146.297 168.141C146.742 167.629 147.179 167.004 147.077 166.334C147.007 165.875 146.694 165.493 146.368 165.163C144.59 163.363 142.098 162.375 139.582 162.107C137.067 161.839 134.519 162.245 132.082 162.925C125.823 164.672 120.042 168.315 116.078 173.465C114.928 174.959 113.911 176.626 113.597 178.485C113.282 180.344 113.788 182.431 115.248 183.624C117.065 185.111 121.666 185.476 123.88 184.693Z" fill="#FBC7B1"/>
<path d="M152.22 165.987C152.507 164.118 146.05 162.594 141.771 161.937C137.491 161.279 136.062 162.155 135.86 163.474C135.657 164.794 136.757 166.057 141.037 166.714C145.316 167.372 151.886 168.161 152.22 165.987Z" fill="#FBC7B1"/>
<path d="M151.513 173.646C152.719 172.191 147.967 167.563 144.635 164.798C141.302 162.034 139.627 162.05 138.775 163.077C137.923 164.104 138.216 165.754 141.548 168.518C144.88 171.283 150.108 175.339 151.513 173.646Z" fill="#FBC7B1"/>
<path d="M146.257 176.491C147.484 175.053 142.797 170.359 139.504 167.547C136.211 164.736 134.536 164.728 133.669 165.743C132.803 166.758 133.073 168.412 136.366 171.223C139.658 174.035 144.828 178.164 146.257 176.491Z" fill="#FBC7B1"/>
<path d="M140.22 176.984C140.799 175.48 135.699 173.034 132.253 171.708C128.808 170.381 127.459 170.85 127.05 171.912C126.641 172.974 127.327 174.227 130.772 175.554C134.217 176.881 139.546 178.734 140.22 176.984Z" fill="#FBC7B1"/>
<path d="M131.965 175.881C130.253 175.378 128.735 174.536 127.401 173.35C127.248 173.213 127.026 173.444 127.18 173.581C128.553 174.802 130.129 175.675 131.891 176.193C132.089 176.251 132.163 175.939 131.965 175.881Z" fill="#FC9171"/>
<path d="M128.853 174.868C129.031 174.765 128.867 174.491 128.688 174.594C127.86 175.072 126.919 175.222 125.983 175.024C125.782 174.982 125.707 175.293 125.909 175.335C126.926 175.55 127.953 175.388 128.853 174.868Z" fill="#FC9171"/>
<path d="M143.429 171.075C142.085 169.627 139.613 169.108 137.785 168.543C137.589 168.482 137.515 168.794 137.711 168.854C139.493 169.405 141.9 169.896 143.208 171.306C143.348 171.457 143.568 171.226 143.429 171.075Z" fill="#FC9171"/>
<path d="M139.061 173.527C139.21 173.669 139.431 173.439 139.282 173.296C138.262 172.315 136.871 172.291 135.538 172.332C135.332 172.338 135.339 172.658 135.545 172.652C136.791 172.614 138.102 172.604 139.061 173.527Z" fill="#FC9171"/>
<path d="M147.861 167.118C145.885 165.872 143.659 165.272 141.325 165.351C141.119 165.357 141.126 165.677 141.332 165.67C143.619 165.593 145.774 166.18 147.71 167.4C147.884 167.51 148.035 167.228 147.861 167.118Z" fill="#FC9171"/>
<path d="M115.226 138.145C115.226 138.145 122.112 180.62 131.648 186.642C149.699 198.042 149.225 171.95 143.721 163.059C139.449 156.16 132.653 146.42 127.175 130.107L115.226 138.145Z" fill="#FBC7B1"/>
<path d="M120.534 126.181C118.306 120.954 115.386 112.802 117.122 112.192C119.141 111.483 122.489 119.512 124.972 124.622C128.667 132.228 126.865 131.742 125.639 132.173C124.414 132.603 122.762 131.408 120.534 126.181Z" fill="#FBC7B1"/>
<path d="M115.225 138.145L110.867 131.128C110.242 129.827 111.781 127.372 113.169 126.705L118.265 121.775C119.653 121.108 121.3 121.626 121.925 122.927L125.823 129.23C126.582 130.651 116.75 141.318 115.225 138.145Z" fill="#FBC7B1"/>
<path d="M109.023 127.833C107.5 124.689 108.264 124.06 109.331 123.543C110.398 123.026 111.365 122.818 112.887 125.961C114.409 129.105 115.849 132.912 114.244 133.689C112.758 134.409 110.545 130.977 109.023 127.833Z" fill="#FBC7B1"/>
<path d="M112.172 125.333C110.65 122.189 111.413 121.561 112.48 121.044C113.547 120.527 114.514 120.318 116.036 123.462C117.559 126.606 118.999 130.413 117.394 131.19C115.908 131.91 113.695 128.477 112.172 125.333Z" fill="#FBC7B1"/>
<path d="M114.986 123.777C113.463 120.634 114.226 120.005 115.294 119.488C116.361 118.971 118.066 118.845 119.588 121.989C121.111 125.132 121.812 128.857 120.207 129.634C118.721 130.354 116.508 126.921 114.986 123.777Z" fill="#FBC7B1"/>
<path d="M110.949 109.097C111.836 107.508 113.221 106.296 114.924 105.648C115.234 105.53 115.1 105.026 114.785 105.146C112.955 105.842 111.456 107.121 110.499 108.833C110.335 109.127 110.785 109.39 110.949 109.097Z" fill="#BC613F"/>
<path d="M61.8676 187.021C63.8006 184.561 66.564 182.795 69.3137 181.375C72.1181 179.928 75.1372 178.758 78.2484 178.181C78.3581 178.16 78.3117 177.993 78.2022 178.013C75.0769 178.593 72.0435 179.771 69.226 181.225C66.4667 182.649 63.685 184.429 61.7447 186.898C61.6764 186.986 61.7986 187.109 61.8676 187.021Z" fill="#FC9171"/>
<path d="M121.491 166.407C123.245 172.023 125.318 177.542 128.04 182.765C128.092 182.865 128.242 182.777 128.19 182.678C125.475 177.467 123.408 171.962 121.658 166.361C121.625 166.255 121.457 166.3 121.491 166.407Z" fill="#FC9171"/>
<path d="M116.967 183.84C118.206 185.025 119.928 185.491 121.596 185.092C121.704 185.066 121.658 184.899 121.549 184.925C119.943 185.309 118.283 184.859 117.09 183.717C117.009 183.639 116.886 183.762 116.967 183.84Z" fill="#FC9171"/>
<path d="M119.196 113.46C118.892 112.605 117.396 111.658 116.544 112.317C116.107 112.655 116.031 113.369 116.093 113.869C116.199 114.725 116.541 115.593 116.772 116.423C116.802 116.53 116.97 116.484 116.94 116.376C116.696 115.501 116.23 114.456 116.246 113.541C116.262 112.675 116.858 112.156 117.714 112.405C118.287 112.572 118.823 112.927 119.028 113.507C119.066 113.611 119.234 113.566 119.196 113.46Z" fill="#FC9171"/>
<path d="M114.467 137.321C115.166 138.135 116.116 138.62 117.184 138.721C117.296 138.731 117.295 138.557 117.184 138.547C116.162 138.45 115.258 137.976 114.589 137.198C114.516 137.113 114.394 137.236 114.467 137.321Z" fill="#FC9171"/>
<path d="M126.905 129.138C127.352 131.039 127.341 132.975 126.872 134.872C126.845 134.98 127.013 135.027 127.04 134.918C127.515 132.993 127.526 131.021 127.073 129.091C127.047 128.983 126.879 129.029 126.905 129.138Z" fill="#FC9171"/>
<path d="M142.893 162.042C143.924 163.986 144.81 166.003 145.526 168.085C145.858 169.048 146.155 170.023 146.415 171.008C146.545 171.5 146.666 171.995 146.778 172.492C146.847 172.797 146.829 173.256 147.089 173.468C147.122 173.494 147.157 173.5 147.195 173.482C147.283 173.438 147.291 173.425 147.313 173.329C147.322 173.289 147.306 173.253 147.273 173.231C147.258 173.221 147.243 173.211 147.228 173.2C147.135 173.138 147.048 173.288 147.141 173.35C146.971 173.236 146.881 172.158 146.831 171.95C146.713 171.454 146.585 170.961 146.449 170.47C146.166 169.448 145.843 168.436 145.482 167.438C144.801 165.554 143.981 163.724 143.043 161.954C142.99 161.855 142.84 161.943 142.893 162.042Z" fill="#FC9171"/>
<path d="M58.4502 156.23C62.2667 158.168 66.2427 159.783 70.3354 161.038C72.3939 161.669 74.4801 162.21 76.5859 162.658C77.6594 162.887 78.7381 163.092 79.8209 163.272C80.3206 163.355 80.8211 163.433 81.3226 163.506C81.6103 163.547 81.944 163.631 82.2284 163.533C82.5515 163.421 82.6752 163.164 82.809 162.871C83.074 162.292 83.3025 161.693 83.5486 161.105C84.0768 159.844 84.605 158.582 85.1332 157.321C85.2195 157.115 84.8834 157.025 84.7981 157.229C84.2699 158.49 83.7417 159.751 83.2135 161.013C83.0727 161.349 82.9318 161.685 82.791 162.022C82.6914 162.26 82.5613 162.728 82.4112 162.916C81.9377 163.511 80.5521 163.043 79.9133 162.937C77.4979 162.534 75.1028 162.011 72.7396 161.37C67.8617 160.047 63.1317 158.218 58.6257 155.93C58.4266 155.829 58.2505 156.129 58.4502 156.23Z" fill="white"/>
<path d="M74.25 48.7599C73.7402 48.8698 73.2406 48.5374 73.1419 48.0252C72.893 46.7322 72.7289 45.5418 72.6492 44.4544C72.5513 43.1108 72.6034 41.8425 72.8059 40.6506C73.0087 39.4586 73.3619 38.3174 73.8673 37.226C74.3721 36.1352 75.0466 35.0008 75.8904 33.8239C76.5614 32.9138 77.1759 32.0351 77.7339 31.1878C78.2911 30.3405 78.7512 29.5142 79.1137 28.7088C79.4761 27.9035 79.7145 27.0866 79.8296 26.258C79.9443 25.4295 79.9078 24.5763 79.7188 23.6985C79.2723 21.6261 78.457 20.1811 77.2732 19.3643C76.0891 18.5476 74.5583 18.3415 72.6811 18.7459C71.925 18.9087 71.2119 19.1837 70.5428 19.5702C69.8734 19.9571 69.3132 20.4666 68.863 21.0993C68.4119 21.7322 68.1015 22.4821 67.9312 23.3478C67.8033 23.995 67.7825 24.7079 67.8687 25.4869C67.9205 25.9556 67.6012 26.3852 67.1402 26.4844L58.3221 28.3838C57.8003 28.4962 57.2926 28.1456 57.2083 27.6184C56.8596 25.436 56.8932 23.4484 57.3085 21.6552C57.7848 19.6006 58.6351 17.8039 59.8599 16.2639C61.0845 14.7246 62.6389 13.4394 64.5219 12.4084C66.405 11.3777 68.5043 10.6128 70.8215 10.1138C73.3818 9.56226 75.742 9.38568 77.9028 9.58352C80.0634 9.78199 81.9688 10.3345 83.6187 11.2421C85.2687 12.1499 86.6579 13.4198 87.7883 15.0519C88.9179 16.6839 89.7297 18.6466 90.2233 20.9384C90.57 22.5478 90.6387 24.0513 90.4294 25.4486C90.2199 26.8465 89.8239 28.2075 89.2421 29.5318C88.6597 30.8569 87.9466 32.1647 87.1022 33.4565C86.2571 34.7484 85.3559 36.0717 84.3977 37.4265C83.8513 38.208 83.421 38.964 83.1065 39.6949C82.7916 40.4266 82.569 41.1693 82.4385 41.9247C82.3078 42.6801 82.2729 43.4662 82.334 44.282C82.3763 44.8466 82.4468 45.4446 82.5461 46.0762C82.6226 46.5625 82.3064 47.0246 81.8252 47.1284L74.25 48.7599ZM74.6903 60.4155C74.517 59.6106 74.497 58.837 74.6303 58.0936C74.7634 57.3509 75.0327 56.6739 75.4371 56.0635C75.8413 55.4536 76.3778 54.9232 77.0466 54.4727C77.715 54.0226 78.5 53.7004 79.4028 53.506C80.3044 53.3117 81.1531 53.282 81.948 53.417C82.7426 53.5522 83.4498 53.8148 84.0692 54.2041C84.6891 54.5939 85.2126 55.1002 85.6403 55.722C86.0672 56.3447 86.3682 57.0579 86.5416 57.8627C86.7097 58.6432 86.7265 59.4053 86.5937 60.1479C86.4601 60.8915 86.1915 61.5681 85.7869 62.178C85.3827 62.7884 84.8449 63.3126 84.1739 63.7503C83.5023 64.1879 82.7154 64.5045 81.8137 64.6987C80.9111 64.8931 80.0643 64.9285 79.2724 64.8061C78.4803 64.6836 77.7744 64.4272 77.1548 64.0374C76.5349 63.6482 76.0109 63.1422 75.5837 62.5195C75.1562 61.8976 74.8585 61.1961 74.6903 60.4155Z" fill="#E5DFFF"/>
<path d="M34.5476 128.476C34.1534 128.65 33.6937 128.464 33.5285 128.066C33.1117 127.061 32.7807 126.125 32.5352 125.258C32.232 124.187 32.0631 123.152 32.0285 122.154C31.9941 121.156 32.0898 120.173 32.3171 119.206C32.5439 118.239 32.9008 117.209 33.3877 116.116C33.7792 115.267 34.1302 114.454 34.4406 113.675C34.7504 112.897 34.9851 112.152 35.1443 111.439C35.3036 110.727 35.3605 110.027 35.3156 109.337C35.2704 108.647 35.0988 107.963 34.7996 107.284C34.0932 105.681 33.1927 104.648 32.0986 104.184C31.0043 103.72 29.7312 103.808 28.2794 104.448C27.6947 104.706 27.1634 105.047 26.6863 105.471C26.209 105.896 25.8406 106.401 25.5815 106.988C25.3219 107.576 25.1956 108.234 25.2019 108.963C25.2061 109.508 25.308 110.089 25.5075 110.705C25.6276 111.075 25.4406 111.476 25.0842 111.633L18.2643 114.639C17.8607 114.817 17.3914 114.618 17.2354 114.205C16.5897 112.497 16.2859 110.883 16.3234 109.363C16.3667 107.621 16.7556 106.025 17.4903 104.575C18.225 103.125 19.2688 101.826 20.6211 100.678C21.9733 99.5303 23.5449 98.5617 25.3371 97.7718C27.3172 96.8991 29.1979 96.3631 30.9795 96.1632C32.761 95.964 34.3949 96.0937 35.8813 96.5534C37.3678 97.0133 38.7036 97.8096 39.8902 98.9421C41.0762 100.075 42.0601 101.528 42.8412 103.3C43.3898 104.545 43.6959 105.75 43.7593 106.916C43.8225 108.082 43.7288 109.25 43.4784 110.418C43.2277 111.587 42.8685 112.765 42.4004 113.951C41.9316 115.137 41.4226 116.358 40.8728 117.614C40.5608 118.337 40.3385 119.021 40.2057 119.665C40.0727 120.309 40.0163 120.948 40.0365 121.581C40.0565 122.214 40.1592 122.856 40.3445 123.506C40.4727 123.956 40.6294 124.428 40.815 124.922C40.9578 125.303 40.779 125.73 40.4067 125.894L34.5476 128.476ZM36.8453 137.835C36.5709 137.213 36.4258 136.59 36.41 135.966C36.3941 135.343 36.4993 134.75 36.7249 134.189C36.9504 133.628 37.2962 133.109 37.7624 132.634C38.2284 132.158 38.81 131.766 39.5082 131.459C40.2055 131.151 40.8874 130.986 41.5531 130.963C42.2187 130.94 42.8347 131.035 43.4009 131.247C43.9675 131.459 44.4754 131.781 44.9251 132.213C45.3743 132.646 45.7366 133.173 46.0109 133.796C46.277 134.399 46.4176 135.013 46.4337 135.636C46.4494 136.26 46.3447 136.853 46.1188 137.414C45.8934 137.975 45.5455 138.489 45.0752 138.955C44.6047 139.421 44.0205 139.808 43.3232 140.115C42.6251 140.423 41.9456 140.593 41.2845 140.625C40.623 140.658 40.009 140.568 39.4428 140.356C38.8764 140.144 38.3679 139.822 37.9185 139.389C37.4691 138.957 37.1114 138.439 36.8453 137.835Z" fill="#FFD7A9"/>
<path d="M196.077 114.607C195.598 114.414 195.373 113.864 195.576 113.389C196.09 112.19 196.617 111.123 197.156 110.187C197.822 109.03 198.569 108.019 199.397 107.154C200.225 106.289 201.149 105.55 202.169 104.935C203.189 104.321 204.372 103.765 205.718 103.269C206.774 102.895 207.766 102.516 208.694 102.131C209.621 101.746 210.458 101.324 211.202 100.864C211.947 100.405 212.596 99.8679 213.151 99.2523C213.705 98.6366 214.149 97.9165 214.481 97.0917C215.266 95.1442 215.4 93.5064 214.883 92.179C214.365 90.8516 213.225 89.8324 211.46 89.1214C210.75 88.835 210.012 88.6645 209.249 88.6097C208.485 88.5551 207.743 88.6619 207.022 88.9307C206.301 89.1991 205.63 89.6418 205.009 90.2571C204.545 90.7168 204.132 91.2899 203.77 91.9766C203.552 92.3897 203.051 92.5647 202.618 92.3901L194.332 89.0501C193.842 88.8524 193.62 88.2828 193.844 87.8037C194.77 85.8203 195.901 84.2088 197.238 82.9691C198.77 81.5486 200.465 80.5474 202.325 79.9648C204.184 79.3826 206.173 79.192 208.29 79.3922C210.406 79.593 212.553 80.1317 214.73 81.0094C217.136 81.9793 219.17 83.1454 220.832 84.5077C222.494 85.8706 223.749 87.3818 224.598 89.0426C225.447 90.7034 225.881 92.5165 225.902 94.4828C225.922 96.4486 225.497 98.509 224.629 100.663C224.02 102.175 223.241 103.446 222.293 104.476C221.345 105.506 220.264 106.402 219.052 107.165C217.838 107.928 216.527 108.605 215.117 109.195C213.706 109.785 212.232 110.37 210.694 110.949C209.812 111.286 209.039 111.667 208.375 112.092C207.71 112.517 207.115 113.003 206.589 113.55C206.062 114.096 205.597 114.722 205.194 115.425C204.915 115.911 204.641 116.441 204.371 117.014C204.164 117.455 203.648 117.659 203.196 117.476L196.077 114.607ZM189.964 124.41C190.269 123.654 190.683 123.008 191.205 122.472C191.727 121.937 192.323 121.532 192.994 121.256C193.664 120.98 194.399 120.843 195.197 120.845C195.996 120.847 196.818 121.019 197.667 121.361C198.514 121.702 199.227 122.15 199.803 122.702C200.38 123.254 200.814 123.862 201.106 124.525C201.398 125.189 201.546 125.895 201.551 126.643C201.556 127.391 201.406 128.143 201.101 128.899C200.806 129.632 200.396 130.267 199.875 130.802C199.352 131.337 198.756 131.743 198.086 132.019C197.415 132.295 196.683 132.426 195.89 132.412C195.096 132.398 194.275 132.221 193.427 131.879C192.579 131.537 191.865 131.096 191.284 130.556C190.702 130.015 190.266 129.413 189.974 128.749C189.682 128.086 189.533 127.38 189.528 126.631C189.523 125.884 189.669 125.143 189.964 124.41Z" fill="#FF6A51"/>
<path d="M151.227 93.622C150.973 93.875 150.686 94.1127 150.524 94.4337C150.347 94.7825 150.339 95.1912 150.226 95.5651C149.862 96.7729 148.502 97.3927 147.248 97.5235C144.197 97.8389 141.312 96.167 138.841 94.3505C137.263 93.1899 135.68 91.8514 135.012 90.0113C134.344 88.1697 134.971 85.725 136.798 85.0203C137.298 84.8258 137.911 84.7284 138.173 84.26C138.311 84.0182 138.317 83.7264 138.354 83.4497C138.456 82.7033 138.827 82.0001 139.366 81.4775C139.522 81.326 139.691 81.1912 139.873 81.073C139.98 81.0035 140.09 80.941 140.204 80.8854L140.429 81.0188C140.546 82.5991 142.557 83.5804 143.773 84.3684C145.197 85.2912 146.666 86.1627 148.21 86.8701C149.376 87.4052 150.798 88.014 152.128 87.9557L152.627 88.2518C152.646 88.3185 152.663 88.3852 152.68 88.4519C152.721 88.6298 152.755 88.8091 152.778 88.9898C152.998 90.6588 152.422 92.4295 151.227 93.622Z" fill="#FFD7A9"/>
<path d="M181.475 25.9891C181.337 25.8792 181.199 25.7695 181.059 25.6597C180.919 25.55 180.778 25.4415 180.635 25.3359C170.713 17.921 155.252 18.8091 145.257 25.6473C135.121 32.5841 130.7 45.9478 134.776 57.3323C136.242 61.4283 138.666 65.206 140.066 69.3199C141.229 72.739 141.575 76.6293 140.106 79.7871C139.914 80.1998 139.839 80.639 139.873 81.0727C139.931 81.8927 140.375 82.6878 141.117 83.2214C144.155 85.4063 149.683 88.9769 152.679 88.4515C153.22 88.357 153.678 88.129 154.024 87.7358C154.854 86.7948 163.285 78.0456 175.155 75.9024C190.026 73.2171 207.778 47.029 181.475 25.9891ZM182.638 72.0481C180.805 73.313 178.8 74.3526 176.657 74.978C175.231 75.3935 173.752 75.5868 172.318 75.9774C170.52 76.4666 168.768 77.1116 167.067 77.8704C162.29 80.0025 157.749 83.0991 154.093 86.8559C153.574 87.387 153.164 87.8525 152.364 87.9373C152.286 87.9456 152.207 87.9526 152.127 87.9554C150.797 88.0138 149.375 87.405 148.209 86.8698C146.665 86.1624 145.196 85.291 143.773 84.3681C142.557 83.5801 140.546 82.5988 140.429 81.0185C140.411 80.7738 140.439 80.514 140.522 80.2373C140.81 79.2908 141.238 78.4375 141.418 77.4479C141.585 76.5265 141.652 75.5869 141.628 74.6515C141.573 72.5806 141.104 70.5361 140.397 68.5958C138.874 64.4206 136.411 60.6443 135.047 56.4066C132.81 49.4545 133.735 41.7295 137.234 35.3541C144.458 22.192 162.556 17.0022 176.04 23.2511C177.68 24.01 179.237 24.9467 180.667 26.0531C186.47 30.6384 191.571 36.5092 193.544 43.781C195.037 49.2807 194.512 55.1543 192.213 60.358C190.161 65.0029 186.824 69.1572 182.638 72.0481Z" fill="#FFD7A9"/>
<path d="M180.667 26.052C181.225 26.4828 182.015 25.7038 181.451 25.2681C180.897 24.8303 180.108 25.6096 180.667 26.052Z" fill="#FFD7A9"/>
<path d="M191.322 64.4094C188.607 68.7847 184.699 72.6139 180.031 74.8529C177.473 76.0802 174.788 76.4123 172.089 77.1935C168.336 78.2789 164.799 80.0316 161.549 82.1901C159.372 83.6369 157.305 85.2686 155.428 87.0894C155.018 87.4868 154.647 87.9455 154.219 88.3208C153.797 88.6919 153.3 88.8963 152.777 88.9893C152.236 89.0852 151.667 89.0616 151.12 88.9796C147.869 88.4904 144.782 86.4139 142.122 84.6015C140.927 83.787 139.639 82.9503 139.364 81.4771C139.337 81.3326 139.32 81.1838 139.313 81.0269C139.27 80.0234 139.817 79.1811 140.091 78.2443C140.397 77.2033 140.523 76.1191 140.522 75.0351C140.518 70.0858 137.94 65.7229 135.891 61.3782C134.158 57.7047 132.942 53.9285 132.744 49.8478C132.387 42.448 135.092 35.0122 140.029 29.5041C150.023 18.3517 169.42 16.014 181.407 25.2359C181.391 25.2262 181.377 25.2178 181.362 25.2095C181.333 25.1929 181.304 25.1804 181.275 25.1706C181.213 25.1483 181.151 25.1386 181.088 25.1386C181.066 25.1386 181.045 25.14 181.023 25.1428C181.006 25.1442 180.988 25.147 180.97 25.1512C180.96 25.1526 180.952 25.1554 180.942 25.1582C180.927 25.161 180.913 25.1652 180.898 25.1707C180.815 25.1985 180.738 25.243 180.673 25.2999C180.662 25.3082 180.652 25.318 180.644 25.3277C180.639 25.3305 180.637 25.3333 180.634 25.336C180.616 25.354 180.599 25.3735 180.584 25.3944C180.571 25.4097 180.56 25.4249 180.552 25.4402C180.541 25.4555 180.532 25.4708 180.526 25.4874C180.509 25.5194 180.495 25.5542 180.488 25.5889C180.484 25.6 180.482 25.6126 180.481 25.6237C180.466 25.7085 180.475 25.7974 180.52 25.8808C180.542 25.9267 180.576 25.9712 180.619 26.0114C180.633 26.0267 180.649 26.0392 180.666 26.0532C179.236 24.9469 177.679 24.01 176.039 23.2512C162.554 17.0023 144.457 22.1921 137.232 35.3542C133.734 41.7295 132.808 49.4544 135.046 56.4067C136.41 60.6444 138.872 64.4207 140.396 68.5959C141.103 70.5362 141.571 72.5806 141.627 74.6515C141.651 75.587 141.584 76.5265 141.417 77.448C141.237 78.4375 140.808 79.291 140.521 80.2374C140.437 80.5141 140.41 80.7739 140.428 81.0186C140.544 82.5989 142.555 83.5801 143.772 84.3682C145.195 85.291 146.664 86.1625 148.208 86.8699C149.374 87.405 150.796 88.0138 152.126 87.9555C152.205 87.9527 152.285 87.9458 152.362 87.9374C153.163 87.8526 153.573 87.387 154.091 86.856C157.748 83.0992 162.289 80.0025 167.066 77.8705C168.767 77.1116 170.518 76.4667 172.317 75.9774C173.751 75.5869 175.23 75.3937 176.656 74.9781C178.799 74.3526 180.803 73.313 182.637 72.0482C186.823 69.1573 190.16 65.0029 192.211 60.3579C194.51 55.1542 195.036 49.2806 193.543 43.7809C191.569 36.5091 186.468 30.6383 180.666 26.0531C180.694 26.0754 180.723 26.0934 180.753 26.1101C180.782 26.1254 180.812 26.1379 180.842 26.1491C180.992 26.2005 181.148 26.1824 181.28 26.1213C181.315 26.106 181.347 26.088 181.379 26.0671C181.395 26.056 181.412 26.0434 181.427 26.0295C181.444 26.017 181.459 26.003 181.473 25.9892C181.486 25.9767 181.498 25.9641 181.511 25.9502C181.548 25.9058 181.58 25.8584 181.603 25.807C181.608 25.7959 181.614 25.7833 181.618 25.7708C181.676 25.6055 181.642 25.4164 181.45 25.2677C183.191 26.6451 184.859 28.11 186.402 29.7083C191.254 34.7355 194.836 41.0595 195.424 48.1131C195.899 53.8199 194.327 59.5657 191.322 64.4094Z" fill="#FFD7A9"/>
<path d="M158.455 52.2265C158.093 51.9159 157.742 51.593 157.403 51.2599C157.357 51.7157 157.303 52.1713 157.238 52.6262C157.577 52.9264 157.92 53.215 158.265 53.4914C158.335 53.0711 158.399 52.6492 158.455 52.2265Z" fill="#FFD7A9"/>
<path d="M164.306 57.936C160.811 61.6938 158.155 66.1455 155.65 70.5975C152.4 76.3754 149.19 82.1766 145.962 87.9665C145.6 88.6141 146.594 89.1952 146.955 88.5475C149.359 84.2384 151.762 79.9293 154.165 75.6202C156.16 72.0419 158.105 68.4242 160.344 64.9893C162.055 62.3623 163.96 59.8284 166.208 57.6354C165.782 57.5311 165.36 57.4097 164.943 57.2727C164.728 57.4912 164.515 57.7118 164.306 57.936Z" fill="#FFD7A9"/>
<path d="M166.207 57.6353C166.538 57.3125 166.877 56.997 167.223 56.6897C166.767 56.6042 166.315 56.4974 165.868 56.3701C165.553 56.6643 165.245 56.9653 164.942 57.2725C165.36 57.4097 165.782 57.531 166.207 57.6353Z" fill="#FFD7A9"/>
<path d="M167.572 56.3833C169.035 55.1283 170.643 54.0422 172.374 53.1902C173.172 52.7975 174.021 52.3817 174.908 52.2441C176.576 51.9852 177.342 53.2897 176.348 54.6067C174.988 56.4082 172.186 56.8857 170.07 56.93C169.113 56.95 168.16 56.8651 167.223 56.6897C166.877 56.997 166.538 57.3123 166.207 57.6353C168.727 58.2529 171.368 58.2759 173.89 57.4593C175.625 56.8974 177.687 55.7387 177.993 53.7379C178.275 51.8946 176.569 50.887 174.927 51.0885C172.834 51.3454 170.72 52.6557 169.016 53.827C167.903 54.5923 166.855 55.4483 165.868 56.3703C166.315 56.4976 166.767 56.6044 167.223 56.6898C167.339 56.5871 167.454 56.4841 167.572 56.3833Z" fill="#FFD7A9"/>
<path d="M154.374 47.2519C153.875 46.2725 153.553 45.2034 153.54 44.0985C153.534 43.5667 153.592 43.0351 153.731 42.521C153.808 42.2371 153.911 41.9539 154.04 41.6907C154.318 41.1237 154.315 41.0924 155.046 41.1228C155.784 41.1535 155.677 41.0852 155.986 41.6222C156.108 41.8336 156.223 42.0479 156.328 42.2677C156.542 42.7136 156.726 43.1726 156.877 43.6437C157.215 44.6991 157.408 45.7935 157.489 46.8976C157.596 48.3436 157.549 49.8025 157.402 51.2594C157.741 51.5927 158.092 51.9158 158.455 52.2265C158.832 49.41 158.88 46.5565 158.14 43.8594C157.769 42.5049 156.766 39.191 154.867 39.4075C152.999 39.6204 152.37 42.6162 152.389 44.0982C152.432 47.4292 154.681 50.3582 157.237 52.6263C157.302 52.1712 157.356 51.7154 157.402 51.2594C156.167 50.0445 155.107 48.6901 154.374 47.2519Z" fill="#FFD7A9"/>
<path d="M160.022 54.8025C161.523 55.8457 163.192 56.6977 164.943 57.2725C165.245 56.9653 165.554 56.6644 165.869 56.3702C165.076 56.1443 164.301 55.8556 163.552 55.5111C161.82 54.7145 160.039 53.5834 158.455 52.2268C158.399 52.6497 158.335 53.0717 158.265 53.4922C158.855 53.9653 159.448 54.4038 160.022 54.8025Z" fill="#FFD7A9"/>
<path d="M143.286 85.8161C142.845 86.4125 143.844 86.9872 144.279 86.3971C150.468 78.0167 154.928 68.3935 157.283 58.2421C157.639 56.7059 157.995 55.1101 158.265 53.4924C157.92 53.2159 157.576 52.9272 157.238 52.6268C156.91 54.9511 156.363 57.2578 155.796 59.485C153.383 68.9808 149.104 77.9373 143.286 85.8161Z" fill="#FFD7A9"/>
<path d="M180.718 10.0594C181.527 7.90113 182.335 5.74276 183.143 3.58451C183.404 2.88992 182.291 2.58998 182.033 3.27846C181.225 5.43671 180.417 7.59509 179.608 9.75333C179.348 10.4479 180.461 10.748 180.718 10.0594Z" fill="#FFD7A9"/>
<path d="M146.891 11.7098C144.156 7.89055 141.42 4.07119 138.685 0.25196C138.258 -0.345113 137.259 0.229044 137.691 0.832992C140.426 4.65223 143.162 8.47159 145.897 12.2908C146.324 12.8878 147.323 12.3136 146.891 11.7098Z" fill="#FFD7A9"/>
<path d="M130.647 30.7048C131.318 31.0056 131.904 30.0139 131.228 29.7109C129.968 29.1455 128.708 28.58 127.448 28.0145C126.778 27.7137 126.191 28.7054 126.867 29.0084C128.127 29.5739 129.387 30.1393 130.647 30.7048Z" fill="#FFD7A9"/>
<path d="M182.957 92.1086C181.872 90.5666 181.199 88.8844 180.916 87.0215C180.805 86.2916 179.695 86.6017 179.806 87.3276C180.102 89.2731 180.831 91.0808 181.963 92.6897C182.386 93.2908 183.384 92.7164 182.957 92.1086Z" fill="#FFD7A9"/>
<path d="M200.175 59.6311C200.845 59.9319 201.431 58.9402 200.756 58.6372C199.705 58.166 198.655 57.6948 197.605 57.2236C196.935 56.9229 196.349 57.9145 197.024 58.2175C198.074 58.6886 199.124 59.1598 200.175 59.6311Z" fill="#FFD7A9"/>
<path d="M203.842 37.0023C204.582 37.0328 204.581 35.8817 203.842 35.8512C203.222 35.8256 202.603 35.8 201.984 35.7744C201.243 35.7438 201.244 36.895 201.984 36.9255C202.603 36.9511 203.222 36.9767 203.842 37.0023Z" fill="#FFD7A9"/>
<path d="M126.099 71.2693C127.72 70.5106 129.191 69.5146 130.51 68.3067C131.057 67.8054 130.242 66.993 129.696 67.4928C128.447 68.6363 127.051 69.558 125.519 70.2754C124.848 70.5892 125.432 71.5817 126.099 71.2693Z" fill="#FFD7A9"/>
</svg>
