<svg width="56" height="56" viewBox="0 0 56 56" fill="none" xmlns="http://www.w3.org/2000/svg">
<rect width="56" height="56" rx="15" fill="#F9FBEB"/>
<path d="M41.7187 19.4028V25.2763C41.7187 26.6112 40.6401 27.6791 39.2945 27.6791H38.0024L39.6736 30.3488L34.2807 28.1596V28.1062C34.2807 26.7713 33.2021 25.7034 31.8566 25.7034H21.7702C21.7702 25.5966 21.7168 25.4365 21.7168 25.2763V19.4028C21.7168 18.0679 22.7954 17 24.1409 17H39.2411C40.5867 17 41.724 18.0679 41.724 19.4028H41.7187Z" fill="#F05023"/>
<path d="M38.3176 22.3389C38.6968 22.3389 39.0171 22.6592 39.0171 23.033C39.0171 23.4068 38.6914 23.7271 38.3176 23.7271C37.9439 23.7271 37.6182 23.4068 37.6182 23.033C37.6716 22.6058 37.9439 22.3389 38.3176 22.3389Z" fill="white"/>
<path d="M30.2281 21.0045H25.4812C25.1021 21.0045 24.7817 20.6841 24.7817 20.3104C24.7817 19.9366 25.1075 19.6162 25.4812 19.6162H30.2281C30.6072 19.6162 30.9275 19.9366 30.9275 20.3104C30.9275 20.6841 30.6018 21.0045 30.2281 21.0045Z" fill="white"/>
<path d="M36.3262 23.6744H25.5403C25.1612 23.6744 24.8408 23.354 24.8408 22.9803C24.8408 22.6065 25.1665 22.2861 25.5403 22.2861H36.3262C36.7053 22.2861 37.0256 22.6065 37.0256 22.9803C36.9722 23.354 36.6465 23.6744 36.3262 23.6744Z" fill="white"/>
<path d="M25.0544 34.2998L25.1078 34.3532H25.001L25.0544 34.2998Z" fill="#94D4FF"/>
<path d="M35.3599 33.9267C35.3599 35.2615 34.276 36.3295 32.9304 36.3295H22.8453L16.3204 38.9992L17.9917 36.3295H16.6995C15.354 36.3295 14.2754 35.2615 14.2754 33.9267V28.0532C14.2754 26.7183 15.354 25.6504 16.6995 25.6504H32.9892C34.3347 25.6504 35.4133 26.7183 35.4133 28.0532C35.3599 28.8007 35.3599 33.2325 35.3599 33.9267Z" fill="#F5AA1E"/>
<path d="M29.156 27.3057L31.7456 34.3004H30.021L29.4817 32.752H27.2711L26.7318 34.3004H25.1139L25.0605 34.2471L27.6502 27.3057H29.1613H29.156ZM29.2094 31.6841L28.3978 29.1745L27.5328 31.6307H29.204V31.6841H29.2094Z" fill="white"/>
<path d="M25.1137 34.3004V34.3538H23.656L23.2769 33.9801C23.0099 34.1403 22.7376 34.2471 22.4706 34.3004C22.1983 34.3538 21.8779 34.4072 21.5522 34.4072C21.0129 34.4072 20.527 34.3005 20.0945 34.0869C19.662 33.8733 19.2829 33.6063 18.9625 33.2859C18.6368 32.9656 18.4233 32.5918 18.2631 32.1646C18.1029 31.7375 17.9961 31.3103 17.9961 30.8298C17.9961 30.3492 18.1029 29.922 18.2631 29.4949C18.4233 29.0677 18.6956 28.6939 19.0159 28.3736C19.3417 28.0532 19.7154 27.7862 20.1479 27.5726C20.5804 27.3591 21.0663 27.3057 21.5522 27.3057C22.0915 27.3057 22.5774 27.4125 23.0099 27.626C23.4424 27.8396 23.8162 28.1066 24.1419 28.427C24.4676 28.7473 24.6812 29.1211 24.8414 29.5483C25.0016 29.9754 25.1083 30.4026 25.1083 30.8298C25.1083 31.2569 25.055 31.6841 24.8948 32.1112C24.7346 32.5384 24.5157 32.8588 24.1953 33.2325L25.1137 34.3004ZM23.2822 31.4705C23.3356 31.2569 23.3356 31.0433 23.3356 30.8298C23.3356 30.5628 23.2822 30.2958 23.2288 30.0288C23.1754 29.7618 23.0153 29.5483 22.8497 29.3347C22.6895 29.1211 22.4706 28.9609 22.257 28.8541C22.0435 28.7473 21.7711 28.6939 21.4508 28.6939C21.1304 28.6939 20.8581 28.7473 20.6392 28.8541C20.4256 28.9609 20.2067 29.1211 20.0465 29.3347C19.8863 29.5483 19.7795 29.7618 19.7208 30.0288C19.6674 30.2958 19.614 30.5628 19.614 30.8298C19.614 31.0967 19.6674 31.3637 19.7208 31.6307C19.7742 31.8977 19.9343 32.1112 20.0999 32.3248C20.2601 32.5384 20.4256 32.6986 20.6926 32.8054C20.9061 32.9122 21.1785 32.9656 21.4988 32.9656C21.7711 32.9656 21.9847 32.9122 22.1983 32.8588L21.0663 31.5773H22.5774L23.0099 32.0578C23.1701 31.8977 23.2235 31.6841 23.2769 31.4705H23.2822Z" fill="white"/>
<path d="M37.0254 38.0466C37.0254 37.3728 37.5521 36.8461 38.2259 36.8461C38.8997 36.8461 39.4263 37.3728 39.4263 38.0466C39.4263 38.7204 38.8997 39.2471 38.2259 39.2471C37.5521 39.2471 37.0254 38.7204 37.0254 38.0466Z" fill="#BED232"/>
<path d="M39.002 32.6265C39.002 32.2896 39.2914 32.0001 39.6283 32.0001C39.9652 32.0001 40.2499 32.2896 40.2499 32.6265C40.2499 32.9633 39.9604 33.248 39.6283 33.248C39.2439 33.248 39.002 32.9586 39.002 32.6265Z" fill="#94D4FF"/>
<path d="M33.1572 40.4976C33.1572 40.1607 33.4467 39.8712 33.7788 39.8712C34.111 39.8712 34.4051 40.1607 34.4051 40.4976C34.4051 40.8344 34.1157 41.1191 33.7788 41.1191C33.4419 41.1191 33.1572 40.8297 33.1572 40.4976Z" fill="#94D4FF"/>
<path d="M27.1553 38.6255C27.1553 38.2886 27.4447 37.9991 27.7769 37.9991C28.109 37.9991 28.4032 38.2886 28.4032 38.6255C28.4032 38.9624 28.1138 39.2471 27.7769 39.2471C27.44 39.2471 27.1553 38.9576 27.1553 38.6255Z" fill="#94D4FF"/>
<path d="M16.3561 18.7969C16.9442 18.7969 17.4236 19.2728 17.4236 19.8644C17.4236 20.4559 16.9476 20.9319 16.3561 20.9319C15.7645 20.9319 15.2886 20.4559 15.2886 19.8644C15.2886 19.2728 15.7645 18.7969 16.3561 18.7969Z" fill="#BED232"/>
<path d="M25.7342 15.123C26.0711 15.123 26.3558 15.4125 26.3558 15.7494C26.3558 16.0863 26.0664 16.371 25.7342 16.371C25.4021 16.371 25.1079 16.0815 25.1079 15.7494C25.1554 15.365 25.3974 15.123 25.7342 15.123Z" fill="#94D4FF"/>
<path d="M38.3954 15.123C38.7323 15.123 39.017 15.4125 39.017 15.7494C39.017 16.0863 38.7275 16.371 38.3954 16.371C38.0632 16.371 37.769 16.0815 37.769 15.7494C37.8165 15.365 38.0585 15.123 38.3954 15.123Z" fill="#94D4FF"/>
<path d="M18.8565 21.9639C19.1933 21.9639 19.4828 22.2533 19.4828 22.5902C19.4828 22.9271 19.1933 23.2118 18.8565 23.2118C18.5196 23.2118 18.2349 22.9223 18.2349 22.5902C18.2349 22.2059 18.5243 21.9639 18.8565 21.9639Z" fill="#94D4FF"/>
<path d="M21.5527 39.2471C21.8896 39.2471 22.1791 39.5365 22.1791 39.8687C22.1791 40.2008 21.8896 40.495 21.5527 40.495C21.2158 40.495 20.9312 40.2056 20.9312 39.8687C20.9786 39.4843 21.2206 39.2471 21.5527 39.2471Z" fill="#94D4FF"/>
</svg>
