<svg width="56" height="56" viewBox="0 0 56 56" fill="none" xmlns="http://www.w3.org/2000/svg">
<rect width="56" height="56" rx="15" fill="#F9FBEB"/>
<path d="M40.2801 34.1357C41.4268 34.1357 42.3562 35.0651 42.3562 36.2118C42.3562 37.3586 41.4268 38.2879 40.2801 38.2879H38.5898V34.1412H40.2801V34.1357Z" fill="#F05023"/>
<path d="M28.2204 34.1357H26.965L22.8726 36.1575L26.965 38.2336H28.3291L28.2204 34.1357Z" fill="#F5E8D1"/>
<path d="M22.8752 36.1562L25.0002 35.1055V37.2344L22.8752 36.1562Z" fill="#757575"/>
<path d="M31.0573 16.4024V18.0926H22.2148V16.4024V14.6523H31.0573V16.4024Z" fill="#009483"/>
<path d="M38.5897 36.1582V38.2343H28.3287C28.057 38.2343 27.7852 38.1256 27.5624 37.9082C27.345 37.7452 27.2363 37.4734 27.2363 37.1419C27.2363 36.5441 27.7255 36.1582 28.2744 36.1582H38.5897Z" fill="#F5AA1E"/>
<path d="M38.5898 34.1357V36.2118H28.2745C27.731 36.2118 27.2908 35.7227 27.2908 35.1738C27.2908 34.9021 27.3995 34.6303 27.5625 34.4618C27.7256 34.2988 27.9973 34.1901 28.269 34.1901H38.5843V34.1357H38.5898Z" fill="#FFCE02"/>
<path d="M35.8617 38.2337V40.2011C35.8617 41.1848 35.0411 42 34.0628 42H19.2203C18.2366 42 17.4214 41.1793 17.4214 40.2011V18.1466C17.4214 17.1629 18.242 16.3477 19.2203 16.3477H22.2203V18.0379H31.1171V16.3477H34.1172C35.1009 16.3477 35.9161 17.1683 35.9161 18.1466V34.0815H26.9649L22.8725 36.1576L26.9649 38.2337H35.8617Z" fill="#E9F7FA"/>
<path d="M42.139 24.5869C42.4108 24.5869 42.6282 24.8043 42.6282 25.076C42.6282 25.3478 42.4108 25.5652 42.139 25.5652C41.8673 25.5652 41.6499 25.3478 41.6499 25.076C41.6499 24.8043 41.8727 24.5869 42.139 24.5869Z" fill="#DF6426"/>
<path d="M41.4811 39.9238C41.7528 39.9238 41.9702 40.1412 41.9702 40.413C41.9702 40.6847 41.7528 40.9021 41.4811 40.9021C41.2093 40.9021 40.9919 40.6847 40.9919 40.413C40.9919 40.1412 41.2148 39.9238 41.4811 39.9238Z" fill="#DF6426"/>
<path d="M38.7531 29.0059C39.0248 29.0059 39.2422 29.2233 39.2422 29.495C39.2422 29.7667 39.0194 29.9841 38.7531 29.9841C38.4867 29.9841 38.2639 29.7667 38.2639 29.495C38.2639 29.2233 38.4813 29.0059 38.7531 29.0059Z" fill="#DF6426"/>
<path d="M37.389 14C37.6608 14 37.8782 14.2174 37.8782 14.4891C37.8782 14.7609 37.6608 14.9783 37.389 14.9783C37.1173 14.9783 36.8999 14.7609 36.8999 14.4891C36.8999 14.2174 37.1227 14 37.389 14Z" fill="#DF6426"/>
<path d="M15.2311 29.3369C15.5028 29.3369 15.7202 29.5543 15.7202 29.826C15.7202 30.0978 15.4974 30.3152 15.2311 30.3152C14.9648 30.3152 14.7419 30.0978 14.7419 29.826C14.7419 29.5543 14.9593 29.3369 15.2311 29.3369Z" fill="#DF6426"/>
<path d="M13.8671 14.7119C14.1388 14.7119 14.3562 14.9293 14.3562 15.201C14.3562 15.4728 14.1388 15.6902 13.8671 15.6902C13.5953 15.6902 13.3779 15.4728 13.3779 15.201C13.3779 14.9293 13.5953 14.7119 13.8671 14.7119Z" fill="#DF6426"/>
<path d="M32.8016 30.701H20.5243C20.3613 30.701 20.1982 30.538 20.1982 30.3749C20.1982 30.2119 20.3613 30.0488 20.5243 30.0488H32.8016C32.9646 30.0488 33.1277 30.2119 33.1277 30.3749C33.1277 30.538 32.9646 30.701 32.8016 30.701Z" fill="#5A5F64"/>
<path d="M32.8016 28.6795H20.5243C20.3613 28.6795 20.1982 28.5165 20.1982 28.3534C20.1982 28.1904 20.3613 28.0273 20.5243 28.0273H32.8016C32.9646 28.0273 33.1277 28.1904 33.1277 28.3534C33.1277 28.5165 32.9646 28.6795 32.8016 28.6795Z" fill="#5A5F64"/>
<path d="M32.8016 26.6082H20.5243C20.3613 26.6082 20.1982 26.4452 20.1982 26.2821C20.1982 26.1191 20.3613 25.9561 20.5243 25.9561H32.8016C32.9646 25.9561 33.1277 26.1191 33.1277 26.2821C33.1277 26.4452 32.9646 26.6082 32.8016 26.6082Z" fill="#5A5F64"/>
<path d="M32.8016 24.5867H20.5243C20.3613 24.5867 20.1982 24.4237 20.1982 24.2607C20.1982 24.0976 20.3613 23.9346 20.5243 23.9346H32.8016C32.9646 23.9346 33.1277 24.0976 33.1277 24.2607C33.1277 24.4237 32.9646 24.5867 32.8016 24.5867Z" fill="#5A5F64"/>
<path d="M26.307 22.5164H20.5243C20.3613 22.5164 20.1982 22.3534 20.1982 22.1903C20.1982 22.0273 20.3613 21.8643 20.5243 21.8643H26.307C26.47 21.8643 26.6331 22.0273 26.6331 22.1903C26.6331 22.3534 26.47 22.5164 26.307 22.5164Z" fill="#5A5F64"/>
<path d="M41.318 18.75C40.5517 18.75 39.9539 19.3478 39.9539 20.1141C39.9539 20.8804 40.5517 21.4783 41.318 21.4783C42.0843 21.4783 42.6821 20.875 42.6821 20.1141C42.6821 19.3533 42.0843 18.75 41.318 18.75Z" fill="#F5AA1E"/>
<path d="M14.3559 38.5605C13.8124 38.5605 13.3179 38.9953 13.3179 39.5986C13.3179 40.2019 13.7527 40.6366 14.3559 40.6366C14.9592 40.6366 15.394 40.2019 15.394 39.5986C15.394 38.9953 14.9048 38.5605 14.3559 38.5605Z" fill="#F5AA1E"/>
</svg>
