<svg width="56" height="56" viewBox="0 0 56 56" fill="none" xmlns="http://www.w3.org/2000/svg">
<rect width="56" height="56" rx="15" fill="#F9FBEB"/>
<path d="M37.8476 40.0001H21.621C20.6134 40.0001 19.7959 39.1841 19.7959 38.1761C19.7959 37.1681 20.6134 36.3521 21.621 36.3521H37.8476V40.0001Z" fill="#CD2738"/>
<path d="M18.6455 28H34.8721C35.8797 28 36.6972 28.816 36.6972 29.824C36.6972 30.832 35.8797 31.648 34.8721 31.648H18.6455V28Z" fill="#FAA71A"/>
<path d="M37.8476 23.2H21.621C20.6134 23.2 19.7959 22.384 19.7959 21.376C19.7959 20.368 20.6134 19.552 21.621 19.552H37.8476V23.2Z" fill="#19AB5C"/>
<path d="M16.2451 41.2C16.9153 41.2 17.4428 41.728 17.4428 42.4C17.4428 43.072 16.9153 43.6 16.2451 43.6C15.5749 43.6 15.0474 43.072 15.0474 42.4C15.0474 41.728 15.5749 41.2 16.2451 41.2Z" fill="#3256C1"/>
<path d="M40.8228 20.8C41.1603 20.8 41.4455 21.088 41.4455 21.424C41.4455 21.76 41.1555 22.048 40.8228 22.048C40.4901 22.048 40.2002 21.76 40.2002 21.424C40.2002 21.088 40.4901 20.8 40.8228 20.8Z" fill="#3256C1"/>
<path d="M41.1079 30.9761C41.5879 30.9761 42.0204 31.3601 42.0204 31.8881C42.0204 32.4161 41.6355 32.8001 41.1079 32.8001C40.5803 32.8001 40.1953 32.4161 40.1953 31.8881C40.1953 31.3601 40.6278 30.9761 41.1079 30.9761Z" fill="#3256C1"/>
<path d="M39.0452 39.9999V42.3999H21.6209C20.4707 42.3999 19.4108 41.9199 18.6455 41.1519C17.8756 40.3839 17.3955 39.3279 17.3955 38.1759C17.3955 35.8719 19.2682 33.9519 21.6209 33.9519H39.0452V36.3519H21.6209C21.1408 36.3519 20.6608 36.5439 20.3233 36.8799C19.9859 37.2159 19.7957 37.6479 19.7957 38.1759C19.7957 39.1839 20.6133 39.9999 21.6209 39.9999H39.0452Z" fill="#D94556"/>
<path d="M34.8198 25.6001C37.125 25.6001 39.0452 27.4721 39.0452 29.8241C39.0452 30.9761 38.5651 32.0321 37.7952 32.8001C37.0252 33.5681 35.97 34.0481 34.8198 34.0481H17.3955V31.6481H34.8198C35.8274 31.6481 36.6449 30.8321 36.6449 29.8241C36.6449 29.3441 36.4548 28.8641 36.1174 28.5281C35.7799 28.1921 35.3474 28.0001 34.8198 28.0001H17.443V25.6001H34.8198Z" fill="#FFD400"/>
<path d="M39.0452 23.2001V25.6001H21.6209C20.4707 25.6001 19.4108 25.1201 18.6455 24.3521C17.8756 23.5841 17.3955 22.5281 17.3955 21.3761C17.3955 19.0721 19.2682 17.1521 21.6209 17.1521H39.0452V19.5521H21.6209C21.1408 19.5521 20.6608 19.7441 20.3233 20.0801C19.9859 20.4161 19.7957 20.8481 19.7957 21.3761C19.7957 22.3841 20.6133 23.2001 21.6209 23.2001H39.0452Z" fill="#07CC66"/>
<path d="M41.8305 26.368C41.9256 26.464 42.0207 26.608 42.0207 26.8C42.0207 27.136 41.7307 27.424 41.398 27.424C41.2554 27.424 41.0606 27.376 40.9655 27.232C40.8704 27.088 40.7754 26.992 40.7754 26.8C40.7754 26.608 40.8229 26.464 40.9655 26.368C41.0606 26.272 41.2032 26.176 41.398 26.176C41.5929 26.176 41.7355 26.272 41.8305 26.368Z" fill="#94D4FF"/>
<path d="M41.8305 38.368C41.9256 38.464 42.0207 38.608 42.0207 38.8C42.0207 39.136 41.7307 39.424 41.398 39.424C41.2554 39.424 41.0606 39.376 40.9655 39.232C40.8704 39.136 40.7754 38.992 40.7754 38.8C40.7754 38.656 40.8229 38.464 40.9655 38.368C41.0606 38.272 41.2032 38.176 41.398 38.176C41.5929 38.176 41.7355 38.272 41.8305 38.368Z" fill="#94D4FF"/>
<path d="M32.852 29.392C32.9471 29.488 33.0421 29.632 33.0421 29.824C33.0421 30.16 32.7522 30.448 32.4195 30.448C32.2769 30.448 32.0821 30.4 31.987 30.256C31.8919 30.16 31.7969 30.016 31.7969 29.824C31.7969 29.632 31.8444 29.488 31.987 29.392C32.0821 29.296 32.2246 29.2 32.4195 29.2C32.6144 29.2 32.757 29.248 32.852 29.392Z" fill="#E08D12"/>
<path d="M31.0317 29.392C31.1268 29.488 31.2218 29.632 31.2218 29.824C31.2218 30.16 30.9319 30.448 30.5992 30.448C30.4566 30.448 30.2617 30.4 30.1667 30.256C30.0716 30.16 29.9766 30.016 29.9766 29.824C29.9766 29.632 30.0241 29.488 30.1667 29.392C30.2617 29.296 30.4043 29.2 30.5992 29.2C30.7941 29.2 30.9367 29.248 31.0317 29.392Z" fill="#E08D12"/>
<path d="M26.2314 20.992C26.3265 21.088 26.4215 21.232 26.4215 21.424C26.4215 21.568 26.374 21.76 26.2314 21.856C26.1364 21.952 25.9938 22.048 25.7989 22.048C25.4614 22.048 25.1763 21.76 25.1763 21.424C25.1763 21.28 25.2238 21.088 25.3664 20.992C25.4614 20.896 25.604 20.8 25.7989 20.8C25.9938 20.8 26.1364 20.848 26.2314 20.992Z" fill="#129148"/>
<path d="M26.2314 37.7921C26.3265 37.8881 26.4215 38.0321 26.4215 38.2241C26.4215 38.3681 26.374 38.5601 26.2314 38.6561C26.1364 38.7521 25.9938 38.8481 25.7989 38.8481C25.4614 38.8481 25.1763 38.5601 25.1763 38.2241C25.1763 38.0801 25.2238 37.8881 25.3664 37.7921C25.4614 37.6961 25.604 37.6001 25.7989 37.6001C25.9938 37.6001 26.1364 37.6481 26.2314 37.7921Z" fill="#B51D33"/>
<path d="M17.8281 16.192C17.9232 16.288 18.0182 16.432 18.0182 16.624C18.0182 16.96 17.7283 17.248 17.3956 17.248C17.253 17.248 17.0581 17.2 16.9631 17.056C16.868 16.96 16.7729 16.816 16.7729 16.624C16.7729 16.432 16.8205 16.288 16.9631 16.192C17.0581 16.096 17.2007 16 17.3956 16C17.5905 16 17.733 16.048 17.8281 16.192Z" fill="#94D4FF"/>
<path d="M16.0552 23.9679C16.1502 24.0639 16.2453 24.2079 16.2453 24.3999C16.2453 24.7359 15.9553 25.0239 15.6226 25.0239C15.48 25.0239 15.2852 24.9759 15.1901 24.8319C15.0951 24.7359 15 24.5919 15 24.3999C15 24.2079 15.0475 24.0639 15.1901 23.9679C15.2852 23.8719 15.4278 23.7759 15.6226 23.7759C15.8175 23.7759 15.9601 23.8719 16.0552 23.9679Z" fill="#94D4FF"/>
<path d="M16.0552 34.192C16.1502 34.288 16.2453 34.432 16.2453 34.624C16.2453 34.96 15.9553 35.248 15.6226 35.248C15.48 35.248 15.2852 35.2 15.1901 35.056C15.0951 34.96 15 34.816 15 34.624C15 34.432 15.0475 34.288 15.1901 34.192C15.2852 34.096 15.4278 34 15.6226 34C15.8175 34 15.9601 34.048 16.0552 34.192Z" fill="#94D4FF"/>
<path d="M27.6192 37.6001C27.2818 37.6001 26.9966 37.8881 26.9966 38.2241C26.9966 38.5601 27.2865 38.8481 27.6192 38.8481H37.8428V37.6481H27.6192V37.6001Z" fill="#B51D33"/>
<path d="M29.4442 29.7761C29.4442 29.4401 29.1543 29.1521 28.8216 29.1521H18.6455V30.3521H28.8691C29.159 30.4001 29.4442 30.1121 29.4442 29.7761Z" fill="#E08D12"/>
<path d="M27.6192 20.8C27.2818 20.8 26.9966 21.088 26.9966 21.424C26.9966 21.76 27.2865 22.048 27.6192 22.048H37.8428V20.848H27.6192V20.8Z" fill="#129148"/>
</svg>
