<svg width="25" height="24" viewBox="0 0 25 24" fill="none" xmlns="http://www.w3.org/2000/svg">
<path d="M21.5 12C21.5 13.1819 21.2672 14.3522 20.8149 15.4442C20.3626 16.5361 19.6997 17.5282 18.864 18.364C18.0282 19.1997 17.0361 19.8626 15.9442 20.3149C14.8522 20.7672 13.6819 21 12.5 21C11.3181 21 10.1478 20.7672 9.05585 20.3149C7.96392 19.8626 6.97177 19.1997 6.13604 18.364C5.30031 17.5282 4.63738 16.5361 4.18508 15.4442C3.73279 14.3522 3.5 13.1819 3.5 12C3.5 9.61305 4.44821 7.32387 6.13604 5.63604C7.82387 3.94821 10.1131 3 12.5 3C14.8869 3 17.1761 3.94821 18.864 5.63604C20.5518 7.32387 21.5 9.61305 21.5 12Z" stroke="#6B7280" stroke-width="1.5" stroke-linecap="round" stroke-linejoin="round"/>
<path d="M10.7908 9.5C10.5568 9.49987 10.3252 9.54585 10.1091 9.6353C9.89291 9.72476 9.69652 9.85594 9.53111 10.0214C9.36571 10.1868 9.23453 10.3831 9.14507 10.5993C9.05561 10.8154 9.00963 11.0471 9.00977 11.281C9.00977 13.25 12.3848 15.5 12.3848 15.5C12.3848 15.5 15.7598 13.25 15.7598 11.281C15.7598 10.062 14.9628 9.5 13.9788 9.5C13.2808 9.5 12.6768 9.9 12.3848 10.485C12.2369 10.1888 12.0094 9.93978 11.7279 9.76578C11.4463 9.59178 11.1218 9.49974 10.7908 9.5Z" stroke="#6B7280" stroke-width="1.5" stroke-linecap="round" stroke-linejoin="round"/>
</svg>
