<svg width="56" height="56" viewBox="0 0 56 56" fill="none" xmlns="http://www.w3.org/2000/svg">
<rect width="56" height="56" rx="15" fill="#F9FBEB"/>
<path d="M38.2647 31.0137H17.5647C17.1638 31.0137 16.8386 31.3914 16.8386 31.8569C16.8386 32.3224 17.1638 32.7001 17.5647 32.7001H38.2647C38.6655 32.7001 38.9907 32.3224 38.9907 31.8569C38.9907 31.3914 38.6655 31.0137 38.2647 31.0137Z" fill="#F6774A"/>
<path d="M37.9099 29.0596H17.8262C17.2221 29.0596 16.7319 29.4972 16.7319 30.0366C16.7319 30.576 17.2221 31.0137 17.8262 31.0137H37.9099C38.514 31.0137 39.0041 30.576 39.0041 30.0366C39.0041 29.4972 38.514 29.0596 37.9099 29.0596Z" fill="#FFEA8E"/>
<path d="M37.1778 26.3658H18.6013C18.6013 21.9008 22.2502 18.252 26.7152 18.252H29.1161C33.5337 18.252 37.1778 21.8534 37.1778 26.3658Z" fill="#FFD5AB"/>
<path d="M37.7996 16.4297C38.8055 16.4297 39.6217 17.2458 39.6217 18.2518C39.6217 19.2577 38.8055 20.0738 37.7996 20.0738C36.7937 20.0738 35.9775 19.2577 35.9775 18.2518C35.9775 17.2458 36.7937 16.4297 37.7996 16.4297Z" fill="#8D70D6"/>
<path d="M16.49 38.0332C17.1543 38.0332 17.6905 38.5694 17.6905 39.2337C17.6905 39.898 17.1543 40.4342 16.49 40.4342C15.8257 40.4342 15.2896 39.898 15.2896 39.2337C15.2896 38.5694 15.8257 38.0332 16.49 38.0332Z" fill="#8D70D6"/>
<path d="M29.975 20.6572C30.478 20.6572 30.886 21.0653 30.886 21.5683C30.886 22.0712 30.478 22.4793 29.975 22.4793C29.472 22.4793 29.064 22.0712 29.064 21.5683C29.064 21.0653 29.472 20.6572 29.975 20.6572Z" fill="#EAAF7A"/>
<path d="M23.9775 23.0059C24.3239 23.0059 24.5991 23.2858 24.5991 23.6274C24.5991 23.9691 24.3192 24.249 23.9775 24.249C23.6359 24.249 23.356 23.9691 23.356 23.6274C23.356 23.2858 23.6359 23.0059 23.9775 23.0059Z" fill="#EAAF7A"/>
<path d="M39.0001 27.7129C39.0001 28.4816 38.3738 29.0558 37.6573 29.0558H18.1697C17.401 29.0558 16.8269 28.4294 16.8269 27.7129C16.8269 26.9443 17.4532 26.3701 18.1697 26.3701H37.6573C38.3785 26.3701 39.0001 26.9443 39.0001 27.7129Z" fill="#C86D36"/>
<path d="M31.4651 29.0557L28.6798 32.6571L25.8945 29.0557H31.4651Z" fill="#4FC812"/>
<path d="M25.8945 29.0557L23.0618 32.6571L20.2812 29.0557H25.8945Z" fill="#4FC812"/>
<path d="M37.178 32.6572V34.242C37.178 36.2112 35.5932 37.796 33.624 37.796H22.1033C20.1341 37.796 18.5493 36.2112 18.5493 34.242V32.6572H37.1733H37.178Z" fill="#FFD5AB"/>
<path d="M39.7213 37.1699C39.9586 37.1699 40.1531 37.3645 40.1531 37.6017C40.1531 37.839 39.9586 38.0335 39.7213 38.0335C39.4841 38.0335 39.2896 37.839 39.2896 37.6017C39.2896 37.3645 39.4841 37.1699 39.7213 37.1699Z" fill="#FF87F0"/>
<path d="M39.4318 22.1895C39.669 22.1895 39.8636 22.384 39.8636 22.6212C39.8636 22.8585 39.669 23.053 39.4318 23.053C39.1945 23.053 39 22.8585 39 22.6212C39 22.384 39.1945 22.1895 39.4318 22.1895Z" fill="#FF87F0"/>
<path d="M32.8078 23.6797C33.045 23.6797 33.2396 23.8742 33.2396 24.1115C33.2396 24.3487 33.045 24.5433 32.8078 24.5433C32.5705 24.5433 32.376 24.3487 32.376 24.1115C32.376 23.8742 32.5705 23.6797 32.8078 23.6797Z" fill="#EAAF7A"/>
<path d="M32.5185 39.8555C32.7557 39.8555 32.9503 40.05 32.9503 40.2873C32.9503 40.5245 32.7557 40.7191 32.5185 40.7191C32.2812 40.7191 32.0867 40.5245 32.0867 40.2873C32.0867 40.05 32.2812 39.8555 32.5185 39.8555Z" fill="#FF87F0"/>
<path d="M31.318 15.2812C31.5553 15.2812 31.7498 15.4758 31.7498 15.713C31.7498 15.9503 31.5553 16.1448 31.318 16.1448C31.0808 16.1448 30.8862 15.9503 30.8862 15.713C30.8862 15.4758 31.0808 15.2812 31.318 15.2812Z" fill="#FF87F0"/>
<path d="M25.9418 20.3682C26.179 20.3682 26.3736 20.5627 26.3736 20.8C26.3736 21.0372 26.179 21.2317 25.9418 21.2317C25.7046 21.2317 25.51 21.0372 25.51 20.8C25.51 20.5627 25.7046 20.3682 25.9418 20.3682Z" fill="#EAAF7A"/>
<path d="M20.5185 15.8555C20.7557 15.8555 20.9503 16.05 20.9503 16.2873C20.9503 16.5245 20.7557 16.7191 20.5185 16.7191C20.2812 16.7191 20.0867 16.5245 20.0867 16.2873C20.0867 16.05 20.2812 15.8555 20.5185 15.8555Z" fill="#FF87F0"/>
<path d="M16.3429 21.2793C16.5802 21.2793 16.7747 21.4738 16.7747 21.7111C16.7747 21.9483 16.5802 22.1429 16.3429 22.1429C16.1057 22.1429 15.9111 21.9483 15.9111 21.7111C15.9111 21.4738 16.1057 21.2793 16.3429 21.2793Z" fill="#FF87F0"/>
<path d="M15.4318 33.2793C15.669 33.2793 15.8636 33.4738 15.8636 33.7111C15.8636 33.9483 15.669 34.1429 15.4318 34.1429C15.1945 34.1429 15 33.9483 15 33.7111C15 33.4738 15.1945 33.2793 15.4318 33.2793Z" fill="#FF87F0"/>
</svg>
