<svg width="25" height="24" viewBox="0 0 25 24" fill="none" xmlns="http://www.w3.org/2000/svg">
<path d="M21.729 19.4331C22.9136 19.4331 23.8881 18.4586 23.8881 17.274V5.15916C23.8881 3.97456 22.9136 3 21.729 3H3.77098C2.58638 3 1.61182 3.97456 1.61182 5.15916V17.274C1.61182 18.4586 2.58638 19.4331 3.77098 19.4331H21.729Z" fill="#80AF52"/>
<path d="M3.771 5.11713V15.7071V17.316H21.771V5.11713H3.771Z" fill="#6E8C61"/>
<path d="M18.5952 15.1989C18.8893 15.1989 19.1455 15.4551 19.1455 15.7491C19.1455 16.0432 18.8893 16.2994 18.5952 16.2994C18.3012 16.2994 18.0449 16.0432 18.0449 15.7491C18.0449 15.4551 18.3012 15.1989 18.5952 15.1989Z" fill="#536949"/>
<path d="M9.57218 13.59C9.27393 13.59 9.02189 13.3379 9.02189 13.0397V8.25508L8.26156 8.76336C8.00532 8.93139 7.66926 8.84738 7.54324 8.63734C7.37522 8.3853 7.45923 8.04505 7.66926 7.91902L9.27813 6.86045C9.44616 6.73443 9.6604 6.73443 9.82842 6.81844C9.99645 6.90245 10.1267 7.07048 10.1267 7.28472V13.1279C10.1267 13.3799 9.87463 13.5942 9.57638 13.5942L9.57218 13.59Z" fill="white"/>
<path d="M16.9822 13.59C16.6839 13.59 16.4319 13.3379 16.4319 13.0397V8.25508L15.6715 8.76336C15.4153 8.93139 15.0792 8.84738 14.9532 8.63734C14.8272 8.42731 14.8692 8.04505 15.0792 7.91902L16.6881 6.86045C16.8561 6.73443 17.0704 6.73443 17.2384 6.81844C17.4064 6.90245 17.5366 7.07048 17.5366 7.28472V13.1279C17.5366 13.3799 17.2804 13.5942 16.9864 13.5942L16.9822 13.59Z" fill="white"/>
<path d="M13.2981 12.0231C13.004 12.0231 12.7478 11.7711 12.7478 11.4728V9.35565C12.7478 9.0574 13.004 8.80536 13.2981 8.80536C13.5921 8.80536 13.8484 9.0574 13.8484 9.35565V11.4728C13.8064 11.7711 13.5501 12.0231 13.2981 12.0231Z" fill="white"/>
<path d="M14.3569 10.9645H12.2397C11.9457 10.9645 11.6895 10.7125 11.6895 10.4142C11.6895 10.116 11.9457 9.86395 12.2397 9.86395H14.3569C14.6551 9.86395 14.9072 10.116 14.9072 10.4142C14.8652 10.7125 14.6089 10.9645 14.3569 10.9645Z" fill="white"/>
<path d="M17.5325 15.7071C17.5325 15.4088 17.2763 15.1568 16.9823 15.1568H3.76685V16.2574H16.9823C17.2805 16.2574 17.5325 16.0011 17.5325 15.7071Z" fill="#536949"/>
<path d="M20.7126 19.4332V21H11.6895V19.4332V18.8829H20.7126V19.4332Z" fill="#FEBE76"/>
</svg>
