<svg width="17" height="20" viewBox="0 0 17 20" fill="none" xmlns="http://www.w3.org/2000/svg">
<path d="M8.22939 0C8.88486 0 9.41727 0.532407 9.41727 1.18788C9.41727 1.84336 8.88486 2.37577 8.22939 2.37577C7.57391 2.37577 7.0415 1.84336 7.0415 1.18788C7.0415 0.532407 7.57391 0 8.22939 0Z" fill="#F5AA1E"/>
<path d="M10.0485 17.6443V18.181C10.0485 18.6768 9.84364 19.1316 9.51176 19.4635C9.17989 19.7953 8.72509 20.0002 8.22933 20.0002C7.2378 20.0002 6.41016 19.1726 6.41016 18.181V17.6443H10.0485Z" fill="#FFCE02"/>
<path d="M14.9694 15.0386C15.6741 15.0386 16.2519 15.6163 16.2519 16.321C16.2519 16.6939 16.1289 16.9848 15.879 17.2306C15.6291 17.4805 15.3423 17.6034 14.9694 17.6034H1.53048C0.825758 17.6034 0.248047 17.0257 0.248047 16.321C0.248047 15.9482 0.411936 15.6614 0.620895 15.4114C0.870827 15.1615 1.15763 15.0386 1.53048 15.0386H14.9694Z" fill="#F5AA1E"/>
<path d="M14.7234 12.9065H1.78027V15.0383H14.7234V12.9065Z" fill="#FFCE02"/>
<path d="M14.7234 11.1438H1.78027V12.9349H14.7234V11.1438Z" fill="#F5AA1E"/>
<path d="M14.6825 8.82888V11.1438H1.78027V8.82888C1.78027 5.27248 4.67702 2.37573 8.23342 2.37573C10.0116 2.37573 11.6259 3.08046 12.7814 4.27685C13.9818 5.39539 14.6825 7.00561 14.6825 8.82478V8.82888Z" fill="#FFCE02"/>
</svg>
