<?xml version="1.0" encoding="UTF-8"?>
<svg width="24px" height="24px" viewBox="0 0 24 24" version="1.1" xmlns="http://www.w3.org/2000/svg" xmlns:xlink="http://www.w3.org/1999/xlink">
    <title>Pin Off Icon</title>
    <g id="Pin-Off-Icon" stroke="none" stroke-width="1" fill="none" fill-rule="evenodd">
        <path d="M20.37,3.29 L17.31,6.35 L17.31,4 L18.31,4 C18.86,4 19.31,3.55 19.31,3 C19.31,2.45 18.86,2 18.31,2 L8.31,2 C7.76,2 7.31,2.45 7.31,3 C7.31,3.55 7.76,4 8.31,4 L9.31,4 L9.31,9.35 L4.97,13.69 L3.63,12.35 L2.22,13.76 L4.46,16 L9.81,16 L9.81,22 L10.81,22 L10.81,16 L16.16,16 L18.4,18.24 L19.81,16.83 L6.83,3.85 L5.42,5.26 L8.48,8.32 L8.48,11.89 C8.48,12.43 8.03,12.89 7.48,12.89 C6.93,12.89 6.48,13.34 6.48,13.89 L6.48,15.89 L8.48,15.89 L20.37,3.29 Z M16.48,13.89 C15.93,13.89 15.48,13.34 15.48,12.89 L15.48,10.35 L16.48,9.35 L16.48,13.89 Z" id="Path" fill="#444444" fill-rule="nonzero"></path>
    </g>
</svg> 