<svg width="32" height="32" viewBox="0 0 32 32" fill="none" xmlns="http://www.w3.org/2000/svg">
<path d="M25.5785 10.4066L21.6252 6.45058C18.9225 3.74391 17.5718 2.39324 16.1198 2.71324C14.6678 3.03324 14.0118 4.82924 12.6958 8.41991L11.8052 10.8506C11.4545 11.8079 11.2785 12.2866 10.9625 12.6572C10.8212 12.8239 10.66 12.9726 10.4825 13.0999C10.0878 13.3839 9.59717 13.5186 8.61584 13.7892C6.4025 14.3999 5.2945 14.7052 4.87717 15.4292C4.69676 15.7426 4.60289 16.0983 4.60517 16.4599C4.6105 17.2959 5.4225 18.1079 7.04517 19.7332L8.93317 21.6212L2.96517 27.5946C2.78331 27.7874 2.68375 28.0434 2.68761 28.3084C2.69147 28.5734 2.79846 28.8265 2.98586 29.0139C3.17326 29.2013 3.42632 29.3083 3.69132 29.3121C3.95631 29.316 4.21239 29.2164 4.40517 29.0346L10.3718 23.0612L12.3265 25.0186C13.9612 26.6532 14.7785 27.4719 15.6198 27.4719C15.9732 27.4719 16.3212 27.3812 16.6292 27.2052C17.3598 26.7879 17.6665 25.6732 18.2812 23.4426C18.5505 22.4626 18.6852 21.9732 18.9678 21.5772C19.0923 21.4048 19.2354 21.2484 19.3972 21.1079C19.7638 20.7906 20.2398 20.6119 21.1905 20.2546L23.6492 19.3306C27.2012 17.9972 28.9772 17.3292 29.2892 15.8826C29.6025 14.4346 28.2625 13.0919 25.5785 10.4066Z" fill="#FFCE02"/>
</svg>
