<svg width="21" height="20" viewBox="0 0 21 20" fill="none" xmlns="http://www.w3.org/2000/svg">
<path d="M14.7536 2.13712V3.01101H7.35699C7.09252 3.01101 6.83238 2.96775 6.5679 2.92448C5.29757 2.57407 4.37842 1.44061 4.37842 0.0432617V0H12.6508C13.7867 0 14.7492 0.960407 14.7492 2.14145L14.7536 2.13712Z" fill="#5A5F64"/>
<path d="M7.36086 3.01108C7.09639 3.01108 6.83625 2.96782 6.57178 2.92456V7.11661C6.57178 8.25006 7.05303 9.25805 7.7554 9.99783C8.14994 10.3915 8.67455 10.7419 9.24252 10.9582C9.68042 11.1313 10.1617 11.2221 10.6863 11.2221C11.2542 11.2221 11.7789 11.0923 12.2601 10.915C13.7472 10.305 14.7964 8.82111 14.7964 7.11661V3.01108H7.35652H7.36086Z" fill="#FCDACC"/>
<path d="M12.8728 11.9189L10.7743 13.9695L8.5415 11.7848C8.80598 11.4344 9.06611 11.1315 9.19618 10.9541C9.63408 11.1272 10.1153 11.218 10.6399 11.218C11.2079 11.218 11.7325 11.0883 12.2138 10.9109C12.3872 11.2613 12.6083 11.5641 12.8685 11.9146L12.8728 11.9189Z" fill="#EFC9BA"/>
<path d="M10.7735 13.9734L8.92969 15.6406L7.53125 12.8438C7.88244 12.4933 8.27616 12.1434 8.54063 11.793L10.7735 13.9777V13.9734Z" fill="#009483"/>
<path d="M13.8359 12.9727L12.7852 15.6406L10.7739 13.9735L12.8724 11.8796C13.1802 12.3166 13.4414 12.6698 13.8359 12.9727Z" fill="#009483"/>
<path d="M10.7732 13.9739L12.6548 20.0002H9.06494L10.7732 13.9739Z" fill="#009483"/>
<path d="M10.7739 13.9733L9.06571 19.9996H0.75C0.75 18.3384 1.75586 15.7643 3.24298 15.1111L6.17386 13.8435C6.61175 13.6705 7.09301 13.2768 7.53091 12.8398L8.93131 15.6345L10.7696 13.9733H10.7739Z" fill="#00687F"/>
<path d="M17.0302 19.9995H12.6556L10.7739 13.9732L12.7857 15.6344L13.8349 12.9695C14.2728 13.3199 14.754 13.6227 15.2786 13.8434L18.2095 15.1109C18.9552 15.4181 19.6099 16.2444 20.0478 17.1615C20.4857 18.0787 20.7502 19.1689 20.7502 19.9995H17.0302Z" fill="#00687F"/>
<path d="M16.7266 19.9991V18.3389C16.7266 18.2092 16.8563 18.0752 16.9903 18.0752C17.1243 18.0752 17.254 18.2049 17.254 18.3389V19.9991H16.7309H16.7266Z" fill="#002855"/>
<path d="M4.42379 18.3389V19.9991H3.85742V18.3389C3.85742 18.2092 3.98712 18.0752 4.12115 18.0752C4.25518 18.0752 4.42812 18.2049 4.42812 18.3389H4.42379Z" fill="#002855"/>
<path d="M14.7544 4.67261V5.23933L13.2239 5.98343C13.1806 5.98343 13.1372 6.0267 13.0939 6.0267H13.0505C12.9638 6.0267 12.8771 5.98343 12.8337 5.89691C12.747 5.76713 12.8337 5.58975 12.9638 5.54649L13.0505 5.50323L14.581 4.71587C14.6677 4.67261 14.7111 4.67261 14.7544 4.67261Z" fill="#5A5F64"/>
<path d="M8.45339 5.89227C8.41004 5.97879 8.32333 6.02206 8.23661 6.02206H8.19326C8.1499 6.02206 8.10654 6.02206 8.06319 5.97879L6.53271 5.2347V4.66797C6.57607 4.66797 6.61943 4.66797 6.66278 4.71123L8.19326 5.49859L8.27997 5.54185C8.45339 5.58511 8.49675 5.7149 8.45339 5.89227Z" fill="#5A5F64"/>
<path d="M10.7304 5.762C10.7304 6.5061 10.1624 7.07282 9.41672 7.07282C8.67099 7.07282 8.10303 6.5061 8.10303 5.762C8.10303 5.0179 8.67099 4.45117 9.41672 4.45117C10.1624 4.45117 10.7304 5.0179 10.7304 5.762Z" fill="#E4F4FF"/>
<path d="M13.2661 5.762C13.2661 6.5061 12.6981 7.07282 11.9524 7.07282C11.2066 7.07282 10.6387 6.5061 10.6387 5.762C10.6387 5.0179 11.2066 4.45117 11.9524 4.45117C12.6981 4.45117 13.2661 5.0179 13.2661 5.762Z" fill="#E4F4FF"/>
</svg>
