<svg width="24" height="18" viewBox="0 0 24 18" fill="none" xmlns="http://www.w3.org/2000/svg">
<path d="M23.2611 14.4133C23.3235 14.5368 23.346 14.6766 23.3255 14.8134C23.3049 14.9501 23.2423 15.0772 23.1464 15.1768C23.0504 15.2764 22.9258 15.3437 22.7899 15.3694C22.654 15.395 22.5134 15.3778 22.3878 15.32L19.0544 13.7827C16.2673 12.4973 13.2126 11.8988 10.1464 12.0373C10.1104 13.0178 10.0566 13.9975 9.98508 14.976L9.89308 16.2267C9.88052 16.4004 9.82306 16.5678 9.72631 16.7126C9.62957 16.8575 9.49687 16.9746 9.34121 17.0527C9.18555 17.1308 9.01227 17.1672 8.83835 17.1582C8.66443 17.1491 8.49584 17.0951 8.34908 17.0013C5.56496 15.2203 3.14395 12.9274 1.21442 10.244L0.601083 9.39068C0.519486 9.27726 0.475586 9.14107 0.475586 9.00135C0.475586 8.86163 0.519486 8.72543 0.601083 8.61201L1.21442 7.75868C3.14382 5.07487 5.56484 2.78143 8.34908 1.00001C8.49574 0.906286 8.66423 0.852239 8.83804 0.843164C9.01186 0.83409 9.18506 0.870297 9.34068 0.948243C9.4963 1.02619 9.62903 1.14321 9.72586 1.28784C9.82269 1.43247 9.88031 1.59976 9.89308 1.77335L9.98508 3.02668C10.0464 3.86668 10.0944 4.70668 10.1291 5.54668H10.9878C13.3292 5.54685 15.6247 6.196 17.6195 7.42205C19.6143 8.64809 21.2302 10.403 22.2877 12.492L23.2611 14.4133Z" fill="#00687F"/>
</svg>
