<svg width="32" height="32" viewBox="0 0 32 32" fill="none" xmlns="http://www.w3.org/2000/svg">
<path d="M15.9377 3C12.8483 3 10.447 3 8.57766 3.2C6.68699 3.404 5.18966 3.82667 3.99499 4.78133C2.76833 5.76267 2.19499 7.03867 1.92433 8.648C1.66699 10.184 1.66699 12.1387 1.66699 14.576V14.82C1.66699 17.196 1.66699 18.84 1.93366 20.0653C2.07766 20.7253 2.30433 21.2987 2.66033 21.8293C3.01233 22.352 3.46033 22.792 3.99499 23.2187C4.83633 23.892 5.82833 24.2987 7.00033 24.552V28C7.00048 28.1752 7.04666 28.3473 7.13425 28.499C7.22183 28.6508 7.34775 28.7768 7.49938 28.8646C7.65101 28.9524 7.82304 28.9987 7.99824 28.9991C8.17344 28.9995 8.34566 28.9538 8.49766 28.8667C9.27899 28.42 9.97099 27.9333 10.6043 27.4747L11.0097 27.18C11.4607 26.8424 11.9213 26.5178 12.391 26.2067C13.5163 25.476 14.591 25 16.0003 25H16.063C19.1523 25 21.5537 25 23.423 24.8C25.3137 24.596 26.811 24.1733 28.0057 23.2187C28.539 22.792 28.9883 22.352 29.339 21.8293C29.6963 21.2987 29.923 20.7253 30.067 20.0653C30.3337 18.84 30.3337 17.196 30.3337 14.82V14.576C30.3337 12.1387 30.3337 10.184 30.0763 8.64933C29.8057 7.03867 29.2323 5.76267 28.0057 4.78133C26.811 3.82533 25.3137 3.404 23.423 3.20133C21.5537 3 19.1523 3 16.063 3H15.9377ZM12.627 10.6267C12.8145 10.4394 13.0687 10.3342 13.3337 10.3342C13.5987 10.3342 13.8528 10.4394 14.0403 10.6267L16.0003 12.5867L17.9603 10.6267C18.0519 10.5284 18.1623 10.4496 18.2849 10.395C18.4076 10.3403 18.54 10.3109 18.6743 10.3085C18.8086 10.3062 18.9419 10.3309 19.0665 10.3812C19.191 10.4315 19.3041 10.5063 19.399 10.6013C19.494 10.6962 19.5689 10.8094 19.6192 10.9339C19.6694 11.0584 19.6941 11.1918 19.6918 11.326C19.6894 11.4603 19.66 11.5927 19.6054 11.7154C19.5507 11.838 19.4719 11.9485 19.3737 12.04L17.4137 14L19.3737 15.96C19.4719 16.0515 19.5507 16.162 19.6054 16.2846C19.66 16.4073 19.6894 16.5397 19.6918 16.674C19.6941 16.8082 19.6694 16.9416 19.6192 17.0661C19.5689 17.1906 19.494 17.3038 19.399 17.3987C19.3041 17.4937 19.191 17.5685 19.0665 17.6188C18.9419 17.6691 18.8086 17.6938 18.6743 17.6915C18.54 17.6891 18.4076 17.6597 18.2849 17.605C18.1623 17.5504 18.0519 17.4716 17.9603 17.3733L16.0003 15.4133L14.0403 17.3733C13.9488 17.4716 13.8384 17.5504 13.7157 17.605C13.593 17.6597 13.4606 17.6891 13.3264 17.6915C13.1921 17.6938 13.0587 17.6691 12.9342 17.6188C12.8097 17.5685 12.6966 17.4937 12.6016 17.3987C12.5066 17.3038 12.4318 17.1906 12.3815 17.0661C12.3312 16.9416 12.3065 16.8082 12.3089 16.674C12.3112 16.5397 12.3406 16.4073 12.3953 16.2846C12.4499 16.162 12.5287 16.0515 12.627 15.96L14.587 14L12.627 12.04C12.4397 11.8525 12.3345 11.5983 12.3345 11.3333C12.3345 11.0683 12.4397 10.8142 12.627 10.6267Z" fill="#F05023"/>
</svg>
