<svg width="24" height="24" viewBox="0 0 24 24" fill="none" xmlns="http://www.w3.org/2000/svg">
<path d="M11.9999 20C12.8499 20 13.6666 19.8708 14.4499 19.6125C15.2332 19.3542 15.9666 18.9833 16.6499 18.5C15.9666 18.0167 15.2332 17.6458 14.4499 17.3875C13.6666 17.1292 12.8499 17 11.9999 17C11.1499 17 10.3332 17.1292 9.54991 17.3875C8.76658 17.6458 8.03325 18.0167 7.34991 18.5C8.03325 18.9833 8.76658 19.3542 9.54991 19.6125C10.3332 19.8708 11.1499 20 11.9999 20ZM14.4749 7.025C14.9916 7.54167 15.3166 8.15833 15.4499 8.875C15.5832 9.59167 15.4999 10.2833 15.1999 10.95C15.0666 11.2333 14.8707 11.4292 14.6124 11.5375C14.3541 11.6458 14.0916 11.6333 13.8249 11.5C13.5749 11.3833 13.3999 11.1958 13.2999 10.9375C13.1999 10.6792 13.2166 10.425 13.3499 10.175C13.4832 9.89167 13.5249 9.59167 13.4749 9.275C13.4249 8.95833 13.2832 8.68333 13.0499 8.45C12.8332 8.23333 12.5791 8.09583 12.2874 8.0375C11.9957 7.97917 11.7082 8.00833 11.4249 8.125C11.1916 8.20833 10.9582 8.19583 10.7249 8.0875C10.4916 7.97917 10.3332 7.79167 10.2499 7.525C10.1499 7.24167 10.1707 6.97083 10.3124 6.7125C10.4541 6.45417 10.6666 6.26667 10.9499 6.15C11.5332 5.91667 12.1457 5.88333 12.7874 6.05C13.4291 6.21667 13.9916 6.54167 14.4749 7.025ZM11.9999 22C10.6166 22 9.31658 21.7375 8.09991 21.2125C6.88325 20.6875 5.82491 19.975 4.92491 19.075C4.02491 18.175 3.31241 17.1167 2.78741 15.9C2.26241 14.6833 1.99991 13.3833 1.99991 12C1.99991 11.0167 2.13741 10.0583 2.41241 9.125C2.68741 8.19167 3.09158 7.30833 3.62491 6.475L1.37491 4.2C1.17491 4 1.07908 3.7625 1.08741 3.4875C1.09575 3.2125 1.19991 2.975 1.39991 2.775C1.59991 2.575 1.83741 2.475 2.11241 2.475C2.38741 2.475 2.62491 2.575 2.82491 2.775L21.1999 21.175C21.3999 21.375 21.4957 21.6125 21.4874 21.8875C21.4791 22.1625 21.3749 22.4 21.1749 22.6C20.9749 22.8 20.7416 22.9 20.4749 22.9C20.2082 22.9 19.9749 22.8 19.7749 22.6L5.09991 7.95C4.73325 8.56667 4.45825 9.21667 4.27491 9.9C4.09158 10.5833 3.99991 11.2833 3.99991 12C3.99991 12.95 4.15825 13.8583 4.47491 14.725C4.79158 15.5917 5.24991 16.3833 5.84991 17.1C6.74991 16.4167 7.72075 15.8958 8.76241 15.5375C9.80408 15.1792 10.8832 15 11.9999 15C12.6332 15 13.2666 15.0667 13.8999 15.2C14.5332 15.3333 15.1499 15.5167 15.7499 15.75L19.0749 19.075C18.1249 20.025 17.0416 20.75 15.8249 21.25C14.6082 21.75 13.3332 22 11.9999 22ZM7.84991 2.9C8.49991 2.6 9.17491 2.375 9.87491 2.225C10.5749 2.075 11.2832 2 11.9999 2C13.3332 2 14.6082 2.25 15.8249 2.75C17.0416 3.25 18.1249 3.975 19.0749 4.925C20.0249 5.875 20.7499 6.95833 21.2499 8.175C21.7499 9.39167 21.9999 10.6667 21.9999 12C21.9999 12.7167 21.9249 13.425 21.7749 14.125C21.6249 14.825 21.3999 15.5 21.0999 16.15C20.9832 16.4 20.7916 16.5625 20.5249 16.6375C20.2582 16.7125 20.0082 16.6833 19.7749 16.55C19.5416 16.4167 19.3832 16.2167 19.2999 15.95C19.2166 15.6833 19.2332 15.4167 19.3499 15.15C19.5666 14.65 19.7291 14.1333 19.8374 13.6C19.9457 13.0667 19.9999 12.5333 19.9999 12C19.9999 9.76667 19.2249 7.875 17.6749 6.325C16.1249 4.775 14.2332 4 11.9999 4C11.4666 4 10.9332 4.05417 10.3999 4.1625C9.86658 4.27083 9.34991 4.43333 8.84991 4.65C8.58325 4.76667 8.31658 4.78333 8.04991 4.7C7.78325 4.61667 7.58325 4.45833 7.44991 4.225C7.31658 3.99167 7.28741 3.74167 7.36241 3.475C7.43741 3.20833 7.59991 3.01667 7.84991 2.9Z" fill="white"/>
</svg>
