<svg width="194" height="32" viewBox="0 0 194 32" fill="none" xmlns="http://www.w3.org/2000/svg">
<g clip-path="url(#clip0_523_2059)">
<path d="M32.8763 18.3971L33.3685 18.549L34.7133 21.1763C36.0873 23.8201 38.5152 27.3403 41.8652 26.6213L42.2074 26.8115C41.6365 29.2321 39.5453 31.3417 37.0003 31.5759C31.903 32.0461 30.6186 29.384 28.3389 25.5857C27.8504 24.7715 25.7847 20.6055 25.2487 20.4371C24.901 20.3292 24.4912 20.353 24.2954 20.7006C22.1255 23.9317 19.9995 31.0288 15.5663 31.5484C12.295 31.9326 9.65484 30.8184 8.14175 27.8508C5.03506 21.7581 3.08103 14.2823 0.170106 8.01588C-1.52229 -0.0874911 9.93294 -3.65524 13.0634 5.18547C13.6013 6.70222 16.0603 16.7066 16.5891 17.0286C16.9696 17.2609 17.3941 17.1365 17.7015 16.8511C18.2303 16.3608 19.3719 13.3931 19.9226 12.4875C21.3534 10.1309 22.9122 8.91239 25.8341 9.24904C29.4879 9.66986 31.3559 15.51 32.8782 18.3971H32.8763Z" fill="url(#paint0_linear_523_2059)"/>
<path d="M42.2075 26.8132C41.5434 27.4188 40.6048 27.1242 39.8253 26.9083C36.2649 25.9167 34.4536 21.3902 32.8765 18.3969C33.3668 18.5012 33.2369 18.1518 33.3284 17.8517C34.6439 13.5448 35.6794 8.52798 37.2657 4.39853C40.2059 -3.2511 51.3995 -0.0492685 49.848 8.01568C48.1867 12.2659 46.5876 16.549 44.855 20.7699C44.4232 21.822 42.7436 26.3247 42.2075 26.8132Z" fill="#FFCE02"/>
</g>
<path d="M52.8468 10.0226H59.1261V31.678H52.8468V10.0226ZM55.9864 7.00377C54.8326 7.00377 53.8934 6.66834 53.1688 5.99749C52.4443 5.32663 52.082 4.49476 52.082 3.50189C52.082 2.50902 52.4443 1.67715 53.1688 1.00629C53.8934 0.33543 54.8326 0 55.9864 0C57.1403 0 58.0795 0.322013 58.804 0.96604C59.5286 1.61006 59.8908 2.4151 59.8908 3.38113C59.8908 4.42767 59.5286 5.29979 58.804 5.99749C58.0795 6.66834 57.1403 7.00377 55.9864 7.00377Z" fill="#BED232"/>
<path d="M72.2393 32C70.4414 32 68.6837 31.7853 66.9663 31.356C65.2489 30.8998 63.8804 30.3363 62.8606 29.6654L64.9537 25.1572C65.9198 25.7744 67.0871 26.2843 68.4556 26.6868C69.8242 27.0625 71.1659 27.2503 72.4808 27.2503C75.1374 27.2503 76.4657 26.5929 76.4657 25.278C76.4657 24.6608 76.1034 24.218 75.3789 23.9497C74.6544 23.6813 73.5407 23.4533 72.038 23.2654C70.2669 22.9971 68.8045 22.6885 67.6506 22.3396C66.4967 21.9908 65.4904 21.3736 64.6317 20.4881C63.7999 19.6025 63.3839 18.3413 63.3839 16.7044C63.3839 15.3359 63.773 14.1283 64.5512 13.0818C65.3562 12.0084 66.5101 11.1765 68.0128 10.5862C69.5424 9.99581 71.3403 9.70063 73.4066 9.70063C74.9361 9.70063 76.4523 9.87505 77.955 10.2239C79.4845 10.5459 80.7458 11.0021 81.7386 11.5925L79.6456 16.0604C77.7403 14.987 75.6606 14.4503 73.4066 14.4503C72.0648 14.4503 71.0586 14.6382 70.3877 15.0138C69.7168 15.3895 69.3814 15.8725 69.3814 16.4629C69.3814 17.1338 69.7437 17.6034 70.4682 17.8717C71.1927 18.14 72.3466 18.395 73.9298 18.6365C75.7009 18.9317 77.15 19.2537 78.277 19.6025C79.404 19.9245 80.3835 20.5283 81.2154 21.4138C82.0472 22.2994 82.4632 23.5338 82.4632 25.117C82.4632 26.4587 82.0606 27.6528 81.2556 28.6994C80.4506 29.7459 79.2699 30.5644 77.7135 31.1547C76.1839 31.7182 74.3592 32 72.2393 32Z" fill="#BED232"/>
<path d="M120.591 10.0226V21.9774C120.591 25.1707 119.719 27.6394 117.975 29.3836C116.231 31.1279 113.749 32 110.529 32C108.972 32 107.59 31.7585 106.383 31.2755C105.202 30.7925 104.209 30.0143 103.404 28.9409C102.599 30.0143 101.606 30.7925 100.425 31.2755C99.2447 31.7585 97.8493 32 96.2393 32C92.9923 32 90.5101 31.1279 88.7927 29.3836C87.0753 27.6394 86.2166 25.1707 86.2166 21.9774V10.0226H92.4959V21.4943C92.4959 23.2922 92.8045 24.6205 93.4217 25.4792C94.0388 26.3111 95.0049 26.727 96.3198 26.727C97.6615 26.727 98.6544 26.2977 99.2984 25.439C99.9424 24.5803 100.264 23.2654 100.264 21.4943V10.0226H106.544V21.4943C106.544 23.2654 106.866 24.5803 107.51 25.439C108.154 26.2977 109.147 26.727 110.488 26.727C111.803 26.727 112.769 26.3111 113.386 25.4792C114.004 24.6205 114.312 23.2922 114.312 21.4943V10.0226H120.591Z" fill="#009483"/>
<path d="M136.54 32C134.259 32 132.206 31.5304 130.381 30.5912C128.583 29.6252 127.174 28.2969 126.155 26.6063C125.135 24.9157 124.625 22.9971 124.625 20.8503C124.625 18.7036 125.135 16.7849 126.155 15.0943C127.174 13.4038 128.583 12.0889 130.381 11.1497C132.206 10.1836 134.259 9.70063 136.54 9.70063C138.82 9.70063 140.86 10.1836 142.658 11.1497C144.456 12.0889 145.865 13.4038 146.884 15.0943C147.904 16.7849 148.414 18.7036 148.414 20.8503C148.414 22.9971 147.904 24.9157 146.884 26.6063C145.865 28.2969 144.456 29.6252 142.658 30.5912C140.86 31.5304 138.82 32 136.54 32ZM136.54 26.8478C138.15 26.8478 139.465 26.3111 140.484 25.2377C141.531 24.1375 142.054 22.6751 142.054 20.8503C142.054 19.0256 141.531 17.5765 140.484 16.5031C139.465 15.4029 138.15 14.8528 136.54 14.8528C134.93 14.8528 133.601 15.4029 132.555 16.5031C131.508 17.5765 130.985 19.0256 130.985 20.8503C130.985 22.6751 131.508 24.1375 132.555 25.2377C133.601 26.3111 134.93 26.8478 136.54 26.8478Z" fill="#009483"/>
<path d="M158.608 12.8805C159.36 11.834 160.366 11.0423 161.627 10.5057C162.915 9.96898 164.391 9.70063 166.055 9.70063V15.4969C165.357 15.4432 164.888 15.4164 164.646 15.4164C162.848 15.4164 161.439 15.9262 160.42 16.9459C159.4 17.9388 158.89 19.4415 158.89 21.4541V31.678H152.611V10.0226H158.608V12.8805Z" fill="#009483"/>
<path d="M179.087 23.1849L176.068 26.1635V31.678H169.789V1.81132H176.068V18.717L185.245 10.0226H192.732L183.716 19.2L193.537 31.678H185.93L179.087 23.1849Z" fill="#009483"/>
<defs>
<linearGradient id="paint0_linear_523_2059" x1="21.1039" y1="0.0263672" x2="21.1039" y2="31.6297" gradientUnits="userSpaceOnUse">
<stop stop-color="#F05023"/>
<stop offset="1" stop-color="#F5AA1E"/>
</linearGradient>
<clipPath id="clip0_523_2059">
<rect width="49.9943" height="31.6048" fill="white" transform="translate(0 0.0258789)"/>
</clipPath>
</defs>
</svg>
