<svg width="25" height="24" viewBox="0 0 25 24" fill="none" xmlns="http://www.w3.org/2000/svg">
<path d="M11.6807 3L0.996582 9.64695L4.98193 12.1154V16.9628L11.6807 21L18.3795 16.9628V12.1154L22.3695 9.64695L11.6807 3Z" fill="#3C3B3D"/>
<path d="M18.3794 12.1154V16.9628L11.6807 20.9999V16.2467L18.3794 12.1154Z" fill="#252426"/>
<path d="M11.6807 16.2467V20.9999L4.98193 16.9628V12.1154L11.6807 16.2467Z" fill="#2D2C2E"/>
<path d="M22.3696 18.1971C22.0351 18.1971 21.7525 17.9097 21.7525 17.58V10.217H11.6855C11.351 10.217 11.0684 9.93431 11.0684 9.59984C11.0684 9.26537 11.351 8.98273 11.6855 8.98273H22.3696C22.7041 8.98273 22.9867 9.26537 22.9867 9.59984V17.58C22.9867 17.9615 22.6993 18.1971 22.3696 18.1971Z" fill="#747371"/>
<path d="M22.3697 17.0099C23.034 17.0099 23.5569 17.5328 23.5569 18.197C23.5569 18.8612 23.034 19.3841 22.3697 19.3841C21.7055 19.3841 21.1826 18.8612 21.1826 18.197C21.1826 17.5328 21.7055 17.0099 22.3697 17.0099Z" fill="#FFD24D"/>
</svg>
