<svg width="56" height="56" viewBox="0 0 56 56" fill="none" xmlns="http://www.w3.org/2000/svg">
<rect width="56" height="56" rx="15" fill="#F9FBEB"/>
<path d="M38.5339 34.5742C39.3547 34.5742 40.0238 35.2385 40.0238 36.0641C40.0238 36.8898 39.3595 37.5541 38.5339 37.5541C37.7082 37.5541 37.0439 36.8898 37.0439 36.0641C37.0439 35.2385 37.7082 34.5742 38.5339 34.5742Z" fill="#FF88E5"/>
<path d="M17.2718 37.5488C17.9455 37.5488 18.4722 38.0755 18.4722 38.7493C18.4722 39.4231 17.9455 39.9498 17.2718 39.9498C16.598 39.9498 16.0713 39.4231 16.0713 38.7493C16.0713 38.0755 16.598 37.5488 17.2718 37.5488Z" fill="#FF88E5"/>
<path d="M26.5336 15.9502C27.0128 15.9502 27.4446 16.3345 27.4446 16.8612C27.4446 17.3879 27.0603 17.7723 26.5336 17.7723C26.0544 17.7723 25.6226 17.3879 25.6226 16.8612C25.6226 16.3345 26.0544 15.9502 26.5336 15.9502Z" fill="#FF88E5"/>
<path d="M32.2465 30.3509H38.7281C36.2323 33.4731 31.8147 36.0164 27.4493 40.4292C23.3687 36.3486 19.2406 33.8053 16.6973 30.9725H22.0733L23.2738 29.1505L24.4743 31.5514L26.8752 26.1279L28.6973 35.727L29.8977 29.7246L31.0982 32.7471L32.2512 30.3462L32.2465 30.3509Z" fill="#CD2738"/>
<path d="M34.1637 17.9189C37.86 17.9189 40.8825 20.9415 40.8825 24.6378C40.8825 26.9439 40.0664 28.7659 38.771 30.3982H32.242L31.0415 32.7991L29.841 29.7766L28.6406 35.7742L26.8185 26.1752L24.4175 31.5987L23.2171 29.1977L22.0166 31.0198H16.688C15.0557 29.1977 14.0498 27.2286 14.0498 24.6378C14.0498 20.9415 17.0723 17.9189 20.7687 17.9189C24.1281 17.9189 25.8078 19.5987 27.4875 22.9581C29.1198 19.5987 30.7995 17.9189 34.1589 17.9189H34.1637Z" fill="#D94556"/>
<path d="M39.4447 15.9502C39.7816 15.9502 40.0663 16.2396 40.0663 16.5765C40.0663 16.9134 39.7768 17.1981 39.4447 17.1981C39.1126 17.1981 38.8184 16.9087 38.8184 16.5765C38.8658 16.2396 39.1078 15.9502 39.4447 15.9502Z" fill="#8D70D6"/>
<path d="M39.4447 39.376C39.7816 39.376 40.0663 39.6654 40.0663 40.0023C40.0663 40.3392 39.7768 40.6239 39.4447 40.6239C39.1126 40.6239 38.8184 40.3345 38.8184 40.0023C38.8658 39.618 39.1078 39.376 39.4447 39.376Z" fill="#8D70D6"/>
<path d="M32.8682 39.376C33.2051 39.376 33.4945 39.6654 33.4945 40.0023C33.4945 40.3392 33.2051 40.6239 32.8682 40.6239C32.5313 40.6239 32.2466 40.3345 32.2466 40.0023C32.2466 39.618 32.536 39.376 32.8682 39.376Z" fill="#8D70D6"/>
<path d="M31.0463 23.1533C31.3831 23.1533 31.6726 23.4428 31.6726 23.7749C31.6726 24.1071 31.3831 24.4012 31.0463 24.4012C30.7094 24.4012 30.4199 24.1118 30.4199 23.7749C30.4674 23.438 30.7094 23.1533 31.0463 23.1533Z" fill="#CD2738"/>
<path d="M29.8457 15.376C30.1826 15.376 30.472 15.6654 30.472 16.0023C30.472 16.3392 30.1826 16.6286 29.8457 16.6286C29.5088 16.6286 29.2241 16.3392 29.2241 16.0023C29.2241 15.6654 29.5136 15.376 29.8457 15.376Z" fill="#8D70D6"/>
<path d="M22.0689 39.376C22.4057 39.376 22.6952 39.6654 22.6952 40.0023C22.6952 40.3392 22.4057 40.6239 22.0689 40.6239C21.732 40.6239 21.4473 40.3345 21.4473 40.0023C21.4473 39.618 21.7367 39.376 22.0689 39.376Z" fill="#8D70D6"/>
<path d="M15.4448 16.5762C15.7817 16.5762 16.0712 16.8656 16.0712 17.1978C16.0712 17.5299 15.7817 17.8241 15.4448 17.8241C15.1079 17.8241 14.8232 17.5347 14.8232 17.1978C14.8707 16.8134 15.1127 16.5762 15.4448 16.5762Z" fill="#8D70D6"/>
<path d="M15.4448 33.374C15.7817 33.374 16.0712 33.6635 16.0712 33.9956C16.0712 34.3278 15.7817 34.6219 15.4448 34.6219C15.1079 34.6219 14.8232 34.3325 14.8232 33.9956C14.8232 33.6587 15.1127 33.374 15.4448 33.374Z" fill="#8D70D6"/>
<path d="M28.6454 36.3537C28.356 36.3537 28.1187 36.1639 28.0713 35.8744L26.6336 28.1449L25.0013 31.7937C24.9064 31.9883 24.7118 32.1306 24.4746 32.1306C24.2374 32.1306 24.0428 31.9883 23.9479 31.7937L23.2267 30.3038L22.6051 31.2623C22.5102 31.4047 22.3156 31.5518 22.1258 31.5518H14.9277C14.5908 31.5518 14.3062 31.2623 14.3062 30.9254C14.3062 30.5885 14.5956 30.2991 14.9277 30.2991H21.7937L22.7996 28.7617C22.8945 28.5719 23.1365 28.4723 23.3263 28.4723C23.5161 28.4723 23.7107 28.6146 23.8056 28.8092L24.4319 30.152L26.3062 25.929C26.4011 25.687 26.643 25.5446 26.9277 25.5921C27.1697 25.6395 27.407 25.8341 27.4544 26.0713L28.7024 32.6478L29.2765 29.6728C29.3239 29.4308 29.5659 29.241 29.8032 29.1935C30.0926 29.1461 30.3299 29.3359 30.4248 29.5779L31.146 31.3525L31.7723 30.152C31.8672 29.9622 32.0618 29.8151 32.299 29.8151H41.3239C41.6608 29.8151 41.9503 30.1045 41.9503 30.4414C41.9503 30.7783 41.6608 31.0678 41.3239 31.0678H32.6834L31.5778 33.0369C31.4829 33.2267 31.2409 33.3738 31.0037 33.3738C30.7664 33.3738 30.5719 33.2315 30.477 32.9895L30.0452 31.8839L29.229 35.8697C29.1816 36.1591 28.9396 36.3489 28.6549 36.3489L28.6454 36.3537Z" fill="#FFD400"/>
<path d="M20.2469 25.5487H16.6455C16.3086 25.5487 16.0239 25.2593 16.0239 24.9224C16.0239 24.5855 16.3134 24.3008 16.6455 24.3008H20.2469C20.5838 24.3008 20.8685 24.5902 20.8685 24.9224C20.8685 25.3067 20.5791 25.5487 20.2469 25.5487Z" fill="#CD2738"/>
<path d="M37.6701 26.7497H35.848C35.5111 26.7497 35.2217 26.4603 35.2217 26.1234C35.2217 25.7865 35.5111 25.4971 35.848 25.4971H37.6701C38.007 25.4971 38.2917 25.7865 38.2917 26.1234C38.2442 26.5077 37.9548 26.7497 37.6701 26.7497Z" fill="#CD2738"/>
<path d="M35.2691 24.3534H32.8682C32.5313 24.3534 32.2466 24.064 32.2466 23.7318C32.2466 23.3997 32.536 23.1055 32.8682 23.1055H35.2691C35.606 23.1055 35.8907 23.3949 35.8907 23.7318C35.8433 24.1161 35.5538 24.3534 35.2691 24.3534Z" fill="#CD2738"/>
</svg>
