<svg width="56" height="56" viewBox="0 0 56 56" fill="none" xmlns="http://www.w3.org/2000/svg">
<rect width="56" height="56" rx="15" fill="#F9FBEB"/>
<path d="M38.1987 35.479C39.9314 35.479 41.3319 36.8851 41.3319 38.6123C41.3319 40.3394 39.9258 41.751 38.1987 41.751C36.4715 41.751 35.0654 40.345 35.0654 38.6123C35.0654 36.8796 36.4715 35.479 38.1987 35.479Z" fill="#F88F19"/>
<path d="M17.7861 33.1514C18.8921 33.1514 19.7861 34.0481 19.7861 35.1496C19.7861 36.2511 18.8886 37.1514 17.7861 37.1514C16.6837 37.1514 15.7861 36.2546 15.7861 35.1496C15.7861 34.0446 16.6837 33.1514 17.7861 33.1514Z" fill="#F88F19"/>
<path d="M16.8088 15.1516C17.9824 15.1516 18.9346 16.1038 18.9346 17.2774C18.9346 18.4509 17.9824 19.4031 16.8088 19.4031C15.6353 19.4031 14.6831 18.4509 14.6831 17.2774C14.6831 16.1038 15.6353 15.1516 16.8088 15.1516Z" fill="#F88F19"/>
<path d="M29.2974 29.7106L25.8818 33.6853V28.6477L29.2974 29.7106Z" fill="#B2BFD8"/>
<path d="M36.6878 12.8542L25.8819 28.6478V33.6854L22.3003 27.978L36.6878 12.8542Z" fill="#CED8ED"/>
<path d="M36.6877 12.8542L36.0732 31.8917C36.0732 31.8917 25.9372 28.6976 25.8818 28.6976L36.6877 12.8486V12.8542Z" fill="#E9EFFF"/>
<path d="M36.6874 12.8542L22.2999 27.978L15.0757 25.7914L36.6874 12.8542Z" fill="#E9EFFF"/>
<path d="M41.5038 30.9451C41.7805 30.9451 42.0075 31.172 42.0075 31.4488C42.0075 31.7256 41.7805 31.9526 41.5038 31.9526C41.227 31.9526 41 31.7256 41 31.4488C41 31.172 41.227 30.9451 41.5038 30.9451Z" fill="#94D4FF"/>
<path d="M39.4334 19.4084C39.7102 19.4084 39.9372 19.6354 39.9372 19.9122C39.9372 20.189 39.7102 20.416 39.4334 20.416C39.1567 20.416 38.9297 20.189 38.9297 19.9122C38.9297 19.6354 39.1567 19.4084 39.4334 19.4084Z" fill="#94D4FF"/>
<path d="M29.6351 35.479C29.9119 35.479 30.1389 35.706 30.1389 35.9828C30.1389 36.2595 29.9119 36.4865 29.6351 36.4865C29.3583 36.4865 29.1313 36.2595 29.1313 35.9828C29.1313 35.706 29.3583 35.479 29.6351 35.479Z" fill="#94D4FF"/>
<path d="M27.8416 42.144C28.1184 42.144 28.3454 42.371 28.3454 42.6478C28.3454 42.9246 28.1184 43.1516 27.8416 43.1516C27.5649 43.1516 27.3379 42.9246 27.3379 42.6478C27.3379 42.371 27.5649 42.144 27.8416 42.144Z" fill="#94D4FF"/>
<path d="M23.64 36.8794C23.9168 36.8794 24.1437 37.1064 24.1437 37.3831C24.1437 37.6599 23.9168 37.8869 23.64 37.8869C23.3632 37.8869 23.1362 37.6599 23.1362 37.3831C23.1362 37.1064 23.3632 36.8794 23.64 36.8794Z" fill="#94D4FF"/>
<path d="M23.3075 15.8767C23.5843 15.8767 23.8112 16.1037 23.8112 16.3805C23.8112 16.6573 23.5843 16.8842 23.3075 16.8842C23.0307 16.8842 22.8037 16.6573 22.8037 16.3805C22.8037 16.1037 23.0307 15.8767 23.3075 15.8767Z" fill="#94D4FF"/>
<path d="M15.242 40.7434C15.5188 40.7434 15.7458 40.9704 15.7458 41.2472C15.7458 41.524 15.5188 41.7509 15.242 41.7509C14.9652 41.7509 14.7383 41.524 14.7383 41.2472C14.7383 40.9704 14.9652 40.7434 15.242 40.7434Z" fill="#94D4FF"/>
<path d="M13.5038 29.8767C13.7805 29.8767 14.0075 30.1037 14.0075 30.3805C14.0075 30.6573 13.7805 30.8842 13.5038 30.8842C13.227 30.8842 13 30.6573 13 30.3805C13 30.1037 13.227 29.8767 13.5038 29.8767Z" fill="#94D4FF"/>
</svg>
