<svg width="56" height="56" viewBox="0 0 56 56" fill="none" xmlns="http://www.w3.org/2000/svg">
<rect width="56" height="56" rx="15" fill="#F9FBEB"/>
<path d="M15.9157 14.5098C16.3949 14.5098 16.8267 14.8941 16.8267 15.4208C16.8267 15.9475 16.3949 16.2844 15.9157 16.2844C15.4364 16.2844 15.0046 15.9 15.0046 15.3733C15.0046 14.8467 15.4364 14.5098 15.9157 14.5098Z" fill="#009483"/>
<path d="M18.0274 39.0889C18.7012 39.0889 19.2279 39.6156 19.2279 40.2893C19.2279 40.9631 18.7012 41.4898 18.0274 41.4898C17.3536 41.4898 16.8269 40.9631 16.8269 40.2893C16.8269 39.6156 17.3536 39.0889 18.0274 39.0889Z" fill="#002855"/>
<path d="M39.6263 15.0889C40.3 15.0889 40.8267 15.6156 40.8267 16.2893C40.8267 16.9631 40.3 17.4898 39.6263 17.4898C38.9525 17.4898 38.4258 16.9631 38.4258 16.2893C38.4258 15.6156 38.9525 15.0889 39.6263 15.0889Z" fill="#009483"/>
<path d="M40.2052 24.1133V35.0077C40.2052 36.3031 39.1471 37.3138 37.8992 37.3138H17.306C16.0107 37.3138 15 36.2556 15 35.0077V24.1133H40.2005H40.2052Z" fill="white"/>
<path d="M18.6013 19.3115H37.8991C39.1944 19.3115 40.2051 20.3696 40.2051 21.6176V24.1134H15.0046V21.6176C15.0046 20.3222 16.0628 19.3115 17.3107 19.3115H18.6061H18.6013Z" fill="#BED232"/>
<path d="M36.0249 39.0889C36.3618 39.0889 36.6512 39.3783 36.6512 39.7105C36.6512 40.0426 36.3618 40.3368 36.0249 40.3368C35.688 40.3368 35.4033 40.0474 35.4033 39.7105C35.4033 39.3736 35.6928 39.0889 36.0249 39.0889Z" fill="#80D0DE"/>
<path d="M33.0024 15.0889C33.3393 15.0889 33.6288 15.3783 33.6288 15.7152C33.6288 16.0521 33.3393 16.3415 33.0024 16.3415C32.6656 16.3415 32.3809 16.0521 32.3809 15.7152C32.3809 15.3783 32.6703 15.0889 33.0024 15.0889Z" fill="#80D0DE"/>
<path d="M22.8291 39.0889C23.166 39.0889 23.4554 39.3783 23.4554 39.7105C23.4554 40.0426 23.166 40.3368 22.8291 40.3368C22.4922 40.3368 22.2075 40.0474 22.2075 39.7105C22.2075 39.3736 22.497 39.0889 22.8291 39.0889Z" fill="#80D0DE"/>
<path d="M21.0023 14.5098C21.3392 14.5098 21.6239 14.7992 21.6239 15.1361C21.6239 15.473 21.3345 15.7624 21.0023 15.7624C20.6702 15.7624 20.376 15.473 20.376 15.1361C20.376 14.7992 20.6654 14.5098 21.0023 14.5098Z" fill="#80D0DE"/>
<path d="M20.4283 21.713C19.0855 21.713 18.0273 20.6549 18.0273 19.3121C18.0273 17.9693 19.0855 16.9111 20.4283 16.9111C21.7711 16.9111 22.8292 17.9693 22.8292 19.3121C22.8292 19.649 22.5398 19.9384 22.2077 19.9384C21.8755 19.9384 21.5813 19.649 21.5813 19.3121C21.5813 18.6383 21.0546 18.1116 20.3808 18.1116C19.7071 18.1116 19.1804 18.6383 19.1804 19.3121C19.1804 19.9859 19.7071 20.5126 20.3808 20.5126C20.7177 20.5126 21.0072 20.802 21.0072 21.1341C21.0072 21.4663 20.7652 21.7083 20.433 21.7083L20.4283 21.713Z" fill="#757575"/>
<path d="M24.0296 21.713C22.6868 21.713 21.6287 20.6549 21.6287 19.3121C21.6287 17.9693 22.6868 16.9111 24.0296 16.9111C25.3724 16.9111 26.4306 17.9693 26.4306 19.3121C26.4306 19.649 26.1411 19.9384 25.809 19.9384C25.4768 19.9384 25.1826 19.649 25.1826 19.3121C25.1826 18.6383 24.6559 18.1116 23.9822 18.1116C23.3084 18.1116 22.7817 18.6383 22.7817 19.3121C22.7817 19.9859 23.3084 20.5126 23.9822 20.5126C24.3191 20.5126 24.6085 20.802 24.6085 21.1341C24.6085 21.4663 24.3665 21.7083 24.0344 21.7083L24.0296 21.713Z" fill="#757575"/>
<path d="M27.6263 21.713C26.2835 21.713 25.2253 20.6549 25.2253 19.3121C25.2253 17.9693 26.2835 16.9111 27.6263 16.9111C28.9691 16.9111 30.0272 17.9693 30.0272 19.3121C30.0272 19.649 29.7378 19.9384 29.4009 19.9384C29.064 19.9384 28.7793 19.649 28.7793 19.3121C28.7793 18.6383 28.2526 18.1116 27.5788 18.1116C26.9051 18.1116 26.3784 18.6383 26.3784 19.3121C26.3784 19.9859 26.9051 20.5126 27.5788 20.5126C27.9157 20.5126 28.2052 20.802 28.2052 21.1341C28.2052 21.4663 27.9632 21.7083 27.631 21.7083L27.6263 21.713Z" fill="#757575"/>
<path d="M31.2279 21.713C29.885 21.713 28.8269 20.6549 28.8269 19.3121C28.8269 17.9693 29.885 16.9111 31.2279 16.9111C32.5707 16.9111 33.6288 17.9693 33.6288 19.3121C33.6288 19.649 33.3394 19.9384 33.0025 19.9384C32.6656 19.9384 32.3809 19.649 32.3809 19.3121C32.3809 18.6383 31.8542 18.1116 31.1804 18.1116C30.5066 18.1116 29.9799 18.6383 29.9799 19.3121C29.9799 19.9859 30.5066 20.5126 31.1804 20.5126C31.5173 20.5126 31.8067 20.802 31.8067 21.1341C31.8067 21.4663 31.5647 21.7083 31.2326 21.7083L31.2279 21.713Z" fill="#757575"/>
<path d="M21.0024 27.0887H17.9798C17.643 27.0887 17.3535 26.7993 17.3535 26.4672C17.3535 26.135 17.643 25.8408 17.9798 25.8408H21.0024C21.3393 25.8408 21.624 26.1303 21.624 26.4672C21.624 26.8515 21.3345 27.0887 21.0024 27.0887Z" fill="#FFCE02"/>
<path d="M26.4259 27.0887H23.4033C23.0664 27.0887 22.7817 26.7993 22.7817 26.4672C22.7817 26.135 23.0712 25.8408 23.4033 25.8408H26.4259C26.7628 25.8408 27.0522 26.1303 27.0522 26.4672C27.0048 26.8515 26.7628 27.0887 26.4259 27.0887Z" fill="#FFCE02"/>
<path d="M31.8019 27.0887H28.7794C28.4425 27.0887 28.1531 26.7993 28.1531 26.4672C28.1531 26.135 28.4425 25.8408 28.7794 25.8408H31.8019C32.1388 25.8408 32.4235 26.1303 32.4235 26.4672C32.4235 26.8515 32.1341 27.0887 31.8019 27.0887Z" fill="#FFCE02"/>
<path d="M37.2253 27.0887H34.2028C33.8659 27.0887 33.5764 26.7993 33.5764 26.4672C33.5764 26.135 33.8659 25.8408 34.2028 25.8408H37.2253C37.5622 25.8408 37.8516 26.1303 37.8516 26.4672C37.8042 26.8515 37.5622 27.0887 37.2253 27.0887Z" fill="#FFCE02"/>
<path d="M21.0024 29.4852H17.9798C17.643 29.4852 17.3535 29.1958 17.3535 28.8636C17.3535 28.5315 17.643 28.2373 17.9798 28.2373H21.0024C21.3393 28.2373 21.624 28.5267 21.624 28.8636C21.624 29.2005 21.3345 29.4852 21.0024 29.4852Z" fill="#FFCE02"/>
<path d="M26.4259 29.4852H23.4033C23.0664 29.4852 22.7817 29.1958 22.7817 28.8636C22.7817 28.5315 23.0712 28.2373 23.4033 28.2373H26.4259C26.7628 28.2373 27.0522 28.5267 27.0522 28.8636C27.0522 29.2005 26.7628 29.4852 26.4259 29.4852Z" fill="#FFCE02"/>
<path d="M31.8019 29.4852H28.7794C28.4425 29.4852 28.1531 29.1958 28.1531 28.8636C28.1531 28.5315 28.4425 28.2373 28.7794 28.2373H31.8019C32.1388 28.2373 32.4235 28.5267 32.4235 28.8636C32.4235 29.2005 32.1341 29.4852 31.8019 29.4852Z" fill="#FFCE02"/>
<path d="M37.2253 29.4852H34.2028C33.8659 29.4852 33.5764 29.1958 33.5764 28.8636C33.5764 28.5315 33.8659 28.2373 34.2028 28.2373H37.2253C37.5622 28.2373 37.8516 28.5267 37.8516 28.8636C37.8516 29.2005 37.5622 29.4852 37.2253 29.4852Z" fill="#FFCE02"/>
<path d="M21.0024 31.8856H17.9798C17.643 31.8856 17.3535 31.5962 17.3535 31.2593C17.3535 30.9224 17.643 30.6377 17.9798 30.6377H21.0024C21.3393 30.6377 21.624 30.9271 21.624 31.2593C21.624 31.5914 21.3345 31.8856 21.0024 31.8856Z" fill="#FFCE02"/>
<path d="M26.4259 31.8856H23.4033C23.0664 31.8856 22.7817 31.5962 22.7817 31.2593C22.7817 30.9224 23.0712 30.6377 23.4033 30.6377H26.4259C26.7628 30.6377 27.0522 30.9271 27.0522 31.2593C27.0522 31.5914 26.7628 31.8856 26.4259 31.8856Z" fill="#FFCE02"/>
<path d="M31.8019 31.8856H28.7794C28.4425 31.8856 28.1531 31.5962 28.1531 31.2593C28.1531 30.9224 28.4425 30.6377 28.7794 30.6377H31.8019C32.1388 30.6377 32.4235 30.9271 32.4235 31.2593C32.4235 31.5914 32.1341 31.8856 31.8019 31.8856Z" fill="#FFCE02"/>
<path d="M37.2253 31.8856H34.2028C33.8659 31.8856 33.5764 31.5962 33.5764 31.2593C33.5764 30.9224 33.8659 30.6377 34.2028 30.6377H37.2253C37.5622 30.6377 37.8516 30.9271 37.8516 31.2593C37.8516 31.5914 37.5622 31.8856 37.2253 31.8856Z" fill="#FFCE02"/>
<path d="M21.0024 34.287H17.9798C17.643 34.287 17.3535 33.9975 17.3535 33.6607C17.3535 33.3238 17.643 33.0391 17.9798 33.0391H21.0024C21.3393 33.0391 21.624 33.3285 21.624 33.6607C21.624 33.9928 21.3345 34.287 21.0024 34.287Z" fill="#FFCE02"/>
<path d="M26.4259 34.287H23.4033C23.0664 34.287 22.7817 33.9975 22.7817 33.6607C22.7817 33.3238 23.0712 33.0391 23.4033 33.0391H26.4259C26.7628 33.0391 27.0522 33.3285 27.0522 33.6607C27.0522 33.9928 26.7628 34.287 26.4259 34.287Z" fill="#F05023"/>
<path d="M34.8292 20.5126C34.1554 20.5126 33.6287 19.9859 33.6287 19.3121C33.6287 18.6383 34.1554 18.1116 34.8292 18.1116C35.503 18.1116 36.0296 18.6383 36.0296 19.3121H37.2301C37.2301 18.0167 36.1245 16.9111 34.8292 16.9111C33.5338 16.9111 32.4282 17.9693 32.4282 19.3121C32.4282 20.6549 33.4863 21.713 34.8292 21.713C35.1661 21.713 35.4508 21.4236 35.4508 21.0914C35.4033 20.802 35.1613 20.5173 34.8292 20.5173V20.5126Z" fill="#757575"/>
</svg>
