<svg width="16" height="16" viewBox="0 0 16 16" fill="none" xmlns="http://www.w3.org/2000/svg">
<mask id="mask0_288_4283" style="mask-type:alpha" maskUnits="userSpaceOnUse" x="0" y="0" width="16" height="16">
<rect width="16" height="16" fill="#D9D9D9"/>
</mask>
<g mask="url(#mask0_288_4283)">
<path d="M8.00059 10.6665C8.83392 10.6665 9.54225 10.3748 10.1256 9.7915C10.7089 9.20817 11.0006 8.49984 11.0006 7.6665C11.0006 6.83317 10.7089 6.12484 10.1256 5.5415C9.54225 4.95817 8.83392 4.6665 8.00059 4.6665C7.16725 4.6665 6.45892 4.95817 5.87559 5.5415C5.29225 6.12484 5.00059 6.83317 5.00059 7.6665C5.00059 8.49984 5.29225 9.20817 5.87559 9.7915C6.45892 10.3748 7.16725 10.6665 8.00059 10.6665ZM8.00059 9.4665C7.50059 9.4665 7.07559 9.2915 6.72559 8.9415C6.37559 8.5915 6.20059 8.1665 6.20059 7.6665C6.20059 7.1665 6.37559 6.7415 6.72559 6.3915C7.07559 6.0415 7.50059 5.8665 8.00059 5.8665C8.50059 5.8665 8.92559 6.0415 9.27559 6.3915C9.62559 6.7415 9.80059 7.1665 9.80059 7.6665C9.80059 8.1665 9.62559 8.5915 9.27559 8.9415C8.92559 9.2915 8.50059 9.4665 8.00059 9.4665ZM8.00059 12.6665C6.5117 12.6665 5.15336 12.2665 3.92559 11.4665C2.69781 10.6665 1.72836 9.61095 1.01725 8.29984C0.961697 8.19984 0.92003 8.09706 0.892253 7.9915C0.864475 7.88595 0.850586 7.77762 0.850586 7.6665C0.850586 7.55539 0.864475 7.44706 0.892253 7.3415C0.92003 7.23595 0.961697 7.13317 1.01725 7.03317C1.72836 5.72206 2.69781 4.6665 3.92559 3.8665C5.15336 3.0665 6.5117 2.6665 8.00059 2.6665C9.48947 2.6665 10.8478 3.0665 12.0756 3.8665C13.3034 4.6665 14.2728 5.72206 14.9839 7.03317C15.0395 7.13317 15.0811 7.23595 15.1089 7.3415C15.1367 7.44706 15.1506 7.55539 15.1506 7.6665C15.1506 7.77762 15.1367 7.88595 15.1089 7.9915C15.0811 8.09706 15.0395 8.19984 14.9839 8.29984C14.2728 9.61095 13.3034 10.6665 12.0756 11.4665C10.8478 12.2665 9.48947 12.6665 8.00059 12.6665Z" fill="#757575"/>
</g>
</svg>
