<svg width="960" height="268" viewBox="0 0 960 268" fill="none" xmlns="http://www.w3.org/2000/svg">
<g clip-path="url(#clip0_629_2910)">
<path d="M179.69 140.41L182.38 141.24L189.73 155.6C197.24 170.05 210.51 189.29 228.82 185.36L230.69 186.4C227.57 199.63 216.14 211.16 202.23 212.44C174.37 215.01 167.35 200.46 154.89 179.7C152.22 175.25 140.93 152.48 138 151.56C136.1 150.97 133.86 151.1 132.79 153C120.93 170.66 109.31 209.45 85.08 212.29C67.2 214.39 52.77 208.3 44.5 192.08C27.52 158.78 16.84 117.92 0.929994 83.6701C-8.32001 39.3801 54.29 19.8801 71.4 68.2001C74.34 76.4901 87.78 131.17 90.67 132.93C92.75 134.2 95.07 133.52 96.75 131.96C99.64 129.28 105.88 113.06 108.89 108.11C116.71 95.2301 125.23 88.5701 141.2 90.4101C161.17 92.7101 171.38 124.63 179.7 140.41H179.69Z" fill="url(#paint0_linear_629_2910)"/>
<path d="M230.69 186.41C227.06 189.72 221.93 188.11 217.67 186.93C198.21 181.51 188.31 156.77 179.69 140.41C182.37 140.98 181.66 139.07 182.16 137.43C189.35 113.89 195.01 86.4701 203.68 63.9001C219.75 22.0901 280.93 39.5901 272.45 83.6701C263.37 106.9 254.63 130.31 245.16 153.38C242.8 159.13 233.62 183.74 230.69 186.41Z" fill="#FFCE02"/>
</g>
<path d="M288.84 94.64H323.16V213H288.84V94.64ZM306 78.14C299.693 78.14 294.56 76.3067 290.6 72.64C286.64 68.9733 284.66 64.4267 284.66 59C284.66 53.5733 286.64 49.0267 290.6 45.36C294.56 41.6933 299.693 39.86 306 39.86C312.307 39.86 317.44 41.62 321.4 45.14C325.36 48.66 327.34 53.06 327.34 58.34C327.34 64.06 325.36 68.8267 321.4 72.64C317.44 76.3067 312.307 78.14 306 78.14ZM394.832 214.76C385.005 214.76 375.399 213.587 366.012 211.24C356.625 208.747 349.145 205.667 343.572 202L355.012 177.36C360.292 180.733 366.672 183.52 374.152 185.72C381.632 187.773 388.965 188.8 396.152 188.8C410.672 188.8 417.932 185.207 417.932 178.02C417.932 174.647 415.952 172.227 411.992 170.76C408.032 169.293 401.945 168.047 393.732 167.02C384.052 165.553 376.059 163.867 369.752 161.96C363.445 160.053 357.945 156.68 353.252 151.84C348.705 147 346.432 140.107 346.432 131.16C346.432 123.68 348.559 117.08 352.812 111.36C357.212 105.493 363.519 100.947 371.732 97.72C380.092 94.4933 389.919 92.88 401.212 92.88C409.572 92.88 417.859 93.8333 426.072 95.74C434.432 97.5 441.325 99.9933 446.752 103.22L435.312 127.64C424.899 121.773 413.532 118.84 401.212 118.84C393.879 118.84 388.379 119.867 384.712 121.92C381.045 123.973 379.212 126.613 379.212 129.84C379.212 133.507 381.192 136.073 385.152 137.54C389.112 139.007 395.419 140.4 404.072 141.72C413.752 143.333 421.672 145.093 427.832 147C433.992 148.76 439.345 152.06 443.892 156.9C448.439 161.74 450.712 168.487 450.712 177.14C450.712 184.473 448.512 191 444.112 196.72C439.712 202.44 433.259 206.913 424.752 210.14C416.392 213.22 406.419 214.76 394.832 214.76Z" fill="#BED232"/>
<path d="M529.087 214.76C516.474 214.76 505.107 212.193 494.987 207.06C485.014 201.78 477.167 194.52 471.447 185.28C465.874 176.04 463.087 165.553 463.087 153.82C463.087 142.087 465.874 131.6 471.447 122.36C477.167 113.12 485.014 105.933 494.987 100.8C505.107 95.52 516.474 92.88 529.087 92.88C541.554 92.88 552.407 95.52 561.647 100.8C571.034 105.933 577.854 113.34 582.107 123.02L555.487 137.32C549.327 126.467 540.454 121.04 528.867 121.04C519.92 121.04 512.514 123.973 506.647 129.84C500.78 135.707 497.847 143.7 497.847 153.82C497.847 163.94 500.78 171.933 506.647 177.8C512.514 183.667 519.92 186.6 528.867 186.6C540.6 186.6 549.474 181.173 555.487 170.32L582.107 184.84C577.854 194.227 571.034 201.56 561.647 206.84C552.407 212.12 541.554 214.76 529.087 214.76ZM656.683 214.76C644.217 214.76 632.997 212.193 623.023 207.06C613.197 201.78 605.497 194.52 599.923 185.28C594.35 176.04 591.563 165.553 591.563 153.82C591.563 142.087 594.35 131.6 599.923 122.36C605.497 113.12 613.197 105.933 623.023 100.8C632.997 95.52 644.217 92.88 656.683 92.88C669.15 92.88 680.297 95.52 690.123 100.8C699.95 105.933 707.65 113.12 713.223 122.36C718.797 131.6 721.583 142.087 721.583 153.82C721.583 165.553 718.797 176.04 713.223 185.28C707.65 194.52 699.95 201.78 690.123 207.06C680.297 212.193 669.15 214.76 656.683 214.76ZM656.683 186.6C665.483 186.6 672.67 183.667 678.243 177.8C683.963 171.787 686.823 163.793 686.823 153.82C686.823 143.847 683.963 135.927 678.243 130.06C672.67 124.047 665.483 121.04 656.683 121.04C647.883 121.04 640.623 124.047 634.903 130.06C629.183 135.927 626.323 143.847 626.323 153.82C626.323 163.793 629.183 171.787 634.903 177.8C640.623 183.667 647.883 186.6 656.683 186.6ZM896.104 92.88C910.917 92.88 922.65 97.28 931.304 106.08C940.104 114.733 944.504 127.787 944.504 145.24V213H910.184V150.52C910.184 141.133 908.204 134.167 904.244 129.62C900.43 124.927 894.93 122.58 887.744 122.58C879.677 122.58 873.297 125.22 868.604 130.5C863.91 135.633 861.564 143.333 861.564 153.6V213H827.244V150.52C827.244 131.893 819.764 122.58 804.804 122.58C796.884 122.58 790.577 125.22 785.884 130.5C781.19 135.633 778.844 143.333 778.844 153.6V213H744.524V94.64H777.304V108.28C781.704 103.293 787.057 99.48 793.364 96.84C799.817 94.2 806.857 92.88 814.484 92.88C822.844 92.88 830.397 94.5667 837.144 97.94C843.89 101.167 849.317 105.933 853.424 112.24C858.264 106.08 864.35 101.313 871.684 97.94C879.164 94.5667 887.304 92.88 896.104 92.88Z" fill="#009483"/>
<defs>
<linearGradient id="paint0_linear_629_2910" x1="115.346" y1="40.0024" x2="115.346" y2="212.734" gradientUnits="userSpaceOnUse">
<stop stop-color="#F05023"/>
<stop offset="1" stop-color="#F5AA1E"/>
</linearGradient>
<clipPath id="clip0_629_2910">
<rect width="273.25" height="172.74" fill="white" transform="translate(0 40)"/>
</clipPath>
</defs>
</svg>
