<svg width="84" height="18" viewBox="0 0 84 18" fill="none" xmlns="http://www.w3.org/2000/svg">
<g clip-path="url(#clip0_553_1893)">
<path d="M18.4933 10.3472L18.7701 10.4326L19.5265 11.9105C20.2995 13.3977 21.6652 15.3778 23.5496 14.9733L23.742 15.0803C23.4209 16.4419 22.2446 17.6285 20.813 17.7603C17.9457 18.0248 17.2233 16.5273 15.9409 14.3908C15.6661 13.9328 14.5042 11.5894 14.2027 11.4947C14.0071 11.434 13.7766 11.4474 13.6665 11.6429C12.4459 13.4604 11.25 17.4525 8.75633 17.7448C6.91618 17.9609 5.43109 17.3342 4.57997 15.6649C2.83245 12.2378 1.7333 8.03264 0.0958986 4.50777C-0.85608 -0.0503734 5.58753 -2.05723 7.34843 2.91566C7.651 3.76884 9.0342 9.39628 9.33163 9.57741C9.5457 9.70812 9.78446 9.63813 9.95737 9.47758C10.2548 9.20177 10.897 7.53247 11.2068 7.02304C12.0116 5.69748 12.8884 5.01206 14.532 5.20143C16.5873 5.43813 17.638 8.72321 18.4943 10.3472H18.4933Z" fill="url(#paint0_linear_553_1893)"/>
<path d="M23.7419 15.0811C23.3683 15.4218 22.8404 15.2561 22.4019 15.1346C20.3992 14.5768 19.3803 12.0307 18.4932 10.347C18.769 10.4057 18.6959 10.2091 18.7474 10.0403C19.4873 7.61766 20.0698 4.7957 20.9621 2.47289C22.616 -1.83002 28.9124 -0.0289953 28.0397 4.50754C27.1052 6.89828 26.2057 9.30754 25.2311 11.6818C24.9882 12.2736 24.0435 14.8063 23.7419 15.0811Z" fill="#FFCE02"/>
</g>
<path d="M29.7261 5.63774H33.2582V17.8189H29.7261V5.63774ZM31.4921 3.93962C30.8431 3.93962 30.3148 3.75094 29.9072 3.37359C29.4997 2.99623 29.2959 2.5283 29.2959 1.96981C29.2959 1.41132 29.4997 0.943397 29.9072 0.566038C30.3148 0.188679 30.8431 0 31.4921 0C32.1412 0 32.6695 0.181132 33.0771 0.543397C33.4846 0.905661 33.6884 1.35849 33.6884 1.90189C33.6884 2.49057 33.4846 2.98113 33.0771 3.37359C32.6695 3.75094 32.1412 3.93962 31.4921 3.93962Z" fill="#BED232"/>
<path d="M40.6344 18C39.6231 18 38.6344 17.8792 37.6684 17.6377C36.7023 17.3811 35.9325 17.0642 35.3589 16.6868L36.5363 14.1509C37.0797 14.4981 37.7363 14.7849 38.5061 15.0113C39.2759 15.2226 40.0306 15.3283 40.7703 15.3283C42.2646 15.3283 43.0118 14.9585 43.0118 14.2189C43.0118 13.8717 42.808 13.6226 42.4005 13.4717C41.9929 13.3208 41.3665 13.1925 40.5212 13.0868C39.525 12.9359 38.7023 12.7623 38.0533 12.566C37.4042 12.3698 36.8382 12.0226 36.3551 11.5245C35.8872 11.0264 35.6532 10.317 35.6532 9.39623C35.6532 8.62642 35.8721 7.94717 36.3099 7.35849C36.7627 6.75472 37.4117 6.28679 38.257 5.95472C39.1174 5.62264 40.1287 5.4566 41.291 5.4566C42.1514 5.4566 43.0042 5.55472 43.8495 5.75094C44.7099 5.93208 45.4193 6.18868 45.9778 6.52076L44.8005 9.03396C43.7288 8.43019 42.559 8.1283 41.291 8.1283C40.5363 8.1283 39.9703 8.23396 39.5929 8.44528C39.2155 8.6566 39.0269 8.9283 39.0269 9.26038C39.0269 9.63774 39.2306 9.90189 39.6382 10.0528C40.0457 10.2038 40.6948 10.3472 41.5854 10.483C42.5816 10.6491 43.3967 10.8302 44.0307 11.0264C44.6646 11.2075 45.2156 11.5472 45.6835 12.0453C46.1514 12.5434 46.3854 13.2377 46.3854 14.1283C46.3854 14.883 46.159 15.5547 45.7061 16.1434C45.2533 16.7321 44.5892 17.1925 43.7137 17.5245C42.8533 17.8415 41.8269 18 40.6344 18Z" fill="#BED232"/>
<path d="M52.9345 18C51.5609 18 50.4892 17.6377 49.7194 16.9132C48.9496 16.1736 48.5646 15.1321 48.5646 13.7887V1.01887H52.0967V13.5849C52.0967 14.0981 52.225 14.4981 52.4817 14.7849C52.7534 15.0566 53.1307 15.1925 53.6137 15.1925C53.7949 15.1925 53.976 15.1698 54.1571 15.1245C54.3534 15.0792 54.5043 15.0264 54.61 14.966L54.7685 17.7057C54.1798 17.9019 53.5685 18 52.9345 18Z" fill="#009483"/>
<path d="M56.5025 5.63774H60.0346V17.8189H56.5025V5.63774ZM58.2685 3.93962C57.6195 3.93962 57.0912 3.75094 56.6836 3.37359C56.2761 2.99623 56.0723 2.5283 56.0723 1.96981C56.0723 1.41132 56.2761 0.943397 56.6836 0.566038C57.0912 0.188679 57.6195 0 58.2685 0C58.9176 0 59.4459 0.181132 59.8535 0.543397C60.261 0.905661 60.4648 1.35849 60.4648 1.90189C60.4648 2.49057 60.261 2.98113 59.8535 3.37359C59.4459 3.75094 58.9176 3.93962 58.2685 3.93962Z" fill="#009483"/>
<path d="M66.7542 5.90943H69.8788V8.62642H66.8448V17.8189H63.3127V5.36604C63.3127 3.97736 63.7202 2.87547 64.5353 2.06038C65.3655 1.24528 66.5278 0.837736 68.0221 0.837736C68.5504 0.837736 69.0486 0.898113 69.5165 1.01887C69.9995 1.12453 70.3995 1.28302 70.7165 1.49434L69.7882 4.05283C69.3806 3.76604 68.9052 3.62264 68.3618 3.62264C67.2901 3.62264 66.7542 4.21132 66.7542 5.38868V5.90943Z" fill="#009483"/>
<path d="M77.6296 15.1698C78.2636 15.1698 78.8221 15.0792 79.3051 14.8981C79.8032 14.7019 80.2636 14.4 80.6862 13.9925L82.5655 16.0302C81.4183 17.3434 79.7428 18 77.5391 18C76.1655 18 74.9504 17.7358 73.8938 17.2075C72.8371 16.6642 72.022 15.917 71.4485 14.966C70.8749 14.0151 70.5881 12.9359 70.5881 11.7283C70.5881 10.5358 70.8673 9.46415 71.4258 8.51321C71.9994 7.54717 72.7768 6.8 73.7579 6.2717C74.7541 5.7283 75.8711 5.4566 77.1089 5.4566C78.2711 5.4566 79.3277 5.70566 80.2787 6.20377C81.2296 6.68679 81.9844 7.39623 82.5429 8.33208C83.1164 9.25283 83.4032 10.3472 83.4032 11.6151L74.3919 13.3585C74.6485 13.9623 75.0485 14.4151 75.5919 14.717C76.1504 15.0189 76.8296 15.1698 77.6296 15.1698ZM77.1089 8.1283C76.2183 8.1283 75.4938 8.4151 74.9353 8.98868C74.3768 9.56227 74.0824 10.3547 74.0522 11.366L79.9844 10.2113C79.8183 9.57736 79.4787 9.0717 78.9655 8.69434C78.4523 8.31698 77.8334 8.1283 77.1089 8.1283Z" fill="#009483"/>
<defs>
<linearGradient id="paint0_linear_553_1893" x1="11.8713" y1="0.0136719" x2="11.8713" y2="17.7905" gradientUnits="userSpaceOnUse">
<stop stop-color="#F05023"/>
<stop offset="1" stop-color="#F5AA1E"/>
</linearGradient>
<clipPath id="clip0_553_1893">
<rect width="28.122" height="17.7777" fill="white" transform="translate(0 0.0136719)"/>
</clipPath>
</defs>
</svg>
