<svg width="20" height="20" viewBox="0 0 20 20" fill="none" xmlns="http://www.w3.org/2000/svg">
<path d="M10 0H5V3H9.99951L10 0Z" fill="#F5AA1E"/>
<path d="M8.70846 3H0V18.9133C0 19.5413 0.461832 20 1.00382 20H18.9962C19.5382 20 20 19.5 20 18.9133V3H8.70846Z" fill="#FFCE02"/>
<path d="M16 5H4C2.89543 5 2 5.89543 2 7V16C2 17.1046 2.89543 18 4 18H16C17.1046 18 18 17.1046 18 16V7C18 5.89543 17.1046 5 16 5Z" fill="#F5AA1E"/>
<path d="M8.60346 9.57238L8.67238 9.59364L8.86068 9.96153C9.05308 10.3317 9.39305 10.8247 9.86214 10.724L9.91005 10.7506C9.83012 11.0896 9.53729 11.3849 9.18092 11.4177C8.46717 11.4836 8.28732 11.1108 7.9681 10.579C7.8997 10.465 7.61046 9.8816 7.53539 9.85803C7.48672 9.84292 7.42933 9.84625 7.40192 9.89492C7.09807 10.3474 6.80037 11.3411 6.17962 11.4139C5.72154 11.4677 5.35186 11.3117 5.13998 10.8961C4.70497 10.043 4.43135 8.9962 4.02375 8.11874C3.78677 6.98406 5.3908 6.48448 5.82914 7.72241C5.90447 7.93479 6.24879 9.33565 6.32283 9.38074C6.37612 9.41328 6.43555 9.39586 6.4786 9.35589C6.55263 9.28723 6.7125 8.87169 6.78961 8.74487C6.98996 8.4149 7.20823 8.24427 7.61737 8.29141C8.12899 8.35034 8.39057 9.1681 8.60372 9.57238H8.60346Z" fill="white"/>
<path d="M9.90961 10.7503C9.81661 10.8351 9.68519 10.7939 9.57605 10.7637C9.0775 10.6248 8.82387 9.99097 8.60303 9.57184C8.67169 9.58644 8.6535 9.53751 8.66631 9.4955C8.85051 8.89242 8.99552 8.18993 9.21763 7.61171C9.62934 6.54056 11.1967 6.9889 10.9795 8.1182C10.7469 8.71334 10.5229 9.31309 10.2803 9.90412C10.2199 10.0514 9.98468 10.6819 9.90961 10.7503Z" fill="white"/>
<path d="M5 0V3H0V1.09485C0 0.525368 0.431411 0 1.00049 0H4.48709H5Z" fill="#FFCE02"/>
<path d="M20 1.09485L19.9997 3H10V0H19.0783C19.5956 0.0401044 20 0.529377 20 1.09485Z" fill="#F05023"/>
<path d="M12 15.4008C12 15.7322 11.7314 16.0008 11.4 16.0008H4.60007C4.26868 16.0008 4.00001 15.7322 4.00001 15.4008C4.00001 15.0694 4.26863 14.8008 4.6 14.8008H11.4C11.7314 14.8008 12 15.0694 12 15.4008Z" fill="white"/>
<path d="M16 13.4008C16 13.7322 15.7314 14.0008 15.4 14.0008H4.60011C4.26871 14.0008 4.00002 13.7322 4.00002 13.4008C4.00002 13.0694 4.26864 12.8008 4.6 12.8008H15.4C15.7314 12.8008 16 13.0694 16 13.4008Z" fill="white"/>
</svg>
