<svg width="1058" height="268" viewBox="0 0 1058 268" fill="none" xmlns="http://www.w3.org/2000/svg">
<g clip-path="url(#clip0_629_2915)">
<path d="M179.69 140.41L182.38 141.24L189.73 155.6C197.24 170.05 210.51 189.29 228.82 185.36L230.69 186.4C227.57 199.63 216.14 211.16 202.23 212.44C174.37 215.01 167.35 200.46 154.89 179.7C152.22 175.25 140.93 152.48 138 151.56C136.1 150.97 133.86 151.1 132.79 153C120.93 170.66 109.31 209.45 85.08 212.29C67.2 214.39 52.77 208.3 44.5 192.08C27.52 158.78 16.84 117.92 0.929994 83.6701C-8.32001 39.3801 54.29 19.8801 71.4 68.2001C74.34 76.4901 87.78 131.17 90.67 132.93C92.75 134.2 95.07 133.52 96.75 131.96C99.64 129.28 105.88 113.06 108.89 108.11C116.71 95.2301 125.23 88.5701 141.2 90.4101C161.17 92.7101 171.38 124.63 179.7 140.41H179.69Z" fill="url(#paint0_linear_629_2915)"/>
<path d="M230.69 186.41C227.06 189.72 221.93 188.11 217.67 186.93C198.21 181.51 188.31 156.77 179.69 140.41C182.37 140.98 181.66 139.07 182.16 137.43C189.35 113.89 195.01 86.4701 203.68 63.9001C219.75 22.0901 280.93 39.5901 272.45 83.6701C263.37 106.9 254.63 130.31 245.16 153.38C242.8 159.13 233.62 183.74 230.69 186.41Z" fill="#FFCE02"/>
</g>
<path d="M288.84 94.64H323.16V213H288.84V94.64ZM306 78.14C299.693 78.14 294.56 76.3067 290.6 72.64C286.64 68.9733 284.66 64.4267 284.66 59C284.66 53.5733 286.64 49.0267 290.6 45.36C294.56 41.6933 299.693 39.86 306 39.86C312.307 39.86 317.44 41.62 321.4 45.14C325.36 48.66 327.34 53.06 327.34 58.34C327.34 64.06 325.36 68.8267 321.4 72.64C317.44 76.3067 312.307 78.14 306 78.14ZM394.832 214.76C385.005 214.76 375.399 213.587 366.012 211.24C356.625 208.747 349.145 205.667 343.572 202L355.012 177.36C360.292 180.733 366.672 183.52 374.152 185.72C381.632 187.773 388.965 188.8 396.152 188.8C410.672 188.8 417.932 185.207 417.932 178.02C417.932 174.647 415.952 172.227 411.992 170.76C408.032 169.293 401.945 168.047 393.732 167.02C384.052 165.553 376.059 163.867 369.752 161.96C363.445 160.053 357.945 156.68 353.252 151.84C348.705 147 346.432 140.107 346.432 131.16C346.432 123.68 348.559 117.08 352.812 111.36C357.212 105.493 363.519 100.947 371.732 97.72C380.092 94.4933 389.919 92.88 401.212 92.88C409.572 92.88 417.859 93.8333 426.072 95.74C434.432 97.5 441.325 99.9933 446.752 103.22L435.312 127.64C424.899 121.773 413.532 118.84 401.212 118.84C393.879 118.84 388.379 119.867 384.712 121.92C381.045 123.973 379.212 126.613 379.212 129.84C379.212 133.507 381.192 136.073 385.152 137.54C389.112 139.007 395.419 140.4 404.072 141.72C413.752 143.333 421.672 145.093 427.832 147C433.992 148.76 439.345 152.06 443.892 156.9C448.439 161.74 450.712 168.487 450.712 177.14C450.712 184.473 448.512 191 444.112 196.72C439.712 202.44 433.259 206.913 424.752 210.14C416.392 213.22 406.419 214.76 394.832 214.76Z" fill="#BED232"/>
<path d="M659.107 94.64V159.98C659.107 177.433 654.34 190.927 644.807 200.46C635.274 209.993 621.707 214.76 604.107 214.76C595.6 214.76 588.047 213.44 581.447 210.8C574.994 208.16 569.567 203.907 565.167 198.04C560.767 203.907 555.34 208.16 548.887 210.8C542.434 213.44 534.807 214.76 526.007 214.76C508.26 214.76 494.694 209.993 485.307 200.46C475.92 190.927 471.227 177.433 471.227 159.98V94.64H505.547V157.34C505.547 167.167 507.234 174.427 510.607 179.12C513.98 183.667 519.26 185.94 526.447 185.94C533.78 185.94 539.207 183.593 542.727 178.9C546.247 174.207 548.007 167.02 548.007 157.34V94.64H582.327V157.34C582.327 167.02 584.087 174.207 587.607 178.9C591.127 183.593 596.554 185.94 603.887 185.94C611.074 185.94 616.354 183.667 619.727 179.12C623.1 174.427 624.787 167.167 624.787 157.34V94.64H659.107ZM746.273 214.76C733.807 214.76 722.587 212.193 712.613 207.06C702.787 201.78 695.087 194.52 689.513 185.28C683.94 176.04 681.153 165.553 681.153 153.82C681.153 142.087 683.94 131.6 689.513 122.36C695.087 113.12 702.787 105.933 712.613 100.8C722.587 95.52 733.807 92.88 746.273 92.88C758.74 92.88 769.887 95.52 779.713 100.8C789.54 105.933 797.24 113.12 802.813 122.36C808.387 131.6 811.173 142.087 811.173 153.82C811.173 165.553 808.387 176.04 802.813 185.28C797.24 194.52 789.54 201.78 779.713 207.06C769.887 212.193 758.74 214.76 746.273 214.76ZM746.273 186.6C755.073 186.6 762.26 183.667 767.833 177.8C773.553 171.787 776.413 163.793 776.413 153.82C776.413 143.847 773.553 135.927 767.833 130.06C762.26 124.047 755.073 121.04 746.273 121.04C737.473 121.04 730.213 124.047 724.493 130.06C718.773 135.927 715.913 143.847 715.913 153.82C715.913 163.793 718.773 171.787 724.493 177.8C730.213 183.667 737.473 186.6 746.273 186.6ZM866.893 110.26C871 104.54 876.5 100.213 883.393 97.28C890.433 94.3467 898.5 92.88 907.593 92.88V124.56C903.78 124.267 901.213 124.12 899.893 124.12C890.067 124.12 882.367 126.907 876.793 132.48C871.22 137.907 868.433 146.12 868.433 157.12V213H834.113V94.64H866.893V110.26ZM978.82 166.58L962.32 182.86V213H928V49.76H962.32V142.16L1012.48 94.64H1053.4L1004.12 144.8L1057.8 213H1016.22L978.82 166.58Z" fill="#009483"/>
<defs>
<linearGradient id="paint0_linear_629_2915" x1="115.346" y1="40.0024" x2="115.346" y2="212.734" gradientUnits="userSpaceOnUse">
<stop stop-color="#F05023"/>
<stop offset="1" stop-color="#F5AA1E"/>
</linearGradient>
<clipPath id="clip0_629_2915">
<rect width="273.25" height="172.74" fill="white" transform="translate(0 40)"/>
</clipPath>
</defs>
</svg>
