<svg width="65" height="66" viewBox="0 0 65 66" fill="none" xmlns="http://www.w3.org/2000/svg">
<path d="M59.3501 32.4674L64.0488 27.7701C64.5101 27.3089 64.5101 26.5597 64.0488 26.0984C63.5875 25.6371 62.8383 25.6371 62.377 26.0984L57.1899 31.2856H54.2618L57.7772 27.7701C58.2385 27.3089 58.2385 26.5597 57.7772 26.0984C57.3159 25.6371 56.5682 25.6371 56.1054 26.0984L50.9183 31.2856H34.8139L43.6769 22.4226H49.5259C50.1791 22.4226 50.7077 21.8925 50.7077 21.2407C50.7077 20.5889 50.1791 20.0589 49.5259 20.0589H46.0405L47.2668 18.8326H53.1158C53.769 18.8326 54.2976 18.3026 54.2976 17.6508C54.2976 16.999 53.769 16.469 53.1158 16.469H47.9601V11.3119C47.9601 10.6587 47.4315 10.1301 46.7783 10.1301C46.1251 10.1301 45.5965 10.6601 45.5965 11.3119V17.1609L44.3702 18.3871V14.9032C44.3702 14.25 43.8416 13.7214 43.1884 13.7214C42.5352 13.7214 42.0066 14.2514 42.0066 14.9032V20.7522L33.1435 29.6153V13.4764L38.3307 8.28926C38.792 7.82799 38.792 7.07879 38.3307 6.61752C37.8694 6.15625 37.1217 6.15625 36.659 6.61752L33.1435 10.1329V7.2063L38.3307 2.0177C38.792 1.55642 38.792 0.807226 38.3307 0.345954C37.8694 -0.115318 37.1217 -0.115318 36.659 0.345954L31.9603 5.04462L27.2616 0.345954C26.8003 -0.115318 26.0511 -0.115318 25.5899 0.345954C25.1286 0.807226 25.1286 1.55642 25.5899 2.0177L30.777 7.2063V10.1329L27.2616 6.61752C26.8003 6.15625 26.0511 6.15625 25.5899 6.61752C25.1286 7.07879 25.1286 7.82799 25.5899 8.28926L30.777 13.4764V29.6153L22.3466 21.1848V15.194C22.3466 14.5408 21.818 14.0122 21.1648 14.0122C20.5116 14.0122 19.983 14.5422 19.983 15.194V18.8198L18.7567 17.5935V11.6027C18.7567 10.9495 18.2281 10.4209 17.5749 10.4209C16.9217 10.4209 16.3931 10.9509 16.3931 11.6027V16.4317C16.2942 16.4848 16.1939 16.5363 16.1109 16.6194C16.0693 16.6609 16.0507 16.714 16.0177 16.7598H11.2374C10.5842 16.7598 10.0556 17.2898 10.0556 17.9416C10.0556 18.5948 10.5842 19.1235 11.2374 19.1235H16.9446L18.1708 20.3497H14.8288C14.1755 20.3497 13.6469 20.8797 13.6469 21.5315C13.6469 22.1833 14.1755 22.7133 14.8288 22.7133H20.5359L29.1096 31.2856H13.4779L8.2893 26.0984C7.82802 25.6371 7.07881 25.6371 6.61753 26.0984C6.15626 26.5597 6.15626 27.3089 6.61753 27.7701L10.133 31.2856H7.20487L2.01771 26.0984C1.55643 25.6371 0.807226 25.6371 0.345954 26.0984C-0.115318 26.5597 -0.115318 27.3089 0.345954 27.7701L5.02888 32.4531C5.02888 32.4588 5.02743 32.4631 5.02743 32.4688C5.02743 32.4746 5.02888 32.4789 5.02888 32.4846L0.345954 37.1675C-0.115318 37.6288 -0.115318 38.378 0.345954 38.8393C0.57659 39.0699 0.878853 39.1859 1.18111 39.1859C1.48338 39.1859 1.78564 39.0699 2.01771 38.8393L7.20487 33.6507H10.1315L6.6161 37.1675C6.15483 37.6288 6.15483 38.378 6.6161 38.8393C6.84674 39.0699 7.149 39.1859 7.45126 39.1859C7.75352 39.1859 8.0558 39.0699 8.28643 38.8393L13.475 33.6507H29.1067L20.2437 42.5137H14.3947C13.7415 42.5137 13.2129 43.0437 13.2129 43.6955C13.2129 44.3473 13.7415 44.8773 14.3947 44.8773H17.8786L16.6524 46.1036H10.8034C10.1501 46.1036 9.62153 46.6336 9.62153 47.2854C9.62153 47.9372 10.1501 48.4673 10.8034 48.4673H15.959V53.6229C15.959 54.2761 16.4876 54.8047 17.1409 54.8047C17.7941 54.8047 18.3227 54.2747 18.3227 53.6229V47.7739L19.5489 46.5476V50.0315C19.5489 50.6848 20.0775 51.2134 20.7307 51.2134C21.384 51.2134 21.9126 50.6833 21.9126 50.0315V44.1825L30.7756 35.3195V51.7062L25.5884 56.8933C25.1271 57.3546 25.1271 58.1038 25.5884 58.5651C26.0497 59.0263 26.7989 59.0263 27.2602 58.5651L30.7756 55.0497V57.9763L25.5884 63.1649C25.1271 63.6262 25.1271 64.3754 25.5884 64.8366C26.0497 65.2979 26.7989 65.2979 27.2602 64.8366L31.9589 60.138L36.6575 64.8366C36.8882 65.0673 37.1904 65.1833 37.4927 65.1833C37.795 65.1833 38.0972 65.0673 38.3278 64.8366C38.7891 64.3754 38.7891 63.6276 38.3278 63.1649L33.1407 57.9763V55.0497L36.6561 58.5651C36.8867 58.7957 37.189 58.9117 37.4913 58.9117C37.7935 58.9117 38.0958 58.7957 38.3264 58.5651C38.7877 58.1038 38.7877 57.3546 38.3264 56.8933L33.1393 51.7062V35.3195L41.9822 44.1625V49.8697C41.9822 50.5229 42.5108 51.0515 43.1641 51.0515C43.8173 51.0515 44.3459 50.5215 44.3459 49.8697V46.5262L45.5721 47.7524V53.4596C45.5721 54.1128 46.1007 54.6414 46.7539 54.6414C47.4072 54.6414 47.9358 54.1114 47.9358 53.4596V48.3025H53.0914C53.7446 48.3025 54.2732 47.7725 54.2732 47.1207C54.2732 46.4689 53.7446 45.9388 53.0914 45.9388H47.1006L45.8744 44.7126H49.5015C50.1548 44.7126 50.6833 44.1826 50.6833 43.5308C50.6833 42.879 50.1548 42.3489 49.5015 42.3489H43.5107L34.8096 33.6478H50.914L56.1011 38.8364C56.3318 39.067 56.6341 39.183 56.9363 39.183C57.2386 39.183 57.5408 39.067 57.7715 38.8364C58.2327 38.3751 58.2327 37.6259 57.7715 37.1646L54.2561 33.6478H57.1841L62.3713 38.8364C62.6019 39.067 62.9042 39.183 63.2065 39.183C63.5087 39.183 63.811 39.067 64.0431 38.8364C64.5043 38.3751 64.5043 37.6259 64.0431 37.1646L59.3501 32.4674Z" fill="white"/>
</svg>
