<svg width="97" height="98" viewBox="0 0 97 98" fill="none" xmlns="http://www.w3.org/2000/svg">
<path d="M88.9157 48.6469L95.9556 41.6092C96.6467 40.9181 96.6467 39.7956 95.9556 39.1044C95.2645 38.4133 94.1419 38.4133 93.4508 39.1044L85.679 46.8762H81.2942L86.5612 41.6092C87.2523 40.9181 87.2523 39.7956 86.5612 39.1044C85.8701 38.4133 84.7476 38.4133 84.0565 39.1044L76.2847 46.8762H52.1561L65.4352 33.597H74.1985C75.1772 33.597 75.9692 32.8029 75.9692 31.8264C75.9692 30.8498 75.1772 30.0557 74.1985 30.0557H68.9766L70.8138 28.2184H79.5771C80.5559 28.2184 81.3479 27.4243 81.3479 26.4477C81.3479 25.4712 80.5559 24.677 79.5771 24.677H71.8526V16.9504C71.8526 15.9717 71.0606 15.1797 70.0819 15.1797C69.1032 15.1797 68.3112 15.9738 68.3112 16.9504V25.7137L66.474 27.5509V22.3311C66.474 21.3524 65.682 20.5604 64.7033 20.5604C63.7246 20.5604 62.9326 21.3546 62.9326 22.3311V31.0945L49.6535 44.3736V20.1913L57.4252 12.4195C58.1163 11.7284 58.1163 10.6059 57.4252 9.91481C56.7341 9.22371 55.6116 9.22371 54.9205 9.91481L49.6535 15.1818V10.7969L57.4252 3.02306C58.1163 2.33195 58.1163 1.20944 57.4252 0.518331C56.7341 -0.172777 55.6116 -0.172777 54.9205 0.518331L47.8806 7.55818L40.8408 0.518331C40.1497 -0.172777 39.0272 -0.172777 38.3361 0.518331C37.645 1.20944 37.645 2.33195 38.3361 3.02306L46.11 10.7969V15.1818L40.8429 9.91481C40.1518 9.22371 39.0293 9.22371 38.3382 9.91481C37.6471 10.6059 37.6471 11.7284 38.3382 12.4195L46.1121 20.1913V44.3715L33.4812 31.7405V22.7647C33.4812 21.786 32.6891 20.994 31.7104 20.994C30.7317 20.994 29.9397 21.7881 29.9397 22.7647V28.197L28.1025 26.3597V17.3839C28.1025 16.4052 27.3105 15.6132 26.3318 15.6132C25.3531 15.6132 24.5611 16.4074 24.5611 17.3839V24.6191C24.413 24.6985 24.2628 24.7758 24.1383 24.9003C24.0761 24.9625 24.0482 25.0419 23.9988 25.1106H16.8366C15.8579 25.1106 15.0659 25.9047 15.0659 26.8813C15.0659 27.86 15.8579 28.652 16.8366 28.652H25.3875L27.2247 30.4892H22.2174C21.2386 30.4892 20.4467 31.2833 20.4467 32.2599C20.4467 33.2365 21.2386 34.0306 22.2174 34.0306H30.7682L43.6117 46.8762H20.1913L12.4174 39.1044C11.7263 38.4133 10.6037 38.4133 9.91263 39.1044C9.22153 39.7956 9.22153 40.9181 9.91263 41.6092L15.1797 46.8762H10.7948L3.02304 39.1044C2.33193 38.4133 1.20944 38.4133 0.518331 39.1044C-0.172777 39.7956 -0.172777 40.9181 0.518331 41.6092L7.53453 48.6254C7.53453 48.634 7.53244 48.6404 7.53244 48.649C7.53244 48.6576 7.53453 48.664 7.53453 48.6726L0.518331 55.6889C-0.172777 56.38 -0.172777 57.5025 0.518331 58.1936C0.863884 58.5392 1.3167 58.713 1.76957 58.713C2.22244 58.713 2.67533 58.5392 3.02088 58.1936L10.7926 50.4197H15.1797L9.91047 55.6889C9.21937 56.38 9.21937 57.5025 9.91047 58.1936C10.256 58.5392 10.7089 58.713 11.1618 58.713C11.6146 58.713 12.0675 58.5392 12.4131 58.1936L20.187 50.4197H43.6074L30.3282 63.6989H21.5649C20.5862 63.6989 19.7942 64.493 19.7942 65.4696C19.7942 66.4483 20.5862 67.2402 21.5649 67.2402H26.7847L24.9475 69.0775H16.1841C15.2054 69.0775 14.4135 69.8716 14.4135 70.8482C14.4135 71.8247 15.2054 72.6189 16.1841 72.6189H23.9086V80.3434C23.9086 81.3221 24.7006 82.1141 25.6793 82.1141C26.6581 82.1141 27.4501 81.32 27.4501 80.3434V71.5801L29.2873 69.7428V74.9626C29.2873 75.9413 30.0793 76.7333 31.058 76.7333C32.0367 76.7333 32.8286 75.9392 32.8286 74.9626V66.1993L46.1078 52.9202V77.4716L38.3339 85.2434C37.6428 85.9345 37.6428 87.0549 38.3339 87.7481C39.025 88.4392 40.1475 88.4392 40.8386 87.7481L46.1056 82.4811V86.866L38.3317 94.6399C37.6406 95.331 37.6406 96.4535 38.3317 97.1446C39.0229 97.8357 40.1454 97.8357 40.8365 97.1446L47.8764 90.1047L54.9162 97.1446C55.2618 97.4902 55.7146 97.664 56.1675 97.664C56.6203 97.664 57.0732 97.4902 57.4188 97.1446C58.1099 96.4535 58.1099 95.331 57.4188 94.6399L49.647 86.866V82.4811L54.9141 87.7481C55.2596 88.0937 55.7125 88.2675 56.1654 88.2675C56.6182 88.2675 57.0711 88.0937 57.4166 87.7481C58.1077 87.057 58.1077 85.9345 57.4166 85.2434L49.6449 77.4716V52.9245L62.894 66.1735V74.7244C62.894 75.7031 63.686 76.4951 64.6647 76.4951C65.6434 76.4951 66.4354 75.701 66.4354 74.7244V69.7149L68.2726 71.5522V80.103C68.2726 81.0817 69.0646 81.8737 70.0433 81.8737C71.022 81.8737 71.814 81.0796 71.814 80.103V72.3763H79.5385C80.5172 72.3763 81.3092 71.5822 81.3092 70.6056C81.3092 69.6291 80.5172 68.835 79.5385 68.835H70.5627L68.7255 66.9977H74.1599C75.1386 66.9977 75.9306 66.2036 75.9306 65.227C75.9306 64.2483 75.1386 63.4563 74.1599 63.4563H65.1841L52.1475 50.4197H76.2762L84.0479 58.1936C84.3935 58.5392 84.8463 58.713 85.2991 58.713C85.752 58.713 86.2049 58.5392 86.5504 58.1936C87.2416 57.5025 87.2416 56.38 86.5504 55.6889L81.2835 50.4197H85.6684L93.4401 58.1936C93.7857 58.5392 94.2385 58.713 94.6913 58.713C95.1442 58.713 95.5971 58.5392 95.9427 58.1936C96.6338 57.5025 96.6338 56.38 95.9427 55.6889L88.9157 48.6469Z" fill="white"/>
</svg>
