<svg width="512" height="61" viewBox="0 0 512 61" fill="none" xmlns="http://www.w3.org/2000/svg">
<path d="M495.94 61H15.16C12.15 61 9.71001 58.55 9.71001 55.55V55.19C9.71001 52.84 7.8 50.9301 5.45 50.9301C2.44 50.9301 0 48.48 0 45.48V15.52C0 12.51 2.45 10.07 5.45 10.07C7.8 10.07 9.71001 8.16 9.71001 5.81V5.45001C9.71001 2.44001 12.16 0 15.16 0H495.94C498.95 0 501.39 2.45001 501.39 5.45001V5.81C501.39 8.16 503.3 10.07 505.65 10.07C508.66 10.07 511.1 12.52 511.1 15.52V45.48C511.1 48.49 508.65 50.9301 505.65 50.9301C503.3 50.9301 501.39 52.84 501.39 55.19V55.55C501.39 58.56 498.94 61 495.94 61Z" fill="url(#paint0_linear_3140_70599)"/>
<path d="M499.171 55.5502V55.1902C499.171 51.6102 502.081 48.7002 505.661 48.7002C507.441 48.7002 508.891 47.2502 508.891 45.4702V15.5102C508.891 13.7302 507.441 12.2802 505.661 12.2802C502.081 12.2802 499.171 9.37022 499.171 5.79022V5.43024C499.171 3.65024 497.721 2.2002 495.941 2.2002H15.1609C13.3809 2.2002 11.9309 3.65024 11.9309 5.43024V5.79022C11.9309 9.37022 9.02093 12.2802 5.44093 12.2802C3.66093 12.2802 2.21094 13.7302 2.21094 15.5102V45.4702C2.21094 47.2502 3.66093 48.7002 5.44093 48.7002C9.02093 48.7002 11.9309 51.6102 11.9309 55.1902V55.5502C11.9309 57.3302 13.3809 58.7802 15.1609 58.7802H495.941C497.721 58.7802 499.171 57.3302 499.171 55.5502ZM15.1609 57.6902C13.9809 57.6902 13.0209 56.7302 13.0209 55.5502V55.1902C13.0209 51.0102 9.62093 47.6102 5.44093 47.6102C4.26093 47.6102 3.30093 46.6502 3.30093 45.4702V15.5102C3.30093 14.3302 4.26093 13.3702 5.44093 13.3702C9.62093 13.3702 13.0209 9.97022 13.0209 5.79022V5.43024C13.0209 4.25024 13.9809 3.29022 15.1609 3.29022H495.941C497.121 3.29022 498.081 4.25024 498.081 5.43024V5.79022C498.081 9.97022 501.481 13.3702 505.661 13.3702C506.841 13.3702 507.801 14.3302 507.801 15.5102V45.4702C507.801 46.6502 506.841 47.6102 505.661 47.6102C501.481 47.6102 498.081 51.0102 498.081 55.1902V55.5502C498.081 56.7302 497.121 57.6902 495.941 57.6902H15.1609Z" fill="white"/>
<g opacity="0.3">
<mask id="mask0_3140_70599" style="mask-type:luminance" maskUnits="userSpaceOnUse" x="3" y="3" width="505" height="55">
<path d="M15.1608 57.69C13.9808 57.69 13.0208 56.73 13.0208 55.55V55.19C13.0208 51.01 9.62078 47.61 5.44078 47.61C4.26078 47.61 3.30078 46.65 3.30078 45.47V15.51C3.30078 14.33 4.26078 13.37 5.44078 13.37C9.62078 13.37 13.0208 9.97004 13.0208 5.79004V5.43005C13.0208 4.25005 13.9808 3.29004 15.1608 3.29004H495.941C497.121 3.29004 498.081 4.25005 498.081 5.43005V5.79004C498.081 9.97004 501.481 13.37 505.661 13.37C506.841 13.37 507.801 14.33 507.801 15.51V45.47C507.801 46.65 506.841 47.61 505.661 47.61C501.481 47.61 498.081 51.01 498.081 55.19V55.55C498.081 56.73 497.121 57.69 495.941 57.69H15.1608Z" fill="white"/>
</mask>
<g mask="url(#mask0_3140_70599)">
<path d="M495.558 60.2798C494.998 60.2798 494.468 60.2198 493.988 60.0998C492.068 59.6198 491.198 57.8598 491.358 56.4598C491.488 55.3098 492.348 54.0598 494.348 54.0098C494.598 54.0098 495.478 54.0398 496.138 54.7598C496.658 55.3198 496.868 56.0998 496.768 57.0898C496.748 57.3298 496.528 57.4998 496.288 57.4798C496.048 57.4598 495.878 57.2398 495.898 56.9998C495.968 56.2698 495.838 55.7198 495.498 55.3498C495.168 54.9998 494.698 54.8798 494.368 54.8798C493.138 54.9098 492.338 55.5298 492.218 56.5498C492.098 57.5898 492.758 58.8798 494.198 59.2498C496.028 59.7098 498.938 59.0998 500.188 57.4798C500.478 57.0998 500.428 56.8098 500.358 56.3498C500.298 55.9798 500.228 55.5598 500.358 55.0698C500.678 53.8898 501.748 53.9498 502.458 53.9798C502.678 53.9898 502.888 53.9898 503.118 53.9998C503.288 54.0098 503.488 54.0198 503.598 53.9898C504.548 53.7198 504.788 52.8598 505.038 51.5798C505.098 51.2598 505.168 50.9298 505.258 50.6298C505.658 49.2798 506.618 48.2898 508.118 47.6998C509.108 47.3098 510.188 47.4298 511.238 47.5498C510.858 47.4098 510.488 47.2398 510.118 47.0798C509.968 47.0098 509.818 46.9498 509.668 46.8798C508.328 46.3098 507.018 45.8298 505.658 46.2698C504.078 46.7898 502.688 48.0198 501.658 49.0398C501.618 49.0798 501.588 49.1198 501.558 49.1598C501.498 49.2398 501.418 49.3398 501.318 49.4398C499.388 51.1098 495.548 52.8998 492.868 50.9698C491.988 50.3398 491.358 49.4798 490.838 48.7198C489.248 46.4098 487.368 44.3998 484.378 45.2798C484.308 45.2998 484.228 45.3398 484.148 45.3698C484.048 45.4098 483.958 45.4598 483.858 45.4898C483.818 45.4998 483.758 45.5298 483.698 45.5498C483.328 45.6898 483.048 45.7798 482.818 45.7498C482.668 45.7298 482.538 45.6298 482.478 45.4898C482.278 45.0198 482.708 44.6498 482.948 44.4498C482.988 44.4198 483.018 44.3898 483.048 44.3598C483.188 44.2098 483.348 44.0998 483.498 43.9898C483.678 43.8598 483.848 43.7298 483.948 43.5898C484.938 42.1298 484.998 40.6798 484.138 39.3998C482.678 37.2498 478.958 35.9698 475.998 36.6098C474.608 36.9098 472.868 37.7598 472.478 40.0798L472.188 41.7798C472.148 42.0198 471.928 42.1798 471.688 42.1398C471.448 42.0998 471.288 41.8798 471.328 41.6398C471.558 40.1898 471.818 38.5398 471.298 37.0898C470.968 36.1698 470.298 35.2498 469.238 34.2898C465.438 30.8298 459.698 29.4098 454.598 30.6598C452.198 31.2498 450.238 32.4598 448.418 34.4598C447.248 35.7498 445.848 37.4898 445.338 39.5098C444.598 42.4398 445.888 45.7698 448.558 47.7898C451.058 49.6898 454.598 50.3898 458.008 49.6798C459.838 49.2998 461.348 48.5598 462.368 47.5398C464.448 45.4798 464.238 42.2098 462.838 40.2398C461.498 38.3598 459.348 37.8898 457.108 38.9998C456.408 39.3498 455.628 40.0898 455.498 40.8298C455.428 41.2198 455.558 41.5698 455.868 41.8998C456.038 42.0698 456.038 42.3498 455.868 42.5198C455.698 42.6898 455.418 42.6898 455.248 42.5198C454.738 41.9998 454.528 41.3698 454.638 40.6998C454.818 39.6098 455.818 38.6798 456.718 38.2298C459.848 36.6798 462.298 37.9998 463.548 39.7498C465.168 42.0098 465.388 45.7798 462.978 48.1698C461.838 49.2998 460.178 50.1198 458.178 50.5398C454.518 51.3098 450.718 50.5398 448.018 48.4898C445.078 46.2598 443.658 42.5698 444.488 39.2998C445.048 37.0898 446.528 35.2398 447.768 33.8798C449.708 31.7398 451.808 30.4498 454.388 29.8098C459.758 28.4898 465.818 29.9998 469.828 33.6498C470.988 34.7098 471.738 35.7398 472.118 36.7998C472.248 37.1698 472.338 37.5498 472.398 37.9298C473.128 36.8398 474.288 36.0898 475.818 35.7598C479.088 35.0498 483.228 36.4998 484.868 38.9198C485.938 40.4998 485.868 42.3298 484.678 44.0898C484.608 44.1998 484.528 44.2898 484.438 44.3698C487.828 43.5298 490.028 45.9798 491.578 48.2298C492.058 48.9298 492.638 49.7198 493.398 50.2698C495.658 51.8898 499.118 50.2198 500.778 48.7898C500.808 48.7598 500.848 48.7098 500.888 48.6598C500.938 48.5898 500.998 48.5098 501.078 48.4298C502.178 47.3498 503.668 46.0298 505.418 45.4598C507.068 44.9198 508.608 45.4798 510.038 46.0898C510.188 46.1598 510.348 46.2198 510.498 46.2898C511.028 46.5298 511.538 46.7498 512.068 46.8998C512.388 46.9898 512.768 47.0098 513.138 47.0398C513.538 47.0598 513.948 47.0898 514.318 47.1998C514.438 47.2398 514.548 47.3298 514.598 47.4498C514.648 47.5698 514.638 47.7098 514.578 47.8198C514.308 48.3498 513.788 48.4698 513.368 48.5098C512.668 48.5898 511.928 48.5098 511.218 48.4198C510.208 48.3098 509.258 48.1998 508.458 48.5098C507.198 48.9998 506.438 49.7698 506.118 50.8698C506.038 51.1298 505.988 51.4298 505.918 51.7498C505.688 52.9298 505.398 54.3998 503.858 54.8298C503.608 54.8998 503.338 54.8898 503.098 54.8698C502.858 54.8598 502.658 54.8598 502.438 54.8498C501.598 54.8098 501.338 54.8498 501.218 55.2998C501.138 55.6098 501.178 55.8798 501.228 56.2098C501.308 56.7098 501.418 57.3298 500.888 58.0098C499.708 59.5398 497.488 60.2698 495.558 60.2698V60.2798Z" fill="#F3F3BC"/>
<path d="M469.201 66.1895C466.761 66.1895 464.181 65.5095 462.331 64.2395C458.361 61.5095 456.531 55.7895 458.341 51.7495C460.311 47.3595 465.171 46.2995 469.061 46.7695C471.131 47.0195 473.881 48.1895 474.851 50.6495C475.901 53.3095 474.211 56.0895 472.091 57.3595C470.671 58.2095 468.681 58.3895 467.271 57.7995C466.251 57.3695 465.581 56.5895 465.321 55.5495C465.121 54.7295 465.271 53.8395 465.721 53.1095C466.151 52.4195 466.821 51.9395 467.601 51.7695C467.951 51.6895 469.131 51.4895 469.891 52.1295C470.151 52.3495 470.451 52.7495 470.421 53.4295C470.401 53.8595 470.161 54.2695 469.771 54.5295C469.401 54.7795 468.961 54.8595 468.571 54.7195C468.341 54.6395 468.221 54.3995 468.291 54.1695C468.361 53.9395 468.611 53.8195 468.841 53.8895C469.031 53.9495 469.201 53.8495 469.271 53.7995C469.431 53.6895 469.531 53.5295 469.541 53.3795C469.551 53.1095 469.481 52.9195 469.321 52.7895C469.031 52.5495 468.411 52.4795 467.781 52.6195C467.231 52.7395 466.751 53.0795 466.451 53.5695C466.121 54.0995 466.021 54.7395 466.161 55.3395C466.351 56.1195 466.831 56.6695 467.601 56.9895C468.761 57.4795 470.461 57.3095 471.641 56.6095C473.451 55.5295 474.901 53.1795 474.031 50.9695C473.201 48.8595 470.771 47.8495 468.941 47.6295C465.361 47.1995 460.891 48.1395 459.121 52.0995C457.501 55.7195 459.231 61.0495 462.811 63.5195C465.621 65.4595 470.271 65.9095 473.161 64.5195C475.311 63.4895 477.081 61.5595 478.141 59.0795C478.231 58.8595 478.491 58.7595 478.711 58.8495C478.931 58.9395 479.031 59.1995 478.941 59.4195C478.271 60.9995 480.001 62.5895 481.131 63.2895C482.871 64.3595 485.291 64.5395 487.431 63.7595C489.421 63.0295 491.141 61.3495 492.281 59.0295C492.391 58.8095 492.651 58.7195 492.861 58.8295C493.081 58.9395 493.171 59.1995 493.061 59.4095C491.821 61.9395 489.931 63.7695 487.721 64.5795C485.331 65.4495 482.631 65.2395 480.661 64.0395C479.491 63.3195 478.461 62.2595 478.071 61.0995C476.931 62.9695 475.351 64.4395 473.521 65.3195C472.281 65.9095 470.751 66.1995 469.171 66.1995L469.201 66.1895Z" fill="#F3F3BC"/>
<path d="M479.95 59.7997C479.85 59.7997 479.75 59.7997 479.65 59.7997C478.44 59.7597 477.37 59.4497 476.56 58.9097C475.56 58.2497 474.93 57.1797 474.93 56.1397C474.93 55.8997 475.12 55.6997 475.36 55.6997C475.6 55.6997 475.79 55.8897 475.8 56.1297C475.8 56.8897 476.28 57.6697 477.04 58.1797C477.72 58.6297 478.63 58.8897 479.68 58.9297C481.93 59.0097 484.01 58.1197 486.23 56.1197C486.41 55.9597 486.68 55.9697 486.85 56.1497C487.01 56.3297 487 56.5997 486.82 56.7697C484.54 58.8097 482.3 59.8097 479.96 59.8097L479.95 59.7997Z" fill="#F3F3BC"/>
<path d="M441.157 57.5499C439.617 57.5499 438.037 57.1299 437.017 56.3599C435.867 55.4899 435.077 54.1999 434.857 52.8099C434.407 49.9599 436.257 46.8899 438.307 45.3299C440.437 43.7199 443.137 43.3799 445.027 43.3799C445.267 43.3799 445.467 43.5699 445.467 43.8199C445.467 44.0699 445.277 44.2599 445.027 44.2599C442.537 44.2599 440.337 44.8899 438.827 46.0399C436.977 47.4399 435.307 50.1699 435.707 52.6899C435.887 53.8499 436.557 54.9399 437.527 55.6799C438.947 56.7499 441.737 57.0299 443.487 56.2599C444.517 55.8099 445.097 55.0899 445.207 54.0999C445.347 52.8099 444.367 51.8999 443.407 51.5999C442.507 51.3199 441.307 51.4599 440.657 52.6699C440.547 52.8799 440.277 52.9599 440.067 52.8499C439.857 52.7399 439.777 52.4699 439.887 52.2599C440.627 50.8699 442.107 50.2899 443.667 50.7699C444.967 51.1699 446.267 52.4099 446.077 54.1899C445.937 55.4899 445.167 56.4799 443.837 57.0499C443.057 57.3899 442.107 57.5499 441.147 57.5499H441.157Z" fill="#F3F3BC"/>
<path d="M442.429 62.48C441.969 62.48 441.499 62.45 441.029 62.38C439.349 62.15 437.779 61.33 436.249 60.55C433.849 59.31 431.579 58.14 429.029 59.17C428.169 59.52 427.349 60.02 426.569 60.51C424.979 61.49 423.339 62.51 421.169 62.39C418.519 62.25 417.359 60.55 416.499 58.73C415.729 57.12 414.949 56.19 413.439 56.57C413.379 56.59 413.299 56.62 413.219 56.67C413.039 56.76 412.819 56.8799 412.519 56.8699C412.359 56.8699 412.209 56.77 412.139 56.63C412.069 56.48 412.079 56.31 412.179 56.18C412.759 55.38 413.579 55.18 414.379 54.98C414.519 54.95 414.659 54.9099 414.799 54.8699C415.299 54.7299 415.779 54.68 416.399 54.7C416.839 54.71 417.199 54.85 417.549 54.98C417.659 55.02 417.779 55.07 417.899 55.1C418.289 55.23 418.609 55.36 418.929 55.5C419.649 55.8 420.229 56.05 421.139 55.98C421.769 55.93 422.369 55.87 422.879 55.63C424.009 55.09 424.709 54.12 425.439 53.09C426.059 52.22 426.709 51.32 427.649 50.66C429.879 49.11 433.099 49.07 435.319 50.57C435.519 50.7 435.569 50.98 435.439 51.18C435.309 51.38 435.029 51.43 434.829 51.3C432.899 50 430.089 50.03 428.149 51.39C427.329 51.96 426.759 52.76 426.149 53.61C425.379 54.69 424.589 55.8 423.249 56.43C422.599 56.74 421.879 56.81 421.199 56.86C420.079 56.94 419.359 56.64 418.589 56.32C418.289 56.19 417.979 56.06 417.629 55.95C417.499 55.91 417.369 55.8599 417.249 55.8099C416.939 55.6899 416.679 55.59 416.379 55.59C415.849 55.57 415.449 55.62 415.029 55.73C414.989 55.74 414.949 55.75 414.909 55.76C416.239 56.19 416.899 57.5899 417.269 58.3699C418.159 60.2399 419.119 61.42 421.199 61.53C423.099 61.63 424.549 60.73 426.089 59.78C426.909 59.27 427.759 58.7499 428.689 58.3699C431.609 57.1899 434.159 58.51 436.629 59.79C438.089 60.54 439.589 61.32 441.129 61.53C443.489 61.86 445.809 61.27 447.339 59.96C447.519 59.8 447.799 59.82 447.949 60.01C448.109 60.19 448.079 60.4699 447.899 60.6199C446.489 61.8299 444.499 62.49 442.399 62.49L442.429 62.48Z" fill="#F3F3BC"/>
<path d="M445.049 66.5899C444.559 66.5899 444.069 66.5499 443.579 66.4699C441.239 66.0699 439.959 64.9999 438.329 63.6399C438.129 63.4799 437.929 63.3099 437.719 63.1399C437.329 62.8199 436.919 62.4299 436.479 62.0099C434.779 60.3799 432.659 58.3498 429.829 58.8698C429.589 58.9098 429.369 58.7599 429.319 58.5199C429.279 58.2799 429.429 58.0599 429.669 58.0099C432.939 57.4199 435.329 59.7098 437.079 61.3798C437.499 61.7798 437.899 62.1699 438.269 62.4699C438.479 62.6399 438.679 62.8099 438.879 62.9699C440.469 64.2899 441.609 65.2399 443.719 65.6099C445.079 65.8399 446.579 65.6999 447.849 65.2099C449.169 64.6999 449.909 63.8699 450.769 62.9099C450.919 62.7399 451.079 62.5699 451.239 62.3899C451.399 62.2099 451.679 62.1998 451.859 62.3698C451.969 62.4798 452.019 62.6299 451.989 62.7699C452.159 62.9899 452.749 63.4499 453.339 63.8299C455.909 65.4399 458.739 63.8599 460.279 61.7099C460.419 61.5099 460.689 61.4699 460.889 61.6099C461.089 61.7499 461.129 62.0199 460.989 62.2199C459.219 64.6899 455.929 66.4799 452.879 64.5699C452.379 64.2599 451.809 63.8599 451.449 63.4699C451.449 63.4699 451.429 63.4898 451.419 63.4998C450.519 64.4998 449.679 65.4399 448.169 66.0299C447.189 66.4099 446.109 66.5999 445.039 66.5999L445.049 66.5899Z" fill="#F3F3BC"/>
<path d="M75.4802 22.1499C74.9202 22.1499 74.3902 22.0899 73.9102 21.9699C71.9902 21.4899 71.1202 19.7299 71.2802 18.3299C71.4102 17.1799 72.2702 15.9299 74.2702 15.8799C74.5202 15.8799 75.4002 15.9099 76.0602 16.6299C76.5802 17.1899 76.7902 17.9699 76.6902 18.9599C76.6702 19.1999 76.4502 19.3699 76.2102 19.3499C75.9702 19.3299 75.8002 19.1099 75.8202 18.8699C75.8902 18.1399 75.7602 17.5899 75.4202 17.2199C75.0902 16.8699 74.6202 16.7499 74.2902 16.7499C73.0602 16.7799 72.2602 17.3999 72.1402 18.4199C72.0202 19.4599 72.6802 20.7499 74.1202 21.1199C75.9502 21.5799 78.8602 20.9699 80.1102 19.3499C80.4002 18.9699 80.3502 18.6799 80.2802 18.2199C80.2202 17.8499 80.1502 17.4299 80.2802 16.9399C80.6002 15.7599 81.6702 15.8199 82.3802 15.8499C82.6002 15.8599 82.8102 15.8599 83.0402 15.8699C83.2102 15.8799 83.4102 15.8899 83.5202 15.8599C84.4702 15.5899 84.7102 14.7299 84.9602 13.4499C85.0202 13.1299 85.0902 12.7999 85.1802 12.4999C85.5802 11.1499 86.5402 10.1599 88.0402 9.56988C89.0302 9.17988 90.1102 9.29992 91.1602 9.41992C90.7802 9.27992 90.4102 9.10989 90.0402 8.94989C89.8902 8.87989 89.7402 8.81988 89.5902 8.74988C88.2502 8.17988 86.9402 7.69989 85.5802 8.13989C84.0002 8.65989 82.6102 9.88991 81.5802 10.9099C81.5402 10.9499 81.5102 10.9899 81.4802 11.0299C81.4202 11.1099 81.3402 11.2099 81.2402 11.3099C79.3102 12.9799 75.4702 14.7699 72.7902 12.8399C71.9102 12.2099 71.2802 11.3499 70.7602 10.5899C69.1702 8.2799 67.2902 6.2699 64.3002 7.1499C64.2302 7.1699 64.1502 7.20993 64.0702 7.23993C63.9702 7.27993 63.8802 7.32992 63.7802 7.35992C63.7402 7.36992 63.6802 7.39992 63.6202 7.41992C63.2502 7.55992 62.9702 7.64987 62.7402 7.61987C62.5902 7.59987 62.4602 7.49992 62.4002 7.35992C62.2002 6.88992 62.6302 6.51988 62.8702 6.31988C62.9102 6.28988 62.9402 6.25992 62.9702 6.22992C63.1102 6.07992 63.2702 5.96992 63.4202 5.85992C63.6002 5.72992 63.7702 5.5999 63.8702 5.4599C64.8602 3.9999 64.9202 2.5499 64.0602 1.2699C62.6002 -0.880104 58.8802 -2.16008 55.9202 -1.52008C54.5302 -1.22008 52.7902 -0.370111 52.4002 1.94989L52.1102 3.6499C52.0702 3.8899 51.8502 4.04989 51.6102 4.00989C51.3702 3.96989 51.2102 3.74989 51.2502 3.50989C51.4802 2.05989 51.7402 0.409899 51.2202 -1.0401C50.8902 -1.9601 50.2202 -2.88009 49.1602 -3.84009C45.3602 -7.30009 39.6202 -8.72009 34.5202 -7.47009C32.1202 -6.88009 30.1602 -5.67011 28.3402 -3.67011C27.1702 -2.38011 25.7702 -0.640118 25.2602 1.37988C24.5202 4.30988 25.8102 7.63991 28.4802 9.65991C30.9802 11.5599 34.5202 12.2599 37.9302 11.5499C39.7602 11.1699 41.2702 10.4299 42.2902 9.40991C44.3702 7.34991 44.1602 4.07992 42.7602 2.10992C41.4202 0.229923 39.2702 -0.240128 37.0302 0.869872C36.3302 1.21987 35.5502 1.95989 35.4202 2.69989C35.3502 3.08989 35.4802 3.4399 35.7902 3.7699C35.9602 3.9399 35.9602 4.21989 35.7902 4.38989C35.6202 4.55989 35.3402 4.55989 35.1702 4.38989C34.6602 3.86989 34.4502 3.23988 34.5602 2.56988C34.7402 1.47988 35.7402 0.549914 36.6402 0.0999136C39.7702 -1.45009 42.2202 -0.130128 43.4702 1.61987C45.0902 3.87987 45.3102 7.64991 42.9002 10.0399C41.7602 11.1699 40.1002 11.9899 38.1002 12.4099C34.4402 13.1799 30.6402 12.4099 27.9402 10.3599C25.0002 8.12992 23.5802 4.43992 24.4102 1.16992C24.9702 -1.04008 26.4502 -2.89012 27.6902 -4.25012C29.6302 -6.39012 31.7302 -7.6801 34.3102 -8.3201C39.6802 -9.6401 45.7402 -8.1301 49.7502 -4.4801C50.9102 -3.4201 51.6602 -2.39008 52.0402 -1.33008C52.1702 -0.960079 52.2602 -0.580074 52.3202 -0.200074C53.0502 -1.29007 54.2102 -2.04012 55.7402 -2.37012C59.0102 -3.08012 63.1502 -1.63008 64.7902 0.789916C65.8602 2.36992 65.7902 4.1999 64.6002 5.9599C64.5302 6.0699 64.4502 6.15993 64.3602 6.23993C67.7502 5.39993 69.9502 7.84991 71.5002 10.0999C71.9802 10.7999 72.5602 11.5899 73.3202 12.1399C75.5802 13.7599 79.0402 12.0899 80.7002 10.6599C80.7302 10.6299 80.7702 10.5799 80.8102 10.5299C80.8602 10.4599 80.9202 10.3799 81.0002 10.2999C82.1002 9.21992 83.5902 7.89989 85.3402 7.32989C86.9902 6.78989 88.5302 7.3499 89.9602 7.9599C90.1102 8.0299 90.2702 8.08991 90.4202 8.15991C90.9502 8.39991 91.4602 8.6199 91.9902 8.7699C92.3102 8.8599 92.6902 8.87991 93.0602 8.90991C93.4602 8.92991 93.8702 8.95988 94.2402 9.06988C94.3602 9.10988 94.4702 9.19988 94.5202 9.31988C94.5702 9.43988 94.5602 9.57988 94.5002 9.68988C94.2302 10.2199 93.7102 10.3399 93.2902 10.3799C92.5902 10.4599 91.8502 10.3799 91.1402 10.2899C90.1302 10.1799 89.1802 10.0699 88.3802 10.3799C87.1202 10.8699 86.3602 11.6399 86.0402 12.7399C85.9602 12.9999 85.9102 13.2999 85.8402 13.6199C85.6102 14.7999 85.3202 16.2699 83.7802 16.6999C83.5302 16.7699 83.2602 16.7599 83.0202 16.7399C82.7802 16.7299 82.5802 16.7299 82.3602 16.7199C81.5202 16.6799 81.2602 16.7199 81.1402 17.1699C81.0602 17.4799 81.1002 17.7499 81.1502 18.0799C81.2302 18.5799 81.3402 19.1999 80.8102 19.8799C79.6302 21.4099 77.4102 22.1399 75.4802 22.1399V22.1499Z" fill="#F3F3BC"/>
<path d="M49.1226 28.0596C46.6826 28.0596 44.1025 27.3797 42.2525 26.1097C38.2825 23.3797 36.4526 17.6596 38.2626 13.6196C40.2326 9.2296 45.0926 8.16962 48.9826 8.63962C51.0526 8.88962 53.8025 10.0596 54.7725 12.5196C55.8225 15.1796 54.1326 17.9597 52.0126 19.2297C50.5926 20.0797 48.6025 20.2597 47.1925 19.6697C46.1725 19.2397 45.5025 18.4597 45.2425 17.4197C45.0425 16.5997 45.1925 15.7097 45.6425 14.9797C46.0725 14.2897 46.7425 13.8096 47.5225 13.6396C47.8725 13.5596 49.0525 13.3596 49.8125 13.9996C50.0725 14.2196 50.3726 14.6197 50.3426 15.2997C50.3226 15.7297 50.0825 16.1396 49.6925 16.3996C49.3225 16.6496 48.8825 16.7296 48.4925 16.5896C48.2625 16.5096 48.1426 16.2696 48.2126 16.0396C48.2826 15.8096 48.5326 15.6896 48.7626 15.7596C48.9526 15.8196 49.1225 15.7197 49.1925 15.6697C49.3525 15.5597 49.4526 15.3996 49.4626 15.2496C49.4726 14.9796 49.4025 14.7896 49.2425 14.6596C48.9525 14.4196 48.3325 14.3497 47.7025 14.4897C47.1525 14.6097 46.6726 14.9496 46.3726 15.4396C46.0426 15.9696 45.9425 16.6096 46.0825 17.2096C46.2725 17.9896 46.7525 18.5397 47.5225 18.8597C48.6825 19.3497 50.3825 19.1797 51.5625 18.4797C53.3725 17.3997 54.8225 15.0496 53.9525 12.8396C53.1225 10.7296 50.6925 9.71961 48.8625 9.49961C45.2825 9.06961 40.8126 10.0096 39.0426 13.9696C37.4226 17.5896 39.1526 22.9196 42.7326 25.3896C45.5426 27.3296 50.1925 27.7796 53.0825 26.3896C55.2325 25.3596 57.0025 23.4296 58.0625 20.9496C58.1525 20.7296 58.4125 20.6296 58.6325 20.7196C58.8525 20.8096 58.9525 21.0696 58.8625 21.2896C58.1925 22.8696 59.9225 24.4596 61.0525 25.1596C62.7925 26.2296 65.2126 26.4096 67.3526 25.6296C69.3426 24.8996 71.0625 23.2196 72.2025 20.8996C72.3125 20.6796 72.5725 20.5896 72.7825 20.6996C73.0025 20.8096 73.0926 21.0696 72.9826 21.2796C71.7426 23.8096 69.8525 25.6396 67.6425 26.4496C65.2525 27.3196 62.5525 27.1096 60.5825 25.9096C59.4125 25.1896 58.3825 24.1296 57.9925 22.9696C56.8525 24.8396 55.2725 26.3096 53.4425 27.1896C52.2025 27.7796 50.6726 28.0696 49.0926 28.0696L49.1226 28.0596Z" fill="#F3F3BC"/>
<path d="M59.8716 21.6801C59.7716 21.6801 59.6716 21.6801 59.5716 21.6801C58.3616 21.6401 57.2916 21.3301 56.4816 20.7901C55.4816 20.1301 54.8516 19.0601 54.8516 18.0201C54.8516 17.7801 55.0416 17.5801 55.2816 17.5801C55.5216 17.5801 55.7116 17.7701 55.7216 18.0101C55.7216 18.7701 56.2016 19.5501 56.9616 20.0601C57.6416 20.5101 58.5516 20.7701 59.6016 20.8101C61.8516 20.8901 63.9316 20.0001 66.1516 18.0001C66.3316 17.8401 66.6016 17.8501 66.7716 18.0301C66.9316 18.2101 66.9216 18.4801 66.7416 18.6501C64.4616 20.6901 62.2216 21.6901 59.8816 21.6901L59.8716 21.6801Z" fill="#F3F3BC"/>
<path d="M21.0791 19.4298C19.5391 19.4298 17.9591 19.0098 16.9391 18.2398C15.7891 17.3698 14.9991 16.0798 14.7791 14.6898C14.3291 11.8398 16.1791 8.76978 18.2291 7.20978C20.3591 5.59978 23.0591 5.25977 24.9491 5.25977C25.1891 5.25977 25.3891 5.44977 25.3891 5.69977C25.3891 5.94977 25.1991 6.13977 24.9491 6.13977C22.4591 6.13977 20.2591 6.7698 18.7491 7.9198C16.8991 9.3198 15.2291 12.0498 15.6291 14.5698C15.8091 15.7298 16.4791 16.8198 17.4491 17.5598C18.8691 18.6298 21.6591 18.9098 23.4091 18.1398C24.4391 17.6898 25.0191 16.9698 25.1291 15.9798C25.2691 14.6898 24.2891 13.7798 23.3291 13.4798C22.4291 13.1998 21.2291 13.3398 20.5791 14.5498C20.4691 14.7598 20.1991 14.8398 19.9891 14.7298C19.7791 14.6198 19.6991 14.3498 19.8091 14.1398C20.5491 12.7498 22.0291 12.1698 23.5891 12.6498C24.8891 13.0498 26.1891 14.2898 25.9991 16.0698C25.8591 17.3698 25.0891 18.3598 23.7591 18.9298C22.9791 19.2698 22.0291 19.4298 21.0691 19.4298H21.0791Z" fill="#F3F3BC"/>
<path d="M22.3508 24.3501C21.8908 24.3501 21.4208 24.3201 20.9508 24.2501C19.2708 24.0201 17.7008 23.2001 16.1708 22.4201C13.7708 21.1801 11.5008 20.0101 8.95075 21.0401C8.09075 21.3901 7.27076 21.8901 6.49076 22.3801C4.90076 23.3601 3.26077 24.3801 1.09077 24.2601C-1.55923 24.1201 -2.71925 22.4201 -3.57925 20.6001C-4.34925 18.9901 -5.12924 18.0601 -6.63924 18.4401C-6.69924 18.4601 -6.77924 18.4901 -6.85924 18.5401C-7.03924 18.6301 -7.25924 18.7501 -7.55924 18.7401C-7.71924 18.7401 -7.86925 18.6401 -7.93925 18.5001C-8.00925 18.3501 -7.99924 18.1801 -7.89924 18.0501C-7.31924 17.2501 -6.49924 17.0501 -5.69924 16.8501C-5.55924 16.8201 -5.41924 16.7801 -5.27924 16.7401C-4.77924 16.6001 -4.29924 16.5501 -3.67924 16.5701C-3.23924 16.5801 -2.87924 16.7201 -2.52924 16.8501C-2.41924 16.8901 -2.29924 16.9401 -2.17924 16.9701C-1.78924 17.1001 -1.46924 17.2301 -1.14924 17.3701C-0.429237 17.6701 0.150755 17.9201 1.06075 17.8501C1.69075 17.8001 2.29076 17.7401 2.80076 17.5001C3.93076 16.9601 4.63076 15.9901 5.36076 14.9601C5.98076 14.0901 6.63076 13.1901 7.57076 12.5301C9.80076 10.9801 13.0208 10.9401 15.2408 12.4401C15.4408 12.5701 15.4908 12.8501 15.3608 13.0501C15.2308 13.2501 14.9508 13.3001 14.7508 13.1701C12.8208 11.8701 10.0108 11.9001 8.07076 13.2601C7.25076 13.8301 6.68076 14.6301 6.07076 15.4801C5.30076 16.5601 4.51076 17.6701 3.17076 18.3001C2.52076 18.6101 1.80077 18.6801 1.12077 18.7301C0.000767589 18.8101 -0.719234 18.5101 -1.48923 18.1901C-1.78923 18.0601 -2.09924 17.9301 -2.44924 17.8201C-2.57924 17.7801 -2.70925 17.7301 -2.82925 17.6801C-3.13925 17.5601 -3.39924 17.4601 -3.69924 17.4601C-4.22924 17.4401 -4.62925 17.4901 -5.04925 17.6001C-5.08925 17.6101 -5.12924 17.6201 -5.16924 17.6301C-3.83924 18.0601 -3.17924 19.4601 -2.80924 20.2401C-1.91924 22.1101 -0.959232 23.2901 1.12077 23.4001C3.02077 23.5001 4.47077 22.6001 6.01077 21.6501C6.83077 21.1401 7.68076 20.6201 8.61076 20.2401C11.5308 19.0601 14.0808 20.3801 16.5508 21.6601C18.0108 22.4101 19.5108 23.1901 21.0508 23.4001C23.4108 23.7301 25.7308 23.1401 27.2608 21.8301C27.4408 21.6701 27.7208 21.6901 27.8708 21.8801C28.0308 22.0601 28.0008 22.3401 27.8208 22.4901C26.4108 23.7001 24.4208 24.3601 22.3208 24.3601L22.3508 24.3501Z" fill="#F3F3BC"/>
<path d="M24.9708 28.46C24.4808 28.46 23.9908 28.42 23.5008 28.34C21.1608 27.94 19.8808 26.87 18.2508 25.51C18.0508 25.35 17.8508 25.18 17.6408 25.01C17.2508 24.69 16.8408 24.3 16.4008 23.88C14.7008 22.25 12.5808 20.22 9.75081 20.74C9.51081 20.78 9.29081 20.63 9.24081 20.39C9.20081 20.15 9.35082 19.93 9.59082 19.88C12.8608 19.29 15.2508 21.58 17.0008 23.25C17.4208 23.65 17.8208 24.04 18.1908 24.34C18.4008 24.51 18.6008 24.68 18.8008 24.84C20.3908 26.16 21.5308 27.11 23.6408 27.48C25.0008 27.71 26.5008 27.57 27.7708 27.08C29.0908 26.57 29.8308 25.74 30.6908 24.78C30.8408 24.61 31.0008 24.44 31.1608 24.26C31.3208 24.08 31.6008 24.07 31.7808 24.24C31.8908 24.35 31.9408 24.5 31.9108 24.64C32.0808 24.86 32.6708 25.32 33.2608 25.7C35.8308 27.31 38.6608 25.73 40.2008 23.58C40.3408 23.38 40.6108 23.34 40.8108 23.48C41.0108 23.62 41.0508 23.89 40.9108 24.09C39.1408 26.56 35.8508 28.35 32.8008 26.44C32.3008 26.13 31.7308 25.73 31.3708 25.34C31.3708 25.34 31.3508 25.36 31.3408 25.37C30.4408 26.37 29.6008 27.31 28.0908 27.9C27.1108 28.28 26.0308 28.47 24.9608 28.47L24.9708 28.46Z" fill="#F3F3BC"/>
<path d="M485.423 17.2399C484.583 17.2399 483.753 17.0399 483.013 16.6399C482.793 16.5199 482.603 16.3799 482.423 16.2399C482.023 15.9399 481.753 15.7599 481.373 15.7999C481.193 15.8199 481.013 15.8399 480.843 15.8599C479.653 15.9999 478.523 16.1299 477.273 15.4599C474.803 14.1399 474.693 11.4199 475.643 9.44987C476.863 6.90987 479.553 5.50988 482.333 5.95988C484.123 6.24988 485.163 8.02987 484.973 9.44987C484.843 10.4399 484.083 11.4199 482.343 11.2399C482.103 11.2099 481.933 10.9999 481.953 10.7599C481.983 10.5199 482.193 10.3499 482.433 10.3699C483.403 10.4699 484.003 10.1099 484.103 9.32988C484.243 8.30988 483.453 7.01987 482.193 6.81987C479.793 6.42987 477.483 7.63988 476.423 9.82988C475.623 11.4899 475.703 13.6399 477.673 14.6899C478.683 15.2299 479.633 15.1199 480.733 14.9899C480.913 14.9699 481.093 14.9499 481.273 14.9299C482.013 14.8599 482.503 15.2199 482.933 15.5399C483.103 15.6599 483.253 15.7799 483.423 15.8699C484.823 16.6299 486.593 16.5099 488.043 15.5599C489.763 14.4299 490.743 12.0999 490.363 10.0199C490.193 9.08988 489.583 7.43987 487.383 6.94987C487.153 6.89987 487.003 6.65992 487.053 6.42992C487.103 6.19992 487.333 6.0499 487.573 6.0999C489.533 6.5399 490.873 7.90991 491.223 9.85991C491.663 12.2699 490.523 14.9699 488.523 16.2799C487.563 16.9099 486.473 17.2299 485.413 17.2299L485.423 17.2399Z" fill="#F3F3BC"/>
<path d="M465.482 10.9397C465.482 10.9397 465.442 10.9397 465.422 10.9397C465.182 10.9097 465.012 10.6898 465.042 10.4498C465.622 6.00976 469.912 0.959757 475.392 0.509757C476.462 0.419757 477.422 0.469781 478.252 0.659781C478.462 0.709781 478.662 0.769774 478.842 0.839774C479.372 1.01977 479.693 1.1098 480.053 0.929801C483.293 -0.710199 487.562 -0.000206709 490.212 2.60979C492.392 4.75979 492.862 7.61978 491.472 10.4698C491.362 10.6898 491.102 10.7798 490.892 10.6698C490.672 10.5598 490.582 10.2998 490.692 10.0898C491.902 7.60977 491.502 5.1098 489.602 3.2398C487.242 0.919798 483.312 0.259769 480.442 1.70977C479.732 2.06977 479.112 1.85979 478.562 1.66979C478.382 1.60979 478.223 1.54977 478.053 1.51977C477.303 1.34977 476.432 1.29975 475.452 1.37975C470.392 1.78975 466.432 6.45974 465.892 10.5597C465.862 10.7797 465.672 10.9397 465.462 10.9397H465.482Z" fill="#F3F3BC"/>
<path d="M480.472 33.3599C476.732 33.3599 472.782 32.2999 469.372 30.2699C464.652 27.4499 461.682 23.2099 461.222 18.6399C460.892 15.3699 462.072 11.5199 464.972 10.4799C466.772 9.82992 469.942 10.0599 470.962 12.1799C471.382 13.0599 471.332 14.0399 470.812 14.9399C470.162 16.0799 468.852 16.9099 467.552 17.0099C466.762 17.0699 465.912 16.7399 465.382 16.1499C464.932 15.6499 464.762 15.0199 464.882 14.3699C464.932 14.1299 465.152 13.9799 465.392 14.0199C465.632 14.0699 465.782 14.2899 465.742 14.5299C465.652 15.0099 465.852 15.3499 466.032 15.5599C466.372 15.9399 466.952 16.1699 467.482 16.1299C468.502 16.0499 469.532 15.3899 470.052 14.4899C470.312 14.0299 470.552 13.3199 470.172 12.5399C469.402 10.9399 466.792 10.7299 465.262 11.2799C462.812 12.1599 461.802 15.6699 462.092 18.5299C462.522 22.8299 465.342 26.8299 469.822 29.4999C475.112 32.6599 481.722 33.3699 486.682 31.2999C488.312 30.6199 489.822 29.6499 491.272 28.6999C492.552 27.8699 493.882 27.0099 495.312 26.3399C497.852 25.1499 500.772 24.8599 503.312 25.5699C503.972 25.7499 504.612 25.9799 505.232 26.2099C507.102 26.8799 508.862 27.5199 510.852 26.6899C511.702 26.3399 512.822 25.4899 513.392 24.6299C512.682 24.8999 511.852 24.9999 511.002 24.8799C509.152 24.6299 507.652 23.6499 506.192 22.6999C505.322 22.1299 504.492 21.5899 503.592 21.1999C501.072 20.0899 498.572 20.6399 496.912 21.2999C495.662 21.7999 494.502 22.5199 493.382 23.2099C492.722 23.6199 492.032 24.0499 491.332 24.4299C487.592 26.4499 481.812 27.0999 477.942 23.7599C474.952 21.1799 473.782 16.6099 475.232 13.1399C475.322 12.9199 475.582 12.8099 475.802 12.9099C476.022 12.9999 476.132 13.2599 476.032 13.4799C474.722 16.6199 475.782 20.7599 478.502 23.1099C482.052 26.1799 487.422 25.5499 490.902 23.6699C491.582 23.2999 492.262 22.8799 492.912 22.4799C494.062 21.7699 495.262 21.0299 496.582 20.4999C499.182 19.4699 501.722 19.4299 503.932 20.4099C504.892 20.8299 505.792 21.4199 506.652 21.9799C508.092 22.9199 509.442 23.7999 511.102 24.0299C512.192 24.1799 513.222 23.9199 513.882 23.3399C514.002 23.2399 514.162 23.1999 514.302 23.2499C514.452 23.2999 514.562 23.4199 514.592 23.5699C514.592 23.5999 514.602 23.6399 514.602 23.6699C514.572 25.3699 512.352 27.0099 511.162 27.4999C508.862 28.4599 506.852 27.7299 504.912 27.0299C504.302 26.8099 503.682 26.5899 503.052 26.4099C500.702 25.7599 498.012 26.0299 495.652 27.1299C494.272 27.7799 492.972 28.6199 491.712 29.4399C490.222 30.3999 488.682 31.3999 486.982 32.1099C484.992 32.9399 482.762 33.3399 480.442 33.3399L480.472 33.3599Z" fill="#F3F3BC"/>
<path d="M488.012 23.3999C486.812 23.3999 485.612 23.2199 484.392 22.7699C482.192 21.9499 480.472 20.5099 479.792 18.9199C479.322 17.8299 479.332 16.7098 479.812 15.5798C479.902 15.3598 480.162 15.2599 480.382 15.3499C480.602 15.4399 480.702 15.6999 480.612 15.9199C480.232 16.8199 480.222 17.7098 480.592 18.5798C481.292 20.1998 483.172 21.3899 484.702 21.9599C488.132 23.2399 491.622 22.1298 494.992 21.0598C495.442 20.9198 495.882 20.7798 496.332 20.6398C496.562 20.5698 496.802 20.6999 496.872 20.9299C496.942 21.1599 496.812 21.3999 496.582 21.4699C496.142 21.5999 495.702 21.7398 495.252 21.8798C492.882 22.6298 490.462 23.3898 488.002 23.3898L488.012 23.3999Z" fill="#F3F3BC"/>
<path d="M481.023 30.9999C476.343 30.9999 472.583 29.6999 469.833 27.1299C465.093 22.6999 465.062 16.1499 465.062 15.8699C465.062 15.6299 465.263 15.4399 465.503 15.4399C465.743 15.4399 465.932 15.6399 465.932 15.8799C465.932 15.9399 465.972 22.3399 470.432 26.4999C473.382 29.2499 477.583 30.4499 482.923 30.0599C483.163 30.0499 483.373 30.22 483.393 30.46C483.413 30.7 483.232 30.91 482.992 30.93C482.322 30.98 481.663 30.9999 481.023 30.9999Z" fill="#F3F3BC"/>
<path d="M22.431 47.0597C21.591 47.0597 20.761 46.8597 20.021 46.4597C19.801 46.3397 19.611 46.1997 19.431 46.0597C19.031 45.7597 18.761 45.5797 18.381 45.6197C18.201 45.6397 18.021 45.6597 17.851 45.6797C16.661 45.8197 15.531 45.9497 14.281 45.2797C11.811 43.9597 11.701 41.2397 12.651 39.2697C13.871 36.7297 16.561 35.3297 19.341 35.7797C21.131 36.0697 22.171 37.8497 21.981 39.2697C21.851 40.2597 21.091 41.2397 19.351 41.0597C19.111 41.0297 18.941 40.8197 18.961 40.5797C18.991 40.3397 19.201 40.1697 19.441 40.1897C20.411 40.2897 21.011 39.9297 21.111 39.1497C21.251 38.1297 20.461 36.8397 19.201 36.6397C16.801 36.2497 14.491 37.4597 13.431 39.6497C12.631 41.3097 12.711 43.4597 14.681 44.5097C15.691 45.0497 16.641 44.9397 17.741 44.8097C17.921 44.7897 18.101 44.7697 18.281 44.7497C19.021 44.6797 19.511 45.0397 19.941 45.3597C20.111 45.4797 20.261 45.5997 20.431 45.6897C21.831 46.4497 23.601 46.3297 25.051 45.3797C26.771 44.2497 27.751 41.9197 27.371 39.8397C27.201 38.9097 26.591 37.2597 24.391 36.7697C24.161 36.7197 24.011 36.4797 24.061 36.2497C24.111 36.0197 24.341 35.8697 24.581 35.9197C26.541 36.3597 27.881 37.7297 28.231 39.6797C28.671 42.0897 27.531 44.7897 25.531 46.0997C24.571 46.7297 23.481 47.0497 22.421 47.0497L22.431 47.0597Z" fill="#F3F3BC"/>
<path d="M2.49031 40.7699C2.49031 40.7699 2.45031 40.7699 2.43031 40.7699C2.19031 40.7399 2.02031 40.5199 2.05031 40.2799C2.63031 35.8399 6.92031 30.7899 12.4003 30.3399C13.4703 30.2499 14.4303 30.2999 15.2603 30.4899C15.4703 30.5399 15.6703 30.5999 15.8503 30.6699C16.3803 30.8499 16.7003 30.9399 17.0603 30.7599C20.3003 29.1199 24.5703 29.8299 27.2203 32.4399C29.4003 34.5899 29.8703 37.4499 28.4803 40.2999C28.3703 40.5199 28.1103 40.6099 27.9003 40.4999C27.6803 40.3899 27.5903 40.1299 27.7003 39.9199C28.9103 37.4399 28.5103 34.9399 26.6103 33.0699C24.2503 30.7499 20.3203 30.0899 17.4503 31.5399C16.7403 31.8999 16.1203 31.6899 15.5703 31.4999C15.3903 31.4399 15.2303 31.3799 15.0603 31.3499C14.3103 31.1799 13.4403 31.1299 12.4603 31.2099C7.40031 31.6199 3.44031 36.2899 2.90031 40.3899C2.87031 40.6099 2.68031 40.7699 2.47031 40.7699H2.49031Z" fill="#F3F3BC"/>
<path d="M17.4718 63.1798C13.7318 63.1798 9.7818 62.1197 6.3718 60.0897C1.6518 57.2697 -1.31821 53.0297 -1.77821 48.4597C-2.10821 45.1897 -0.928213 41.3398 1.97179 40.2998C3.77179 39.6498 6.94179 39.8797 7.96179 41.9997C8.38179 42.8797 8.33178 43.8597 7.81178 44.7597C7.16178 45.8997 5.85179 46.7297 4.55179 46.8297C3.76179 46.8897 2.91179 46.5597 2.38179 45.9697C1.93179 45.4697 1.76179 44.8397 1.88179 44.1897C1.93179 43.9497 2.15179 43.7997 2.39179 43.8397C2.63179 43.8897 2.78179 44.1097 2.74179 44.3497C2.65179 44.8297 2.85179 45.1697 3.03179 45.3797C3.37179 45.7597 3.9518 45.9897 4.4818 45.9497C5.5018 45.8697 6.53179 45.2097 7.05179 44.3097C7.31179 43.8497 7.55178 43.1398 7.17178 42.3598C6.40178 40.7598 3.7918 40.5497 2.2618 41.0997C-0.188204 41.9797 -1.1982 45.4897 -0.908202 48.3497C-0.478202 52.6497 2.34179 56.6497 6.82179 59.3197C12.1118 62.4797 18.7218 63.1897 23.6818 61.1197C25.3118 60.4397 26.8218 59.4697 28.2718 58.5197C29.5518 57.6897 30.8818 56.8297 32.3118 56.1597C34.8518 54.9697 37.7718 54.6797 40.3118 55.3897C40.9718 55.5697 41.6118 55.7997 42.2318 56.0297C44.1018 56.6997 45.8618 57.3397 47.8518 56.5097C48.7018 56.1597 49.8218 55.3097 50.3918 54.4497C49.6818 54.7197 48.8518 54.8197 48.0018 54.6997C46.1518 54.4497 44.6518 53.4697 43.1918 52.5197C42.3218 51.9497 41.4918 51.4097 40.5918 51.0197C38.0718 49.9097 35.5718 50.4597 33.9118 51.1197C32.6618 51.6197 31.5018 52.3397 30.3818 53.0297C29.7218 53.4397 29.0318 53.8697 28.3318 54.2497C24.5918 56.2697 18.8118 56.9197 14.9418 53.5797C11.9518 50.9997 10.7818 46.4297 12.2318 42.9597C12.3218 42.7397 12.5818 42.6297 12.8018 42.7297C13.0218 42.8197 13.1318 43.0798 13.0318 43.2998C11.7218 46.4398 12.7818 50.5798 15.5018 52.9298C19.0518 55.9998 24.4218 55.3698 27.9018 53.4898C28.5818 53.1198 29.2618 52.6998 29.9118 52.2998C31.0618 51.5898 32.2618 50.8497 33.5818 50.3197C36.1818 49.2897 38.7218 49.2497 40.9318 50.2297C41.8918 50.6497 42.7918 51.2398 43.6518 51.7998C45.0918 52.7398 46.4418 53.6197 48.1018 53.8497C49.1918 53.9997 50.2218 53.7397 50.8818 53.1597C51.0018 53.0597 51.1618 53.0197 51.3018 53.0697C51.4518 53.1197 51.5618 53.2397 51.5918 53.3897C51.5918 53.4197 51.6018 53.4598 51.6018 53.4898C51.5718 55.1898 49.3518 56.8297 48.1618 57.3197C45.8618 58.2797 43.8518 57.5497 41.9118 56.8497C41.3018 56.6297 40.6818 56.4097 40.0518 56.2297C37.7018 55.5797 35.0118 55.8497 32.6518 56.9497C31.2718 57.5997 29.9718 58.4397 28.7118 59.2597C27.2218 60.2197 25.6818 61.2198 23.9818 61.9298C21.9918 62.7598 19.7618 63.1597 17.4418 63.1597L17.4718 63.1798Z" fill="#F3F3BC"/>
<path d="M25.0234 53.2197C23.8234 53.2197 22.6234 53.0397 21.4034 52.5897C19.2034 51.7697 17.4834 50.3297 16.8034 48.7397C16.3334 47.6497 16.3434 46.5297 16.8234 45.3997C16.9134 45.1797 17.1734 45.0797 17.3934 45.1697C17.6134 45.2597 17.7134 45.5197 17.6234 45.7397C17.2434 46.6397 17.2334 47.5297 17.6034 48.3997C18.3034 50.0197 20.1834 51.2097 21.7134 51.7797C25.1434 53.0597 28.6334 51.9497 32.0034 50.8797C32.4534 50.7397 32.8934 50.5997 33.3434 50.4597C33.5734 50.3897 33.8134 50.5196 33.8834 50.7496C33.9534 50.9796 33.8234 51.2197 33.5934 51.2897C33.1534 51.4197 32.7134 51.5597 32.2634 51.6997C29.8934 52.4497 27.4734 53.2097 25.0134 53.2097L25.0234 53.2197Z" fill="#F3F3BC"/>
<path d="M18.0303 60.8198C13.3503 60.8198 9.59032 59.5198 6.84032 56.9498C2.10032 52.5198 2.07031 45.9698 2.07031 45.6898C2.07031 45.4498 2.27031 45.2598 2.51031 45.2598C2.75031 45.2598 2.94031 45.4598 2.94031 45.6998C2.94031 45.7598 2.98031 52.1598 7.44031 56.3198C10.3903 59.0698 14.5903 60.2698 19.9303 59.8798C20.1703 59.8698 20.3803 60.0398 20.4003 60.2798C20.4203 60.5198 20.2403 60.7298 20.0003 60.7498C19.3303 60.7998 18.6703 60.8198 18.0303 60.8198Z" fill="#F3F3BC"/>
</g>
</g>
<path d="M107.488 42L103.104 19.44H107.232L110.432 37.936H109.152L118.72 19.44H121.792L124.992 37.936H123.808L133.184 19.44H137.376L125.76 42H122.336L119.136 24.656H119.808L110.912 42H107.488ZM142.964 42.32C141.065 42.32 139.486 41.9467 138.228 41.2C136.99 40.4533 136.116 39.408 135.604 38.064C135.092 36.6987 134.974 35.12 135.252 33.328C135.508 31.7067 136.02 30.32 136.788 29.168C137.577 27.9947 138.58 27.0987 139.796 26.48C141.012 25.84 142.398 25.52 143.956 25.52C145.513 25.52 146.793 25.8613 147.796 26.544C148.82 27.2267 149.545 28.1653 149.972 29.36C150.398 30.5333 150.484 31.8987 150.228 33.456L150.068 34.48H138.324L138.644 32.368H147.572L146.964 32.88C147.198 31.3653 147.038 30.224 146.484 29.456C145.95 28.6667 145.054 28.272 143.796 28.272C142.9 28.272 142.121 28.4747 141.46 28.88C140.82 29.2853 140.297 29.8507 139.892 30.576C139.508 31.28 139.252 32.08 139.124 32.976L138.964 34.032C138.729 35.696 138.974 36.9867 139.7 37.904C140.446 38.8 141.705 39.248 143.476 39.248C144.308 39.248 145.118 39.1307 145.908 38.896C146.718 38.64 147.497 38.2347 148.244 37.68L149.396 40.368C148.521 41.008 147.529 41.4987 146.42 41.84C145.31 42.16 144.158 42.32 142.964 42.32ZM152.271 42L156.015 18.448H160.015L156.271 42H152.271ZM160.615 42L164.359 18.448H168.359L164.615 42H160.615ZM175.007 42.32C173.684 42.32 172.457 42.1707 171.327 41.872C170.217 41.552 169.321 41.1253 168.639 40.592L169.823 37.904C170.569 38.3733 171.401 38.7573 172.319 39.056C173.257 39.3333 174.217 39.472 175.199 39.472C176.244 39.472 177.055 39.3013 177.631 38.96C178.228 38.5973 178.569 38.1173 178.655 37.52C178.74 36.9867 178.633 36.56 178.335 36.24C178.036 35.8987 177.535 35.6747 176.831 35.568L174.239 35.152C172.681 34.896 171.583 34.3413 170.943 33.488C170.324 32.6347 170.111 31.568 170.303 30.288C170.473 29.264 170.879 28.4 171.519 27.696C172.18 26.992 173.012 26.4587 174.015 26.096C175.039 25.712 176.169 25.52 177.407 25.52C178.601 25.52 179.7 25.6693 180.703 25.968C181.705 26.2453 182.527 26.64 183.167 27.152L181.887 29.776C181.311 29.3493 180.617 29.008 179.807 28.752C179.017 28.4747 178.217 28.336 177.407 28.336C176.34 28.336 175.519 28.528 174.943 28.912C174.367 29.296 174.025 29.7867 173.919 30.384C173.833 30.896 173.919 31.3333 174.175 31.696C174.431 32.0373 174.889 32.2613 175.551 32.368L178.207 32.816C179.807 33.072 180.927 33.6053 181.567 34.416C182.228 35.2053 182.452 36.24 182.239 37.52C182.089 38.544 181.684 39.4187 181.023 40.144C180.361 40.848 179.519 41.392 178.495 41.776C177.471 42.1387 176.308 42.32 175.007 42.32ZM183.902 48.912L186.91 29.872C187.016 29.2107 187.102 28.5387 187.166 27.856C187.23 27.1733 187.272 26.5013 187.294 25.84H191.166L190.974 29.232H190.494C191.027 28.1013 191.795 27.2053 192.798 26.544C193.822 25.8613 195.048 25.52 196.478 25.52C197.971 25.52 199.219 25.8827 200.222 26.608C201.246 27.3333 201.971 28.3573 202.398 29.68C202.824 31.0027 202.888 32.5707 202.59 34.384C202.163 36.9867 201.192 38.96 199.678 40.304C198.184 41.648 196.392 42.32 194.302 42.32C192.958 42.32 191.816 41.9893 190.878 41.328C189.939 40.6667 189.374 39.7813 189.182 38.672H189.534L187.902 48.912H183.902ZM193.694 39.248C194.952 39.248 196.008 38.8213 196.862 37.968C197.736 37.0933 198.312 35.792 198.59 34.064C198.888 32.1867 198.718 30.8107 198.078 29.936C197.459 29.04 196.488 28.592 195.166 28.592C193.928 28.592 192.862 29.0293 191.966 29.904C191.091 30.7573 190.515 32.0373 190.238 33.744C189.96 35.6213 190.142 37.008 190.782 37.904C191.422 38.8 192.392 39.248 193.694 39.248ZM204.802 42L206.722 29.968C206.828 29.2853 206.914 28.592 206.978 27.888C207.063 27.184 207.116 26.5013 207.138 25.84H211.01L210.786 30.256H210.082C210.466 29.1893 210.956 28.304 211.554 27.6C212.172 26.896 212.876 26.3733 213.666 26.032C214.455 25.6907 215.287 25.52 216.162 25.52C216.46 25.52 216.738 25.5413 216.994 25.584C217.25 25.6053 217.495 25.6373 217.73 25.68L217.122 29.232C216.78 29.0827 216.46 28.9867 216.162 28.944C215.884 28.9013 215.532 28.88 215.106 28.88C214.252 28.88 213.484 29.0613 212.802 29.424C212.119 29.7867 211.554 30.3093 211.106 30.992C210.658 31.6533 210.359 32.4533 210.21 33.392L208.834 42H204.802ZM217.396 42L219.956 25.84H223.956L221.396 42H217.396ZM220.212 22.8L220.852 18.896H225.3L224.66 22.8H220.212ZM225.74 42L227.66 29.872C227.766 29.2107 227.852 28.5387 227.916 27.856C227.98 27.1733 228.022 26.5013 228.044 25.84H231.916L231.724 29.04L231.308 29.072C231.948 27.8987 232.801 27.0133 233.868 26.416C234.956 25.8187 236.172 25.52 237.516 25.52C239.478 25.52 240.854 26.096 241.644 27.248C242.433 28.3787 242.646 30.0853 242.284 32.368L240.78 42H236.78L238.284 32.368C238.497 31.0453 238.38 30.096 237.932 29.52C237.505 28.944 236.79 28.656 235.788 28.656C234.55 28.656 233.526 29.04 232.716 29.808C231.905 30.5547 231.404 31.5573 231.212 32.816L229.74 42H225.74ZM251.613 49.168C250.141 49.168 248.829 49.008 247.677 48.688C246.525 48.368 245.512 47.8773 244.637 47.216L245.789 44.304C246.344 44.7093 246.92 45.04 247.517 45.296C248.136 45.5733 248.786 45.776 249.469 45.904C250.152 46.032 250.856 46.096 251.581 46.096C253.117 46.096 254.301 45.7227 255.133 44.976C255.965 44.2507 256.488 43.2053 256.701 41.84L257.309 37.968H257.661C257.192 39.056 256.434 39.9307 255.389 40.592C254.344 41.2533 253.128 41.584 251.741 41.584C250.29 41.584 249.042 41.2427 247.997 40.56C246.973 39.8773 246.237 38.896 245.789 37.616C245.362 36.336 245.288 34.8213 245.565 33.072C245.97 30.6187 246.92 28.752 248.413 27.472C249.906 26.1707 251.72 25.52 253.853 25.52C255.218 25.52 256.37 25.8507 257.309 26.512C258.248 27.152 258.802 28.0267 258.973 29.136L258.749 28.944L259.549 25.84H263.421C263.229 26.5013 263.058 27.1733 262.909 27.856C262.76 28.5387 262.632 29.2107 262.525 29.872L260.701 41.36C260.296 43.8987 259.325 45.8293 257.789 47.152C256.274 48.496 254.216 49.168 251.613 49.168ZM253.021 38.544C254.322 38.544 255.41 38.1173 256.285 37.264C257.16 36.3893 257.714 35.1733 257.949 33.616C258.205 31.9733 258.013 30.7253 257.373 29.872C256.754 29.0187 255.794 28.592 254.493 28.592C253.192 28.592 252.104 29.0187 251.229 29.872C250.354 30.7253 249.789 31.9413 249.533 33.52C249.277 35.1413 249.469 36.3893 250.109 37.264C250.749 38.1173 251.72 38.544 253.021 38.544ZM274.029 42L277.613 19.44H281.741L278.157 42H274.029ZM282.802 42L284.722 29.872C284.829 29.2107 284.914 28.5387 284.978 27.856C285.042 27.1733 285.085 26.5013 285.106 25.84H288.978L288.786 29.04L288.37 29.072C289.01 27.8987 289.864 27.0133 290.93 26.416C292.018 25.8187 293.234 25.52 294.578 25.52C296.541 25.52 297.917 26.096 298.706 27.248C299.496 28.3787 299.709 30.0853 299.346 32.368L297.842 42H293.842L295.346 32.368C295.56 31.0453 295.442 30.096 294.994 29.52C294.568 28.944 293.853 28.656 292.85 28.656C291.613 28.656 290.589 29.04 289.778 29.808C288.968 30.5547 288.466 31.5573 288.274 32.816L286.802 42H282.802ZM319.281 42.32C317.531 42.32 315.921 42.1173 314.449 41.712C312.998 41.2853 311.793 40.7413 310.833 40.08L312.273 36.848C313.275 37.4453 314.374 37.936 315.569 38.32C316.763 38.6827 318.107 38.864 319.601 38.864C321.265 38.864 322.513 38.5867 323.345 38.032C324.177 37.4773 324.657 36.7627 324.785 35.888C324.913 35.0773 324.763 34.4267 324.337 33.936C323.91 33.4453 323.089 33.1147 321.873 32.944L318.545 32.4C316.539 32.08 315.057 31.3547 314.097 30.224C313.158 29.072 312.827 27.6 313.105 25.808C313.318 24.4427 313.851 23.2693 314.705 22.288C315.558 21.2853 316.678 20.5067 318.065 19.952C319.473 19.3973 321.083 19.12 322.897 19.12C324.411 19.12 325.809 19.3227 327.089 19.728C328.369 20.112 329.403 20.6453 330.193 21.328L328.753 24.496C327.963 23.8987 327.046 23.4293 326.001 23.088C324.977 22.7467 323.803 22.576 322.481 22.576C320.945 22.576 319.718 22.864 318.801 23.44C317.883 23.9947 317.339 24.7733 317.169 25.776C317.019 26.608 317.169 27.3013 317.617 27.856C318.065 28.3893 318.907 28.752 320.145 28.944L323.473 29.456C325.521 29.776 327.003 30.48 327.921 31.568C328.838 32.656 329.158 34.096 328.881 35.888C328.689 37.1253 328.177 38.2347 327.345 39.216C326.513 40.176 325.414 40.9333 324.049 41.488C322.705 42.0427 321.115 42.32 319.281 42.32ZM330.402 48.912L333.41 29.872C333.516 29.2107 333.602 28.5387 333.666 27.856C333.73 27.1733 333.772 26.5013 333.794 25.84H337.666L337.474 29.232H336.994C337.527 28.1013 338.295 27.2053 339.298 26.544C340.322 25.8613 341.548 25.52 342.978 25.52C344.471 25.52 345.719 25.8827 346.722 26.608C347.746 27.3333 348.471 28.3573 348.898 29.68C349.324 31.0027 349.388 32.5707 349.09 34.384C348.663 36.9867 347.692 38.96 346.178 40.304C344.684 41.648 342.892 42.32 340.802 42.32C339.458 42.32 338.316 41.9893 337.378 41.328C336.439 40.6667 335.874 39.7813 335.682 38.672H336.034L334.402 48.912H330.402ZM340.194 39.248C341.452 39.248 342.508 38.8213 343.362 37.968C344.236 37.0933 344.812 35.792 345.09 34.064C345.388 32.1867 345.218 30.8107 344.578 29.936C343.959 29.04 342.988 28.592 341.666 28.592C340.428 28.592 339.362 29.0293 338.466 29.904C337.591 30.7573 337.015 32.0373 336.738 33.744C336.46 35.6213 336.642 37.008 337.282 37.904C337.922 38.8 338.892 39.248 340.194 39.248ZM351.302 42L353.222 29.968C353.328 29.2853 353.414 28.592 353.478 27.888C353.563 27.184 353.616 26.5013 353.638 25.84H357.51L357.286 30.256H356.582C356.966 29.1893 357.456 28.304 358.054 27.6C358.672 26.896 359.376 26.3733 360.166 26.032C360.955 25.6907 361.787 25.52 362.662 25.52C362.96 25.52 363.238 25.5413 363.494 25.584C363.75 25.6053 363.995 25.6373 364.23 25.68L363.622 29.232C363.28 29.0827 362.96 28.9867 362.662 28.944C362.384 28.9013 362.032 28.88 361.606 28.88C360.752 28.88 359.984 29.0613 359.302 29.424C358.619 29.7867 358.054 30.3093 357.606 30.992C357.158 31.6533 356.859 32.4533 356.71 33.392L355.334 42H351.302ZM363.896 42L366.456 25.84H370.456L367.896 42H363.896ZM366.712 22.8L367.352 18.896H371.8L371.16 22.8H366.712ZM372.24 42L374.16 29.872C374.266 29.2107 374.352 28.5387 374.416 27.856C374.48 27.1733 374.522 26.5013 374.544 25.84H378.416L378.224 29.04L377.808 29.072C378.448 27.8987 379.301 27.0133 380.368 26.416C381.456 25.8187 382.672 25.52 384.016 25.52C385.978 25.52 387.354 26.096 388.144 27.248C388.933 28.3787 389.146 30.0853 388.784 32.368L387.28 42H383.28L384.784 32.368C384.997 31.0453 384.88 30.096 384.432 29.52C384.005 28.944 383.29 28.656 382.288 28.656C381.05 28.656 380.026 29.04 379.216 29.808C378.405 30.5547 377.904 31.5573 377.712 32.816L376.24 42H372.24ZM398.113 49.168C396.641 49.168 395.329 49.008 394.177 48.688C393.025 48.368 392.012 47.8773 391.137 47.216L392.289 44.304C392.844 44.7093 393.42 45.04 394.017 45.296C394.636 45.5733 395.286 45.776 395.969 45.904C396.652 46.032 397.356 46.096 398.081 46.096C399.617 46.096 400.801 45.7227 401.633 44.976C402.465 44.2507 402.988 43.2053 403.201 41.84L403.809 37.968H404.161C403.692 39.056 402.934 39.9307 401.889 40.592C400.844 41.2533 399.628 41.584 398.241 41.584C396.79 41.584 395.542 41.2427 394.497 40.56C393.473 39.8773 392.737 38.896 392.289 37.616C391.862 36.336 391.788 34.8213 392.065 33.072C392.47 30.6187 393.42 28.752 394.913 27.472C396.406 26.1707 398.22 25.52 400.353 25.52C401.718 25.52 402.87 25.8507 403.809 26.512C404.748 27.152 405.302 28.0267 405.473 29.136L405.249 28.944L406.049 25.84H409.921C409.729 26.5013 409.558 27.1733 409.409 27.856C409.26 28.5387 409.132 29.2107 409.025 29.872L407.201 41.36C406.796 43.8987 405.825 45.8293 404.289 47.152C402.774 48.496 400.716 49.168 398.113 49.168ZM399.521 38.544C400.822 38.544 401.91 38.1173 402.785 37.264C403.66 36.3893 404.214 35.1733 404.449 33.616C404.705 31.9733 404.513 30.7253 403.873 29.872C403.254 29.0187 402.294 28.592 400.993 28.592C399.692 28.592 398.604 29.0187 397.729 29.872C396.854 30.7253 396.289 31.9413 396.033 33.52C395.777 35.1413 395.969 36.3893 396.609 37.264C397.249 38.1173 398.22 38.544 399.521 38.544Z" fill="white"/>
<defs>
<linearGradient id="paint0_linear_3140_70599" x1="253.26" y1="-9.95" x2="257.72" y2="68.78" gradientUnits="userSpaceOnUse">
<stop stop-color="#009180"/>
<stop offset="1" stop-color="#03687F"/>
</linearGradient>
</defs>
</svg>
